<?xml version="1.0" encoding="utf-8"?>
<!-- Generator: Adobe Illustrator 16.0.0, SVG Export Plug-In . SVG Version: 6.00 Build 0)  -->
<!DOCTYPE svg PUBLIC "-//W3C//DTD SVG 1.1//EN" "http://www.w3.org/Graphics/SVG/1.1/DTD/svg11.dtd">
<svg version="1.1" id="Layer_1" xmlns="http://www.w3.org/2000/svg" xmlns:xlink="http://www.w3.org/1999/xlink" x="0px" y="0px"
	 width="841.89px" height="595.28px" viewBox="0 0 841.89 595.28" enable-background="new 0 0 841.89 595.28" xml:space="preserve">
<g>
	<g>
		<g>
			<g>
				<rect x="261.545" y="126.847" fill="#0078BF" width="77.616" height="337.919"/>
				<rect x="369.346" y="153.248" fill="#0078BF" width="77.616" height="311.519"/>
				<rect x="477.146" y="177.931" fill="#0078BF" width="77.616" height="286.835"/>
				<rect x="584.946" y="200.424" fill="#0078BF" width="77.616" height="264.342"/>
				<rect x="692.746" y="226.824" fill="#0078BF" width="77.616" height="237.943"/>
			</g>
		</g>
	</g>
	<g>
		<line fill="none" stroke="#000000" stroke-miterlimit="10" x1="246.454" y1="464.767" x2="785.454" y2="464.767"/>
		<g>
			<g>
				<line fill="none" stroke="#000000" stroke-miterlimit="10" x1="246.454" y1="464.767" x2="246.454" y2="454.866"/>
				<line fill="none" stroke="#000000" stroke-miterlimit="10" x1="354.253" y1="464.767" x2="354.253" y2="454.866"/>
				<line fill="none" stroke="#000000" stroke-miterlimit="10" x1="462.054" y1="464.767" x2="462.054" y2="454.866"/>
				<line fill="none" stroke="#000000" stroke-miterlimit="10" x1="569.854" y1="464.767" x2="569.854" y2="454.866"/>
				<line fill="none" stroke="#000000" stroke-miterlimit="10" x1="677.654" y1="464.767" x2="677.654" y2="454.866"/>
				<line fill="none" stroke="#000000" stroke-miterlimit="10" x1="785.454" y1="464.767" x2="785.454" y2="454.866"/>
			</g>
			<g>
			</g>
		</g>
	</g>
	<g>
		<g>
			<text transform="matrix(1 0 0 1 225.978 474.2422)" font-family="'StoneSerifITC-Medium'" font-size="21">0</text>
			<text transform="matrix(1 0 0 1 182.0044 395.041)" font-family="'StoneSerifITC-Medium'" font-size="21">$30m</text>
			<text transform="matrix(1 0 0 1 182.0044 315.8418)" font-family="'StoneSerifITC-Medium'" font-size="21">$60m</text>
			<text transform="matrix(1 0 0 1 182.0044 236.6421)" font-family="'StoneSerifITC-Medium'" font-size="21">$90m</text>
			<text transform="matrix(1 0 0 1 170.6855 157.4419)"><tspan x="0" y="0" font-family="'StoneSerifITC-Medium'" font-size="21">$</tspan><tspan x="12.054" y="0" font-family="'StoneSerifITC-Medium'" font-size="21">1</tspan><tspan x="23.205" y="0" font-family="'StoneSerifITC-Medium'" font-size="21">2</tspan><tspan x="35.426" y="0" font-family="'StoneSerifITC-Medium'" font-size="21">0m</tspan></text>
			<text transform="matrix(1 0 0 1 171.4834 78.2417)"><tspan x="0" y="0" font-family="'StoneSerifITC-Medium'" font-size="21">$</tspan><tspan x="12.054" y="0" font-family="'StoneSerifITC-Medium'" font-size="21" letter-spacing="-1">1</tspan><tspan x="22.575" y="0" font-family="'StoneSerifITC-Medium'" font-size="21">50m</tspan></text>
		</g>
		<line fill="none" stroke="#000000" stroke-miterlimit="10" x1="246.454" y1="464.767" x2="246.454" y2="68.767"/>
		<g>
			<g>
				<line fill="none" stroke="#000000" stroke-miterlimit="10" x1="246.454" y1="464.767" x2="259.929" y2="464.767"/>
				<line fill="none" stroke="#000000" stroke-miterlimit="10" x1="246.454" y1="385.566" x2="259.929" y2="385.566"/>
				<line fill="none" stroke="#000000" stroke-miterlimit="10" x1="246.454" y1="306.366" x2="259.929" y2="306.366"/>
				<line fill="none" stroke="#000000" stroke-miterlimit="10" x1="246.454" y1="227.167" x2="259.929" y2="227.167"/>
				<line fill="none" stroke="#000000" stroke-miterlimit="10" x1="246.454" y1="147.967" x2="259.929" y2="147.967"/>
				<line fill="none" stroke="#000000" stroke-miterlimit="10" x1="246.454" y1="68.767" x2="259.929" y2="68.767"/>
			</g>
			<g>
			</g>
		</g>
	</g>
	<g>
		<g>
		</g>
	</g>
	<g>
		<text transform="matrix(1 0 0 1 690.1523 490.9043)"><tspan x="0" y="0" font-family="'StoneSerifITC-Medium'" font-size="21">2</tspan><tspan x="12.221" y="0" font-family="'StoneSerifITC-Medium'" font-size="21" letter-spacing="-1">0</tspan><tspan x="22.932" y="0" font-family="'StoneSerifITC-Medium'" font-size="21" letter-spacing="-1">1</tspan><tspan x="33.451" y="0" font-family="'StoneSerifITC-Medium'" font-size="21">5-</tspan><tspan x="52.498" y="0" font-family="'StoneSerifITC-Medium'" font-size="21" letter-spacing="-1">1</tspan><tspan x="62.746" y="0" font-family="'StoneSerifITC-Medium'" font-size="21">6</tspan></text>
		<text transform="matrix(1 0 0 1 582.457 490.9043)"><tspan x="0" y="0" font-family="'StoneSerifITC-Medium'" font-size="21">2</tspan><tspan x="12.223" y="0" font-family="'StoneSerifITC-Medium'" font-size="21" letter-spacing="-1">0</tspan><tspan x="22.932" y="0" font-family="'StoneSerifITC-Medium'" font-size="21" letter-spacing="-2">1</tspan><tspan x="32.971" y="0" font-family="'StoneSerifITC-Medium'" font-size="21">4-</tspan><tspan x="52.018" y="0" font-family="'StoneSerifITC-Medium'" font-size="21" letter-spacing="-1">1</tspan><tspan x="62.537" y="0" font-family="'StoneSerifITC-Medium'" font-size="21">5</tspan></text>
		<text transform="matrix(1 0 0 1 474.6582 490.9043)"><tspan x="0" y="0" font-family="'StoneSerifITC-Medium'" font-size="21">2</tspan><tspan x="12.221" y="0" font-family="'StoneSerifITC-Medium'" font-size="21" letter-spacing="-1">0</tspan><tspan x="22.932" y="0" font-family="'StoneSerifITC-Medium'" font-size="21" letter-spacing="-1">1</tspan><tspan x="33.451" y="0" font-family="'StoneSerifITC-Medium'" font-size="21">3-</tspan><tspan x="52.498" y="0" font-family="'StoneSerifITC-Medium'" font-size="21" letter-spacing="-2">1</tspan><tspan x="62.537" y="0" font-family="'StoneSerifITC-Medium'" font-size="21">4</tspan></text>
		<text transform="matrix(1 0 0 1 366.3008 490.9043)"><tspan x="0" y="0" font-family="'StoneSerifITC-Medium'" font-size="21">2</tspan><tspan x="12.222" y="0" font-family="'StoneSerifITC-Medium'" font-size="21" letter-spacing="-1">0</tspan><tspan x="22.932" y="0" font-family="'StoneSerifITC-Medium'" font-size="21">1</tspan><tspan x="34.082" y="0" font-family="'StoneSerifITC-Medium'" font-size="21">2-</tspan><tspan x="53.129" y="0" font-family="'StoneSerifITC-Medium'" font-size="21" letter-spacing="-1">1</tspan><tspan x="63.65" y="0" font-family="'StoneSerifITC-Medium'" font-size="21">3</tspan></text>
		<text transform="matrix(1 0 0 1 259.1938 490.9043)"><tspan x="0" y="0" font-family="'StoneSerifITC-Medium'" font-size="21">2</tspan><tspan x="12.222" y="0" font-family="'StoneSerifITC-Medium'" font-size="21" letter-spacing="-1">0</tspan><tspan x="22.932" y="0" font-family="'StoneSerifITC-Medium'" font-size="21" letter-spacing="-2">1</tspan><tspan x="32.066" y="0" font-family="'StoneSerifITC-Medium'" font-size="21">1-</tspan><tspan x="51.113" y="0" font-family="'StoneSerifITC-Medium'" font-size="21">1</tspan><tspan x="62.263" y="0" font-family="'StoneSerifITC-Medium'" font-size="21">2</tspan></text>
	</g>
</g>
<g>
</g>
<g>
</g>
<g>
</g>
<g>
</g>
<g>
</g>
<g>
</g>
</svg>
