<?xml version="1.0" encoding="utf-8"?>
<!-- Generator: Adobe Illustrator 16.0.0, SVG Export Plug-In . SVG Version: 6.00 Build 0)  -->
<!DOCTYPE svg PUBLIC "-//W3C//DTD SVG 1.1//EN" "http://www.w3.org/Graphics/SVG/1.1/DTD/svg11.dtd">
<svg version="1.1" id="Layer_1" xmlns="http://www.w3.org/2000/svg" xmlns:xlink="http://www.w3.org/1999/xlink" x="0px" y="0px"
	 width="841.89px" height="595.28px" viewBox="0 0 841.89 595.28" enable-background="new 0 0 841.89 595.28" xml:space="preserve">
<g>
	<g>
		<g>
			<g>
				<rect x="209.05" y="133.518" fill="#AF3E18" width="77.616" height="317.75"/>
				<rect x="315.849" y="150.545" fill="#AF3E18" width="77.616" height="300.723"/>
				<rect x="422.649" y="160.683" fill="#AF3E18" width="77.616" height="290.585"/>
				<rect x="530.449" y="170.504" fill="#AF3E18" width="77.616" height="280.764"/>
				<rect x="640.249" y="184.523" fill="#AF3E18" width="77.616" height="266.746"/>
			</g>
		</g>
	</g>
	<g>
		<line fill="none" stroke="#000000" stroke-miterlimit="10" x1="193.957" y1="451.269" x2="732.957" y2="451.269"/>
		<g>
			<g>
				<line fill="none" stroke="#000000" stroke-miterlimit="10" x1="193.957" y1="451.269" x2="193.957" y2="441.368"/>
				<line fill="none" stroke="#000000" stroke-miterlimit="10" x1="301.756" y1="451.269" x2="301.756" y2="441.368"/>
				<line fill="none" stroke="#000000" stroke-miterlimit="10" x1="409.556" y1="451.269" x2="409.556" y2="441.368"/>
				<line fill="none" stroke="#000000" stroke-miterlimit="10" x1="517.357" y1="451.269" x2="517.357" y2="441.368"/>
				<line fill="none" stroke="#000000" stroke-miterlimit="10" x1="625.157" y1="451.269" x2="625.157" y2="441.368"/>
				<line fill="none" stroke="#000000" stroke-miterlimit="10" x1="732.957" y1="451.269" x2="732.957" y2="441.368"/>
			</g>
			<g>
			</g>
		</g>
	</g>
	<g>
		<g>
			<text transform="matrix(1 0 0 1 173.481 460.7422)" font-family="'StoneSerifITC-Medium'" font-size="21">0</text>
			<text transform="matrix(1 0 0 1 131.7759 381.543)"><tspan x="0" y="0" font-family="'StoneSerifITC-Medium'" font-size="21">1</tspan><tspan x="11.151" y="0" font-family="'StoneSerifITC-Medium'" font-size="21">,</tspan><tspan x="17.178" y="0" font-family="'StoneSerifITC-Medium'" font-size="21">00</tspan><tspan x="41.705" y="0" font-family="'StoneSerifITC-Medium'" font-size="21">0</tspan></text>
			<text transform="matrix(1 0 0 1 130.873 302.3418)"><tspan x="0" y="0" font-family="'StoneSerifITC-Medium'" font-size="21">2,</tspan><tspan x="18.081" y="0" font-family="'StoneSerifITC-Medium'" font-size="21">00</tspan><tspan x="42.608" y="0" font-family="'StoneSerifITC-Medium'" font-size="21">0</tspan></text>
			<text transform="matrix(1 0 0 1 130.873 223.1431)"><tspan x="0" y="0" font-family="'StoneSerifITC-Medium'" font-size="21">3,</tspan><tspan x="18.081" y="0" font-family="'StoneSerifITC-Medium'" font-size="21">00</tspan><tspan x="42.608" y="0" font-family="'StoneSerifITC-Medium'" font-size="21">0</tspan></text>
			<text transform="matrix(1 0 0 1 130.873 143.9429)"><tspan x="0" y="0" font-family="'StoneSerifITC-Medium'" font-size="21">4,</tspan><tspan x="18.081" y="0" font-family="'StoneSerifITC-Medium'" font-size="21">00</tspan><tspan x="42.608" y="0" font-family="'StoneSerifITC-Medium'" font-size="21">0</tspan></text>
			<text transform="matrix(1 0 0 1 130.873 64.7427)"><tspan x="0" y="0" font-family="'StoneSerifITC-Medium'" font-size="21">5,</tspan><tspan x="18.081" y="0" font-family="'StoneSerifITC-Medium'" font-size="21">00</tspan><tspan x="42.608" y="0" font-family="'StoneSerifITC-Medium'" font-size="21">0</tspan></text>
		</g>
		<line fill="none" stroke="#000000" stroke-miterlimit="10" x1="193.957" y1="451.269" x2="193.957" y2="55.268"/>
		<g>
			<g>
				<line fill="none" stroke="#000000" stroke-miterlimit="10" x1="193.957" y1="451.269" x2="207.432" y2="451.269"/>
				<line fill="none" stroke="#000000" stroke-miterlimit="10" x1="193.957" y1="372.068" x2="207.432" y2="372.068"/>
				<line fill="none" stroke="#000000" stroke-miterlimit="10" x1="193.957" y1="292.868" x2="207.432" y2="292.868"/>
				<line fill="none" stroke="#000000" stroke-miterlimit="10" x1="193.957" y1="213.668" x2="207.432" y2="213.668"/>
				<line fill="none" stroke="#000000" stroke-miterlimit="10" x1="193.957" y1="134.468" x2="207.432" y2="134.468"/>
				<line fill="none" stroke="#000000" stroke-miterlimit="10" x1="193.957" y1="55.268" x2="207.432" y2="55.268"/>
			</g>
			<g>
			</g>
		</g>
	</g>
	<g>
		<g>
		</g>
	</g>
	<g>
		<text transform="matrix(1 0 0 1 637.6543 477.4043)"><tspan x="0" y="0" font-family="'StoneSerifITC-Medium'" font-size="21">2</tspan><tspan x="12.223" y="0" font-family="'StoneSerifITC-Medium'" font-size="21" letter-spacing="-1">0</tspan><tspan x="22.932" y="0" font-family="'StoneSerifITC-Medium'" font-size="21" letter-spacing="-1">1</tspan><tspan x="33.453" y="0" font-family="'StoneSerifITC-Medium'" font-size="21">5-</tspan><tspan x="52.5" y="0" font-family="'StoneSerifITC-Medium'" font-size="21" letter-spacing="-1">1</tspan><tspan x="62.748" y="0" font-family="'StoneSerifITC-Medium'" font-size="21">6</tspan></text>
		<text transform="matrix(1 0 0 1 529.9609 477.4043)"><tspan x="0" y="0" font-family="'StoneSerifITC-Medium'" font-size="21">2</tspan><tspan x="12.221" y="0" font-family="'StoneSerifITC-Medium'" font-size="21" letter-spacing="-1">0</tspan><tspan x="22.932" y="0" font-family="'StoneSerifITC-Medium'" font-size="21" letter-spacing="-2">1</tspan><tspan x="32.969" y="0" font-family="'StoneSerifITC-Medium'" font-size="21">4-</tspan><tspan x="52.016" y="0" font-family="'StoneSerifITC-Medium'" font-size="21" letter-spacing="-1">1</tspan><tspan x="62.537" y="0" font-family="'StoneSerifITC-Medium'" font-size="21">5</tspan></text>
		<text transform="matrix(1 0 0 1 422.1602 477.4043)"><tspan x="0" y="0" font-family="'StoneSerifITC-Medium'" font-size="21">2</tspan><tspan x="12.223" y="0" font-family="'StoneSerifITC-Medium'" font-size="21" letter-spacing="-1">0</tspan><tspan x="22.932" y="0" font-family="'StoneSerifITC-Medium'" font-size="21" letter-spacing="-1">1</tspan><tspan x="33.453" y="0" font-family="'StoneSerifITC-Medium'" font-size="21">3-</tspan><tspan x="52.5" y="0" font-family="'StoneSerifITC-Medium'" font-size="21" letter-spacing="-2">1</tspan><tspan x="62.537" y="0" font-family="'StoneSerifITC-Medium'" font-size="21">4</tspan></text>
		<text transform="matrix(1 0 0 1 313.8037 477.4043)"><tspan x="0" y="0" font-family="'StoneSerifITC-Medium'" font-size="21">2</tspan><tspan x="12.222" y="0" font-family="'StoneSerifITC-Medium'" font-size="21" letter-spacing="-1">0</tspan><tspan x="22.932" y="0" font-family="'StoneSerifITC-Medium'" font-size="21">1</tspan><tspan x="34.082" y="0" font-family="'StoneSerifITC-Medium'" font-size="21">2-</tspan><tspan x="53.129" y="0" font-family="'StoneSerifITC-Medium'" font-size="21" letter-spacing="-1">1</tspan><tspan x="63.65" y="0" font-family="'StoneSerifITC-Medium'" font-size="21">3</tspan></text>
		<text transform="matrix(1 0 0 1 206.6968 477.4043)"><tspan x="0" y="0" font-family="'StoneSerifITC-Medium'" font-size="21">2</tspan><tspan x="12.222" y="0" font-family="'StoneSerifITC-Medium'" font-size="21" letter-spacing="-1">0</tspan><tspan x="22.932" y="0" font-family="'StoneSerifITC-Medium'" font-size="21" letter-spacing="-2">1</tspan><tspan x="32.066" y="0" font-family="'StoneSerifITC-Medium'" font-size="21">1-</tspan><tspan x="51.113" y="0" font-family="'StoneSerifITC-Medium'" font-size="21">1</tspan><tspan x="62.263" y="0" font-family="'StoneSerifITC-Medium'" font-size="21">2</tspan></text>
	</g>
</g>
<g>
</g>
<g>
</g>
<g>
</g>
<g>
</g>
<g>
</g>
<g>
</g>
</svg>
