<?xml version="1.0" encoding="utf-8"?>
<!-- Generator: Adobe Illustrator 16.0.0, SVG Export Plug-In . SVG Version: 6.00 Build 0)  -->
<!DOCTYPE svg PUBLIC "-//W3C//DTD SVG 1.1//EN" "http://www.w3.org/Graphics/SVG/1.1/DTD/svg11.dtd">
<svg version="1.1" id="Layer_1" xmlns="http://www.w3.org/2000/svg" xmlns:xlink="http://www.w3.org/1999/xlink" x="0px" y="0px"
	 width="841.89px" height="595.28px" viewBox="0 0 841.89 595.28" enable-background="new 0 0 841.89 595.28" xml:space="preserve">
<g>
	<g>
		<g>
			<g>
				<rect x="203.049" y="371.646" fill="#7DB728" width="77.616" height="103.62"/>
				<rect x="310.849" y="327.427" fill="#7DB728" width="77.616" height="147.84"/>
				<rect x="418.649" y="183.547" fill="#7DB728" width="77.616" height="291.719"/>
				<rect x="526.449" y="129.427" fill="#7DB728" width="77.616" height="345.839"/>
				<rect x="634.249" y="85.867" fill="#7DB728" width="77.616" height="389.399"/>
			</g>
		</g>
	</g>
	<g>
		<line fill="none" stroke="#000000" stroke-miterlimit="10" x1="187.957" y1="475.267" x2="726.957" y2="475.267"/>
		<g>
			<g>
				<line fill="none" stroke="#000000" stroke-miterlimit="10" x1="187.957" y1="475.267" x2="187.957" y2="465.366"/>
				<line fill="none" stroke="#000000" stroke-miterlimit="10" x1="295.757" y1="475.267" x2="295.757" y2="465.366"/>
				<line fill="none" stroke="#000000" stroke-miterlimit="10" x1="403.557" y1="475.267" x2="403.557" y2="465.366"/>
				<line fill="none" stroke="#000000" stroke-miterlimit="10" x1="511.357" y1="475.267" x2="511.357" y2="465.366"/>
				<line fill="none" stroke="#000000" stroke-miterlimit="10" x1="619.157" y1="475.267" x2="619.157" y2="465.366"/>
				<line fill="none" stroke="#000000" stroke-miterlimit="10" x1="726.957" y1="475.267" x2="726.957" y2="465.366"/>
			</g>
			<g>
			</g>
		</g>
	</g>
	<g>
		<g>
			<text transform="matrix(1 0 0 1 167.4814 484.7422)" font-family="'StoneSerifITC-Medium'" font-size="21">0</text>
			<text transform="matrix(1 0 0 1 144.2139 418.7422)"><tspan x="0" y="0" font-family="'StoneSerifITC-Medium'" font-size="21" letter-spacing="-1">1</tspan><tspan x="11.004" y="0" font-family="'StoneSerifITC-Medium'" font-size="21">0</tspan><tspan x="23.268" y="0" font-family="'StoneSerifITC-Medium'" font-size="21">0</tspan></text>
			<text transform="matrix(1 0 0 1 142.9961 352.7422)"><tspan x="0" y="0" font-family="'StoneSerifITC-Medium'" font-size="21">2</tspan><tspan x="12.222" y="0" font-family="'StoneSerifITC-Medium'" font-size="21">0</tspan><tspan x="24.485" y="0" font-family="'StoneSerifITC-Medium'" font-size="21">0</tspan></text>
			<text transform="matrix(1 0 0 1 143.1641 286.7417)"><tspan x="0" y="0" font-family="'StoneSerifITC-Medium'" font-size="21">3</tspan><tspan x="12.054" y="0" font-family="'StoneSerifITC-Medium'" font-size="21">0</tspan><tspan x="24.317" y="0" font-family="'StoneSerifITC-Medium'" font-size="21">0</tspan></text>
			<text transform="matrix(1 0 0 1 143.1641 220.7417)"><tspan x="0" y="0" font-family="'StoneSerifITC-Medium'" font-size="21">4</tspan><tspan x="12.054" y="0" font-family="'StoneSerifITC-Medium'" font-size="21">0</tspan><tspan x="24.317" y="0" font-family="'StoneSerifITC-Medium'" font-size="21">0</tspan></text>
			<text transform="matrix(1 0 0 1 143.1641 154.7417)"><tspan x="0" y="0" font-family="'StoneSerifITC-Medium'" font-size="21">5</tspan><tspan x="12.054" y="0" font-family="'StoneSerifITC-Medium'" font-size="21">0</tspan><tspan x="24.317" y="0" font-family="'StoneSerifITC-Medium'" font-size="21">0</tspan></text>
			<text transform="matrix(1 0 0 1 143.1641 88.7417)"><tspan x="0" y="0" font-family="'StoneSerifITC-Medium'" font-size="21">6</tspan><tspan x="12.054" y="0" font-family="'StoneSerifITC-Medium'" font-size="21">0</tspan><tspan x="24.317" y="0" font-family="'StoneSerifITC-Medium'" font-size="21">0</tspan></text>
		</g>
		<line fill="none" stroke="#000000" stroke-miterlimit="10" x1="187.957" y1="475.267" x2="187.957" y2="79.267"/>
		<g>
			<g>
				<line fill="none" stroke="#000000" stroke-miterlimit="10" x1="187.957" y1="475.267" x2="201.432" y2="475.267"/>
				<line fill="none" stroke="#000000" stroke-miterlimit="10" x1="187.957" y1="409.267" x2="201.432" y2="409.267"/>
				<line fill="none" stroke="#000000" stroke-miterlimit="10" x1="187.957" y1="343.267" x2="201.432" y2="343.267"/>
				<line fill="none" stroke="#000000" stroke-miterlimit="10" x1="187.957" y1="277.267" x2="201.432" y2="277.267"/>
				<line fill="none" stroke="#000000" stroke-miterlimit="10" x1="187.957" y1="211.267" x2="201.432" y2="211.267"/>
				<line fill="none" stroke="#000000" stroke-miterlimit="10" x1="187.957" y1="145.267" x2="201.432" y2="145.267"/>
				<line fill="none" stroke="#000000" stroke-miterlimit="10" x1="187.957" y1="79.267" x2="201.432" y2="79.267"/>
			</g>
			<g>
			</g>
		</g>
	</g>
	<g>
		<g>
		</g>
	</g>
	<g>
		<text transform="matrix(1 0 0 1 631.6553 501.4043)"><tspan x="0" y="0" font-family="'StoneSerifITC-Medium'" font-size="21">2</tspan><tspan x="12.222" y="0" font-family="'StoneSerifITC-Medium'" font-size="21" letter-spacing="-1">0</tspan><tspan x="22.932" y="0" font-family="'StoneSerifITC-Medium'" font-size="21" letter-spacing="-1">1</tspan><tspan x="33.452" y="0" font-family="'StoneSerifITC-Medium'" font-size="21">5-</tspan><tspan x="52.499" y="0" font-family="'StoneSerifITC-Medium'" font-size="21" letter-spacing="-1">1</tspan><tspan x="62.747" y="0" font-family="'StoneSerifITC-Medium'" font-size="21">6</tspan></text>
		<text transform="matrix(1 0 0 1 523.9609 501.4043)"><tspan x="0" y="0" font-family="'StoneSerifITC-Medium'" font-size="21">2</tspan><tspan x="12.222" y="0" font-family="'StoneSerifITC-Medium'" font-size="21" letter-spacing="-1">0</tspan><tspan x="22.932" y="0" font-family="'StoneSerifITC-Medium'" font-size="21" letter-spacing="-2">1</tspan><tspan x="32.97" y="0" font-family="'StoneSerifITC-Medium'" font-size="21">4-</tspan><tspan x="52.017" y="0" font-family="'StoneSerifITC-Medium'" font-size="21" letter-spacing="-1">1</tspan><tspan x="62.537" y="0" font-family="'StoneSerifITC-Medium'" font-size="21">5</tspan></text>
		<text transform="matrix(1 0 0 1 416.1611 501.4043)"><tspan x="0" y="0" font-family="'StoneSerifITC-Medium'" font-size="21">2</tspan><tspan x="12.222" y="0" font-family="'StoneSerifITC-Medium'" font-size="21" letter-spacing="-1">0</tspan><tspan x="22.932" y="0" font-family="'StoneSerifITC-Medium'" font-size="21" letter-spacing="-1">1</tspan><tspan x="33.452" y="0" font-family="'StoneSerifITC-Medium'" font-size="21">3-</tspan><tspan x="52.499" y="0" font-family="'StoneSerifITC-Medium'" font-size="21" letter-spacing="-2">1</tspan><tspan x="62.537" y="0" font-family="'StoneSerifITC-Medium'" font-size="21">4</tspan></text>
		<text transform="matrix(1 0 0 1 307.8042 501.4043)"><tspan x="0" y="0" font-family="'StoneSerifITC-Medium'" font-size="21">2</tspan><tspan x="12.222" y="0" font-family="'StoneSerifITC-Medium'" font-size="21" letter-spacing="-1">0</tspan><tspan x="22.932" y="0" font-family="'StoneSerifITC-Medium'" font-size="21">1</tspan><tspan x="34.082" y="0" font-family="'StoneSerifITC-Medium'" font-size="21">2-</tspan><tspan x="53.129" y="0" font-family="'StoneSerifITC-Medium'" font-size="21" letter-spacing="-1">1</tspan><tspan x="63.65" y="0" font-family="'StoneSerifITC-Medium'" font-size="21">3</tspan></text>
		<text transform="matrix(1 0 0 1 200.6973 501.4043)"><tspan x="0" y="0" font-family="'StoneSerifITC-Medium'" font-size="21">2</tspan><tspan x="12.222" y="0" font-family="'StoneSerifITC-Medium'" font-size="21" letter-spacing="-1">0</tspan><tspan x="22.932" y="0" font-family="'StoneSerifITC-Medium'" font-size="21" letter-spacing="-2">1</tspan><tspan x="32.066" y="0" font-family="'StoneSerifITC-Medium'" font-size="21">1-</tspan><tspan x="51.113" y="0" font-family="'StoneSerifITC-Medium'" font-size="21">1</tspan><tspan x="62.263" y="0" font-family="'StoneSerifITC-Medium'" font-size="21">2</tspan></text>
	</g>
</g>
<g>
</g>
<g>
</g>
<g>
</g>
<g>
</g>
<g>
</g>
<g>
</g>
</svg>
