<?xml version="1.0" encoding="utf-8"?>
<!-- Generator: Adobe Illustrator 16.0.0, SVG Export Plug-In . SVG Version: 6.00 Build 0)  -->
<!DOCTYPE svg PUBLIC "-//W3C//DTD SVG 1.1//EN" "http://www.w3.org/Graphics/SVG/1.1/DTD/svg11.dtd">
<svg version="1.1" id="Layer_1" xmlns="http://www.w3.org/2000/svg" xmlns:xlink="http://www.w3.org/1999/xlink" x="0px" y="0px"
	 width="841.89px" height="595.28px" viewBox="0 0 841.89 595.28" enable-background="new 0 0 841.89 595.28" xml:space="preserve">
<g>
	<g>
		<g>
			<g>
				<rect x="263.94" y="126.475" fill="#0078BF" width="77.616" height="347.292"/>
				<rect x="371.74" y="127.663" fill="#0078BF" width="77.616" height="346.104"/>
				<rect x="479.541" y="115.089" fill="#0078BF" width="77.616" height="358.678"/>
				<rect x="587.341" y="87.568" fill="#0078BF" width="77.616" height="386.199"/>
				<rect x="695.141" y="78.757" fill="#0078BF" width="77.616" height="395.009"/>
			</g>
		</g>
	</g>
	<g>
		<line fill="none" stroke="#000000" stroke-miterlimit="10" x1="248.848" y1="473.767" x2="787.849" y2="473.767"/>
		<g>
			<g>
				<line fill="none" stroke="#000000" stroke-miterlimit="10" x1="248.848" y1="473.767" x2="248.848" y2="463.866"/>
				<line fill="none" stroke="#000000" stroke-miterlimit="10" x1="356.648" y1="473.767" x2="356.648" y2="463.866"/>
				<line fill="none" stroke="#000000" stroke-miterlimit="10" x1="464.448" y1="473.767" x2="464.448" y2="463.866"/>
				<line fill="none" stroke="#000000" stroke-miterlimit="10" x1="572.249" y1="473.767" x2="572.249" y2="463.866"/>
				<line fill="none" stroke="#000000" stroke-miterlimit="10" x1="680.049" y1="473.767" x2="680.049" y2="463.866"/>
				<line fill="none" stroke="#000000" stroke-miterlimit="10" x1="787.849" y1="473.767" x2="787.849" y2="463.866"/>
			</g>
			<g>
			</g>
		</g>
	</g>
	<g>
		<g>
			<text transform="matrix(1 0 0 1 228.3726 483.2422)" font-family="'StoneSerifITC-Medium'" font-size="21">0</text>
			<text transform="matrix(1 0 0 1 172.1353 433.7422)"><tspan x="0" y="0" font-family="'StoneSerifITC-Medium'" font-size="21">$5</tspan><tspan x="24.107" y="0" font-family="'StoneSerifITC-Medium'" font-size="21">0</tspan><tspan x="36.371" y="0" font-family="'StoneSerifITC-Medium'" font-size="21">0m</tspan></text>
			<text transform="matrix(1 0 0 1 154.748 384.2422)"><tspan x="0" y="0" font-family="'StoneSerifITC-Medium'" font-size="21">$</tspan><tspan x="12.054" y="0" font-family="'StoneSerifITC-Medium'" font-size="21">1</tspan><tspan x="23.205" y="0" font-family="'StoneSerifITC-Medium'" font-size="21">,</tspan><tspan x="29.231" y="0" font-family="'StoneSerifITC-Medium'" font-size="21">00</tspan><tspan x="53.758" y="0" font-family="'StoneSerifITC-Medium'" font-size="21">0m</tspan></text>
			<text transform="matrix(1 0 0 1 154.9575 334.7422)"><tspan x="0" y="0" font-family="'StoneSerifITC-Medium'" font-size="21">$</tspan><tspan x="12.054" y="0" font-family="'StoneSerifITC-Medium'" font-size="21">1</tspan><tspan x="23.205" y="0" font-family="'StoneSerifITC-Medium'" font-size="21">,5</tspan><tspan x="41.285" y="0" font-family="'StoneSerifITC-Medium'" font-size="21">0</tspan><tspan x="53.549" y="0" font-family="'StoneSerifITC-Medium'" font-size="21">0m</tspan></text>
			<text transform="matrix(1 0 0 1 153.8447 285.2417)"><tspan x="0" y="0" font-family="'StoneSerifITC-Medium'" font-size="21">$2,</tspan><tspan x="30.134" y="0" font-family="'StoneSerifITC-Medium'" font-size="21">00</tspan><tspan x="54.662" y="0" font-family="'StoneSerifITC-Medium'" font-size="21">0m</tspan></text>
			<text transform="matrix(1 0 0 1 154.0547 235.7417)"><tspan x="0" y="0" font-family="'StoneSerifITC-Medium'" font-size="21">$2,5</tspan><tspan x="42.188" y="0" font-family="'StoneSerifITC-Medium'" font-size="21">0</tspan><tspan x="54.452" y="0" font-family="'StoneSerifITC-Medium'" font-size="21">0m</tspan></text>
			<text transform="matrix(1 0 0 1 153.8447 186.2417)"><tspan x="0" y="0" font-family="'StoneSerifITC-Medium'" font-size="21">$3,</tspan><tspan x="30.134" y="0" font-family="'StoneSerifITC-Medium'" font-size="21">00</tspan><tspan x="54.662" y="0" font-family="'StoneSerifITC-Medium'" font-size="21">0m</tspan></text>
			<text transform="matrix(1 0 0 1 154.0547 136.7417)"><tspan x="0" y="0" font-family="'StoneSerifITC-Medium'" font-size="21">$3,5</tspan><tspan x="42.188" y="0" font-family="'StoneSerifITC-Medium'" font-size="21">0</tspan><tspan x="54.452" y="0" font-family="'StoneSerifITC-Medium'" font-size="21">0m</tspan></text>
			<text transform="matrix(1 0 0 1 153.8447 87.2417)"><tspan x="0" y="0" font-family="'StoneSerifITC-Medium'" font-size="21">$4,</tspan><tspan x="30.134" y="0" font-family="'StoneSerifITC-Medium'" font-size="21">00</tspan><tspan x="54.662" y="0" font-family="'StoneSerifITC-Medium'" font-size="21">0m</tspan></text>
		</g>
		<line fill="none" stroke="#000000" stroke-miterlimit="10" x1="248.848" y1="473.767" x2="248.848" y2="77.767"/>
		<g>
			<g>
				<line fill="none" stroke="#000000" stroke-miterlimit="10" x1="248.848" y1="473.767" x2="262.323" y2="473.767"/>
				<line fill="none" stroke="#000000" stroke-miterlimit="10" x1="248.848" y1="424.267" x2="262.323" y2="424.267"/>
				<line fill="none" stroke="#000000" stroke-miterlimit="10" x1="248.848" y1="374.767" x2="262.323" y2="374.767"/>
				<line fill="none" stroke="#000000" stroke-miterlimit="10" x1="248.848" y1="325.267" x2="262.323" y2="325.267"/>
				<line fill="none" stroke="#000000" stroke-miterlimit="10" x1="248.848" y1="275.767" x2="262.323" y2="275.767"/>
				<line fill="none" stroke="#000000" stroke-miterlimit="10" x1="248.848" y1="226.267" x2="262.323" y2="226.267"/>
				<line fill="none" stroke="#000000" stroke-miterlimit="10" x1="248.848" y1="176.767" x2="262.323" y2="176.767"/>
				<line fill="none" stroke="#000000" stroke-miterlimit="10" x1="248.848" y1="127.267" x2="262.323" y2="127.267"/>
				<line fill="none" stroke="#000000" stroke-miterlimit="10" x1="248.848" y1="77.767" x2="262.323" y2="77.767"/>
			</g>
			<g>
			</g>
		</g>
	</g>
	<g>
		<g>
		</g>
	</g>
	<g>
		<text transform="matrix(1 0 0 1 698.5469 499.9043)"><tspan x="0" y="0" font-family="'StoneSerifITC-Medium'" font-size="21">2</tspan><tspan x="12.221" y="0" font-family="'StoneSerifITC-Medium'" font-size="21" letter-spacing="-1">0</tspan><tspan x="22.932" y="0" font-family="'StoneSerifITC-Medium'" font-size="21" letter-spacing="-1">1</tspan><tspan x="33.451" y="0" font-family="'StoneSerifITC-Medium'" font-size="21">5-</tspan><tspan x="52.498" y="0" font-family="'StoneSerifITC-Medium'" font-size="21" letter-spacing="-1">1</tspan><tspan x="62.746" y="0" font-family="'StoneSerifITC-Medium'" font-size="21">6</tspan></text>
		<text transform="matrix(1 0 0 1 590.8516 499.9043)"><tspan x="0" y="0" font-family="'StoneSerifITC-Medium'" font-size="21">2</tspan><tspan x="12.223" y="0" font-family="'StoneSerifITC-Medium'" font-size="21" letter-spacing="-1">0</tspan><tspan x="22.932" y="0" font-family="'StoneSerifITC-Medium'" font-size="21" letter-spacing="-2">1</tspan><tspan x="32.971" y="0" font-family="'StoneSerifITC-Medium'" font-size="21">4-</tspan><tspan x="52.018" y="0" font-family="'StoneSerifITC-Medium'" font-size="21" letter-spacing="-1">1</tspan><tspan x="62.537" y="0" font-family="'StoneSerifITC-Medium'" font-size="21">5</tspan></text>
		<text transform="matrix(1 0 0 1 483.0527 499.9043)"><tspan x="0" y="0" font-family="'StoneSerifITC-Medium'" font-size="21">2</tspan><tspan x="12.221" y="0" font-family="'StoneSerifITC-Medium'" font-size="21" letter-spacing="-1">0</tspan><tspan x="22.932" y="0" font-family="'StoneSerifITC-Medium'" font-size="21" letter-spacing="-1">1</tspan><tspan x="33.451" y="0" font-family="'StoneSerifITC-Medium'" font-size="21">3-</tspan><tspan x="52.498" y="0" font-family="'StoneSerifITC-Medium'" font-size="21" letter-spacing="-2">1</tspan><tspan x="62.537" y="0" font-family="'StoneSerifITC-Medium'" font-size="21">4</tspan></text>
		<text transform="matrix(1 0 0 1 374.6953 499.9043)"><tspan x="0" y="0" font-family="'StoneSerifITC-Medium'" font-size="21">2</tspan><tspan x="12.222" y="0" font-family="'StoneSerifITC-Medium'" font-size="21" letter-spacing="-1">0</tspan><tspan x="22.932" y="0" font-family="'StoneSerifITC-Medium'" font-size="21">1</tspan><tspan x="34.082" y="0" font-family="'StoneSerifITC-Medium'" font-size="21">2-</tspan><tspan x="53.129" y="0" font-family="'StoneSerifITC-Medium'" font-size="21" letter-spacing="-1">1</tspan><tspan x="63.65" y="0" font-family="'StoneSerifITC-Medium'" font-size="21">3</tspan></text>
		<text transform="matrix(1 0 0 1 267.5884 499.9043)"><tspan x="0" y="0" font-family="'StoneSerifITC-Medium'" font-size="21">2</tspan><tspan x="12.222" y="0" font-family="'StoneSerifITC-Medium'" font-size="21" letter-spacing="-1">0</tspan><tspan x="22.932" y="0" font-family="'StoneSerifITC-Medium'" font-size="21" letter-spacing="-2">1</tspan><tspan x="32.066" y="0" font-family="'StoneSerifITC-Medium'" font-size="21">1-</tspan><tspan x="51.113" y="0" font-family="'StoneSerifITC-Medium'" font-size="21">1</tspan><tspan x="62.263" y="0" font-family="'StoneSerifITC-Medium'" font-size="21">2</tspan></text>
	</g>
</g>
<g>
</g>
<g>
</g>
<g>
</g>
<g>
</g>
<g>
</g>
<g>
</g>
</svg>
