<?xml version="1.0" encoding="utf-8"?>
<!-- Generator: Adobe Illustrator 16.0.0, SVG Export Plug-In . SVG Version: 6.00 Build 0)  -->
<!DOCTYPE svg PUBLIC "-//W3C//DTD SVG 1.1//EN" "http://www.w3.org/Graphics/SVG/1.1/DTD/svg11.dtd">
<svg version="1.1" id="Layer_1" xmlns="http://www.w3.org/2000/svg" xmlns:xlink="http://www.w3.org/1999/xlink" x="0px" y="0px"
	 width="841.89px" height="595.28px" viewBox="0 0 841.89 595.28" enable-background="new 0 0 841.89 595.28" xml:space="preserve">
<g>
	<g>
		<g>
			<g>
				<rect x="224.048" y="107.407" fill="#0078BF" width="77.616" height="360.359"/>
				<rect x="331.848" y="135.127" fill="#0078BF" width="77.616" height="332.64"/>
				<rect x="439.648" y="143.047" fill="#0078BF" width="77.616" height="324.719"/>
				<rect x="547.448" y="163.497" fill="#0078BF" width="77.616" height="304.27"/>
				<rect x="655.248" y="186.607" fill="#0078BF" width="77.616" height="281.16"/>
			</g>
		</g>
	</g>
	<g>
		<line fill="none" stroke="#000000" stroke-miterlimit="10" x1="208.956" y1="467.767" x2="747.956" y2="467.767"/>
		<g>
			<g>
				<line fill="none" stroke="#000000" stroke-miterlimit="10" x1="208.956" y1="467.767" x2="208.956" y2="457.866"/>
				<line fill="none" stroke="#000000" stroke-miterlimit="10" x1="316.756" y1="467.767" x2="316.756" y2="457.866"/>
				<line fill="none" stroke="#000000" stroke-miterlimit="10" x1="424.556" y1="467.767" x2="424.556" y2="457.866"/>
				<line fill="none" stroke="#000000" stroke-miterlimit="10" x1="532.356" y1="467.767" x2="532.356" y2="457.866"/>
				<line fill="none" stroke="#000000" stroke-miterlimit="10" x1="640.156" y1="467.767" x2="640.156" y2="457.866"/>
				<line fill="none" stroke="#000000" stroke-miterlimit="10" x1="747.956" y1="467.767" x2="747.956" y2="457.866"/>
			</g>
			<g>
			</g>
		</g>
	</g>
	<g>
		<g>
			<text transform="matrix(1 0 0 1 188.4805 477.2422)" font-family="'StoneSerifITC-Medium'" font-size="21">0</text>
			<text transform="matrix(1 0 0 1 144.3389 398.041)"><tspan x="0" y="0" font-family="'StoneSerifITC-Medium'" font-size="21">$</tspan><tspan x="12.054" y="0" font-family="'StoneSerifITC-Medium'" font-size="21">2</tspan><tspan x="24.275" y="0" font-family="'StoneSerifITC-Medium'" font-size="21">0m</tspan></text>
			<text transform="matrix(1 0 0 1 144.5068 318.8418)" font-family="'StoneSerifITC-Medium'" font-size="21">$40m</text>
			<text transform="matrix(1 0 0 1 144.5068 239.6421)" font-family="'StoneSerifITC-Medium'" font-size="21">$60m</text>
			<text transform="matrix(1 0 0 1 144.5068 160.4419)" font-family="'StoneSerifITC-Medium'" font-size="21">$80m</text>
			<text transform="matrix(1 0 0 1 133.293 81.2417)"><tspan x="0" y="0" font-family="'StoneSerifITC-Medium'" font-size="21">$</tspan><tspan x="12.054" y="0" font-family="'StoneSerifITC-Medium'" font-size="21" letter-spacing="-1">1</tspan><tspan x="23.058" y="0" font-family="'StoneSerifITC-Medium'" font-size="21">0</tspan><tspan x="35.321" y="0" font-family="'StoneSerifITC-Medium'" font-size="21">0m</tspan></text>
		</g>
		<line fill="none" stroke="#000000" stroke-miterlimit="10" x1="208.956" y1="467.767" x2="208.956" y2="71.767"/>
		<g>
			<g>
				<line fill="none" stroke="#000000" stroke-miterlimit="10" x1="208.956" y1="467.767" x2="222.431" y2="467.767"/>
				<line fill="none" stroke="#000000" stroke-miterlimit="10" x1="208.956" y1="388.566" x2="222.431" y2="388.566"/>
				<line fill="none" stroke="#000000" stroke-miterlimit="10" x1="208.956" y1="309.366" x2="222.431" y2="309.366"/>
				<line fill="none" stroke="#000000" stroke-miterlimit="10" x1="208.956" y1="230.167" x2="222.431" y2="230.167"/>
				<line fill="none" stroke="#000000" stroke-miterlimit="10" x1="208.956" y1="150.967" x2="222.431" y2="150.967"/>
				<line fill="none" stroke="#000000" stroke-miterlimit="10" x1="208.956" y1="71.767" x2="222.431" y2="71.767"/>
			</g>
			<g>
			</g>
		</g>
	</g>
	<g>
		<g>
		</g>
	</g>
	<g>
		<text transform="matrix(1 0 0 1 652.6543 493.9043)"><tspan x="0" y="0" font-family="'StoneSerifITC-Medium'" font-size="21">2</tspan><tspan x="12.222" y="0" font-family="'StoneSerifITC-Medium'" font-size="21" letter-spacing="-1">0</tspan><tspan x="22.932" y="0" font-family="'StoneSerifITC-Medium'" font-size="21" letter-spacing="-1">1</tspan><tspan x="33.452" y="0" font-family="'StoneSerifITC-Medium'" font-size="21">5-</tspan><tspan x="52.499" y="0" font-family="'StoneSerifITC-Medium'" font-size="21" letter-spacing="-1">1</tspan><tspan x="62.747" y="0" font-family="'StoneSerifITC-Medium'" font-size="21">6</tspan></text>
		<text transform="matrix(1 0 0 1 544.96 493.9043)"><tspan x="0" y="0" font-family="'StoneSerifITC-Medium'" font-size="21">2</tspan><tspan x="12.222" y="0" font-family="'StoneSerifITC-Medium'" font-size="21" letter-spacing="-1">0</tspan><tspan x="22.932" y="0" font-family="'StoneSerifITC-Medium'" font-size="21" letter-spacing="-2">1</tspan><tspan x="32.97" y="0" font-family="'StoneSerifITC-Medium'" font-size="21">4-</tspan><tspan x="52.017" y="0" font-family="'StoneSerifITC-Medium'" font-size="21" letter-spacing="-1">1</tspan><tspan x="62.537" y="0" font-family="'StoneSerifITC-Medium'" font-size="21">5</tspan></text>
		<text transform="matrix(1 0 0 1 437.1602 493.9043)"><tspan x="0" y="0" font-family="'StoneSerifITC-Medium'" font-size="21">2</tspan><tspan x="12.222" y="0" font-family="'StoneSerifITC-Medium'" font-size="21" letter-spacing="-1">0</tspan><tspan x="22.932" y="0" font-family="'StoneSerifITC-Medium'" font-size="21" letter-spacing="-1">1</tspan><tspan x="33.452" y="0" font-family="'StoneSerifITC-Medium'" font-size="21">3-</tspan><tspan x="52.499" y="0" font-family="'StoneSerifITC-Medium'" font-size="21" letter-spacing="-2">1</tspan><tspan x="62.537" y="0" font-family="'StoneSerifITC-Medium'" font-size="21">4</tspan></text>
		<text transform="matrix(1 0 0 1 328.8032 493.9043)"><tspan x="0" y="0" font-family="'StoneSerifITC-Medium'" font-size="21">2</tspan><tspan x="12.222" y="0" font-family="'StoneSerifITC-Medium'" font-size="21" letter-spacing="-1">0</tspan><tspan x="22.932" y="0" font-family="'StoneSerifITC-Medium'" font-size="21">1</tspan><tspan x="34.082" y="0" font-family="'StoneSerifITC-Medium'" font-size="21">2-</tspan><tspan x="53.129" y="0" font-family="'StoneSerifITC-Medium'" font-size="21" letter-spacing="-1">1</tspan><tspan x="63.65" y="0" font-family="'StoneSerifITC-Medium'" font-size="21">3</tspan></text>
		<text transform="matrix(1 0 0 1 221.6963 493.9043)"><tspan x="0" y="0" font-family="'StoneSerifITC-Medium'" font-size="21">2</tspan><tspan x="12.222" y="0" font-family="'StoneSerifITC-Medium'" font-size="21" letter-spacing="-1">0</tspan><tspan x="22.932" y="0" font-family="'StoneSerifITC-Medium'" font-size="21" letter-spacing="-2">1</tspan><tspan x="32.066" y="0" font-family="'StoneSerifITC-Medium'" font-size="21">1-</tspan><tspan x="51.113" y="0" font-family="'StoneSerifITC-Medium'" font-size="21">1</tspan><tspan x="62.263" y="0" font-family="'StoneSerifITC-Medium'" font-size="21">2</tspan></text>
	</g>
</g>
<g>
</g>
<g>
</g>
<g>
</g>
<g>
</g>
<g>
</g>
<g>
</g>
<g>
</g>
</svg>
