<?xml version="1.0" encoding="utf-8"?>
<!-- Generator: Adobe Illustrator 16.0.0, SVG Export Plug-In . SVG Version: 6.00 Build 0)  -->
<!DOCTYPE svg PUBLIC "-//W3C//DTD SVG 1.1//EN" "http://www.w3.org/Graphics/SVG/1.1/DTD/svg11.dtd">
<svg version="1.1" id="Layer_1" xmlns="http://www.w3.org/2000/svg" xmlns:xlink="http://www.w3.org/1999/xlink" x="0px" y="0px"
	 width="841.89px" height="595.28px" viewBox="0 0 841.89 595.28" enable-background="new 0 0 841.89 595.28" xml:space="preserve">
<g>
	<g>
		<g>
			<g>
				<rect x="245.046" y="100.396" fill="#0078BF" width="77.616" height="373.371"/>
				<rect x="352.847" y="134.338" fill="#0078BF" width="77.616" height="339.428"/>
				<rect x="460.647" y="168.282" fill="#0078BF" width="77.616" height="305.485"/>
				<rect x="568.447" y="223.326" fill="#0078BF" width="77.616" height="250.441"/>
				<rect x="676.247" y="247.481" fill="#0078BF" width="77.616" height="226.286"/>
			</g>
		</g>
	</g>
	<g>
		<line fill="none" stroke="#000000" stroke-miterlimit="10" x1="229.955" y1="473.767" x2="768.955" y2="473.767"/>
		<g>
			<g>
				<line fill="none" stroke="#000000" stroke-miterlimit="10" x1="229.955" y1="473.767" x2="229.955" y2="463.866"/>
				<line fill="none" stroke="#000000" stroke-miterlimit="10" x1="337.754" y1="473.767" x2="337.754" y2="463.866"/>
				<line fill="none" stroke="#000000" stroke-miterlimit="10" x1="445.555" y1="473.767" x2="445.555" y2="463.866"/>
				<line fill="none" stroke="#000000" stroke-miterlimit="10" x1="553.355" y1="473.767" x2="553.355" y2="463.866"/>
				<line fill="none" stroke="#000000" stroke-miterlimit="10" x1="661.155" y1="473.767" x2="661.155" y2="463.866"/>
				<line fill="none" stroke="#000000" stroke-miterlimit="10" x1="768.955" y1="473.767" x2="768.955" y2="463.866"/>
			</g>
			<g>
			</g>
		</g>
	</g>
	<g>
		<g>
			<text transform="matrix(1 0 0 1 209.479 483.2422)" font-family="'StoneSerifITC-Medium'" font-size="21">0</text>
			<text transform="matrix(1 0 0 1 177.5591 426.6699)" font-family="'StoneSerifITC-Medium'" font-size="21">$5m</text>
			<text transform="matrix(1 0 0 1 166.5552 370.0996)"><tspan x="0" y="0" font-family="'StoneSerifITC-Medium'" font-size="21">$</tspan><tspan x="12.054" y="0" font-family="'StoneSerifITC-Medium'" font-size="21" letter-spacing="-1">1</tspan><tspan x="23.058" y="0" font-family="'StoneSerifITC-Medium'" font-size="21">0m</tspan></text>
			<text transform="matrix(1 0 0 1 167.0386 313.5273)"><tspan x="0" y="0" font-family="'StoneSerifITC-Medium'" font-size="21">$</tspan><tspan x="12.054" y="0" font-family="'StoneSerifITC-Medium'" font-size="21" letter-spacing="-1">1</tspan><tspan x="22.574" y="0" font-family="'StoneSerifITC-Medium'" font-size="21">5m</tspan></text>
			<text transform="matrix(1 0 0 1 165.3374 256.9556)"><tspan x="0" y="0" font-family="'StoneSerifITC-Medium'" font-size="21">$</tspan><tspan x="12.054" y="0" font-family="'StoneSerifITC-Medium'" font-size="21">2</tspan><tspan x="24.275" y="0" font-family="'StoneSerifITC-Medium'" font-size="21">0m</tspan></text>
			<text transform="matrix(1 0 0 1 165.5054 200.3843)" font-family="'StoneSerifITC-Medium'" font-size="21">$25m</text>
			<text transform="matrix(1 0 0 1 165.5054 143.813)" font-family="'StoneSerifITC-Medium'" font-size="21">$30m</text>
			<text transform="matrix(1 0 0 1 165.5054 87.2417)" font-family="'StoneSerifITC-Medium'" font-size="21">$35m</text>
		</g>
		<line fill="none" stroke="#000000" stroke-miterlimit="10" x1="229.955" y1="473.767" x2="229.955" y2="77.767"/>
		<g>
			<g>
				<line fill="none" stroke="#000000" stroke-miterlimit="10" x1="229.955" y1="473.767" x2="243.43" y2="473.767"/>
				<line fill="none" stroke="#000000" stroke-miterlimit="10" x1="229.955" y1="417.195" x2="243.43" y2="417.195"/>
				<line fill="none" stroke="#000000" stroke-miterlimit="10" x1="229.955" y1="360.624" x2="243.43" y2="360.624"/>
				<line fill="none" stroke="#000000" stroke-miterlimit="10" x1="229.955" y1="304.053" x2="243.43" y2="304.053"/>
				<line fill="none" stroke="#000000" stroke-miterlimit="10" x1="229.955" y1="247.481" x2="243.43" y2="247.481"/>
				<line fill="none" stroke="#000000" stroke-miterlimit="10" x1="229.955" y1="190.91" x2="243.43" y2="190.91"/>
				<line fill="none" stroke="#000000" stroke-miterlimit="10" x1="229.955" y1="134.338" x2="243.43" y2="134.338"/>
				<line fill="none" stroke="#000000" stroke-miterlimit="10" x1="229.955" y1="77.767" x2="243.43" y2="77.767"/>
			</g>
			<g>
			</g>
		</g>
	</g>
	<g>
		<g>
		</g>
	</g>
	<g>
		<text transform="matrix(1 0 0 1 673.6523 499.9043)"><tspan x="0" y="0" font-family="'StoneSerifITC-Medium'" font-size="21">2</tspan><tspan x="12.223" y="0" font-family="'StoneSerifITC-Medium'" font-size="21" letter-spacing="-1">0</tspan><tspan x="22.932" y="0" font-family="'StoneSerifITC-Medium'" font-size="21" letter-spacing="-1">1</tspan><tspan x="33.453" y="0" font-family="'StoneSerifITC-Medium'" font-size="21">5-</tspan><tspan x="52.5" y="0" font-family="'StoneSerifITC-Medium'" font-size="21" letter-spacing="-1">1</tspan><tspan x="62.748" y="0" font-family="'StoneSerifITC-Medium'" font-size="21">6</tspan></text>
		<text transform="matrix(1 0 0 1 565.959 499.9043)"><tspan x="0" y="0" font-family="'StoneSerifITC-Medium'" font-size="21">2</tspan><tspan x="12.221" y="0" font-family="'StoneSerifITC-Medium'" font-size="21" letter-spacing="-1">0</tspan><tspan x="22.932" y="0" font-family="'StoneSerifITC-Medium'" font-size="21" letter-spacing="-2">1</tspan><tspan x="32.969" y="0" font-family="'StoneSerifITC-Medium'" font-size="21">4-</tspan><tspan x="52.016" y="0" font-family="'StoneSerifITC-Medium'" font-size="21" letter-spacing="-1">1</tspan><tspan x="62.537" y="0" font-family="'StoneSerifITC-Medium'" font-size="21">5</tspan></text>
		<text transform="matrix(1 0 0 1 458.1582 499.9043)"><tspan x="0" y="0" font-family="'StoneSerifITC-Medium'" font-size="21">2</tspan><tspan x="12.223" y="0" font-family="'StoneSerifITC-Medium'" font-size="21" letter-spacing="-1">0</tspan><tspan x="22.932" y="0" font-family="'StoneSerifITC-Medium'" font-size="21" letter-spacing="-1">1</tspan><tspan x="33.453" y="0" font-family="'StoneSerifITC-Medium'" font-size="21">3-</tspan><tspan x="52.5" y="0" font-family="'StoneSerifITC-Medium'" font-size="21" letter-spacing="-2">1</tspan><tspan x="62.537" y="0" font-family="'StoneSerifITC-Medium'" font-size="21">4</tspan></text>
		<text transform="matrix(1 0 0 1 349.8018 499.9043)"><tspan x="0" y="0" font-family="'StoneSerifITC-Medium'" font-size="21">2</tspan><tspan x="12.222" y="0" font-family="'StoneSerifITC-Medium'" font-size="21" letter-spacing="-1">0</tspan><tspan x="22.932" y="0" font-family="'StoneSerifITC-Medium'" font-size="21">1</tspan><tspan x="34.082" y="0" font-family="'StoneSerifITC-Medium'" font-size="21">2-</tspan><tspan x="53.129" y="0" font-family="'StoneSerifITC-Medium'" font-size="21" letter-spacing="-1">1</tspan><tspan x="63.65" y="0" font-family="'StoneSerifITC-Medium'" font-size="21">3</tspan></text>
		<text transform="matrix(1 0 0 1 242.6948 499.9043)"><tspan x="0" y="0" font-family="'StoneSerifITC-Medium'" font-size="21">2</tspan><tspan x="12.222" y="0" font-family="'StoneSerifITC-Medium'" font-size="21" letter-spacing="-1">0</tspan><tspan x="22.932" y="0" font-family="'StoneSerifITC-Medium'" font-size="21" letter-spacing="-2">1</tspan><tspan x="32.066" y="0" font-family="'StoneSerifITC-Medium'" font-size="21">1-</tspan><tspan x="51.113" y="0" font-family="'StoneSerifITC-Medium'" font-size="21">1</tspan><tspan x="62.263" y="0" font-family="'StoneSerifITC-Medium'" font-size="21">2</tspan></text>
	</g>
</g>
<g>
</g>
<g>
</g>
<g>
</g>
<g>
</g>
<g>
</g>
<g>
</g>
<g>
</g>
</svg>
