<?xml version="1.0" encoding="utf-8"?>
<!-- Generator: Adobe Illustrator 16.0.0, SVG Export Plug-In . SVG Version: 6.00 Build 0)  -->
<!DOCTYPE svg PUBLIC "-//W3C//DTD SVG 1.1//EN" "http://www.w3.org/Graphics/SVG/1.1/DTD/svg11.dtd">
<svg version="1.1" id="Layer_1" xmlns="http://www.w3.org/2000/svg" xmlns:xlink="http://www.w3.org/1999/xlink" x="0px" y="0px"
	 width="841.89px" height="595.28px" viewBox="0 0 841.89 595.28" enable-background="new 0 0 841.89 595.28" xml:space="preserve">
<g>
	<g>
		<g>
			<g>
				<rect x="255.546" y="129.538" fill="#7D9B3D" width="77.616" height="353.035"/>
				<rect x="363.346" y="151.021" fill="#7D9B3D" width="77.616" height="331.551"/>
				<rect x="471.146" y="172.8" fill="#7D9B3D" width="77.616" height="309.772"/>
				<rect x="578.946" y="192.798" fill="#7D9B3D" width="77.616" height="289.774"/>
				<rect x="686.746" y="212.896" fill="#7D9B3D" width="77.616" height="269.676"/>
			</g>
		</g>
	</g>
	<g>
		<line fill="none" stroke="#000000" stroke-miterlimit="10" x1="240.454" y1="482.572" x2="779.454" y2="482.572"/>
		<g>
			<g>
				<line fill="none" stroke="#000000" stroke-miterlimit="10" x1="240.454" y1="482.572" x2="240.454" y2="472.672"/>
				<line fill="none" stroke="#000000" stroke-miterlimit="10" x1="348.254" y1="482.572" x2="348.254" y2="472.672"/>
				<line fill="none" stroke="#000000" stroke-miterlimit="10" x1="456.054" y1="482.572" x2="456.054" y2="472.672"/>
				<line fill="none" stroke="#000000" stroke-miterlimit="10" x1="563.854" y1="482.572" x2="563.854" y2="472.672"/>
				<line fill="none" stroke="#000000" stroke-miterlimit="10" x1="671.654" y1="482.572" x2="671.654" y2="472.672"/>
				<line fill="none" stroke="#000000" stroke-miterlimit="10" x1="779.454" y1="482.572" x2="779.454" y2="472.672"/>
			</g>
			<g>
			</g>
		</g>
	</g>
	<g>
		<g>
			<text transform="matrix(1 0 0 1 219.9785 492.0469)" font-family="'StoneSerifITC-Medium'" font-size="21">0</text>
			<text transform="matrix(1 0 0 1 195.6611 442.5469)"><tspan x="0" y="0" font-family="'StoneSerifITC-Medium'" font-size="21">5</tspan><tspan x="12.054" y="0" font-family="'StoneSerifITC-Medium'" font-size="21">0</tspan><tspan x="24.317" y="0" font-family="'StoneSerifITC-Medium'" font-size="21">0</tspan></text>
			<text transform="matrix(1 0 0 1 178.2734 393.0469)"><tspan x="0" y="0" font-family="'StoneSerifITC-Medium'" font-size="21">1</tspan><tspan x="11.151" y="0" font-family="'StoneSerifITC-Medium'" font-size="21">,</tspan><tspan x="17.178" y="0" font-family="'StoneSerifITC-Medium'" font-size="21">00</tspan><tspan x="41.705" y="0" font-family="'StoneSerifITC-Medium'" font-size="21">0</tspan></text>
			<text transform="matrix(1 0 0 1 178.4834 343.5469)"><tspan x="0" y="0" font-family="'StoneSerifITC-Medium'" font-size="21">1</tspan><tspan x="11.151" y="0" font-family="'StoneSerifITC-Medium'" font-size="21">,5</tspan><tspan x="29.231" y="0" font-family="'StoneSerifITC-Medium'" font-size="21">0</tspan><tspan x="41.495" y="0" font-family="'StoneSerifITC-Medium'" font-size="21">0</tspan></text>
			<text transform="matrix(1 0 0 1 177.3706 294.0464)"><tspan x="0" y="0" font-family="'StoneSerifITC-Medium'" font-size="21">2,</tspan><tspan x="18.081" y="0" font-family="'StoneSerifITC-Medium'" font-size="21">00</tspan><tspan x="42.608" y="0" font-family="'StoneSerifITC-Medium'" font-size="21">0</tspan></text>
			<text transform="matrix(1 0 0 1 177.5806 244.5464)"><tspan x="0" y="0" font-family="'StoneSerifITC-Medium'" font-size="21">2,5</tspan><tspan x="30.134" y="0" font-family="'StoneSerifITC-Medium'" font-size="21">0</tspan><tspan x="42.398" y="0" font-family="'StoneSerifITC-Medium'" font-size="21">0</tspan></text>
			<text transform="matrix(1 0 0 1 177.3706 195.0464)"><tspan x="0" y="0" font-family="'StoneSerifITC-Medium'" font-size="21">3,</tspan><tspan x="18.081" y="0" font-family="'StoneSerifITC-Medium'" font-size="21">00</tspan><tspan x="42.608" y="0" font-family="'StoneSerifITC-Medium'" font-size="21">0</tspan></text>
			<text transform="matrix(1 0 0 1 177.5806 145.5464)"><tspan x="0" y="0" font-family="'StoneSerifITC-Medium'" font-size="21">3,5</tspan><tspan x="30.134" y="0" font-family="'StoneSerifITC-Medium'" font-size="21">0</tspan><tspan x="42.398" y="0" font-family="'StoneSerifITC-Medium'" font-size="21">0</tspan></text>
			<text transform="matrix(1 0 0 1 177.3706 96.0464)"><tspan x="0" y="0" font-family="'StoneSerifITC-Medium'" font-size="21">4,</tspan><tspan x="18.081" y="0" font-family="'StoneSerifITC-Medium'" font-size="21">00</tspan><tspan x="42.608" y="0" font-family="'StoneSerifITC-Medium'" font-size="21">0</tspan></text>
		</g>
		<line fill="none" stroke="#000000" stroke-miterlimit="10" x1="240.454" y1="482.572" x2="240.454" y2="86.572"/>
		<g>
			<g>
				<line fill="none" stroke="#000000" stroke-miterlimit="10" x1="240.454" y1="482.572" x2="253.929" y2="482.572"/>
				<line fill="none" stroke="#000000" stroke-miterlimit="10" x1="240.454" y1="433.072" x2="253.929" y2="433.072"/>
				<line fill="none" stroke="#000000" stroke-miterlimit="10" x1="240.454" y1="383.572" x2="253.929" y2="383.572"/>
				<line fill="none" stroke="#000000" stroke-miterlimit="10" x1="240.454" y1="334.072" x2="253.929" y2="334.072"/>
				<line fill="none" stroke="#000000" stroke-miterlimit="10" x1="240.454" y1="284.572" x2="253.929" y2="284.572"/>
				<line fill="none" stroke="#000000" stroke-miterlimit="10" x1="240.454" y1="235.072" x2="253.929" y2="235.072"/>
				<line fill="none" stroke="#000000" stroke-miterlimit="10" x1="240.454" y1="185.572" x2="253.929" y2="185.572"/>
				<line fill="none" stroke="#000000" stroke-miterlimit="10" x1="240.454" y1="136.072" x2="253.929" y2="136.072"/>
				<line fill="none" stroke="#000000" stroke-miterlimit="10" x1="240.454" y1="86.572" x2="253.929" y2="86.572"/>
			</g>
			<g>
			</g>
		</g>
	</g>
	<g>
		<g>
		</g>
	</g>
	<g>
		<text transform="matrix(1 0 0 1 684.1523 508.709)"><tspan x="0" y="0" font-family="'StoneSerifITC-Medium'" font-size="21">2</tspan><tspan x="12.222" y="0" font-family="'StoneSerifITC-Medium'" font-size="21" letter-spacing="-1">0</tspan><tspan x="22.932" y="0" font-family="'StoneSerifITC-Medium'" font-size="21" letter-spacing="-1">1</tspan><tspan x="33.452" y="0" font-family="'StoneSerifITC-Medium'" font-size="21">5-</tspan><tspan x="52.499" y="0" font-family="'StoneSerifITC-Medium'" font-size="21" letter-spacing="-1">1</tspan><tspan x="62.747" y="0" font-family="'StoneSerifITC-Medium'" font-size="21">6</tspan></text>
		<text transform="matrix(1 0 0 1 576.458 508.709)"><tspan x="0" y="0" font-family="'StoneSerifITC-Medium'" font-size="21">2</tspan><tspan x="12.222" y="0" font-family="'StoneSerifITC-Medium'" font-size="21" letter-spacing="-1">0</tspan><tspan x="22.932" y="0" font-family="'StoneSerifITC-Medium'" font-size="21" letter-spacing="-2">1</tspan><tspan x="32.97" y="0" font-family="'StoneSerifITC-Medium'" font-size="21">4-</tspan><tspan x="52.017" y="0" font-family="'StoneSerifITC-Medium'" font-size="21" letter-spacing="-1">1</tspan><tspan x="62.537" y="0" font-family="'StoneSerifITC-Medium'" font-size="21">5</tspan></text>
		<text transform="matrix(1 0 0 1 468.6582 508.709)"><tspan x="0" y="0" font-family="'StoneSerifITC-Medium'" font-size="21">2</tspan><tspan x="12.222" y="0" font-family="'StoneSerifITC-Medium'" font-size="21" letter-spacing="-1">0</tspan><tspan x="22.932" y="0" font-family="'StoneSerifITC-Medium'" font-size="21" letter-spacing="-1">1</tspan><tspan x="33.452" y="0" font-family="'StoneSerifITC-Medium'" font-size="21">3-</tspan><tspan x="52.499" y="0" font-family="'StoneSerifITC-Medium'" font-size="21" letter-spacing="-2">1</tspan><tspan x="62.537" y="0" font-family="'StoneSerifITC-Medium'" font-size="21">4</tspan></text>
		<text transform="matrix(1 0 0 1 360.3013 508.709)"><tspan x="0" y="0" font-family="'StoneSerifITC-Medium'" font-size="21">2</tspan><tspan x="12.222" y="0" font-family="'StoneSerifITC-Medium'" font-size="21" letter-spacing="-1">0</tspan><tspan x="22.932" y="0" font-family="'StoneSerifITC-Medium'" font-size="21">1</tspan><tspan x="34.082" y="0" font-family="'StoneSerifITC-Medium'" font-size="21">2-</tspan><tspan x="53.129" y="0" font-family="'StoneSerifITC-Medium'" font-size="21" letter-spacing="-1">1</tspan><tspan x="63.65" y="0" font-family="'StoneSerifITC-Medium'" font-size="21">3</tspan></text>
		<text transform="matrix(1 0 0 1 253.1943 508.709)"><tspan x="0" y="0" font-family="'StoneSerifITC-Medium'" font-size="21">2</tspan><tspan x="12.222" y="0" font-family="'StoneSerifITC-Medium'" font-size="21" letter-spacing="-1">0</tspan><tspan x="22.932" y="0" font-family="'StoneSerifITC-Medium'" font-size="21" letter-spacing="-2">1</tspan><tspan x="32.066" y="0" font-family="'StoneSerifITC-Medium'" font-size="21">1-</tspan><tspan x="51.113" y="0" font-family="'StoneSerifITC-Medium'" font-size="21">1</tspan><tspan x="62.263" y="0" font-family="'StoneSerifITC-Medium'" font-size="21">2</tspan></text>
	</g>
</g>
<g>
</g>
<g>
</g>
<g>
</g>
<g>
</g>
<g>
</g>
<g>
</g>
</svg>
