<?xml version="1.0" encoding="utf-8"?>
<!-- Generator: Adobe Illustrator 16.0.0, SVG Export Plug-In . SVG Version: 6.00 Build 0)  -->
<!DOCTYPE svg PUBLIC "-//W3C//DTD SVG 1.1//EN" "http://www.w3.org/Graphics/SVG/1.1/DTD/svg11.dtd">
<svg version="1.1" id="Layer_1" xmlns="http://www.w3.org/2000/svg" xmlns:xlink="http://www.w3.org/1999/xlink" x="0px" y="0px"
	 width="841.89px" height="595.28px" viewBox="0 0 841.89 595.28" enable-background="new 0 0 841.89 595.28" xml:space="preserve">
<g>
	<g>
		<g>
			<g>
				<rect x="264.545" y="103.072" fill="#7D9B3D" width="77.616" height="379.5"/>
				<rect x="372.346" y="178.972" fill="#7D9B3D" width="77.616" height="303.6"/>
				<rect x="480.146" y="211.972" fill="#7D9B3D" width="77.616" height="270.6"/>
				<rect x="587.946" y="192.568" fill="#7D9B3D" width="77.616" height="290.004"/>
				<rect x="695.746" y="220.948" fill="#7D9B3D" width="77.616" height="261.625"/>
			</g>
		</g>
	</g>
	<g>
		<line fill="none" stroke="#000000" stroke-miterlimit="10" x1="249.454" y1="482.572" x2="788.454" y2="482.572"/>
		<g>
			<g>
				<line fill="none" stroke="#000000" stroke-miterlimit="10" x1="249.454" y1="482.572" x2="249.454" y2="472.672"/>
				<line fill="none" stroke="#000000" stroke-miterlimit="10" x1="357.253" y1="482.572" x2="357.253" y2="472.672"/>
				<line fill="none" stroke="#000000" stroke-miterlimit="10" x1="465.054" y1="482.572" x2="465.054" y2="472.672"/>
				<line fill="none" stroke="#000000" stroke-miterlimit="10" x1="572.854" y1="482.572" x2="572.854" y2="472.672"/>
				<line fill="none" stroke="#000000" stroke-miterlimit="10" x1="680.654" y1="482.572" x2="680.654" y2="472.672"/>
				<line fill="none" stroke="#000000" stroke-miterlimit="10" x1="788.454" y1="482.572" x2="788.454" y2="472.672"/>
			</g>
			<g>
			</g>
		</g>
	</g>
	<g>
		<g>
			<text transform="matrix(1 0 0 1 228.978 492.0469)" font-family="'StoneSerifITC-Medium'" font-size="21">0</text>
			<text transform="matrix(1 0 0 1 184.8364 426.0469)"><tspan x="0" y="0" font-family="'StoneSerifITC-Medium'" font-size="21">$</tspan><tspan x="12.054" y="0" font-family="'StoneSerifITC-Medium'" font-size="21">2</tspan><tspan x="24.275" y="0" font-family="'StoneSerifITC-Medium'" font-size="21">0m</tspan></text>
			<text transform="matrix(1 0 0 1 185.0044 360.0469)" font-family="'StoneSerifITC-Medium'" font-size="21">$40m</text>
			<text transform="matrix(1 0 0 1 185.0044 294.0464)" font-family="'StoneSerifITC-Medium'" font-size="21">$60m</text>
			<text transform="matrix(1 0 0 1 185.0044 228.0464)" font-family="'StoneSerifITC-Medium'" font-size="21">$80m</text>
			<text transform="matrix(1 0 0 1 173.7905 162.0464)"><tspan x="0" y="0" font-family="'StoneSerifITC-Medium'" font-size="21">$</tspan><tspan x="12.054" y="0" font-family="'StoneSerifITC-Medium'" font-size="21" letter-spacing="-1">1</tspan><tspan x="23.058" y="0" font-family="'StoneSerifITC-Medium'" font-size="21">0</tspan><tspan x="35.321" y="0" font-family="'StoneSerifITC-Medium'" font-size="21">0m</tspan></text>
			<text transform="matrix(1 0 0 1 173.6855 96.0464)"><tspan x="0" y="0" font-family="'StoneSerifITC-Medium'" font-size="21">$</tspan><tspan x="12.054" y="0" font-family="'StoneSerifITC-Medium'" font-size="21">1</tspan><tspan x="23.205" y="0" font-family="'StoneSerifITC-Medium'" font-size="21">2</tspan><tspan x="35.426" y="0" font-family="'StoneSerifITC-Medium'" font-size="21">0m</tspan></text>
		</g>
		<line fill="none" stroke="#000000" stroke-miterlimit="10" x1="249.454" y1="482.572" x2="249.454" y2="86.572"/>
		<g>
			<g>
				<line fill="none" stroke="#000000" stroke-miterlimit="10" x1="249.454" y1="482.572" x2="262.929" y2="482.572"/>
				<line fill="none" stroke="#000000" stroke-miterlimit="10" x1="249.454" y1="416.572" x2="262.929" y2="416.572"/>
				<line fill="none" stroke="#000000" stroke-miterlimit="10" x1="249.454" y1="350.572" x2="262.929" y2="350.572"/>
				<line fill="none" stroke="#000000" stroke-miterlimit="10" x1="249.454" y1="284.572" x2="262.929" y2="284.572"/>
				<line fill="none" stroke="#000000" stroke-miterlimit="10" x1="249.454" y1="218.572" x2="262.929" y2="218.572"/>
				<line fill="none" stroke="#000000" stroke-miterlimit="10" x1="249.454" y1="152.572" x2="262.929" y2="152.572"/>
				<line fill="none" stroke="#000000" stroke-miterlimit="10" x1="249.454" y1="86.572" x2="262.929" y2="86.572"/>
			</g>
			<g>
			</g>
		</g>
	</g>
	<g>
		<g>
		</g>
	</g>
	<g>
		<text transform="matrix(1 0 0 1 693.1523 508.709)"><tspan x="0" y="0" font-family="'StoneSerifITC-Medium'" font-size="21">2</tspan><tspan x="12.221" y="0" font-family="'StoneSerifITC-Medium'" font-size="21" letter-spacing="-1">0</tspan><tspan x="22.932" y="0" font-family="'StoneSerifITC-Medium'" font-size="21" letter-spacing="-1">1</tspan><tspan x="33.451" y="0" font-family="'StoneSerifITC-Medium'" font-size="21">5-</tspan><tspan x="52.498" y="0" font-family="'StoneSerifITC-Medium'" font-size="21" letter-spacing="-1">1</tspan><tspan x="62.746" y="0" font-family="'StoneSerifITC-Medium'" font-size="21">6</tspan></text>
		<text transform="matrix(1 0 0 1 585.457 508.709)"><tspan x="0" y="0" font-family="'StoneSerifITC-Medium'" font-size="21">2</tspan><tspan x="12.223" y="0" font-family="'StoneSerifITC-Medium'" font-size="21" letter-spacing="-1">0</tspan><tspan x="22.932" y="0" font-family="'StoneSerifITC-Medium'" font-size="21" letter-spacing="-2">1</tspan><tspan x="32.971" y="0" font-family="'StoneSerifITC-Medium'" font-size="21">4-</tspan><tspan x="52.018" y="0" font-family="'StoneSerifITC-Medium'" font-size="21" letter-spacing="-1">1</tspan><tspan x="62.537" y="0" font-family="'StoneSerifITC-Medium'" font-size="21">5</tspan></text>
		<text transform="matrix(1 0 0 1 477.6582 508.709)"><tspan x="0" y="0" font-family="'StoneSerifITC-Medium'" font-size="21">2</tspan><tspan x="12.221" y="0" font-family="'StoneSerifITC-Medium'" font-size="21" letter-spacing="-1">0</tspan><tspan x="22.932" y="0" font-family="'StoneSerifITC-Medium'" font-size="21" letter-spacing="-1">1</tspan><tspan x="33.451" y="0" font-family="'StoneSerifITC-Medium'" font-size="21">3-</tspan><tspan x="52.498" y="0" font-family="'StoneSerifITC-Medium'" font-size="21" letter-spacing="-2">1</tspan><tspan x="62.537" y="0" font-family="'StoneSerifITC-Medium'" font-size="21">4</tspan></text>
		<text transform="matrix(1 0 0 1 369.3008 508.709)"><tspan x="0" y="0" font-family="'StoneSerifITC-Medium'" font-size="21">2</tspan><tspan x="12.222" y="0" font-family="'StoneSerifITC-Medium'" font-size="21" letter-spacing="-1">0</tspan><tspan x="22.932" y="0" font-family="'StoneSerifITC-Medium'" font-size="21">1</tspan><tspan x="34.082" y="0" font-family="'StoneSerifITC-Medium'" font-size="21">2-</tspan><tspan x="53.129" y="0" font-family="'StoneSerifITC-Medium'" font-size="21" letter-spacing="-1">1</tspan><tspan x="63.65" y="0" font-family="'StoneSerifITC-Medium'" font-size="21">3</tspan></text>
		<text transform="matrix(1 0 0 1 262.1938 508.709)"><tspan x="0" y="0" font-family="'StoneSerifITC-Medium'" font-size="21">2</tspan><tspan x="12.222" y="0" font-family="'StoneSerifITC-Medium'" font-size="21" letter-spacing="-1">0</tspan><tspan x="22.932" y="0" font-family="'StoneSerifITC-Medium'" font-size="21" letter-spacing="-2">1</tspan><tspan x="32.066" y="0" font-family="'StoneSerifITC-Medium'" font-size="21">1-</tspan><tspan x="51.113" y="0" font-family="'StoneSerifITC-Medium'" font-size="21">1</tspan><tspan x="62.263" y="0" font-family="'StoneSerifITC-Medium'" font-size="21">2</tspan></text>
	</g>
</g>
<g>
</g>
<g>
</g>
<g>
</g>
<g>
</g>
<g>
</g>
<g>
</g>
</svg>
