<?xml version="1.0" encoding="utf-8"?>
<!-- Generator: Adobe Illustrator 16.0.0, SVG Export Plug-In . SVG Version: 6.00 Build 0)  -->
<!DOCTYPE svg PUBLIC "-//W3C//DTD SVG 1.1//EN" "http://www.w3.org/Graphics/SVG/1.1/DTD/svg11.dtd">
<svg version="1.1" id="Layer_1" xmlns="http://www.w3.org/2000/svg" xmlns:xlink="http://www.w3.org/1999/xlink" x="0px" y="0px"
	 width="841.89px" height="595.28px" viewBox="0 0 841.89 595.28" enable-background="new 0 0 841.89 595.28" xml:space="preserve">
<g>
	<g>
		<g>
			<g>
				<rect x="315.146" y="353.731" fill="#9D9D9C" width="43.12" height="79.2"/>
				<rect x="494.813" y="432.932" fill="#9D9D9C" width="43.12" height="0"/>
				<rect x="674.479" y="432.932" fill="#9D9D9C" width="43.12" height="0"/>
			</g>
		</g>
		<g>
			<g>
				<rect x="267.235" y="353.731" fill="#C1CA9C" width="43.12" height="79.2"/>
				<rect x="446.902" y="393.332" fill="#C1CA9C" width="43.12" height="39.6"/>
				<rect x="626.568" y="413.132" fill="#C1CA9C" width="43.12" height="19.8"/>
			</g>
		</g>
		<g>
			<g>
				<rect x="219.324" y="76.531" fill="#7D9B3D" width="43.12" height="356.4"/>
				<rect x="398.991" y="215.131" fill="#7D9B3D" width="43.121" height="217.8"/>
				<rect x="578.657" y="373.531" fill="#7D9B3D" width="43.12" height="59.4"/>
			</g>
		</g>
	</g>
	<g>
		<line fill="none" stroke="#000000" stroke-miterlimit="10" x1="198.961" y1="432.932" x2="737.962" y2="432.932"/>
		<g>
			<g>
				<line fill="none" stroke="#000000" stroke-miterlimit="10" x1="198.961" y1="432.932" x2="198.961" y2="423.031"/>
				<line fill="none" stroke="#000000" stroke-miterlimit="10" x1="378.628" y1="432.932" x2="378.628" y2="423.031"/>
				<line fill="none" stroke="#000000" stroke-miterlimit="10" x1="558.295" y1="432.932" x2="558.295" y2="423.031"/>
				<line fill="none" stroke="#000000" stroke-miterlimit="10" x1="737.962" y1="432.932" x2="737.962" y2="423.031"/>
			</g>
			<g>
			</g>
		</g>
	</g>
	<g>
		<g>
			<text transform="matrix(1 0 0 1 178.4858 442.4063)" font-family="'StoneSerifITC-Medium'" font-size="21">0</text>
			<text transform="matrix(1 0 0 1 178.4858 343.4063)" font-family="'StoneSerifITC-Medium'" font-size="21">5</text>
			<text transform="matrix(1 0 0 1 167.4819 244.4058)"><tspan x="0" y="0" font-family="'StoneSerifITC-Medium'" font-size="21" letter-spacing="-1">1</tspan><tspan x="11.004" y="0" font-family="'StoneSerifITC-Medium'" font-size="21">0</tspan></text>
			<text transform="matrix(1 0 0 1 167.9648 145.4058)"><tspan x="0" y="0" font-family="'StoneSerifITC-Medium'" font-size="21" letter-spacing="-1">1</tspan><tspan x="10.521" y="0" font-family="'StoneSerifITC-Medium'" font-size="21">5</tspan></text>
			<text transform="matrix(1 0 0 1 166.2642 46.4058)"><tspan x="0" y="0" font-family="'StoneSerifITC-Medium'" font-size="21">2</tspan><tspan x="12.222" y="0" font-family="'StoneSerifITC-Medium'" font-size="21">0</tspan></text>
		</g>
		<line fill="none" stroke="#000000" stroke-miterlimit="10" x1="198.961" y1="432.932" x2="198.961" y2="36.931"/>
		<g>
			<g>
				<line fill="none" stroke="#000000" stroke-miterlimit="10" x1="198.961" y1="432.932" x2="212.437" y2="432.932"/>
				<line fill="none" stroke="#000000" stroke-miterlimit="10" x1="198.961" y1="333.932" x2="212.437" y2="333.932"/>
				<line fill="none" stroke="#000000" stroke-miterlimit="10" x1="198.961" y1="234.931" x2="212.437" y2="234.931"/>
				<line fill="none" stroke="#000000" stroke-miterlimit="10" x1="198.961" y1="135.931" x2="212.437" y2="135.931"/>
				<line fill="none" stroke="#000000" stroke-miterlimit="10" x1="198.961" y1="36.931" x2="212.437" y2="36.931"/>
			</g>
			<g>
			</g>
		</g>
	</g>
	<g>
		<g>
		</g>
		<g>
		</g>
		<g>
		</g>
	</g>
	<g>
		<text transform="matrix(1 0 0 1 603.5195 459.0684)"><tspan x="0" y="0" font-family="'StoneSerifITC-Medium'" font-size="21">Air </tspan><tspan x="33.58" y="0" font-family="'StoneSerifITC-Medium'" font-size="21">F</tspan><tspan x="44.227" y="0" font-family="'StoneSerifITC-Medium'" font-size="21">o</tspan><tspan x="56.658" y="0" font-family="'StoneSerifITC-Medium'" font-size="21">r</tspan><tspan x="64.639" y="0" font-family="'StoneSerifITC-Medium'" font-size="21">ce</tspan></text>
		<text transform="matrix(1 0 0 1 441.3672 459.0684)"><tspan x="0" y="0" font-family="'StoneSerifITC-Medium'" font-size="21">N</tspan><tspan x="16.547" y="0" font-family="'StoneSerifITC-Medium'" font-size="21">a</tspan><tspan x="26.816" y="0" font-family="'StoneSerifITC-Medium'" font-size="21">vy</tspan></text>
		<text transform="matrix(1 0 0 1 259.8418 459.0684)"><tspan x="0" y="0" font-family="'StoneSerifITC-Medium'" font-size="21">A</tspan><tspan x="14.364" y="0" font-family="'StoneSerifITC-Medium'" font-size="21">r</tspan><tspan x="22.827" y="0" font-family="'StoneSerifITC-Medium'" font-size="21">m</tspan><tspan x="42.231" y="0" font-family="'StoneSerifITC-Medium'" font-size="21">y</tspan></text>
	</g>
</g>
<rect x="301.439" y="486.5" fill="#7D9B3D" width="23" height="23"/>
<g>
	<path d="M345.758,505.365c-0.105,0.42-0.168,0.504-0.777,0.714c-1.26,0.44-2.981,0.672-4.409,0.672c-1.974,0-3.843-0.588-5.312-1.7
		c-1.659-1.26-2.751-3.234-2.751-5.838c0-2.12,0.944-4.472,2.981-6.004c1.344-1.008,3.149-1.659,5.48-1.659
		c1.448,0,3.044,0.315,3.988,0.714c0.609,0.252,0.799,0.441,0.799,0.945v2.582h-0.547c-0.063-0.734-0.188-1.281-0.398-1.68
		c-0.609-1.154-2.33-1.848-4.073-1.848c-3.591,0-5.837,2.498-5.837,6.761c0,2.288,0.65,4.283,1.994,5.563
		c0.967,0.903,2.289,1.449,3.99,1.449c1.658,0,3.148-0.566,4.072-1.722c0.336-0.42,0.525-0.776,0.883-1.575h0.545L345.758,505.365z"
		/>
	<path d="M347.691,506.499v-0.546c1.638-0.168,1.68-0.189,1.68-2.078v-10.436c0-0.546-0.042-0.861-0.252-1.029
		c-0.146-0.125-0.398-0.168-0.818-0.168h-0.588v-0.566c1.176-0.021,2.54-0.252,3.548-0.609v12.809c0,1.889,0,1.91,1.68,2.078v0.546
		H347.691z"/>
	<path d="M360.794,506.73c-0.315-0.525-0.483-1.092-0.504-1.659l-1.616,1.092c-0.693,0.483-1.029,0.588-1.533,0.588
		c-1.617,0-2.729-1.155-2.729-2.835c0-1.176,0.524-1.994,1.596-2.624c0.504-0.294,1.028-0.524,2.016-0.903l2.288-0.881
		c-0.021-2.227-0.608-3.066-1.805-3.066c-0.987,0-1.533,0.756-1.953,1.533c-0.063,0.126-0.252,0.504-0.441,0.504
		c-0.041,0-0.104,0-0.168-0.021l-0.65-0.168c-0.126-0.041-0.189-0.125-0.168-0.209l0.314-1.176c0.105-0.379,0.168-0.441,0.547-0.609
		c0.776-0.357,1.742-0.546,2.688-0.546c2.477,0,3.527,1.008,3.527,3.359v4.661c0,1.197,0.188,1.574,0.734,1.574
		c0.189,0,0.378-0.041,0.714-0.146l0.126,0.588L360.794,506.73z M360.311,500.305c-1.049,0.379-1.406,0.525-1.868,0.715
		c-1.448,0.608-2.142,1.448-2.142,2.645c0,1.051,0.693,1.785,1.722,1.785c1.491,0,2.288-1.197,2.288-3.506V500.305z"/>
	<path d="M368.102,506.751c-1.049,0-1.848-0.168-2.75-0.567v-2.352h0.546c0.042,0.525,0.126,0.967,0.336,1.281
		c0.378,0.566,1.155,0.924,1.974,0.924c1.134,0,1.932-0.777,1.932-1.848c0-0.986-0.357-1.428-2.352-2.771
		c-1.932-1.302-2.414-1.91-2.414-2.961c0-1.616,1.428-2.708,3.527-2.708c0.818,0,1.49,0.063,2.33,0.336v2.079h-0.546
		c-0.063-0.399-0.104-0.567-0.21-0.777c-0.314-0.566-0.84-0.945-1.68-0.945c-0.945,0-1.638,0.588-1.638,1.387
		c0,0.314,0.126,0.692,0.336,0.924c0.356,0.398,0.356,0.398,2.288,1.764c1.68,1.196,2.227,1.91,2.227,3.023
		C372.008,505.471,370.475,506.751,368.102,506.751z"/>
	<path d="M376.648,506.751c-1.049,0-1.848-0.168-2.75-0.567v-2.352h0.546c0.042,0.525,0.126,0.967,0.336,1.281
		c0.378,0.566,1.155,0.924,1.974,0.924c1.134,0,1.932-0.777,1.932-1.848c0-0.986-0.357-1.428-2.352-2.771
		c-1.932-1.302-2.414-1.91-2.414-2.961c0-1.616,1.428-2.708,3.527-2.708c0.818,0,1.49,0.063,2.33,0.336v2.079h-0.546
		c-0.063-0.399-0.104-0.567-0.21-0.777c-0.314-0.566-0.84-0.945-1.68-0.945c-0.945,0-1.638,0.588-1.638,1.387
		c0,0.314,0.126,0.692,0.336,0.924c0.356,0.398,0.356,0.398,2.288,1.764c1.68,1.196,2.227,1.91,2.227,3.023
		C380.555,505.471,379.021,506.751,376.648,506.751z"/>
	<path d="M395.17,506.499v-0.546c0.945-0.042,1.26-0.252,1.26-0.818c0-0.231-0.063-0.504-0.168-0.799l-0.902-2.708h-5.271
		l-0.966,2.792c-0.063,0.168-0.084,0.336-0.084,0.483c0,0.63,0.357,1.008,1.113,1.05v0.546h-3.885v-0.546
		c0.861-0.021,1.449-0.609,1.953-1.953l4.64-12.45h1.218l4.241,12.556c0.483,1.406,0.86,1.806,1.722,1.848v0.546H395.17z
		 M392.965,493.881l-2.582,6.949h4.725L392.965,493.881z"/>
</g>
<rect x="425.379" y="486.5" fill="#C1CA9C" width="23" height="23"/>
<g>
	<path d="M469.696,505.365c-0.105,0.42-0.168,0.504-0.777,0.714c-1.26,0.44-2.981,0.672-4.409,0.672c-1.974,0-3.843-0.588-5.312-1.7
		c-1.659-1.26-2.751-3.234-2.751-5.838c0-2.12,0.944-4.472,2.981-6.004c1.344-1.008,3.149-1.659,5.48-1.659
		c1.448,0,3.044,0.315,3.988,0.714c0.609,0.252,0.799,0.441,0.799,0.945v2.582h-0.547c-0.063-0.734-0.188-1.281-0.398-1.68
		c-0.609-1.154-2.33-1.848-4.073-1.848c-3.591,0-5.837,2.498-5.837,6.761c0,2.288,0.65,4.283,1.994,5.563
		c0.967,0.903,2.289,1.449,3.99,1.449c1.658,0,3.148-0.566,4.072-1.722c0.336-0.42,0.525-0.776,0.883-1.575h0.545L469.696,505.365z"
		/>
	<path d="M471.63,506.499v-0.546c1.638-0.168,1.68-0.189,1.68-2.078v-10.436c0-0.546-0.042-0.861-0.252-1.029
		c-0.146-0.125-0.398-0.168-0.818-0.168h-0.588v-0.566c1.176-0.021,2.54-0.252,3.548-0.609v12.809c0,1.889,0,1.91,1.68,2.078v0.546
		H471.63z"/>
	<path d="M484.732,506.73c-0.315-0.525-0.483-1.092-0.504-1.659l-1.616,1.092c-0.693,0.483-1.029,0.588-1.533,0.588
		c-1.617,0-2.729-1.155-2.729-2.835c0-1.176,0.524-1.994,1.596-2.624c0.504-0.294,1.028-0.524,2.016-0.903l2.288-0.881
		c-0.021-2.227-0.608-3.066-1.805-3.066c-0.987,0-1.533,0.756-1.953,1.533c-0.063,0.126-0.252,0.504-0.441,0.504
		c-0.041,0-0.104,0-0.168-0.021l-0.65-0.168c-0.126-0.041-0.189-0.125-0.168-0.209l0.314-1.176c0.105-0.379,0.168-0.441,0.547-0.609
		c0.776-0.357,1.742-0.546,2.688-0.546c2.477,0,3.527,1.008,3.527,3.359v4.661c0,1.197,0.188,1.574,0.734,1.574
		c0.189,0,0.378-0.041,0.714-0.146l0.126,0.588L484.732,506.73z M484.249,500.305c-1.049,0.379-1.406,0.525-1.868,0.715
		c-1.448,0.608-2.142,1.448-2.142,2.645c0,1.051,0.693,1.785,1.722,1.785c1.491,0,2.288-1.197,2.288-3.506V500.305z"/>
	<path d="M492.04,506.751c-1.049,0-1.848-0.168-2.75-0.567v-2.352h0.546c0.042,0.525,0.126,0.967,0.336,1.281
		c0.378,0.566,1.155,0.924,1.974,0.924c1.134,0,1.932-0.777,1.932-1.848c0-0.986-0.357-1.428-2.352-2.771
		c-1.932-1.302-2.414-1.91-2.414-2.961c0-1.616,1.428-2.708,3.527-2.708c0.818,0,1.49,0.063,2.33,0.336v2.079h-0.546
		c-0.063-0.399-0.104-0.567-0.21-0.777c-0.314-0.566-0.84-0.945-1.68-0.945c-0.945,0-1.638,0.588-1.638,1.387
		c0,0.314,0.126,0.692,0.336,0.924c0.356,0.398,0.356,0.398,2.288,1.764c1.68,1.196,2.227,1.91,2.227,3.023
		C495.946,505.471,494.413,506.751,492.04,506.751z"/>
	<path d="M500.587,506.751c-1.049,0-1.848-0.168-2.75-0.567v-2.352h0.546c0.042,0.525,0.126,0.967,0.336,1.281
		c0.378,0.566,1.155,0.924,1.974,0.924c1.134,0,1.932-0.777,1.932-1.848c0-0.986-0.357-1.428-2.352-2.771
		c-1.932-1.302-2.414-1.91-2.414-2.961c0-1.616,1.428-2.708,3.527-2.708c0.818,0,1.49,0.063,2.33,0.336v2.079h-0.546
		c-0.063-0.399-0.104-0.567-0.21-0.777c-0.314-0.566-0.84-0.945-1.68-0.945c-0.945,0-1.638,0.588-1.638,1.387
		c0,0.314,0.126,0.692,0.336,0.924c0.356,0.398,0.356,0.398,2.288,1.764c1.68,1.196,2.227,1.91,2.227,3.023
		C504.493,505.471,502.96,506.751,500.587,506.751z"/>
	<path d="M516.567,506.499h-5.815v-0.546c1.784-0.146,1.784-0.168,1.784-2.078v-9.449c0-1.932,0-1.952-1.784-2.1v-0.524h5.207
		c1.386,0,1.974,0.021,2.729,0.231c1.449,0.398,2.246,1.448,2.246,3.044s-0.965,2.708-3.023,3.485
		c0.967,0.168,1.387,0.23,2.016,0.546c1.239,0.608,1.975,1.764,1.975,3.255C521.901,504.987,519.948,506.499,516.567,506.499z
		 M515.812,492.453h-1.238v6.047h1.365c1.91,0,2.896-1.051,2.896-3.087C518.835,493.313,517.954,492.453,515.812,492.453z
		 M515.959,499.15h-1.386v4.305c0,0.965,0.105,1.658,0.609,2.016c0.293,0.23,0.713,0.336,1.322,0.336
		c1.994,0,2.981-1.051,2.981-3.129C519.486,500.368,518.269,499.15,515.959,499.15z"/>
</g>
<rect x="547.439" y="486.5" fill="#9D9D9C" width="23" height="23"/>
<g>
	<path d="M591.758,505.365c-0.105,0.42-0.168,0.504-0.777,0.714c-1.26,0.44-2.982,0.672-4.41,0.672c-1.973,0-3.842-0.588-5.311-1.7
		c-1.66-1.26-2.752-3.234-2.752-5.838c0-2.12,0.945-4.472,2.982-6.004c1.344-1.008,3.148-1.659,5.48-1.659
		c1.447,0,3.043,0.315,3.988,0.714c0.609,0.252,0.799,0.441,0.799,0.945v2.582h-0.547c-0.063-0.734-0.189-1.281-0.398-1.68
		c-0.609-1.154-2.33-1.848-4.074-1.848c-3.59,0-5.836,2.498-5.836,6.761c0,2.288,0.65,4.283,1.994,5.563
		c0.967,0.903,2.289,1.449,3.99,1.449c1.658,0,3.148-0.566,4.072-1.722c0.336-0.42,0.525-0.776,0.883-1.575h0.545L591.758,505.365z"
		/>
	<path d="M593.691,506.499v-0.546c1.637-0.168,1.68-0.189,1.68-2.078v-10.436c0-0.546-0.043-0.861-0.252-1.029
		c-0.146-0.125-0.398-0.168-0.818-0.168h-0.588v-0.566c1.176-0.021,2.539-0.252,3.547-0.609v12.809c0,1.889,0,1.91,1.68,2.078v0.546
		H593.691z"/>
	<path d="M606.793,506.73c-0.314-0.525-0.482-1.092-0.504-1.659l-1.615,1.092c-0.693,0.483-1.029,0.588-1.533,0.588
		c-1.617,0-2.73-1.155-2.73-2.835c0-1.176,0.525-1.994,1.596-2.624c0.504-0.294,1.029-0.524,2.016-0.903l2.289-0.881
		c-0.021-2.227-0.609-3.066-1.805-3.066c-0.988,0-1.533,0.756-1.953,1.533c-0.063,0.126-0.252,0.504-0.441,0.504
		c-0.041,0-0.105,0-0.168-0.021l-0.65-0.168c-0.127-0.041-0.189-0.125-0.168-0.209l0.314-1.176c0.105-0.379,0.168-0.441,0.547-0.609
		c0.775-0.357,1.742-0.546,2.688-0.546c2.477,0,3.527,1.008,3.527,3.359v4.661c0,1.197,0.188,1.574,0.734,1.574
		c0.189,0,0.377-0.041,0.713-0.146l0.127,0.588L606.793,506.73z M606.311,500.305c-1.049,0.379-1.406,0.525-1.869,0.715
		c-1.447,0.608-2.141,1.448-2.141,2.645c0,1.051,0.693,1.785,1.721,1.785c1.492,0,2.289-1.197,2.289-3.506V500.305z"/>
	<path d="M614.102,506.751c-1.049,0-1.848-0.168-2.75-0.567v-2.352h0.545c0.043,0.525,0.127,0.967,0.336,1.281
		c0.379,0.566,1.156,0.924,1.975,0.924c1.133,0,1.932-0.777,1.932-1.848c0-0.986-0.357-1.428-2.352-2.771
		c-1.932-1.302-2.414-1.91-2.414-2.961c0-1.616,1.428-2.708,3.527-2.708c0.818,0,1.49,0.063,2.33,0.336v2.079h-0.547
		c-0.063-0.399-0.104-0.567-0.209-0.777c-0.314-0.566-0.84-0.945-1.68-0.945c-0.945,0-1.639,0.588-1.639,1.387
		c0,0.314,0.127,0.692,0.336,0.924c0.357,0.398,0.357,0.398,2.289,1.764c1.68,1.196,2.227,1.91,2.227,3.023
		C618.008,505.471,616.475,506.751,614.102,506.751z"/>
	<path d="M622.648,506.751c-1.049,0-1.848-0.168-2.75-0.567v-2.352h0.545c0.043,0.525,0.127,0.967,0.336,1.281
		c0.379,0.566,1.156,0.924,1.975,0.924c1.133,0,1.932-0.777,1.932-1.848c0-0.986-0.357-1.428-2.352-2.771
		c-1.932-1.302-2.414-1.91-2.414-2.961c0-1.616,1.428-2.708,3.527-2.708c0.818,0,1.49,0.063,2.33,0.336v2.079h-0.547
		c-0.063-0.399-0.104-0.567-0.209-0.777c-0.314-0.566-0.84-0.945-1.68-0.945c-0.945,0-1.639,0.588-1.639,1.387
		c0,0.314,0.127,0.692,0.336,0.924c0.357,0.398,0.357,0.398,2.289,1.764c1.68,1.196,2.227,1.91,2.227,3.023
		C626.555,505.471,625.021,506.751,622.648,506.751z"/>
	<path d="M646.23,505.365c-0.105,0.42-0.168,0.504-0.777,0.714c-1.26,0.44-2.982,0.672-4.41,0.672c-1.973,0-3.842-0.588-5.311-1.7
		c-1.66-1.26-2.752-3.234-2.752-5.838c0-2.12,0.945-4.472,2.982-6.004c1.344-1.008,3.148-1.659,5.48-1.659
		c1.447,0,3.043,0.315,3.988,0.714c0.609,0.252,0.799,0.441,0.799,0.945v2.582h-0.547c-0.063-0.734-0.189-1.281-0.398-1.68
		c-0.609-1.154-2.33-1.848-4.074-1.848c-3.59,0-5.836,2.498-5.836,6.761c0,2.288,0.65,4.283,1.994,5.563
		c0.967,0.903,2.289,1.449,3.99,1.449c1.658,0,3.148-0.566,4.072-1.722c0.336-0.42,0.525-0.776,0.883-1.575h0.545L646.23,505.365z"
		/>
</g>
<g>
</g>
<g>
</g>
<g>
</g>
<g>
</g>
<g>
</g>
<g>
</g>
</svg>
