<?xml version="1.0" encoding="utf-8"?>
<!-- Generator: Adobe Illustrator 16.0.0, SVG Export Plug-In . SVG Version: 6.00 Build 0)  -->
<!DOCTYPE svg PUBLIC "-//W3C//DTD SVG 1.1//EN" "http://www.w3.org/Graphics/SVG/1.1/DTD/svg11.dtd">
<svg version="1.1" xmlns="http://www.w3.org/2000/svg" xmlns:xlink="http://www.w3.org/1999/xlink" x="0px" y="0px"
	 width="841.89px" height="595.28px" viewBox="0 0 841.89 595.28" enable-background="new 0 0 841.89 595.28" xml:space="preserve">
<g id="Layer_2">
</g>
<g id="Layer_1">
	<g>
		<g>
			<g>
				<g>
					<rect x="255.523" y="86.639" fill-rule="evenodd" clip-rule="evenodd" fill="#B5C398" width="36.016" height="348.642"/>
					<rect x="355.568" y="85.528" fill="#B5C398" width="36.016" height="349.753"/>
					<rect x="455.612" y="88.541" fill="#B5C398" width="36.016" height="346.741"/>
					<rect x="555.656" y="89.429" fill="#B5C398" width="36.016" height="345.852"/>
					<rect x="655.7" y="91.161" fill="#B5C398" width="36.017" height="344.12"/>
				</g>
			</g>
			<g>
				<g>
					<rect x="215.506" y="414.087" fill-rule="evenodd" clip-rule="evenodd" fill="#789B4A" width="36.016" height="21.194"/>
					<rect x="315.55" y="415.885" fill="#789B4A" width="36.016" height="19.396"/>
					<rect x="415.594" y="417.42" fill="#789B4A" width="36.016" height="17.861"/>
					<rect x="515.639" y="419.531" fill="#789B4A" width="36.016" height="15.75"/>
					<rect x="615.683" y="420.8" fill="#789B4A" width="36.017" height="14.481"/>
				</g>
			</g>
		</g>
		<g>
			
				<line fill-rule="evenodd" clip-rule="evenodd" fill="none" stroke="#000000" stroke-miterlimit="10" x1="203.5" y1="435.281" x2="703.722" y2="435.281"/>
			<g>
				<g>
					<line fill="#6660AA" stroke="#000000" stroke-miterlimit="10" x1="203.5" y1="435.281" x2="203.5" y2="425.479"/>
					<line fill="#6660AA" stroke="#000000" stroke-miterlimit="10" x1="303.544" y1="435.281" x2="303.544" y2="425.479"/>
					<line fill="#6660AA" stroke="#000000" stroke-miterlimit="10" x1="403.589" y1="435.281" x2="403.589" y2="425.479"/>
					<line fill="#6660AA" stroke="#000000" stroke-miterlimit="10" x1="503.633" y1="435.281" x2="503.633" y2="425.479"/>
					<line fill="#6660AA" stroke="#000000" stroke-miterlimit="10" x1="603.678" y1="435.281" x2="603.678" y2="425.479"/>
					<line fill="#6660AA" stroke="#000000" stroke-miterlimit="10" x1="703.722" y1="435.281" x2="703.722" y2="425.479"/>
				</g>
				<g>
				</g>
			</g>
		</g>
		<g>
			<g>
				<text transform="matrix(1 0 0 1 183.3369 444.0742)" font-family="'StoneSerifITC-Medium'" font-size="21.5124">0</text>
				<text transform="matrix(1 0 0 1 128.4165 378.7217)"><tspan x="0" y="0" font-family="'StoneSerifITC-Medium'" font-size="21.5124" letter-spacing="-1">1</tspan><tspan x="11.273" y="0" font-family="'StoneSerifITC-Medium'" font-size="21.5124">0,</tspan><tspan x="29.794" y="0" font-family="'StoneSerifITC-Medium'" font-size="21.5124">00</tspan><tspan x="54.919" y="0" font-family="'StoneSerifITC-Medium'" font-size="21.5124">0</tspan></text>
				<text transform="matrix(1 0 0 1 127.1694 313.3691)"><tspan x="0" y="0" font-family="'StoneSerifITC-Medium'" font-size="21.5124">2</tspan><tspan x="12.52" y="0" font-family="'StoneSerifITC-Medium'" font-size="21.5124">0,</tspan><tspan x="31.042" y="0" font-family="'StoneSerifITC-Medium'" font-size="21.5124">00</tspan><tspan x="56.167" y="0" font-family="'StoneSerifITC-Medium'" font-size="21.5124">0</tspan></text>
				<text transform="matrix(1 0 0 1 127.3413 248.0166)"><tspan x="0" y="0" font-family="'StoneSerifITC-Medium'" font-size="21.5124">30,</tspan><tspan x="30.87" y="0" font-family="'StoneSerifITC-Medium'" font-size="21.5124">00</tspan><tspan x="55.995" y="0" font-family="'StoneSerifITC-Medium'" font-size="21.5124">0</tspan></text>
				<text transform="matrix(1 0 0 1 127.3413 182.665)"><tspan x="0" y="0" font-family="'StoneSerifITC-Medium'" font-size="21.5124">40,</tspan><tspan x="30.87" y="0" font-family="'StoneSerifITC-Medium'" font-size="21.5124">00</tspan><tspan x="55.995" y="0" font-family="'StoneSerifITC-Medium'" font-size="21.5124">0</tspan></text>
				<text transform="matrix(1 0 0 1 127.3413 117.3125)"><tspan x="0" y="0" font-family="'StoneSerifITC-Medium'" font-size="21.5124">50,</tspan><tspan x="30.87" y="0" font-family="'StoneSerifITC-Medium'" font-size="21.5124">00</tspan><tspan x="55.995" y="0" font-family="'StoneSerifITC-Medium'" font-size="21.5124">0</tspan></text>
				<text transform="matrix(1 0 0 1 127.3413 51.96)"><tspan x="0" y="0" font-family="'StoneSerifITC-Medium'" font-size="21.5124">60,</tspan><tspan x="30.87" y="0" font-family="'StoneSerifITC-Medium'" font-size="21.5124">00</tspan><tspan x="55.995" y="0" font-family="'StoneSerifITC-Medium'" font-size="21.5124">0</tspan></text>
			</g>
			
				<line fill-rule="evenodd" clip-rule="evenodd" fill="none" stroke="#000000" stroke-miterlimit="10" x1="203.5" y1="435.281" x2="203.5" y2="43.167"/>
			<g>
				<g>
					<line fill="#6660AA" stroke="#000000" stroke-miterlimit="10" x1="203.5" y1="435.281" x2="216.006" y2="435.281"/>
					<line fill="#6660AA" stroke="#000000" stroke-miterlimit="10" x1="203.5" y1="369.929" x2="216.006" y2="369.929"/>
					<line fill="#6660AA" stroke="#000000" stroke-miterlimit="10" x1="203.5" y1="304.576" x2="216.006" y2="304.576"/>
					<line fill="#6660AA" stroke="#000000" stroke-miterlimit="10" x1="203.5" y1="239.224" x2="216.006" y2="239.224"/>
					<line fill="#6660AA" stroke="#000000" stroke-miterlimit="10" x1="203.5" y1="173.872" x2="216.006" y2="173.872"/>
					<line fill="#6660AA" stroke="#000000" stroke-miterlimit="10" x1="203.5" y1="108.519" x2="216.006" y2="108.519"/>
					<line fill="#6660AA" stroke="#000000" stroke-miterlimit="10" x1="203.5" y1="43.167" x2="216.006" y2="43.167"/>
				</g>
				<g>
				</g>
			</g>
		</g>
		<g>
			<g>
			</g>
			<g>
			</g>
		</g>
		<g>
			<text transform="matrix(1 0 0 1 615.3867 458.9951)"><tspan x="0" y="0" font-family="'StoneSerifITC-Medium'" font-size="21.5124">2</tspan><tspan x="12.52" y="0" font-family="'StoneSerifITC-Medium'" font-size="21.5124" letter-spacing="-1">0</tspan><tspan x="23.49" y="0" font-family="'StoneSerifITC-Medium'" font-size="21.5124" letter-spacing="-1">1</tspan><tspan x="34.268" y="0" font-family="'StoneSerifITC-Medium'" font-size="21.5124">5-</tspan><tspan x="53.778" y="0" font-family="'StoneSerifITC-Medium'" font-size="21.5124" letter-spacing="-1">1</tspan><tspan x="64.276" y="0" font-family="'StoneSerifITC-Medium'" font-size="21.5124">6</tspan></text>
			<text transform="matrix(1 0 0 1 515.4502 458.9951)"><tspan x="0" y="0" font-family="'StoneSerifITC-Medium'" font-size="21.5124">2</tspan><tspan x="12.52" y="0" font-family="'StoneSerifITC-Medium'" font-size="21.5124" letter-spacing="-1">0</tspan><tspan x="23.49" y="0" font-family="'StoneSerifITC-Medium'" font-size="21.5124" letter-spacing="-2">1</tspan><tspan x="33.773" y="0" font-family="'StoneSerifITC-Medium'" font-size="21.5124">4-</tspan><tspan x="53.284" y="0" font-family="'StoneSerifITC-Medium'" font-size="21.5124" letter-spacing="-1">1</tspan><tspan x="64.062" y="0" font-family="'StoneSerifITC-Medium'" font-size="21.5124">5</tspan></text>
			<text transform="matrix(1 0 0 1 415.4058 458.9951)"><tspan x="0" y="0" font-family="'StoneSerifITC-Medium'" font-size="21.5124">2</tspan><tspan x="12.52" y="0" font-family="'StoneSerifITC-Medium'" font-size="21.5124" letter-spacing="-1">0</tspan><tspan x="23.491" y="0" font-family="'StoneSerifITC-Medium'" font-size="21.5124" letter-spacing="-1">1</tspan><tspan x="34.268" y="0" font-family="'StoneSerifITC-Medium'" font-size="21.5124">3-</tspan><tspan x="53.779" y="0" font-family="'StoneSerifITC-Medium'" font-size="21.5124" letter-spacing="-2">1</tspan><tspan x="64.062" y="0" font-family="'StoneSerifITC-Medium'" font-size="21.5124">4</tspan></text>
			<text transform="matrix(1 0 0 1 314.7915 458.9951)"><tspan x="0" y="0" font-family="'StoneSerifITC-Medium'" font-size="21.5124">2</tspan><tspan x="12.52" y="0" font-family="'StoneSerifITC-Medium'" font-size="21.5124" letter-spacing="-1">0</tspan><tspan x="23.491" y="0" font-family="'StoneSerifITC-Medium'" font-size="21.5124">1</tspan><tspan x="34.914" y="0" font-family="'StoneSerifITC-Medium'" font-size="21.5124">2-</tspan><tspan x="54.425" y="0" font-family="'StoneSerifITC-Medium'" font-size="21.5124" letter-spacing="-1">1</tspan><tspan x="65.203" y="0" font-family="'StoneSerifITC-Medium'" font-size="21.5124">3</tspan></text>
			<text transform="matrix(1 0 0 1 215.457 458.9951)"><tspan x="0" y="0" font-family="'StoneSerifITC-Medium'" font-size="21.5124">2</tspan><tspan x="12.52" y="0" font-family="'StoneSerifITC-Medium'" font-size="21.5124" letter-spacing="-1">0</tspan><tspan x="23.491" y="0" font-family="'StoneSerifITC-Medium'" font-size="21.5124" letter-spacing="-2">1</tspan><tspan x="32.848" y="0" font-family="'StoneSerifITC-Medium'" font-size="21.5124">1-</tspan><tspan x="52.359" y="0" font-family="'StoneSerifITC-Medium'" font-size="21.5124">1</tspan><tspan x="63.783" y="0" font-family="'StoneSerifITC-Medium'" font-size="21.5124">2</tspan></text>
		</g>
	</g>
	<rect x="459.751" y="492.33" fill="#B5C398" width="22.498" height="22.5"/>
	<g>
		<path d="M507.063,503.973c-0.816,0.279-1.506,0.365-3.074,0.387v-0.43c1.182-0.064,1.676-0.193,2.236-0.495
			c1.117-0.581,1.719-1.827,1.719-3.526c0-2.343-1.139-3.439-3.59-3.439h-1.289v11.674c0,1.979,0,1.979,1.805,2.129v0.559h-5.74
			v-0.559c1.828-0.15,1.828-0.15,1.828-2.129v-9.674c0-2,0-1.979-1.828-2.129v-0.559h5.611c3.525,0,5.332,1.332,5.332,3.934
			C510.072,501.693,508.955,503.306,507.063,503.973z"/>
		<path d="M517.34,511.088h-0.559c-2.064,0-3.248-0.494-4.193-1.633c-0.945-1.162-1.461-2.709-1.461-4.193
			c0-1.461,0.537-2.924,1.439-3.934c0.859-0.968,2.129-1.506,3.547-1.506c1.914,0,3.248,0.989,3.785,2.752
			c0.193,0.646,0.258,1.162,0.236,2.301h-6.924c0.021,1.57,0.408,2.816,1.141,3.677c0.709,0.839,1.676,1.29,2.967,1.29
			c0.795,0,1.418-0.193,2.494-0.731l0.322,0.646L517.34,511.088z M515.963,500.532c-1.225,0-2.127,0.753-2.516,2.085
			c-0.129,0.409-0.172,0.753-0.236,1.484h3.699c0.967,0,1.375-0.365,1.375-1.248C518.285,501.543,517.318,500.532,515.963,500.532z"
			/>
		<path d="M529.078,510.83v-0.559c1.85-0.193,1.721-0.43,1.721-2.129v-3.977c0-2.344-0.623-3.182-2.43-3.182
			c-1.785,0-2.645,0.967-2.945,2.3c-0.129,0.581-0.172,1.226-0.172,2.214c0,2.645,0,0,0,2.645c0,1.871,0.021,1.893,1.74,2.129v0.559
			h-5.396v-0.559c1.678-0.236,1.721-0.301,1.721-2.129v-5.826c0-0.859-0.258-1.053-1.225-1.053h-0.496v-0.538
			c1.441-0.064,2.752-0.387,3.656-0.903v1.871c1.203-1.29,2.58-1.871,4.299-1.871c1.613,0,2.58,0.688,2.988,1.828
			c0.174,0.516,0.195,0.988,0.195,1.956v4.536c0,1.828-0.086,1.957,1.719,2.129v0.559H529.078z"/>
		<path d="M539.033,511.088c-1.076,0-1.893-0.172-2.816-0.58V508.1h0.559c0.043,0.538,0.129,0.989,0.344,1.313
			c0.387,0.58,1.182,0.945,2.021,0.945c1.16,0,1.977-0.795,1.977-1.892c0-1.011-0.365-1.462-2.406-2.839
			c-1.979-1.332-2.473-1.955-2.473-3.031c0-1.654,1.461-2.773,3.611-2.773c0.838,0,1.527,0.064,2.387,0.345v2.128h-0.559
			c-0.064-0.408-0.107-0.58-0.215-0.795c-0.324-0.58-0.861-0.968-1.721-0.968c-0.967,0-1.678,0.603-1.678,1.419
			c0,0.322,0.129,0.709,0.344,0.945c0.367,0.409,0.367,0.409,2.344,1.807c1.721,1.226,2.279,1.957,2.279,3.096
			C543.031,509.777,541.463,511.088,539.033,511.088z"/>
		<path d="M544.492,510.83v-0.559c1.678-0.172,1.721-0.193,1.721-2.129v-5.805c0-0.859-0.236-1.053-1.225-1.053h-0.496v-0.538
			c1.441-0.064,2.752-0.408,3.656-0.925v8.32c0,1.807-0.043,1.957,1.719,2.129v0.559H544.492z M546.922,498.404
			c-0.688,0-1.246-0.56-1.246-1.27c0-0.645,0.58-1.225,1.268-1.225c0.668,0,1.248,0.559,1.248,1.246
			C548.191,497.866,547.633,498.404,546.922,498.404z"/>
		<path d="M556.619,511.088c-3.117,0-5.289-2.45-5.289-5.504c0-3.289,2.408-5.762,5.719-5.762c3.182,0,5.375,2.258,5.375,5.525
			C562.424,508.638,559.973,511.088,556.619,511.088z M556.77,500.532c-2.537,0-3.311,2.816-3.311,4.88
			c0,2.902,1.396,4.945,3.439,4.945c2.064,0,3.396-1.87,3.396-4.773C560.295,502.488,558.92,500.532,556.77,500.532z"/>
		<path d="M571.367,510.83v-0.559c1.85-0.193,1.721-0.43,1.721-2.129v-3.977c0-2.344-0.623-3.182-2.43-3.182
			c-1.785,0-2.645,0.967-2.945,2.3c-0.129,0.581-0.172,1.226-0.172,2.214c0,2.645,0,0,0,2.645c0,1.871,0.021,1.893,1.74,2.129v0.559
			h-5.396v-0.559c1.678-0.236,1.721-0.301,1.721-2.129v-5.826c0-0.859-0.258-1.053-1.225-1.053h-0.496v-0.538
			c1.441-0.064,2.752-0.387,3.656-0.903v1.871c1.203-1.29,2.58-1.871,4.299-1.871c1.613,0,2.58,0.688,2.988,1.828
			c0.174,0.516,0.195,0.988,0.195,1.956v4.536c0,1.828-0.086,1.957,1.719,2.129v0.559H571.367z"/>
		<path d="M584.418,511.088h-0.559c-2.064,0-3.248-0.494-4.193-1.633c-0.945-1.162-1.461-2.709-1.461-4.193
			c0-1.461,0.537-2.924,1.439-3.934c0.859-0.968,2.129-1.506,3.547-1.506c1.914,0,3.248,0.989,3.785,2.752
			c0.193,0.646,0.258,1.162,0.236,2.301h-6.924c0.021,1.57,0.408,2.816,1.141,3.677c0.709,0.839,1.676,1.29,2.967,1.29
			c0.795,0,1.418-0.193,2.494-0.731l0.322,0.646L584.418,511.088z M583.041,500.532c-1.225,0-2.127,0.753-2.516,2.085
			c-0.129,0.409-0.172,0.753-0.236,1.484h3.699c0.967,0,1.375-0.365,1.375-1.248C585.363,501.543,584.396,500.532,583.041,500.532z"
			/>
		<path d="M595.855,501.822l-0.494,0.387c-0.064,0.043-0.129,0.107-0.215,0.107c-0.064,0-0.15-0.043-0.193-0.064l-0.709-0.365
			c-0.238-0.129-0.41-0.15-0.689-0.15c-0.494,0-0.773,0.279-0.988,0.816c-0.193,0.495-0.193,1.656-0.193,2.236v3.354
			c0,2.086,0.172,2.021,2.172,2.129v0.559h-5.871v-0.559c1.785-0.086,1.764-0.258,1.764-2.129v-5.805
			c0-0.859-0.258-1.053-1.225-1.053h-0.494v-0.538c1.439-0.064,2.729-0.408,3.654-0.925v1.979l0.988-1.161
			c0.623-0.731,0.795-0.817,1.27-0.817c0.344,0,0.559,0.172,0.816,0.646l0.537,0.968c0.043,0.086,0.064,0.129,0.064,0.172
			C596.049,501.693,595.984,501.736,595.855,501.822z"/>
		<path d="M600.457,511.088c-1.076,0-1.893-0.172-2.816-0.58V508.1h0.559c0.043,0.538,0.129,0.989,0.344,1.313
			c0.387,0.58,1.182,0.945,2.021,0.945c1.16,0,1.977-0.795,1.977-1.892c0-1.011-0.365-1.462-2.406-2.839
			c-1.979-1.332-2.473-1.955-2.473-3.031c0-1.654,1.461-2.773,3.611-2.773c0.838,0,1.527,0.064,2.387,0.345v2.128h-0.559
			c-0.064-0.408-0.107-0.58-0.215-0.795c-0.324-0.58-0.861-0.968-1.721-0.968c-0.967,0-1.678,0.603-1.678,1.419
			c0,0.322,0.129,0.709,0.344,0.945c0.367,0.409,0.367,0.409,2.344,1.807c1.721,1.226,2.279,1.957,2.279,3.096
			C604.455,509.777,602.887,511.088,600.457,511.088z"/>
	</g>
	<rect x="297.011" y="492.33" fill="#789B4A" width="22.499" height="22.5"/>
	<g>
		<path d="M353.46,498.555v9.588c0,1.957,0,1.979,1.827,2.129v0.559h-5.74v-0.559c1.807-0.107,1.828-0.129,1.828-2.129v-9.008
			l-6.149,11.824h-0.322l-5.633-11.824v8.793c0,1.764,0.322,2.172,1.956,2.344v0.559h-4.837v-0.559
			c1.655-0.172,1.978-0.58,1.978-2.344v-9.738c-0.279-0.603-0.666-1.098-1.14-1.42c-0.408-0.258-0.859-0.43-1.354-0.43v-0.559h3.978
			l5.826,12.189l6.321-12.189h3.591v0.559C354.105,496.404,353.46,497.006,353.46,498.555z"/>
		<path d="M363.242,511.088h-0.559c-2.064,0-3.247-0.494-4.192-1.633c-0.946-1.162-1.462-2.709-1.462-4.193
			c0-1.461,0.537-2.924,1.44-3.934c0.859-0.968,2.128-1.506,3.547-1.506c1.914,0,3.247,0.989,3.784,2.752
			c0.193,0.646,0.258,1.162,0.236,2.301h-6.923c0.021,1.57,0.408,2.816,1.14,3.677c0.709,0.839,1.677,1.29,2.967,1.29
			c0.796,0,1.419-0.193,2.494-0.731l0.322,0.646L363.242,511.088z M361.866,500.532c-1.226,0-2.128,0.753-2.516,2.085
			c-0.129,0.409-0.172,0.753-0.236,1.484h3.698c0.967,0,1.376-0.365,1.376-1.248C364.188,501.543,363.221,500.532,361.866,500.532z"
			/>
		<path d="M381.173,510.83v-0.559c1.678-0.172,1.721-0.193,1.721-2.129v-3.934c0-2.365-0.56-3.203-2.107-3.203
			c-0.882,0-1.612,0.322-2.063,0.902c-0.581,0.73-0.731,1.569-0.731,3.719v2.516c0,1.936,0.021,1.957,1.741,2.129v0.559h-5.396
			v-0.559c1.678-0.172,1.721-0.193,1.721-2.129v-3.934c0-2.365-0.495-3.203-2.086-3.203c-0.859,0-1.591,0.322-2.042,0.859
			c-0.581,0.709-0.774,1.634-0.774,3.762v2.516c0,1.936,0.021,1.957,1.741,2.129v0.559h-5.396v-0.559
			c1.678-0.172,1.721-0.193,1.721-2.129v-5.805c0-0.838-0.258-1.053-1.226-1.053h-0.495v-0.538c1.441-0.064,2.752-0.408,3.655-0.925
			v1.893c1.075-1.312,2.215-1.893,3.913-1.893c1.505,0,2.193,0.495,2.816,1.893c1.183-1.312,2.344-1.893,3.892-1.893
			c1.44,0,2.301,0.495,2.752,1.57c0.236,0.559,0.301,1.182,0.301,2.258v4.492c0,1.936,0,1.957,1.72,2.129v0.559H381.173z"/>
		<path d="M393.32,511.088c-0.451,0-1.031-0.064-1.634-0.15c-1.269-0.172-1.526-0.215-1.849-0.215c-0.193,0-0.451,0.021-0.882,0.107
			v-13.372c0-0.968-0.107-1.226-1.097-1.226h-0.602v-0.58c1.097,0,2.58-0.258,3.634-0.624v6.558c1.14-1.247,2.257-1.764,3.762-1.764
			c2.709,0,4.365,1.85,4.365,4.924C399.019,508.336,396.546,511.088,393.32,511.088z M393.729,500.854
			c-1.419,0-2.344,0.796-2.645,2.236c-0.129,0.603-0.193,1.483-0.193,2.515v2.172c0,1.097,0.107,1.635,0.43,2s1.011,0.58,1.849,0.58
			c2.322,0,3.72-2,3.72-5.225C396.89,502.467,395.707,500.854,393.729,500.854z"/>
		<path d="M406.844,511.088h-0.559c-2.064,0-3.247-0.494-4.192-1.633c-0.946-1.162-1.462-2.709-1.462-4.193
			c0-1.461,0.537-2.924,1.44-3.934c0.859-0.968,2.128-1.506,3.547-1.506c1.914,0,3.247,0.989,3.784,2.752
			c0.193,0.646,0.258,1.162,0.236,2.301h-6.923c0.021,1.57,0.408,2.816,1.14,3.677c0.709,0.839,1.677,1.29,2.967,1.29
			c0.796,0,1.419-0.193,2.494-0.731l0.322,0.646L406.844,511.088z M405.468,500.532c-1.226,0-2.128,0.753-2.516,2.085
			c-0.129,0.409-0.172,0.753-0.236,1.484h3.698c0.967,0,1.376-0.365,1.376-1.248C407.79,501.543,406.822,500.532,405.468,500.532z"
			/>
		<path d="M418.282,501.822l-0.495,0.387c-0.064,0.043-0.129,0.107-0.215,0.107c-0.064,0-0.15-0.043-0.193-0.064l-0.709-0.365
			c-0.237-0.129-0.409-0.15-0.688-0.15c-0.494,0-0.774,0.279-0.989,0.816c-0.193,0.495-0.193,1.656-0.193,2.236v3.354
			c0,2.086,0.172,2.021,2.172,2.129v0.559h-5.87v-0.559c1.785-0.086,1.764-0.258,1.764-2.129v-5.805
			c0-0.859-0.258-1.053-1.226-1.053h-0.494v-0.538c1.44-0.064,2.729-0.408,3.654-0.925v1.979l0.989-1.161
			c0.623-0.731,0.795-0.817,1.269-0.817c0.344,0,0.559,0.172,0.816,0.646l0.538,0.968c0.043,0.086,0.064,0.129,0.064,0.172
			C418.476,501.693,418.411,501.736,418.282,501.822z"/>
		<path d="M422.883,511.088c-1.075,0-1.893-0.172-2.816-0.58V508.1h0.559c0.043,0.538,0.129,0.989,0.344,1.313
			c0.388,0.58,1.183,0.945,2.021,0.945c1.161,0,1.978-0.795,1.978-1.892c0-1.011-0.365-1.462-2.407-2.839
			c-1.979-1.332-2.473-1.955-2.473-3.031c0-1.654,1.462-2.773,3.611-2.773c0.839,0,1.527,0.064,2.387,0.345v2.128h-0.559
			c-0.064-0.408-0.107-0.58-0.215-0.795c-0.323-0.58-0.86-0.968-1.721-0.968c-0.967,0-1.677,0.603-1.677,1.419
			c0,0.322,0.129,0.709,0.344,0.945c0.366,0.409,0.366,0.409,2.344,1.807c1.72,1.226,2.279,1.957,2.279,3.096
			C426.882,509.777,425.313,511.088,422.883,511.088z"/>
	</g>
	<g>
	</g>
	<g>
	</g>
	<g>
	</g>
	<g>
	</g>
	<g>
	</g>
	<g>
	</g>
	<g>
	</g>
</g>
</svg>
