<?xml version="1.0" encoding="utf-8"?>
<!-- Generator: Adobe Illustrator 16.0.0, SVG Export Plug-In . SVG Version: 6.00 Build 0)  -->
<!DOCTYPE svg PUBLIC "-//W3C//DTD SVG 1.1//EN" "http://www.w3.org/Graphics/SVG/1.1/DTD/svg11.dtd">
<svg version="1.1" id="Layer_1" xmlns="http://www.w3.org/2000/svg" xmlns:xlink="http://www.w3.org/1999/xlink" x="0px" y="0px"
	 width="841.89px" height="595.28px" viewBox="0 0 841.89 595.28" enable-background="new 0 0 841.89 595.28" xml:space="preserve">
<g>
	<g>
		<g>
			<g>
				<rect x="255.546" y="78.572" fill="#7D9B3D" width="77.616" height="396"/>
				<rect x="363.346" y="118.172" fill="#7D9B3D" width="77.616" height="356.4"/>
				<rect x="471.146" y="137.972" fill="#7D9B3D" width="77.616" height="336.601"/>
				<rect x="578.946" y="169.652" fill="#7D9B3D" width="77.616" height="304.92"/>
				<rect x="686.746" y="298.965" fill="#7D9B3D" width="77.616" height="175.607"/>
			</g>
		</g>
	</g>
	<g>
		<line fill="none" stroke="#000000" stroke-miterlimit="10" x1="240.454" y1="474.572" x2="779.454" y2="474.572"/>
		<g>
			<g>
				<line fill="none" stroke="#000000" stroke-miterlimit="10" x1="240.454" y1="474.572" x2="240.454" y2="464.672"/>
				<line fill="none" stroke="#000000" stroke-miterlimit="10" x1="348.254" y1="474.572" x2="348.254" y2="464.672"/>
				<line fill="none" stroke="#000000" stroke-miterlimit="10" x1="456.054" y1="474.572" x2="456.054" y2="464.672"/>
				<line fill="none" stroke="#000000" stroke-miterlimit="10" x1="563.854" y1="474.572" x2="563.854" y2="464.672"/>
				<line fill="none" stroke="#000000" stroke-miterlimit="10" x1="671.654" y1="474.572" x2="671.654" y2="464.672"/>
				<line fill="none" stroke="#000000" stroke-miterlimit="10" x1="779.454" y1="474.572" x2="779.454" y2="464.672"/>
			</g>
			<g>
			</g>
		</g>
	</g>
	<g>
		<g>
			<text transform="matrix(1 0 0 1 219.9785 484.0469)" font-family="'StoneSerifITC-Medium'" font-size="21">0</text>
			<text transform="matrix(1 0 0 1 188.0586 385.0469)" font-family="'StoneSerifITC-Medium'" font-size="21">$5m</text>
			<text transform="matrix(1 0 0 1 177.0547 286.0464)"><tspan x="0" y="0" font-family="'StoneSerifITC-Medium'" font-size="21">$</tspan><tspan x="12.054" y="0" font-family="'StoneSerifITC-Medium'" font-size="21" letter-spacing="-1">1</tspan><tspan x="23.058" y="0" font-family="'StoneSerifITC-Medium'" font-size="21">0m</tspan></text>
			<text transform="matrix(1 0 0 1 177.5381 187.0464)"><tspan x="0" y="0" font-family="'StoneSerifITC-Medium'" font-size="21">$</tspan><tspan x="12.054" y="0" font-family="'StoneSerifITC-Medium'" font-size="21" letter-spacing="-1">1</tspan><tspan x="22.574" y="0" font-family="'StoneSerifITC-Medium'" font-size="21">5m</tspan></text>
			<text transform="matrix(1 0 0 1 175.8369 88.0464)"><tspan x="0" y="0" font-family="'StoneSerifITC-Medium'" font-size="21">$</tspan><tspan x="12.054" y="0" font-family="'StoneSerifITC-Medium'" font-size="21">2</tspan><tspan x="24.275" y="0" font-family="'StoneSerifITC-Medium'" font-size="21">0m</tspan></text>
		</g>
		<line fill="none" stroke="#000000" stroke-miterlimit="10" x1="240.454" y1="474.572" x2="240.454" y2="78.572"/>
		<g>
			<g>
				<line fill="none" stroke="#000000" stroke-miterlimit="10" x1="240.454" y1="474.572" x2="253.929" y2="474.572"/>
				<line fill="none" stroke="#000000" stroke-miterlimit="10" x1="240.454" y1="375.572" x2="253.929" y2="375.572"/>
				<line fill="none" stroke="#000000" stroke-miterlimit="10" x1="240.454" y1="276.572" x2="253.929" y2="276.572"/>
				<line fill="none" stroke="#000000" stroke-miterlimit="10" x1="240.454" y1="177.572" x2="253.929" y2="177.572"/>
				<line fill="none" stroke="#000000" stroke-miterlimit="10" x1="240.454" y1="78.572" x2="253.929" y2="78.572"/>
			</g>
			<g>
			</g>
		</g>
	</g>
	<g>
		<g>
		</g>
	</g>
	<g>
		<text transform="matrix(1 0 0 1 684.1523 500.709)"><tspan x="0" y="0" font-family="'StoneSerifITC-Medium'" font-size="21">2</tspan><tspan x="12.222" y="0" font-family="'StoneSerifITC-Medium'" font-size="21" letter-spacing="-1">0</tspan><tspan x="22.932" y="0" font-family="'StoneSerifITC-Medium'" font-size="21" letter-spacing="-1">1</tspan><tspan x="33.452" y="0" font-family="'StoneSerifITC-Medium'" font-size="21">5-</tspan><tspan x="52.499" y="0" font-family="'StoneSerifITC-Medium'" font-size="21" letter-spacing="-1">1</tspan><tspan x="62.747" y="0" font-family="'StoneSerifITC-Medium'" font-size="21">6</tspan></text>
		<text transform="matrix(1 0 0 1 576.458 500.709)"><tspan x="0" y="0" font-family="'StoneSerifITC-Medium'" font-size="21">2</tspan><tspan x="12.222" y="0" font-family="'StoneSerifITC-Medium'" font-size="21" letter-spacing="-1">0</tspan><tspan x="22.932" y="0" font-family="'StoneSerifITC-Medium'" font-size="21" letter-spacing="-2">1</tspan><tspan x="32.97" y="0" font-family="'StoneSerifITC-Medium'" font-size="21">4-</tspan><tspan x="52.017" y="0" font-family="'StoneSerifITC-Medium'" font-size="21" letter-spacing="-1">1</tspan><tspan x="62.537" y="0" font-family="'StoneSerifITC-Medium'" font-size="21">5</tspan></text>
		<text transform="matrix(1 0 0 1 468.6582 500.709)"><tspan x="0" y="0" font-family="'StoneSerifITC-Medium'" font-size="21">2</tspan><tspan x="12.222" y="0" font-family="'StoneSerifITC-Medium'" font-size="21" letter-spacing="-1">0</tspan><tspan x="22.932" y="0" font-family="'StoneSerifITC-Medium'" font-size="21" letter-spacing="-1">1</tspan><tspan x="33.452" y="0" font-family="'StoneSerifITC-Medium'" font-size="21">3-</tspan><tspan x="52.499" y="0" font-family="'StoneSerifITC-Medium'" font-size="21" letter-spacing="-2">1</tspan><tspan x="62.537" y="0" font-family="'StoneSerifITC-Medium'" font-size="21">4</tspan></text>
		<text transform="matrix(1 0 0 1 360.3013 500.709)"><tspan x="0" y="0" font-family="'StoneSerifITC-Medium'" font-size="21">2</tspan><tspan x="12.222" y="0" font-family="'StoneSerifITC-Medium'" font-size="21" letter-spacing="-1">0</tspan><tspan x="22.932" y="0" font-family="'StoneSerifITC-Medium'" font-size="21">1</tspan><tspan x="34.082" y="0" font-family="'StoneSerifITC-Medium'" font-size="21">2-</tspan><tspan x="53.129" y="0" font-family="'StoneSerifITC-Medium'" font-size="21" letter-spacing="-1">1</tspan><tspan x="63.65" y="0" font-family="'StoneSerifITC-Medium'" font-size="21">3</tspan></text>
		<text transform="matrix(1 0 0 1 253.1943 500.709)"><tspan x="0" y="0" font-family="'StoneSerifITC-Medium'" font-size="21">2</tspan><tspan x="12.222" y="0" font-family="'StoneSerifITC-Medium'" font-size="21" letter-spacing="-1">0</tspan><tspan x="22.932" y="0" font-family="'StoneSerifITC-Medium'" font-size="21" letter-spacing="-2">1</tspan><tspan x="32.066" y="0" font-family="'StoneSerifITC-Medium'" font-size="21">1-</tspan><tspan x="51.113" y="0" font-family="'StoneSerifITC-Medium'" font-size="21">1</tspan><tspan x="62.263" y="0" font-family="'StoneSerifITC-Medium'" font-size="21">2</tspan></text>
	</g>
</g>
<g>
</g>
<g>
</g>
<g>
</g>
<g>
</g>
<g>
</g>
<g>
</g>
</svg>
