<?xml version="1.0" encoding="utf-8"?>
<!-- Generator: Adobe Illustrator 16.0.0, SVG Export Plug-In . SVG Version: 6.00 Build 0)  -->
<!DOCTYPE svg PUBLIC "-//W3C//DTD SVG 1.1//EN" "http://www.w3.org/Graphics/SVG/1.1/DTD/svg11.dtd">
<svg version="1.1" xmlns="http://www.w3.org/2000/svg" xmlns:xlink="http://www.w3.org/1999/xlink" x="0px" y="0px"
	 width="841.89px" height="595.28px" viewBox="0 0 841.89 595.28" enable-background="new 0 0 841.89 595.28" xml:space="preserve">
<g id="Layer_2">
</g>
<g id="Layer_1">
	<g>
		<g>
			<g>
				<g>
					<rect x="191.529" y="76.036" fill-rule="evenodd" clip-rule="evenodd" fill="#939598" width="24.011" height="359.246"/>
					<rect x="291.573" y="74.941" fill="#939598" width="24.011" height="360.34"/>
					<rect x="391.618" y="76.428" fill="#939598" width="24.011" height="358.854"/>
					<rect x="491.662" y="77.16" fill="#939598" width="24.011" height="358.122"/>
					<rect x="591.706" y="80.947" fill="#939598" width="24.012" height="354.334"/>
				</g>
			</g>
			<g>
				<g>
					<rect x="164.851" y="405.514" fill-rule="evenodd" clip-rule="evenodd" fill="#8AB0DD" width="24.011" height="29.768"/>
					<rect x="264.895" y="411.797" fill="#8AB0DD" width="24.011" height="23.484"/>
					<rect x="364.939" y="413.382" fill="#8AB0DD" width="24.011" height="21.899"/>
					<rect x="464.983" y="415.022" fill="#8AB0DD" width="24.011" height="20.259"/>
					<rect x="565.027" y="416.907" fill="#8AB0DD" width="24.011" height="18.374"/>
				</g>
			</g>
			<g>
				<g>
					<rect x="138.172" y="388.885" fill-rule="evenodd" clip-rule="evenodd" fill="#007DC3" width="24.011" height="46.396"/>
					<rect x="238.216" y="394.729" fill="#007DC3" width="24.011" height="40.552"/>
					<rect x="338.261" y="400.808" fill="#007DC3" width="24.011" height="34.474"/>
					<rect x="438.305" y="407.847" fill="#007DC3" width="24.011" height="27.435"/>
					<rect x="538.349" y="412.323" fill="#007DC3" width="24.011" height="22.958"/>
				</g>
			</g>
		</g>
		<g>
			
				<line fill-rule="evenodd" clip-rule="evenodd" fill="none" stroke="#000000" stroke-miterlimit="10" x1="126.834" y1="435.281" x2="627.056" y2="435.281"/>
			<g>
				<g>
					<line fill="#6660AA" stroke="#000000" stroke-miterlimit="10" x1="126.834" y1="435.281" x2="126.834" y2="425.479"/>
					<line fill="#6660AA" stroke="#000000" stroke-miterlimit="10" x1="226.878" y1="435.281" x2="226.878" y2="425.479"/>
					<line fill="#6660AA" stroke="#000000" stroke-miterlimit="10" x1="326.922" y1="435.281" x2="326.922" y2="425.479"/>
					<line fill="#6660AA" stroke="#000000" stroke-miterlimit="10" x1="426.967" y1="435.281" x2="426.967" y2="425.479"/>
					<line fill="#6660AA" stroke="#000000" stroke-miterlimit="10" x1="527.011" y1="435.281" x2="527.011" y2="425.479"/>
					<line fill="#6660AA" stroke="#000000" stroke-miterlimit="10" x1="627.056" y1="435.281" x2="627.056" y2="425.479"/>
				</g>
				<g>
				</g>
			</g>
		</g>
		<g>
			<g>
				<text transform="matrix(1 0 0 1 106.6699 444.0742)" font-family="'StoneSerifITC-Medium'" font-size="21.5124">0</text>
				<text transform="matrix(1 0 0 1 50.5029 378.7217)"><tspan x="0" y="0" font-family="'StoneSerifITC-Medium'" font-size="21.5124">2</tspan><tspan x="12.52" y="0" font-family="'StoneSerifITC-Medium'" font-size="21.5124">0,</tspan><tspan x="31.041" y="0" font-family="'StoneSerifITC-Medium'" font-size="21.5124">00</tspan><tspan x="56.167" y="0" font-family="'StoneSerifITC-Medium'" font-size="21.5124">0</tspan></text>
				<text transform="matrix(1 0 0 1 50.6748 313.3691)"><tspan x="0" y="0" font-family="'StoneSerifITC-Medium'" font-size="21.5124">40,</tspan><tspan x="30.869" y="0" font-family="'StoneSerifITC-Medium'" font-size="21.5124">00</tspan><tspan x="55.995" y="0" font-family="'StoneSerifITC-Medium'" font-size="21.5124">0</tspan></text>
				<text transform="matrix(1 0 0 1 50.6748 248.0166)"><tspan x="0" y="0" font-family="'StoneSerifITC-Medium'" font-size="21.5124">60,</tspan><tspan x="30.869" y="0" font-family="'StoneSerifITC-Medium'" font-size="21.5124">00</tspan><tspan x="55.995" y="0" font-family="'StoneSerifITC-Medium'" font-size="21.5124">0</tspan></text>
				<text transform="matrix(1 0 0 1 50.6748 182.665)"><tspan x="0" y="0" font-family="'StoneSerifITC-Medium'" font-size="21.5124">80,</tspan><tspan x="30.869" y="0" font-family="'StoneSerifITC-Medium'" font-size="21.5124">00</tspan><tspan x="55.995" y="0" font-family="'StoneSerifITC-Medium'" font-size="21.5124">0</tspan></text>
				<text transform="matrix(1 0 0 1 39.1875 117.3125)"><tspan x="0" y="0" font-family="'StoneSerifITC-Medium'" font-size="21.5124" letter-spacing="-1">1</tspan><tspan x="11.272" y="0" font-family="'StoneSerifITC-Medium'" font-size="21.5124">0</tspan><tspan x="23.835" y="0" font-family="'StoneSerifITC-Medium'" font-size="21.5124">0,</tspan><tspan x="42.356" y="0" font-family="'StoneSerifITC-Medium'" font-size="21.5124">00</tspan><tspan x="67.482" y="0" font-family="'StoneSerifITC-Medium'" font-size="21.5124">0</tspan></text>
				<text transform="matrix(1 0 0 1 39.0801 51.96)"><tspan x="0" y="0" font-family="'StoneSerifITC-Medium'" font-size="21.5124">1</tspan><tspan x="11.423" y="0" font-family="'StoneSerifITC-Medium'" font-size="21.5124">2</tspan><tspan x="23.942" y="0" font-family="'StoneSerifITC-Medium'" font-size="21.5124">0,</tspan><tspan x="42.464" y="0" font-family="'StoneSerifITC-Medium'" font-size="21.5124">00</tspan><tspan x="67.589" y="0" font-family="'StoneSerifITC-Medium'" font-size="21.5124">0</tspan></text>
			</g>
			
				<line fill-rule="evenodd" clip-rule="evenodd" fill="none" stroke="#000000" stroke-miterlimit="10" x1="126.834" y1="435.281" x2="126.834" y2="43.167"/>
			<g>
				<g>
					<line fill="#6660AA" stroke="#000000" stroke-miterlimit="10" x1="126.834" y1="435.281" x2="139.339" y2="435.281"/>
					<line fill="#6660AA" stroke="#000000" stroke-miterlimit="10" x1="126.834" y1="369.929" x2="139.339" y2="369.929"/>
					<line fill="#6660AA" stroke="#000000" stroke-miterlimit="10" x1="126.834" y1="304.576" x2="139.339" y2="304.576"/>
					<line fill="#6660AA" stroke="#000000" stroke-miterlimit="10" x1="126.834" y1="239.224" x2="139.339" y2="239.224"/>
					<line fill="#6660AA" stroke="#000000" stroke-miterlimit="10" x1="126.834" y1="173.872" x2="139.339" y2="173.872"/>
					<line fill="#6660AA" stroke="#000000" stroke-miterlimit="10" x1="126.834" y1="108.519" x2="139.339" y2="108.519"/>
					<line fill="#6660AA" stroke="#000000" stroke-miterlimit="10" x1="126.834" y1="43.167" x2="139.339" y2="43.167"/>
				</g>
				<g>
				</g>
			</g>
		</g>
		<g>
			<g>
			</g>
			<g>
			</g>
			<g>
			</g>
		</g>
		<g>
			<text transform="matrix(1 0 0 1 553.8652 458.9951)"><tspan x="0" y="0" font-family="'StoneSerifITC-Medium'" font-size="21.5124">2</tspan><tspan x="12.52" y="0" font-family="'StoneSerifITC-Medium'" font-size="21.5124" letter-spacing="-1">0</tspan><tspan x="23.49" y="0" font-family="'StoneSerifITC-Medium'" font-size="21.5124" letter-spacing="-1">1</tspan><tspan x="33.988" y="0" font-family="'StoneSerifITC-Medium'" font-size="21.5124">6</tspan></text>
			<text transform="matrix(1 0 0 1 453.6797 458.9951)"><tspan x="0" y="0" font-family="'StoneSerifITC-Medium'" font-size="21.5124">2</tspan><tspan x="12.52" y="0" font-family="'StoneSerifITC-Medium'" font-size="21.5124" letter-spacing="-1">0</tspan><tspan x="23.49" y="0" font-family="'StoneSerifITC-Medium'" font-size="21.5124" letter-spacing="-1">1</tspan><tspan x="34.268" y="0" font-family="'StoneSerifITC-Medium'" font-size="21.5124">5</tspan></text>
			<text transform="matrix(1 0 0 1 353.8833 458.9951)"><tspan x="0" y="0" font-family="'StoneSerifITC-Medium'" font-size="21.5124">2</tspan><tspan x="12.52" y="0" font-family="'StoneSerifITC-Medium'" font-size="21.5124" letter-spacing="-1">0</tspan><tspan x="23.491" y="0" font-family="'StoneSerifITC-Medium'" font-size="21.5124" letter-spacing="-2">1</tspan><tspan x="33.774" y="0" font-family="'StoneSerifITC-Medium'" font-size="21.5124">4</tspan></text>
			<text transform="matrix(1 0 0 1 253.5923 458.9951)"><tspan x="0" y="0" font-family="'StoneSerifITC-Medium'" font-size="21.5124">2</tspan><tspan x="12.52" y="0" font-family="'StoneSerifITC-Medium'" font-size="21.5124" letter-spacing="-1">0</tspan><tspan x="23.491" y="0" font-family="'StoneSerifITC-Medium'" font-size="21.5124" letter-spacing="-1">1</tspan><tspan x="34.269" y="0" font-family="'StoneSerifITC-Medium'" font-size="21.5124">3</tspan></text>
			<text transform="matrix(1 0 0 1 153.2251 458.9951)"><tspan x="0" y="0" font-family="'StoneSerifITC-Medium'" font-size="21.5124">2</tspan><tspan x="12.52" y="0" font-family="'StoneSerifITC-Medium'" font-size="21.5124" letter-spacing="-1">0</tspan><tspan x="23.491" y="0" font-family="'StoneSerifITC-Medium'" font-size="21.5124">1</tspan><tspan x="34.914" y="0" font-family="'StoneSerifITC-Medium'" font-size="21.5124">2</tspan></text>
		</g>
	</g>
	<rect x="313.432" y="492.33" fill="#8AB0DD" width="22.499" height="22.5"/>
	<g>
		<path d="M362.486,510.336c-0.968,0.322-2.193,0.494-3.483,0.494h-6.213v-0.559c1.226-0.107,1.483-0.172,1.677-0.473
			c0.15-0.236,0.15-0.322,0.15-1.656v-9.674c0-1.979,0-2-1.827-2.15v-0.537h7.095c1.526,0,2.795,0.172,3.827,0.58
			c2.622,1.01,4.063,3.289,4.063,6.385C367.775,506.381,365.775,509.262,362.486,510.336z M361.54,496.77
			c-0.688-0.193-1.569-0.322-2.537-0.322h-2.301v11.33c0,1.979,0.388,2.344,2.322,2.344c1.312,0,2.494-0.215,3.354-0.688
			c1.87-1.011,2.945-3.247,2.945-6.257C365.324,499.779,363.905,497.458,361.54,496.77z"/>
		<path d="M375.858,511.088h-0.559c-2.064,0-3.247-0.494-4.192-1.633c-0.946-1.162-1.462-2.709-1.462-4.193
			c0-1.461,0.537-2.924,1.44-3.934c0.859-0.968,2.128-1.506,3.547-1.506c1.914,0,3.247,0.989,3.784,2.752
			c0.193,0.646,0.258,1.162,0.236,2.301h-6.923c0.021,1.57,0.408,2.816,1.14,3.677c0.709,0.839,1.677,1.29,2.967,1.29
			c0.796,0,1.419-0.193,2.494-0.731l0.322,0.646L375.858,511.088z M374.482,500.532c-1.226,0-2.128,0.753-2.516,2.085
			c-0.129,0.409-0.172,0.753-0.236,1.484h3.698c0.968,0,1.376-0.365,1.376-1.248C376.804,501.543,375.836,500.532,374.482,500.532z"
			/>
		<path d="M387.404,496.34l-0.301,0.451c-0.064,0.086-0.13,0.15-0.237,0.15c-0.064,0-0.15-0.021-0.236-0.064l-0.773-0.344
			c-0.731-0.322-1.011-0.387-1.269-0.387c-0.624,0-0.817,0.365-0.817,1.655v2.795h2.967v0.56l-0.881,0.387h-2.086v6.6
			c0,0.667,0.021,1.248,0.064,1.42c0.129,0.494,0.688,0.645,2.129,0.709v0.559h-5.849v-0.559c0.13,0,0.259-0.021,0.366-0.021
			c1.312-0.086,1.376-0.236,1.376-2.107v-6.6h-1.483v-0.946h1.483v-1.741c0-1.29,0.58-2.129,2.149-3.117
			c0.86-0.538,1.376-0.753,1.936-0.753c0.172,0,0.344,0.064,0.451,0.15l0.946,0.774c0.086,0.064,0.15,0.129,0.15,0.193
			S387.49,496.211,387.404,496.34z"/>
		<path d="M393.617,511.088h-0.559c-2.064,0-3.247-0.494-4.192-1.633c-0.946-1.162-1.462-2.709-1.462-4.193
			c0-1.461,0.537-2.924,1.44-3.934c0.859-0.968,2.128-1.506,3.547-1.506c1.914,0,3.247,0.989,3.784,2.752
			c0.193,0.646,0.258,1.162,0.236,2.301h-6.923c0.021,1.57,0.408,2.816,1.14,3.677c0.709,0.839,1.677,1.29,2.967,1.29
			c0.796,0,1.419-0.193,2.494-0.731l0.322,0.646L393.617,511.088z M392.241,500.532c-1.226,0-2.128,0.753-2.516,2.085
			c-0.129,0.409-0.172,0.753-0.236,1.484h3.698c0.967,0,1.376-0.365,1.376-1.248C394.563,501.543,393.595,500.532,392.241,500.532z"
			/>
		<path d="M405.055,501.822l-0.495,0.387c-0.064,0.043-0.129,0.107-0.215,0.107c-0.064,0-0.15-0.043-0.193-0.064l-0.709-0.365
			c-0.237-0.129-0.409-0.15-0.688-0.15c-0.494,0-0.774,0.279-0.989,0.816c-0.193,0.495-0.193,1.656-0.193,2.236v3.354
			c0,2.086,0.172,2.021,2.172,2.129v0.559h-5.87v-0.559c1.785-0.086,1.764-0.258,1.764-2.129v-5.805
			c0-0.859-0.258-1.053-1.226-1.053h-0.494v-0.538c1.44-0.064,2.729-0.408,3.654-0.925v1.979l0.989-1.161
			c0.623-0.731,0.795-0.817,1.269-0.817c0.344,0,0.559,0.172,0.816,0.646l0.538,0.968c0.043,0.086,0.064,0.129,0.064,0.172
			C405.249,501.693,405.184,501.736,405.055,501.822z"/>
		<path d="M413.719,501.822l-0.495,0.387c-0.064,0.043-0.129,0.107-0.215,0.107c-0.064,0-0.15-0.043-0.193-0.064l-0.709-0.365
			c-0.237-0.129-0.409-0.15-0.688-0.15c-0.494,0-0.774,0.279-0.989,0.816c-0.193,0.495-0.193,1.656-0.193,2.236v3.354
			c0,2.086,0.172,2.021,2.172,2.129v0.559h-5.87v-0.559c1.785-0.086,1.764-0.258,1.764-2.129v-5.805
			c0-0.859-0.258-1.053-1.226-1.053h-0.494v-0.538c1.44-0.064,2.729-0.408,3.654-0.925v1.979l0.989-1.161
			c0.623-0.731,0.795-0.817,1.269-0.817c0.344,0,0.559,0.172,0.816,0.646l0.538,0.968c0.043,0.086,0.064,0.129,0.064,0.172
			C413.913,501.693,413.848,501.736,413.719,501.822z"/>
		<path d="M421.093,511.088h-0.559c-2.064,0-3.247-0.494-4.192-1.633c-0.946-1.162-1.462-2.709-1.462-4.193
			c0-1.461,0.537-2.924,1.44-3.934c0.859-0.968,2.128-1.506,3.547-1.506c1.914,0,3.248,0.989,3.785,2.752
			c0.193,0.646,0.258,1.162,0.236,2.301h-6.923c0.021,1.57,0.408,2.816,1.14,3.677c0.709,0.839,1.677,1.29,2.967,1.29
			c0.796,0,1.418-0.193,2.495-0.731l0.322,0.646L421.093,511.088z M419.717,500.532c-1.226,0-2.128,0.753-2.516,2.085
			c-0.129,0.409-0.172,0.753-0.236,1.484h3.698c0.967,0,1.375-0.365,1.375-1.248C422.039,501.543,421.072,500.532,419.717,500.532z"
			/>
		<path d="M434.123,511.066c-0.258-0.322-0.451-0.967-0.473-1.354c0-0.043,0-0.107,0-0.15l-1.441,0.859
			c-0.967,0.58-1.289,0.666-1.893,0.666c-2.709,0-4.793-2.429-4.793-5.568c0-3.396,2.342-5.697,5.783-5.697
			c0.795,0,1.59,0.107,2.344,0.345v-2.73c0-0.56-0.045-0.882-0.281-1.054c-0.172-0.129-0.43-0.172-0.859-0.172h-0.58v-0.58
			c1.16,0,2.58-0.236,3.654-0.624v13.028c0,1.227,0.215,1.613,0.773,1.613c0.195,0,0.367-0.043,0.711-0.15l0.15,0.602
			L434.123,511.066z M433.65,501.844c-0.625-0.902-1.506-1.312-2.58-1.312c-2.365,0-3.42,2.278-3.42,4.386
			c0,2,0.969,4.988,3.398,4.988c0.816,0,1.762-0.537,2.213-1.032c0.301-0.344,0.389-0.946,0.389-1.72V501.844z"/>
	</g>
	<rect x="481.201" y="492.33" fill="#939598" width="22.498" height="22.5"/>
	<g>
		<path d="M528.512,503.973c-0.816,0.279-1.504,0.365-3.074,0.387v-0.43c1.184-0.064,1.678-0.193,2.236-0.495
			c1.119-0.581,1.721-1.827,1.721-3.526c0-2.343-1.141-3.439-3.592-3.439h-1.289v11.674c0,1.979,0,1.979,1.807,2.129v0.559h-5.74
			v-0.559c1.826-0.15,1.826-0.15,1.826-2.129v-9.674c0-2,0-1.979-1.826-2.129v-0.559h5.611c3.525,0,5.332,1.332,5.332,3.934
			C531.523,501.693,530.404,503.306,528.512,503.973z"/>
		<path d="M538.789,511.088h-0.559c-2.064,0-3.246-0.494-4.191-1.633c-0.947-1.162-1.463-2.709-1.463-4.193
			c0-1.461,0.537-2.924,1.441-3.934c0.859-0.968,2.127-1.506,3.547-1.506c1.914,0,3.246,0.989,3.783,2.752
			c0.193,0.646,0.258,1.162,0.236,2.301h-6.922c0.021,1.57,0.408,2.816,1.139,3.677c0.709,0.839,1.678,1.29,2.967,1.29
			c0.797,0,1.42-0.193,2.494-0.731l0.322,0.646L538.789,511.088z M537.414,500.532c-1.227,0-2.129,0.753-2.516,2.085
			c-0.129,0.409-0.172,0.753-0.236,1.484h3.697c0.967,0,1.377-0.365,1.377-1.248C539.736,501.543,538.768,500.532,537.414,500.532z"
			/>
		<path d="M550.529,510.83v-0.559c1.848-0.193,1.719-0.43,1.719-2.129v-3.977c0-2.344-0.623-3.182-2.43-3.182
			c-1.783,0-2.645,0.967-2.945,2.3c-0.129,0.581-0.172,1.226-0.172,2.214c0,2.645,0,0,0,2.645c0,1.871,0.021,1.893,1.742,2.129
			v0.559h-5.396v-0.559c1.678-0.236,1.721-0.301,1.721-2.129v-5.826c0-0.859-0.258-1.053-1.227-1.053h-0.494v-0.538
			c1.441-0.064,2.752-0.387,3.654-0.903v1.871c1.205-1.29,2.58-1.871,4.301-1.871c1.611,0,2.58,0.688,2.988,1.828
			c0.172,0.516,0.193,0.988,0.193,1.956v4.536c0,1.828-0.086,1.957,1.721,2.129v0.559H550.529z"/>
		<path d="M560.482,511.088c-1.074,0-1.893-0.172-2.816-0.58V508.1h0.559c0.043,0.538,0.129,0.989,0.344,1.313
			c0.389,0.58,1.184,0.945,2.021,0.945c1.162,0,1.979-0.795,1.979-1.892c0-1.011-0.365-1.462-2.408-2.839
			c-1.979-1.332-2.473-1.955-2.473-3.031c0-1.654,1.463-2.773,3.611-2.773c0.84,0,1.527,0.064,2.387,0.345v2.128h-0.559
			c-0.064-0.408-0.107-0.58-0.215-0.795c-0.322-0.58-0.859-0.968-1.721-0.968c-0.967,0-1.676,0.603-1.676,1.419
			c0,0.322,0.129,0.709,0.344,0.945c0.365,0.409,0.365,0.409,2.344,1.807c1.719,1.226,2.279,1.957,2.279,3.096
			C564.482,509.777,562.912,511.088,560.482,511.088z"/>
		<path d="M565.943,510.83v-0.559c1.678-0.172,1.721-0.193,1.721-2.129v-5.805c0-0.859-0.236-1.053-1.227-1.053h-0.494v-0.538
			c1.441-0.064,2.752-0.408,3.654-0.925v8.32c0,1.807-0.043,1.957,1.721,2.129v0.559H565.943z M568.373,498.404
			c-0.688,0-1.248-0.56-1.248-1.27c0-0.645,0.582-1.225,1.27-1.225c0.666,0,1.246,0.559,1.246,1.246
			C569.641,497.866,569.082,498.404,568.373,498.404z"/>
		<path d="M578.068,511.088c-3.117,0-5.287-2.45-5.287-5.504c0-3.289,2.406-5.762,5.719-5.762c3.182,0,5.375,2.258,5.375,5.525
			C583.875,508.638,581.424,511.088,578.068,511.088z M578.221,500.532c-2.537,0-3.313,2.816-3.313,4.88
			c0,2.902,1.398,4.945,3.441,4.945c2.063,0,3.396-1.87,3.396-4.773C581.746,502.488,580.369,500.532,578.221,500.532z"/>
		<path d="M592.818,510.83v-0.559c1.848-0.193,1.719-0.43,1.719-2.129v-3.977c0-2.344-0.623-3.182-2.43-3.182
			c-1.783,0-2.645,0.967-2.945,2.3c-0.129,0.581-0.172,1.226-0.172,2.214c0,2.645,0,0,0,2.645c0,1.871,0.021,1.893,1.742,2.129
			v0.559h-5.396v-0.559c1.678-0.236,1.721-0.301,1.721-2.129v-5.826c0-0.859-0.258-1.053-1.227-1.053h-0.494v-0.538
			c1.441-0.064,2.752-0.387,3.654-0.903v1.871c1.205-1.29,2.58-1.871,4.301-1.871c1.611,0,2.58,0.688,2.988,1.828
			c0.172,0.516,0.193,0.988,0.193,1.956v4.536c0,1.828-0.086,1.957,1.721,2.129v0.559H592.818z"/>
		<path d="M605.867,511.088h-0.559c-2.064,0-3.246-0.494-4.191-1.633c-0.947-1.162-1.463-2.709-1.463-4.193
			c0-1.461,0.537-2.924,1.441-3.934c0.859-0.968,2.127-1.506,3.547-1.506c1.914,0,3.246,0.989,3.783,2.752
			c0.193,0.646,0.258,1.162,0.236,2.301h-6.922c0.021,1.57,0.408,2.816,1.139,3.677c0.709,0.839,1.678,1.29,2.967,1.29
			c0.797,0,1.42-0.193,2.494-0.731l0.322,0.646L605.867,511.088z M604.492,500.532c-1.227,0-2.129,0.753-2.516,2.085
			c-0.129,0.409-0.172,0.753-0.236,1.484h3.697c0.967,0,1.377-0.365,1.377-1.248C606.814,501.543,605.846,500.532,604.492,500.532z"
			/>
		<path d="M617.307,501.822l-0.496,0.387c-0.064,0.043-0.129,0.107-0.215,0.107c-0.064,0-0.15-0.043-0.193-0.064l-0.709-0.365
			c-0.236-0.129-0.408-0.15-0.688-0.15c-0.494,0-0.775,0.279-0.99,0.816c-0.193,0.495-0.193,1.656-0.193,2.236v3.354
			c0,2.086,0.172,2.021,2.172,2.129v0.559h-5.869v-0.559c1.785-0.086,1.764-0.258,1.764-2.129v-5.805
			c0-0.859-0.258-1.053-1.227-1.053h-0.494v-0.538c1.441-0.064,2.73-0.408,3.654-0.925v1.979l0.99-1.161
			c0.623-0.731,0.795-0.817,1.268-0.817c0.344,0,0.559,0.172,0.816,0.646l0.539,0.968c0.043,0.086,0.064,0.129,0.064,0.172
			C617.5,501.693,617.436,501.736,617.307,501.822z"/>
		<path d="M621.906,511.088c-1.074,0-1.893-0.172-2.816-0.58V508.1h0.559c0.043,0.538,0.129,0.989,0.344,1.313
			c0.389,0.58,1.184,0.945,2.021,0.945c1.162,0,1.979-0.795,1.979-1.892c0-1.011-0.365-1.462-2.408-2.839
			c-1.979-1.332-2.473-1.955-2.473-3.031c0-1.654,1.463-2.773,3.611-2.773c0.84,0,1.527,0.064,2.387,0.345v2.128h-0.559
			c-0.064-0.408-0.107-0.58-0.215-0.795c-0.322-0.58-0.859-0.968-1.721-0.968c-0.967,0-1.676,0.603-1.676,1.419
			c0,0.322,0.129,0.709,0.344,0.945c0.365,0.409,0.365,0.409,2.344,1.807c1.719,1.226,2.279,1.957,2.279,3.096
			C625.906,509.777,624.336,511.088,621.906,511.088z"/>
	</g>
	<rect x="124.692" y="492.33" fill="#007DC3" width="22.499" height="22.5"/>
	<g>
		<path d="M177.788,509.67c-0.107,0.43-0.173,0.516-0.796,0.73c-1.29,0.451-3.053,0.688-4.515,0.688
			c-2.021,0-3.935-0.602-5.439-1.74c-1.698-1.291-2.816-3.312-2.816-5.978c0-2.171,0.967-4.579,3.053-6.149
			c1.376-1.031,3.225-1.697,5.611-1.697c1.483,0,3.117,0.322,4.085,0.73c0.623,0.258,0.817,0.451,0.817,0.967v2.645h-0.56
			c-0.064-0.752-0.193-1.311-0.408-1.719c-0.624-1.184-2.387-1.893-4.171-1.893c-3.677,0-5.977,2.559-5.977,6.923
			c0,2.343,0.666,4.386,2.042,5.697c0.989,0.925,2.344,1.483,4.085,1.483c1.698,0,3.225-0.58,4.171-1.763
			c0.344-0.431,0.537-0.796,0.903-1.612h0.559L177.788,509.67z"/>
		<path d="M185.227,511.088c-3.117,0-5.288-2.45-5.288-5.504c0-3.289,2.407-5.762,5.719-5.762c3.182,0,5.375,2.258,5.375,5.525
			C191.032,508.638,188.581,511.088,185.227,511.088z M185.378,500.532c-2.537,0-3.312,2.816-3.312,4.88
			c0,2.902,1.397,4.945,3.44,4.945c2.063,0,3.396-1.87,3.396-4.773C188.903,502.488,187.527,500.532,185.378,500.532z"/>
		<path d="M199.976,510.83v-0.559c1.849-0.193,1.72-0.43,1.72-2.129v-3.977c0-2.344-0.623-3.182-2.43-3.182
			c-1.784,0-2.645,0.967-2.945,2.3c-0.129,0.581-0.172,1.226-0.172,2.214c0,2.645,0,0,0,2.645c0,1.871,0.021,1.893,1.741,2.129
			v0.559h-5.396v-0.559c1.678-0.236,1.721-0.301,1.721-2.129v-5.826c0-0.859-0.258-1.053-1.226-1.053h-0.495v-0.538
			c1.441-0.064,2.752-0.387,3.655-0.903v1.871c1.204-1.29,2.58-1.871,4.3-1.871c1.612,0,2.58,0.688,2.988,1.828
			c0.173,0.516,0.194,0.988,0.194,1.956v4.536c0,1.828-0.086,1.957,1.72,2.129v0.559H199.976z"/>
		<path d="M211.026,511.088c-1.14-0.043-1.613-0.236-2.086-0.816c-0.43-0.537-0.623-1.269-0.623-2.58v-6.148h-1.721v-0.968h1.721
			v-2.257l1.354-1.184h0.58v3.44h3.289v0.581l-0.881,0.387h-2.408c0,5.697,0,0,0,5.697c0,1.29,0.15,2.58,1.72,2.58
			c0.474,0,0.903-0.107,1.397-0.279l0.172,0.559L211.026,511.088z"/>
		<path d="M221.776,501.822l-0.495,0.387c-0.064,0.043-0.129,0.107-0.215,0.107c-0.064,0-0.15-0.043-0.193-0.064l-0.709-0.365
			c-0.237-0.129-0.409-0.15-0.688-0.15c-0.494,0-0.774,0.279-0.989,0.816c-0.193,0.495-0.193,1.656-0.193,2.236v3.354
			c0,2.086,0.172,2.021,2.172,2.129v0.559h-5.87v-0.559c1.785-0.086,1.764-0.258,1.764-2.129v-5.805
			c0-0.859-0.258-1.053-1.226-1.053h-0.494v-0.538c1.44-0.064,2.729-0.408,3.654-0.925v1.979l0.989-1.161
			c0.623-0.731,0.795-0.817,1.269-0.817c0.344,0,0.559,0.172,0.816,0.646l0.538,0.968c0.043,0.086,0.064,0.129,0.064,0.172
			C221.97,501.693,221.905,501.736,221.776,501.822z"/>
		<path d="M223.28,510.83v-0.559c1.678-0.172,1.721-0.193,1.721-2.129v-5.805c0-0.859-0.236-1.053-1.226-1.053h-0.495v-0.538
			c1.441-0.064,2.752-0.408,3.655-0.925v8.32c0,1.807-0.043,1.957,1.72,2.129v0.559H223.28z M225.71,498.404
			c-0.688,0-1.247-0.56-1.247-1.27c0-0.645,0.581-1.225,1.269-1.225c0.667,0,1.247,0.559,1.247,1.246
			C226.979,497.866,226.42,498.404,225.71,498.404z"/>
		<path d="M235.428,511.088c-0.451,0-1.031-0.064-1.634-0.15c-1.269-0.172-1.526-0.215-1.849-0.215
			c-0.193,0-0.451,0.021-0.882,0.107v-13.372c0-0.968-0.107-1.226-1.097-1.226h-0.602v-0.58c1.097,0,2.58-0.258,3.634-0.624v6.558
			c1.14-1.247,2.257-1.764,3.762-1.764c2.709,0,4.365,1.85,4.365,4.924C241.126,508.336,238.653,511.088,235.428,511.088z
			 M235.837,500.854c-1.419,0-2.344,0.796-2.645,2.236c-0.129,0.603-0.193,1.483-0.193,2.515v2.172c0,1.097,0.107,1.635,0.43,2
			s1.011,0.58,1.849,0.58c2.322,0,3.72-2,3.72-5.225C238.997,502.467,237.814,500.854,235.837,500.854z"/>
		<path d="M251.424,511.088c-0.236-0.258-0.387-0.666-0.451-1.139c-0.021-0.193-0.043-0.322-0.043-0.516l-1.893,1.117
			c-0.688,0.408-1.075,0.537-1.806,0.537c-2.387,0-3.333-1.182-3.333-4.191v-4.559c0-0.859-0.258-1.053-1.225-1.053h-0.495v-0.538
			c1.419-0.064,2.752-0.408,3.655-0.925v6.881c0,1.784,0.258,3.096,2.301,3.096c1.225,0,2.214-0.645,2.536-1.699
			c0.194-0.602,0.28-1.525,0.28-2.537v-3.225c0-0.859-0.237-1.053-1.204-1.053h-0.517v-0.538c1.44-0.064,2.752-0.408,3.655-0.925
			c0,3.44,0,7.869,0,7.869c0,1.85,0.107,1.979,0.753,1.979c0.193,0,0.387-0.043,0.73-0.15l0.129,0.602L251.424,511.088z"/>
		<path d="M260.089,511.088c-1.14-0.043-1.613-0.236-2.086-0.816c-0.43-0.537-0.623-1.269-0.623-2.58v-6.148h-1.721v-0.968h1.721
			v-2.257l1.354-1.184h0.58v3.44h3.289v0.581l-0.881,0.387h-2.408c0,5.697,0,0,0,5.697c0,1.29,0.15,2.58,1.72,2.58
			c0.474,0,0.903-0.107,1.397-0.279l0.172,0.559L260.089,511.088z"/>
		<path d="M268.946,511.088c-3.117,0-5.288-2.45-5.288-5.504c0-3.289,2.407-5.762,5.719-5.762c3.182,0,5.375,2.258,5.375,5.525
			C274.752,508.638,272.301,511.088,268.946,511.088z M269.098,500.532c-2.537,0-3.312,2.816-3.312,4.88
			c0,2.902,1.397,4.945,3.44,4.945c2.063,0,3.396-1.87,3.396-4.773C272.623,502.488,271.247,500.532,269.098,500.532z"/>
		<path d="M283.395,501.822l-0.495,0.387c-0.064,0.043-0.129,0.107-0.215,0.107c-0.064,0-0.15-0.043-0.193-0.064l-0.709-0.365
			c-0.237-0.129-0.409-0.15-0.688-0.15c-0.494,0-0.774,0.279-0.989,0.816c-0.193,0.495-0.193,1.656-0.193,2.236v3.354
			c0,2.086,0.172,2.021,2.172,2.129v0.559h-5.87v-0.559c1.785-0.086,1.764-0.258,1.764-2.129v-5.805
			c0-0.859-0.258-1.053-1.226-1.053h-0.495v-0.538c1.441-0.064,2.73-0.408,3.655-0.925v1.979l0.989-1.161
			c0.623-0.731,0.795-0.817,1.269-0.817c0.344,0,0.559,0.172,0.816,0.646l0.538,0.968c0.043,0.086,0.064,0.129,0.064,0.172
			C283.588,501.693,283.523,501.736,283.395,501.822z"/>
		<path d="M287.995,511.088c-1.075,0-1.893-0.172-2.816-0.58V508.1h0.559c0.043,0.538,0.129,0.989,0.344,1.313
			c0.388,0.58,1.183,0.945,2.021,0.945c1.161,0,1.978-0.795,1.978-1.892c0-1.011-0.365-1.462-2.407-2.839
			c-1.979-1.332-2.473-1.955-2.473-3.031c0-1.654,1.462-2.773,3.611-2.773c0.839,0,1.527,0.064,2.387,0.345v2.128h-0.559
			c-0.064-0.408-0.107-0.58-0.215-0.795c-0.323-0.58-0.86-0.968-1.721-0.968c-0.967,0-1.677,0.603-1.677,1.419
			c0,0.322,0.129,0.709,0.344,0.945c0.366,0.409,0.366,0.409,2.344,1.807c1.72,1.226,2.279,1.957,2.279,3.096
			C291.994,509.777,290.425,511.088,287.995,511.088z"/>
	</g>
	<g>
	</g>
	<g>
	</g>
	<g>
	</g>
	<g>
	</g>
	<g>
	</g>
	<g>
	</g>
</g>
</svg>
