<?xml version="1.0" encoding="utf-8"?>
<!-- Generator: Adobe Illustrator 16.0.0, SVG Export Plug-In . SVG Version: 6.00 Build 0)  -->
<!DOCTYPE svg PUBLIC "-//W3C//DTD SVG 1.1//EN" "http://www.w3.org/Graphics/SVG/1.1/DTD/svg11.dtd">
<svg version="1.1" id="Layer_1" xmlns="http://www.w3.org/2000/svg" xmlns:xlink="http://www.w3.org/1999/xlink" x="0px" y="0px"
	 width="841.89px" height="595.28px" viewBox="0 0 841.89 595.28" enable-background="new 0 0 841.89 595.28" xml:space="preserve">
<g>
	<g>
		<g>
			<g>
				<rect x="201.549" y="166.206" fill="#7DB728" width="77.616" height="340.56"/>
				<rect x="309.349" y="205.806" fill="#7DB728" width="77.616" height="300.96"/>
				<rect x="417.149" y="162.246" fill="#7DB728" width="77.616" height="344.52"/>
				<rect x="524.949" y="174.125" fill="#7DB728" width="77.616" height="332.64"/>
				<rect x="632.749" y="142.446" fill="#7DB728" width="77.616" height="364.32"/>
			</g>
		</g>
	</g>
	<g>
		<line fill="none" stroke="#000000" stroke-miterlimit="10" x1="186.457" y1="506.766" x2="725.457" y2="506.766"/>
		<g>
			<g>
				<line fill="none" stroke="#000000" stroke-miterlimit="10" x1="186.457" y1="506.766" x2="186.457" y2="496.865"/>
				<line fill="none" stroke="#000000" stroke-miterlimit="10" x1="294.257" y1="506.766" x2="294.257" y2="496.865"/>
				<line fill="none" stroke="#000000" stroke-miterlimit="10" x1="402.057" y1="506.766" x2="402.057" y2="496.865"/>
				<line fill="none" stroke="#000000" stroke-miterlimit="10" x1="509.857" y1="506.766" x2="509.857" y2="496.865"/>
				<line fill="none" stroke="#000000" stroke-miterlimit="10" x1="617.657" y1="506.766" x2="617.657" y2="496.865"/>
				<line fill="none" stroke="#000000" stroke-miterlimit="10" x1="725.457" y1="506.766" x2="725.457" y2="496.865"/>
			</g>
			<g>
			</g>
		</g>
	</g>
	<g>
		<g>
			<text transform="matrix(1 0 0 1 165.9814 516.2402)" font-family="'StoneSerifITC-Medium'" font-size="21">0</text>
			<text transform="matrix(1 0 0 1 153.7598 437.04)"><tspan x="0" y="0" font-family="'StoneSerifITC-Medium'" font-size="21">2</tspan><tspan x="12.222" y="0" font-family="'StoneSerifITC-Medium'" font-size="21">0</tspan></text>
			<text transform="matrix(1 0 0 1 153.9277 357.8398)" font-family="'StoneSerifITC-Medium'" font-size="21">40</text>
			<text transform="matrix(1 0 0 1 153.9277 278.6406)" font-family="'StoneSerifITC-Medium'" font-size="21">60</text>
			<text transform="matrix(1 0 0 1 153.9277 199.4404)" font-family="'StoneSerifITC-Medium'" font-size="21">80</text>
			<text transform="matrix(1 0 0 1 142.7139 120.2402)"><tspan x="0" y="0" font-family="'StoneSerifITC-Medium'" font-size="21" letter-spacing="-1">1</tspan><tspan x="11.004" y="0" font-family="'StoneSerifITC-Medium'" font-size="21">0</tspan><tspan x="23.268" y="0" font-family="'StoneSerifITC-Medium'" font-size="21">0</tspan></text>
		</g>
		<line fill="none" stroke="#000000" stroke-miterlimit="10" x1="186.457" y1="506.766" x2="186.457" y2="110.766"/>
		<g>
			<g>
				<line fill="none" stroke="#000000" stroke-miterlimit="10" x1="186.457" y1="506.766" x2="199.932" y2="506.766"/>
				<line fill="none" stroke="#000000" stroke-miterlimit="10" x1="186.457" y1="427.565" x2="199.932" y2="427.565"/>
				<line fill="none" stroke="#000000" stroke-miterlimit="10" x1="186.457" y1="348.365" x2="199.932" y2="348.365"/>
				<line fill="none" stroke="#000000" stroke-miterlimit="10" x1="186.457" y1="269.166" x2="199.932" y2="269.166"/>
				<line fill="none" stroke="#000000" stroke-miterlimit="10" x1="186.457" y1="189.966" x2="199.932" y2="189.966"/>
				<line fill="none" stroke="#000000" stroke-miterlimit="10" x1="186.457" y1="110.766" x2="199.932" y2="110.766"/>
			</g>
			<g>
			</g>
		</g>
	</g>
	<g>
		<g>
		</g>
	</g>
	<g>
		<text transform="matrix(1 0 0 1 630.1553 532.9023)"><tspan x="0" y="0" font-family="'StoneSerifITC-Medium'" font-size="21">2</tspan><tspan x="12.222" y="0" font-family="'StoneSerifITC-Medium'" font-size="21" letter-spacing="-1">0</tspan><tspan x="22.932" y="0" font-family="'StoneSerifITC-Medium'" font-size="21" letter-spacing="-1">1</tspan><tspan x="33.452" y="0" font-family="'StoneSerifITC-Medium'" font-size="21">5-</tspan><tspan x="52.499" y="0" font-family="'StoneSerifITC-Medium'" font-size="21" letter-spacing="-1">1</tspan><tspan x="62.747" y="0" font-family="'StoneSerifITC-Medium'" font-size="21">6</tspan></text>
		<text transform="matrix(1 0 0 1 522.4609 532.9023)"><tspan x="0" y="0" font-family="'StoneSerifITC-Medium'" font-size="21">2</tspan><tspan x="12.222" y="0" font-family="'StoneSerifITC-Medium'" font-size="21" letter-spacing="-1">0</tspan><tspan x="22.932" y="0" font-family="'StoneSerifITC-Medium'" font-size="21" letter-spacing="-2">1</tspan><tspan x="32.97" y="0" font-family="'StoneSerifITC-Medium'" font-size="21">4-</tspan><tspan x="52.017" y="0" font-family="'StoneSerifITC-Medium'" font-size="21" letter-spacing="-1">1</tspan><tspan x="62.537" y="0" font-family="'StoneSerifITC-Medium'" font-size="21">5</tspan></text>
		<text transform="matrix(1 0 0 1 414.6611 532.9023)"><tspan x="0" y="0" font-family="'StoneSerifITC-Medium'" font-size="21">2</tspan><tspan x="12.222" y="0" font-family="'StoneSerifITC-Medium'" font-size="21" letter-spacing="-1">0</tspan><tspan x="22.932" y="0" font-family="'StoneSerifITC-Medium'" font-size="21" letter-spacing="-1">1</tspan><tspan x="33.452" y="0" font-family="'StoneSerifITC-Medium'" font-size="21">3-</tspan><tspan x="52.499" y="0" font-family="'StoneSerifITC-Medium'" font-size="21" letter-spacing="-2">1</tspan><tspan x="62.537" y="0" font-family="'StoneSerifITC-Medium'" font-size="21">4</tspan></text>
		<text transform="matrix(1 0 0 1 306.3042 532.9023)"><tspan x="0" y="0" font-family="'StoneSerifITC-Medium'" font-size="21">2</tspan><tspan x="12.222" y="0" font-family="'StoneSerifITC-Medium'" font-size="21" letter-spacing="-1">0</tspan><tspan x="22.932" y="0" font-family="'StoneSerifITC-Medium'" font-size="21">1</tspan><tspan x="34.082" y="0" font-family="'StoneSerifITC-Medium'" font-size="21">2-</tspan><tspan x="53.129" y="0" font-family="'StoneSerifITC-Medium'" font-size="21" letter-spacing="-1">1</tspan><tspan x="63.65" y="0" font-family="'StoneSerifITC-Medium'" font-size="21">3</tspan></text>
		<text transform="matrix(1 0 0 1 199.1973 532.9023)"><tspan x="0" y="0" font-family="'StoneSerifITC-Medium'" font-size="21">2</tspan><tspan x="12.222" y="0" font-family="'StoneSerifITC-Medium'" font-size="21" letter-spacing="-1">0</tspan><tspan x="22.932" y="0" font-family="'StoneSerifITC-Medium'" font-size="21" letter-spacing="-2">1</tspan><tspan x="32.066" y="0" font-family="'StoneSerifITC-Medium'" font-size="21">1-</tspan><tspan x="51.113" y="0" font-family="'StoneSerifITC-Medium'" font-size="21">1</tspan><tspan x="62.263" y="0" font-family="'StoneSerifITC-Medium'" font-size="21">2</tspan></text>
	</g>
</g>
<g>
</g>
<g>
</g>
<g>
</g>
<g>
</g>
<g>
</g>
<g>
</g>
</svg>
