<?xml version="1.0" encoding="utf-8"?>
<!-- Generator: Adobe Illustrator 16.0.0, SVG Export Plug-In . SVG Version: 6.00 Build 0)  -->
<!DOCTYPE svg PUBLIC "-//W3C//DTD SVG 1.1//EN" "http://www.w3.org/Graphics/SVG/1.1/DTD/svg11.dtd">
<svg version="1.1" id="Layer_1" xmlns="http://www.w3.org/2000/svg" xmlns:xlink="http://www.w3.org/1999/xlink" x="0px" y="0px"
	 width="841.89px" height="595.28px" viewBox="0 0 841.89 595.28" enable-background="new 0 0 841.89 595.28" xml:space="preserve">
<g>
	<g>
		<g>
			<g>
				<rect x="300.146" y="383.035" fill="#9D9D9C" width="43.12" height="49.896"/>
				<rect x="479.813" y="426.596" fill="#9D9D9C" width="43.12" height="6.336"/>
				<rect x="659.479" y="425.804" fill="#9D9D9C" width="43.12" height="7.128"/>
			</g>
		</g>
		<g>
			<g>
				<rect x="252.235" y="313.34" fill="#D69C7B" width="43.12" height="119.592"/>
				<rect x="431.902" y="403.628" fill="#D69C7B" width="43.12" height="29.304"/>
				<rect x="611.568" y="410.756" fill="#D69C7B" width="43.12" height="22.176"/>
			</g>
		</g>
		<g>
			<g>
				<rect x="204.324" y="114.547" fill="#AF3E18" width="43.12" height="318.384"/>
				<rect x="383.991" y="386.204" fill="#AF3E18" width="43.121" height="46.728"/>
				<rect x="563.657" y="375.907" fill="#AF3E18" width="43.12" height="57.024"/>
			</g>
		</g>
	</g>
	<g>
		<line fill="none" stroke="#000000" stroke-miterlimit="10" x1="183.961" y1="432.932" x2="722.962" y2="432.932"/>
		<g>
			<g>
				<line fill="none" stroke="#000000" stroke-miterlimit="10" x1="183.961" y1="432.932" x2="183.961" y2="423.031"/>
				<line fill="none" stroke="#000000" stroke-miterlimit="10" x1="363.628" y1="432.932" x2="363.628" y2="423.031"/>
				<line fill="none" stroke="#000000" stroke-miterlimit="10" x1="543.295" y1="432.932" x2="543.295" y2="423.031"/>
				<line fill="none" stroke="#000000" stroke-miterlimit="10" x1="722.962" y1="432.932" x2="722.962" y2="423.031"/>
			</g>
			<g>
			</g>
		</g>
	</g>
	<g>
		<g>
			<text transform="matrix(1 0 0 1 163.4858 442.4063)" font-family="'StoneSerifITC-Medium'" font-size="21">0</text>
			<text transform="matrix(1 0 0 1 140.2183 363.2051)"><tspan x="0" y="0" font-family="'StoneSerifITC-Medium'" font-size="21" letter-spacing="-1">1</tspan><tspan x="11.004" y="0" font-family="'StoneSerifITC-Medium'" font-size="21">0</tspan><tspan x="23.268" y="0" font-family="'StoneSerifITC-Medium'" font-size="21">0</tspan></text>
			<text transform="matrix(1 0 0 1 139.0005 284.0054)"><tspan x="0" y="0" font-family="'StoneSerifITC-Medium'" font-size="21">2</tspan><tspan x="12.222" y="0" font-family="'StoneSerifITC-Medium'" font-size="21">0</tspan><tspan x="24.485" y="0" font-family="'StoneSerifITC-Medium'" font-size="21">0</tspan></text>
			<text transform="matrix(1 0 0 1 139.1685 204.8062)"><tspan x="0" y="0" font-family="'StoneSerifITC-Medium'" font-size="21">3</tspan><tspan x="12.054" y="0" font-family="'StoneSerifITC-Medium'" font-size="21">0</tspan><tspan x="24.317" y="0" font-family="'StoneSerifITC-Medium'" font-size="21">0</tspan></text>
			<text transform="matrix(1 0 0 1 139.1685 125.606)"><tspan x="0" y="0" font-family="'StoneSerifITC-Medium'" font-size="21">4</tspan><tspan x="12.054" y="0" font-family="'StoneSerifITC-Medium'" font-size="21">0</tspan><tspan x="24.317" y="0" font-family="'StoneSerifITC-Medium'" font-size="21">0</tspan></text>
			<text transform="matrix(1 0 0 1 139.1685 46.4058)"><tspan x="0" y="0" font-family="'StoneSerifITC-Medium'" font-size="21">5</tspan><tspan x="12.054" y="0" font-family="'StoneSerifITC-Medium'" font-size="21">0</tspan><tspan x="24.317" y="0" font-family="'StoneSerifITC-Medium'" font-size="21">0</tspan></text>
		</g>
		<line fill="none" stroke="#000000" stroke-miterlimit="10" x1="183.961" y1="432.932" x2="183.961" y2="36.931"/>
		<g>
			<g>
				<line fill="none" stroke="#000000" stroke-miterlimit="10" x1="183.961" y1="432.932" x2="197.437" y2="432.932"/>
				<line fill="none" stroke="#000000" stroke-miterlimit="10" x1="183.961" y1="353.731" x2="197.437" y2="353.731"/>
				<line fill="none" stroke="#000000" stroke-miterlimit="10" x1="183.961" y1="274.531" x2="197.437" y2="274.531"/>
				<line fill="none" stroke="#000000" stroke-miterlimit="10" x1="183.961" y1="195.332" x2="197.437" y2="195.332"/>
				<line fill="none" stroke="#000000" stroke-miterlimit="10" x1="183.961" y1="116.131" x2="197.437" y2="116.131"/>
				<line fill="none" stroke="#000000" stroke-miterlimit="10" x1="183.961" y1="36.931" x2="197.437" y2="36.931"/>
			</g>
			<g>
			</g>
		</g>
	</g>
	<g>
		<g>
		</g>
		<g>
		</g>
		<g>
		</g>
	</g>
	<g>
		<text transform="matrix(1 0 0 1 588.5195 459.0684)"><tspan x="0" y="0" font-family="'StoneSerifITC-Medium'" font-size="21">Air </tspan><tspan x="33.58" y="0" font-family="'StoneSerifITC-Medium'" font-size="21">F</tspan><tspan x="44.227" y="0" font-family="'StoneSerifITC-Medium'" font-size="21">o</tspan><tspan x="56.658" y="0" font-family="'StoneSerifITC-Medium'" font-size="21">r</tspan><tspan x="64.639" y="0" font-family="'StoneSerifITC-Medium'" font-size="21">ce</tspan></text>
		<text transform="matrix(1 0 0 1 426.3672 459.0684)"><tspan x="0" y="0" font-family="'StoneSerifITC-Medium'" font-size="21">N</tspan><tspan x="16.547" y="0" font-family="'StoneSerifITC-Medium'" font-size="21">a</tspan><tspan x="26.816" y="0" font-family="'StoneSerifITC-Medium'" font-size="21">vy</tspan></text>
		<text transform="matrix(1 0 0 1 244.8418 459.0684)"><tspan x="0" y="0" font-family="'StoneSerifITC-Medium'" font-size="21">A</tspan><tspan x="14.364" y="0" font-family="'StoneSerifITC-Medium'" font-size="21">r</tspan><tspan x="22.827" y="0" font-family="'StoneSerifITC-Medium'" font-size="21">m</tspan><tspan x="42.231" y="0" font-family="'StoneSerifITC-Medium'" font-size="21">y</tspan></text>
	</g>
</g>
<rect x="292.562" y="488.5" fill="#AF3E18" width="23" height="23"/>
<g>
	<path d="M336.88,507.365c-0.105,0.42-0.168,0.504-0.777,0.714c-1.26,0.44-2.981,0.672-4.409,0.672c-1.974,0-3.843-0.588-5.312-1.7
		c-1.659-1.26-2.751-3.234-2.751-5.838c0-2.12,0.944-4.472,2.981-6.004c1.344-1.008,3.149-1.659,5.48-1.659
		c1.448,0,3.044,0.315,3.988,0.714c0.609,0.252,0.799,0.441,0.799,0.945v2.582h-0.547c-0.063-0.734-0.188-1.281-0.398-1.68
		c-0.609-1.154-2.33-1.848-4.073-1.848c-3.591,0-5.837,2.498-5.837,6.761c0,2.288,0.65,4.283,1.994,5.563
		c0.967,0.903,2.289,1.449,3.99,1.449c1.658,0,3.148-0.566,4.072-1.722c0.336-0.42,0.525-0.776,0.883-1.575h0.545L336.88,507.365z"
		/>
	<path d="M338.813,508.499v-0.546c1.638-0.168,1.68-0.189,1.68-2.078v-10.436c0-0.546-0.042-0.861-0.252-1.029
		c-0.146-0.125-0.398-0.168-0.818-0.168h-0.588v-0.566c1.176-0.021,2.54-0.252,3.548-0.609v12.809c0,1.889,0,1.91,1.68,2.078v0.546
		H338.813z"/>
	<path d="M351.916,508.73c-0.315-0.525-0.483-1.092-0.504-1.659l-1.616,1.092c-0.693,0.483-1.029,0.588-1.533,0.588
		c-1.617,0-2.729-1.155-2.729-2.835c0-1.176,0.524-1.994,1.596-2.624c0.504-0.294,1.028-0.524,2.016-0.903l2.288-0.881
		c-0.021-2.227-0.608-3.066-1.805-3.066c-0.987,0-1.533,0.756-1.953,1.533c-0.063,0.126-0.252,0.504-0.441,0.504
		c-0.041,0-0.104,0-0.168-0.021l-0.65-0.168c-0.126-0.041-0.189-0.125-0.168-0.209l0.314-1.176c0.105-0.379,0.168-0.441,0.547-0.609
		c0.776-0.357,1.742-0.546,2.688-0.546c2.477,0,3.527,1.008,3.527,3.359v4.661c0,1.197,0.188,1.574,0.734,1.574
		c0.189,0,0.378-0.041,0.714-0.146l0.126,0.588L351.916,508.73z M351.433,502.305c-1.049,0.379-1.406,0.525-1.868,0.715
		c-1.448,0.608-2.142,1.448-2.142,2.645c0,1.051,0.693,1.785,1.722,1.785c1.491,0,2.288-1.197,2.288-3.506V502.305z"/>
	<path d="M359.224,508.751c-1.049,0-1.848-0.168-2.75-0.567v-2.352h0.546c0.042,0.525,0.126,0.967,0.336,1.281
		c0.378,0.566,1.155,0.924,1.974,0.924c1.134,0,1.932-0.777,1.932-1.848c0-0.986-0.357-1.428-2.352-2.771
		c-1.932-1.302-2.414-1.91-2.414-2.961c0-1.616,1.428-2.708,3.527-2.708c0.818,0,1.49,0.063,2.33,0.336v2.079h-0.546
		c-0.063-0.399-0.104-0.567-0.21-0.777c-0.314-0.566-0.84-0.945-1.68-0.945c-0.945,0-1.638,0.588-1.638,1.387
		c0,0.314,0.126,0.692,0.336,0.924c0.356,0.398,0.356,0.398,2.288,1.764c1.68,1.196,2.227,1.91,2.227,3.023
		C363.13,507.471,361.597,508.751,359.224,508.751z"/>
	<path d="M367.771,508.751c-1.049,0-1.848-0.168-2.75-0.567v-2.352h0.546c0.042,0.525,0.126,0.967,0.336,1.281
		c0.378,0.566,1.155,0.924,1.974,0.924c1.134,0,1.932-0.777,1.932-1.848c0-0.986-0.357-1.428-2.352-2.771
		c-1.932-1.302-2.414-1.91-2.414-2.961c0-1.616,1.428-2.708,3.527-2.708c0.818,0,1.49,0.063,2.33,0.336v2.079h-0.546
		c-0.063-0.399-0.104-0.567-0.21-0.777c-0.314-0.566-0.84-0.945-1.68-0.945c-0.945,0-1.638,0.588-1.638,1.387
		c0,0.314,0.126,0.692,0.336,0.924c0.356,0.398,0.356,0.398,2.288,1.764c1.68,1.196,2.227,1.91,2.227,3.023
		C371.677,507.471,370.144,508.751,367.771,508.751z"/>
	<path d="M386.292,508.499v-0.546c0.945-0.042,1.26-0.252,1.26-0.818c0-0.231-0.063-0.504-0.168-0.799l-0.902-2.708h-5.271
		l-0.966,2.792c-0.063,0.168-0.084,0.336-0.084,0.483c0,0.63,0.357,1.008,1.113,1.05v0.546h-3.885v-0.546
		c0.861-0.021,1.449-0.609,1.953-1.953l4.64-12.45h1.218l4.241,12.556c0.483,1.406,0.86,1.806,1.722,1.848v0.546H386.292z
		 M384.087,495.881l-2.582,6.949h4.725L384.087,495.881z"/>
</g>
<rect x="416.5" y="488.5" fill="#D69C7B" width="23" height="23"/>
<g>
	<path d="M460.818,507.365c-0.105,0.42-0.168,0.504-0.777,0.714c-1.26,0.44-2.981,0.672-4.409,0.672c-1.974,0-3.843-0.588-5.312-1.7
		c-1.659-1.26-2.751-3.234-2.751-5.838c0-2.12,0.944-4.472,2.981-6.004c1.344-1.008,3.149-1.659,5.48-1.659
		c1.448,0,3.044,0.315,3.988,0.714c0.609,0.252,0.799,0.441,0.799,0.945v2.582h-0.547c-0.063-0.734-0.188-1.281-0.398-1.68
		c-0.609-1.154-2.33-1.848-4.073-1.848c-3.591,0-5.837,2.498-5.837,6.761c0,2.288,0.65,4.283,1.994,5.563
		c0.967,0.903,2.289,1.449,3.99,1.449c1.658,0,3.148-0.566,4.072-1.722c0.336-0.42,0.525-0.776,0.883-1.575h0.545L460.818,507.365z"
		/>
	<path d="M462.752,508.499v-0.546c1.638-0.168,1.68-0.189,1.68-2.078v-10.436c0-0.546-0.042-0.861-0.252-1.029
		c-0.146-0.125-0.398-0.168-0.818-0.168h-0.588v-0.566c1.176-0.021,2.54-0.252,3.548-0.609v12.809c0,1.889,0,1.91,1.68,2.078v0.546
		H462.752z"/>
	<path d="M475.854,508.73c-0.315-0.525-0.483-1.092-0.504-1.659l-1.616,1.092c-0.693,0.483-1.029,0.588-1.533,0.588
		c-1.617,0-2.729-1.155-2.729-2.835c0-1.176,0.524-1.994,1.596-2.624c0.504-0.294,1.028-0.524,2.016-0.903l2.288-0.881
		c-0.021-2.227-0.608-3.066-1.805-3.066c-0.987,0-1.533,0.756-1.953,1.533c-0.063,0.126-0.252,0.504-0.441,0.504
		c-0.041,0-0.104,0-0.168-0.021l-0.65-0.168c-0.126-0.041-0.189-0.125-0.168-0.209l0.314-1.176c0.105-0.379,0.168-0.441,0.547-0.609
		c0.776-0.357,1.742-0.546,2.688-0.546c2.477,0,3.527,1.008,3.527,3.359v4.661c0,1.197,0.188,1.574,0.734,1.574
		c0.189,0,0.378-0.041,0.714-0.146l0.126,0.588L475.854,508.73z M475.371,502.305c-1.049,0.379-1.406,0.525-1.868,0.715
		c-1.448,0.608-2.142,1.448-2.142,2.645c0,1.051,0.693,1.785,1.722,1.785c1.491,0,2.288-1.197,2.288-3.506V502.305z"/>
	<path d="M483.162,508.751c-1.049,0-1.848-0.168-2.75-0.567v-2.352h0.546c0.042,0.525,0.126,0.967,0.336,1.281
		c0.378,0.566,1.155,0.924,1.974,0.924c1.134,0,1.932-0.777,1.932-1.848c0-0.986-0.357-1.428-2.352-2.771
		c-1.932-1.302-2.414-1.91-2.414-2.961c0-1.616,1.428-2.708,3.527-2.708c0.818,0,1.49,0.063,2.33,0.336v2.079h-0.546
		c-0.063-0.399-0.104-0.567-0.21-0.777c-0.314-0.566-0.84-0.945-1.68-0.945c-0.945,0-1.638,0.588-1.638,1.387
		c0,0.314,0.126,0.692,0.336,0.924c0.356,0.398,0.356,0.398,2.288,1.764c1.68,1.196,2.227,1.91,2.227,3.023
		C487.068,507.471,485.535,508.751,483.162,508.751z"/>
	<path d="M491.709,508.751c-1.049,0-1.848-0.168-2.75-0.567v-2.352h0.546c0.042,0.525,0.126,0.967,0.336,1.281
		c0.378,0.566,1.155,0.924,1.974,0.924c1.134,0,1.932-0.777,1.932-1.848c0-0.986-0.357-1.428-2.352-2.771
		c-1.932-1.302-2.414-1.91-2.414-2.961c0-1.616,1.428-2.708,3.527-2.708c0.818,0,1.49,0.063,2.33,0.336v2.079h-0.546
		c-0.063-0.399-0.104-0.567-0.21-0.777c-0.314-0.566-0.84-0.945-1.68-0.945c-0.945,0-1.638,0.588-1.638,1.387
		c0,0.314,0.126,0.692,0.336,0.924c0.356,0.398,0.356,0.398,2.288,1.764c1.68,1.196,2.227,1.91,2.227,3.023
		C495.615,507.471,494.082,508.751,491.709,508.751z"/>
	<path d="M507.689,508.499h-5.815v-0.546c1.784-0.146,1.784-0.168,1.784-2.078v-9.449c0-1.932,0-1.952-1.784-2.1v-0.524h5.207
		c1.386,0,1.974,0.021,2.729,0.231c1.449,0.398,2.246,1.448,2.246,3.044s-0.965,2.708-3.023,3.485
		c0.967,0.168,1.387,0.23,2.016,0.546c1.239,0.608,1.975,1.764,1.975,3.255C513.023,506.987,511.07,508.499,507.689,508.499z
		 M506.934,494.453h-1.238v6.047h1.365c1.91,0,2.896-1.051,2.896-3.087C509.957,495.313,509.076,494.453,506.934,494.453z
		 M507.081,501.15h-1.386v4.305c0,0.965,0.105,1.658,0.609,2.016c0.293,0.23,0.713,0.336,1.322,0.336
		c1.994,0,2.981-1.051,2.981-3.129C510.608,502.368,509.391,501.15,507.081,501.15z"/>
</g>
<rect x="538.562" y="488.5" fill="#9D9D9C" width="23" height="23"/>
<g>
	<path d="M582.879,507.365c-0.105,0.42-0.168,0.504-0.777,0.714c-1.26,0.44-2.98,0.672-4.408,0.672c-1.975,0-3.844-0.588-5.313-1.7
		c-1.658-1.26-2.75-3.234-2.75-5.838c0-2.12,0.943-4.472,2.98-6.004c1.344-1.008,3.15-1.659,5.48-1.659
		c1.449,0,3.045,0.315,3.988,0.714c0.609,0.252,0.799,0.441,0.799,0.945v2.582h-0.547c-0.063-0.734-0.188-1.281-0.398-1.68
		c-0.609-1.154-2.33-1.848-4.072-1.848c-3.592,0-5.838,2.498-5.838,6.761c0,2.288,0.65,4.283,1.994,5.563
		c0.967,0.903,2.289,1.449,3.99,1.449c1.658,0,3.148-0.566,4.072-1.722c0.336-0.42,0.525-0.776,0.883-1.575h0.545L582.879,507.365z"
		/>
	<path d="M584.813,508.499v-0.546c1.639-0.168,1.68-0.189,1.68-2.078v-10.436c0-0.546-0.041-0.861-0.252-1.029
		c-0.146-0.125-0.398-0.168-0.818-0.168h-0.588v-0.566c1.176-0.021,2.541-0.252,3.549-0.609v12.809c0,1.889,0,1.91,1.68,2.078v0.546
		H584.813z"/>
	<path d="M597.916,508.73c-0.316-0.525-0.484-1.092-0.504-1.659l-1.617,1.092c-0.693,0.483-1.029,0.588-1.533,0.588
		c-1.617,0-2.729-1.155-2.729-2.835c0-1.176,0.523-1.994,1.596-2.624c0.504-0.294,1.027-0.524,2.016-0.903l2.287-0.881
		c-0.02-2.227-0.607-3.066-1.805-3.066c-0.986,0-1.533,0.756-1.953,1.533c-0.063,0.126-0.252,0.504-0.441,0.504
		c-0.041,0-0.104,0-0.168-0.021l-0.65-0.168c-0.125-0.041-0.189-0.125-0.168-0.209l0.314-1.176c0.105-0.379,0.168-0.441,0.547-0.609
		c0.777-0.357,1.742-0.546,2.688-0.546c2.477,0,3.527,1.008,3.527,3.359v4.661c0,1.197,0.189,1.574,0.734,1.574
		c0.189,0,0.379-0.041,0.715-0.146l0.125,0.588L597.916,508.73z M597.432,502.305c-1.049,0.379-1.406,0.525-1.867,0.715
		c-1.449,0.608-2.143,1.448-2.143,2.645c0,1.051,0.693,1.785,1.723,1.785c1.49,0,2.287-1.197,2.287-3.506V502.305z"/>
	<path d="M605.223,508.751c-1.049,0-1.848-0.168-2.75-0.567v-2.352h0.547c0.041,0.525,0.125,0.967,0.336,1.281
		c0.377,0.566,1.154,0.924,1.973,0.924c1.135,0,1.932-0.777,1.932-1.848c0-0.986-0.357-1.428-2.352-2.771
		c-1.932-1.302-2.414-1.91-2.414-2.961c0-1.616,1.428-2.708,3.527-2.708c0.818,0,1.49,0.063,2.33,0.336v2.079h-0.545
		c-0.064-0.399-0.105-0.567-0.211-0.777c-0.314-0.566-0.84-0.945-1.68-0.945c-0.945,0-1.637,0.588-1.637,1.387
		c0,0.314,0.125,0.692,0.336,0.924c0.355,0.398,0.355,0.398,2.287,1.764c1.68,1.196,2.227,1.91,2.227,3.023
		C609.129,507.471,607.596,508.751,605.223,508.751z"/>
	<path d="M613.77,508.751c-1.049,0-1.848-0.168-2.75-0.567v-2.352h0.547c0.041,0.525,0.125,0.967,0.336,1.281
		c0.377,0.566,1.154,0.924,1.973,0.924c1.135,0,1.932-0.777,1.932-1.848c0-0.986-0.357-1.428-2.352-2.771
		c-1.932-1.302-2.414-1.91-2.414-2.961c0-1.616,1.428-2.708,3.527-2.708c0.818,0,1.49,0.063,2.33,0.336v2.079h-0.545
		c-0.064-0.399-0.105-0.567-0.211-0.777c-0.314-0.566-0.84-0.945-1.68-0.945c-0.945,0-1.637,0.588-1.637,1.387
		c0,0.314,0.125,0.692,0.336,0.924c0.355,0.398,0.355,0.398,2.287,1.764c1.68,1.196,2.227,1.91,2.227,3.023
		C617.676,507.471,616.143,508.751,613.77,508.751z"/>
	<path d="M637.352,507.365c-0.105,0.42-0.168,0.504-0.777,0.714c-1.26,0.44-2.98,0.672-4.408,0.672c-1.975,0-3.844-0.588-5.313-1.7
		c-1.658-1.26-2.75-3.234-2.75-5.838c0-2.12,0.943-4.472,2.98-6.004c1.344-1.008,3.15-1.659,5.48-1.659
		c1.449,0,3.045,0.315,3.988,0.714c0.609,0.252,0.799,0.441,0.799,0.945v2.582h-0.547c-0.063-0.734-0.188-1.281-0.398-1.68
		c-0.609-1.154-2.33-1.848-4.072-1.848c-3.592,0-5.838,2.498-5.838,6.761c0,2.288,0.65,4.283,1.994,5.563
		c0.967,0.903,2.289,1.449,3.99,1.449c1.658,0,3.148-0.566,4.072-1.722c0.336-0.42,0.525-0.776,0.883-1.575h0.545L637.352,507.365z"
		/>
</g>
<g>
</g>
<g>
</g>
<g>
</g>
<g>
</g>
<g>
</g>
<g>
</g>
</svg>
