<?xml version="1.0" encoding="utf-8"?>
<!-- Generator: Adobe Illustrator 16.0.0, SVG Export Plug-In . SVG Version: 6.00 Build 0)  -->
<!DOCTYPE svg PUBLIC "-//W3C//DTD SVG 1.1//EN" "http://www.w3.org/Graphics/SVG/1.1/DTD/svg11.dtd">
<svg version="1.1" xmlns="http://www.w3.org/2000/svg" xmlns:xlink="http://www.w3.org/1999/xlink" x="0px" y="0px"
	 width="841.89px" height="595.28px" viewBox="0 0 841.89 595.28" enable-background="new 0 0 841.89 595.28" xml:space="preserve">
<g id="Layer_2">
</g>
<g id="Layer_1">
	<g>
		<g>
			<g>
				<g>
					<rect x="268.195" y="405.592" fill-rule="evenodd" clip-rule="evenodd" fill="#939598" width="24.011" height="29.689"/>
					<rect x="368.24" y="402.811" fill="#939598" width="24.011" height="32.471"/>
					<rect x="468.284" y="399.412" fill="#939598" width="24.011" height="35.869"/>
					<rect x="568.329" y="395.462" fill="#939598" width="24.011" height="39.819"/>
					<rect x="668.373" y="391.339" fill="#939598" width="24.011" height="43.942"/>
				</g>
			</g>
			<g>
				<g>
					<rect x="241.517" y="150.518" fill-rule="evenodd" clip-rule="evenodd" fill="#CF9477" width="24.011" height="284.764"/>
					<rect x="341.562" y="134.579" fill="#CF9477" width="24.011" height="300.703"/>
					<rect x="441.605" y="121.063" fill="#CF9477" width="24.011" height="314.218"/>
					<rect x="541.65" y="108.382" fill="#CF9477" width="24.011" height="326.899"/>
					<rect x="641.694" y="96.386" fill="#CF9477" width="24.011" height="338.895"/>
				</g>
			</g>
			<g>
				<g>
					<rect x="214.839" y="250.262" fill-rule="evenodd" clip-rule="evenodd" fill="#AD4525" width="24.011" height="185.019"/>
					<rect x="314.883" y="254.271" fill="#AD4525" width="24.011" height="181.01"/>
					<rect x="414.927" y="250.759" fill="#AD4525" width="24.011" height="184.522"/>
					<rect x="514.971" y="247.671" fill="#AD4525" width="24.011" height="187.61"/>
					<rect x="615.016" y="243.59" fill="#AD4525" width="24.011" height="191.691"/>
				</g>
			</g>
		</g>
		<g>
			
				<line fill-rule="evenodd" clip-rule="evenodd" fill="none" stroke="#000000" stroke-miterlimit="10" x1="203.5" y1="435.281" x2="703.722" y2="435.281"/>
			<g>
				<g>
					<line fill="#6660AA" stroke="#000000" stroke-miterlimit="10" x1="203.5" y1="435.281" x2="203.5" y2="425.479"/>
					<line fill="#6660AA" stroke="#000000" stroke-miterlimit="10" x1="303.544" y1="435.281" x2="303.544" y2="425.479"/>
					<line fill="#6660AA" stroke="#000000" stroke-miterlimit="10" x1="403.589" y1="435.281" x2="403.589" y2="425.479"/>
					<line fill="#6660AA" stroke="#000000" stroke-miterlimit="10" x1="503.633" y1="435.281" x2="503.633" y2="425.479"/>
					<line fill="#6660AA" stroke="#000000" stroke-miterlimit="10" x1="603.678" y1="435.281" x2="603.678" y2="425.479"/>
					<line fill="#6660AA" stroke="#000000" stroke-miterlimit="10" x1="703.722" y1="435.281" x2="703.722" y2="425.479"/>
				</g>
				<g>
				</g>
			</g>
		</g>
		<g>
			<g>
				<text transform="matrix(1 0 0 1 183.3369 444.0742)" font-family="'StoneSerifITC-Medium'" font-size="21.5124">0</text>
				<text transform="matrix(1 0 0 1 127.1694 378.7217)"><tspan x="0" y="0" font-family="'StoneSerifITC-Medium'" font-size="21.5124">2</tspan><tspan x="12.52" y="0" font-family="'StoneSerifITC-Medium'" font-size="21.5124">0,</tspan><tspan x="31.042" y="0" font-family="'StoneSerifITC-Medium'" font-size="21.5124">00</tspan><tspan x="56.167" y="0" font-family="'StoneSerifITC-Medium'" font-size="21.5124">0</tspan></text>
				<text transform="matrix(1 0 0 1 127.3413 313.3691)"><tspan x="0" y="0" font-family="'StoneSerifITC-Medium'" font-size="21.5124">40,</tspan><tspan x="30.87" y="0" font-family="'StoneSerifITC-Medium'" font-size="21.5124">00</tspan><tspan x="55.995" y="0" font-family="'StoneSerifITC-Medium'" font-size="21.5124">0</tspan></text>
				<text transform="matrix(1 0 0 1 127.3413 248.0166)"><tspan x="0" y="0" font-family="'StoneSerifITC-Medium'" font-size="21.5124">60,</tspan><tspan x="30.87" y="0" font-family="'StoneSerifITC-Medium'" font-size="21.5124">00</tspan><tspan x="55.995" y="0" font-family="'StoneSerifITC-Medium'" font-size="21.5124">0</tspan></text>
				<text transform="matrix(1 0 0 1 127.3413 182.665)"><tspan x="0" y="0" font-family="'StoneSerifITC-Medium'" font-size="21.5124">80,</tspan><tspan x="30.87" y="0" font-family="'StoneSerifITC-Medium'" font-size="21.5124">00</tspan><tspan x="55.995" y="0" font-family="'StoneSerifITC-Medium'" font-size="21.5124">0</tspan></text>
				<text transform="matrix(1 0 0 1 115.8535 117.3125)"><tspan x="0" y="0" font-family="'StoneSerifITC-Medium'" font-size="21.5124" letter-spacing="-1">1</tspan><tspan x="11.272" y="0" font-family="'StoneSerifITC-Medium'" font-size="21.5124">0</tspan><tspan x="23.835" y="0" font-family="'StoneSerifITC-Medium'" font-size="21.5124">0,</tspan><tspan x="42.356" y="0" font-family="'StoneSerifITC-Medium'" font-size="21.5124">00</tspan><tspan x="67.482" y="0" font-family="'StoneSerifITC-Medium'" font-size="21.5124">0</tspan></text>
				<text transform="matrix(1 0 0 1 115.7466 51.96)"><tspan x="0" y="0" font-family="'StoneSerifITC-Medium'" font-size="21.5124">1</tspan><tspan x="11.423" y="0" font-family="'StoneSerifITC-Medium'" font-size="21.5124">2</tspan><tspan x="23.943" y="0" font-family="'StoneSerifITC-Medium'" font-size="21.5124">0,</tspan><tspan x="42.464" y="0" font-family="'StoneSerifITC-Medium'" font-size="21.5124">00</tspan><tspan x="67.589" y="0" font-family="'StoneSerifITC-Medium'" font-size="21.5124">0</tspan></text>
			</g>
			
				<line fill-rule="evenodd" clip-rule="evenodd" fill="none" stroke="#000000" stroke-miterlimit="10" x1="203.5" y1="435.281" x2="203.5" y2="43.167"/>
			<g>
				<g>
					<line fill="#6660AA" stroke="#000000" stroke-miterlimit="10" x1="203.5" y1="435.281" x2="216.006" y2="435.281"/>
					<line fill="#6660AA" stroke="#000000" stroke-miterlimit="10" x1="203.5" y1="369.929" x2="216.006" y2="369.929"/>
					<line fill="#6660AA" stroke="#000000" stroke-miterlimit="10" x1="203.5" y1="304.576" x2="216.006" y2="304.576"/>
					<line fill="#6660AA" stroke="#000000" stroke-miterlimit="10" x1="203.5" y1="239.224" x2="216.006" y2="239.224"/>
					<line fill="#6660AA" stroke="#000000" stroke-miterlimit="10" x1="203.5" y1="173.872" x2="216.006" y2="173.872"/>
					<line fill="#6660AA" stroke="#000000" stroke-miterlimit="10" x1="203.5" y1="108.519" x2="216.006" y2="108.519"/>
					<line fill="#6660AA" stroke="#000000" stroke-miterlimit="10" x1="203.5" y1="43.167" x2="216.006" y2="43.167"/>
				</g>
				<g>
				</g>
			</g>
		</g>
		<g>
			<g>
			</g>
			<g>
			</g>
			<g>
			</g>
		</g>
		<g>
			<text transform="matrix(1 0 0 1 615.3867 458.9951)"><tspan x="0" y="0" font-family="'StoneSerifITC-Medium'" font-size="21.5124">2</tspan><tspan x="12.52" y="0" font-family="'StoneSerifITC-Medium'" font-size="21.5124" letter-spacing="-1">0</tspan><tspan x="23.49" y="0" font-family="'StoneSerifITC-Medium'" font-size="21.5124" letter-spacing="-1">1</tspan><tspan x="34.268" y="0" font-family="'StoneSerifITC-Medium'" font-size="21.5124">5-</tspan><tspan x="53.778" y="0" font-family="'StoneSerifITC-Medium'" font-size="21.5124" letter-spacing="-1">1</tspan><tspan x="64.276" y="0" font-family="'StoneSerifITC-Medium'" font-size="21.5124">6</tspan></text>
			<text transform="matrix(1 0 0 1 515.4502 458.9951)"><tspan x="0" y="0" font-family="'StoneSerifITC-Medium'" font-size="21.5124">2</tspan><tspan x="12.52" y="0" font-family="'StoneSerifITC-Medium'" font-size="21.5124" letter-spacing="-1">0</tspan><tspan x="23.49" y="0" font-family="'StoneSerifITC-Medium'" font-size="21.5124" letter-spacing="-2">1</tspan><tspan x="33.773" y="0" font-family="'StoneSerifITC-Medium'" font-size="21.5124">4-</tspan><tspan x="53.284" y="0" font-family="'StoneSerifITC-Medium'" font-size="21.5124" letter-spacing="-1">1</tspan><tspan x="64.062" y="0" font-family="'StoneSerifITC-Medium'" font-size="21.5124">5</tspan></text>
			<text transform="matrix(1 0 0 1 415.4058 458.9951)"><tspan x="0" y="0" font-family="'StoneSerifITC-Medium'" font-size="21.5124">2</tspan><tspan x="12.52" y="0" font-family="'StoneSerifITC-Medium'" font-size="21.5124" letter-spacing="-1">0</tspan><tspan x="23.491" y="0" font-family="'StoneSerifITC-Medium'" font-size="21.5124" letter-spacing="-1">1</tspan><tspan x="34.268" y="0" font-family="'StoneSerifITC-Medium'" font-size="21.5124">3-</tspan><tspan x="53.779" y="0" font-family="'StoneSerifITC-Medium'" font-size="21.5124" letter-spacing="-2">1</tspan><tspan x="64.062" y="0" font-family="'StoneSerifITC-Medium'" font-size="21.5124">4</tspan></text>
			<text transform="matrix(1 0 0 1 314.7915 458.9951)"><tspan x="0" y="0" font-family="'StoneSerifITC-Medium'" font-size="21.5124">2</tspan><tspan x="12.52" y="0" font-family="'StoneSerifITC-Medium'" font-size="21.5124" letter-spacing="-1">0</tspan><tspan x="23.491" y="0" font-family="'StoneSerifITC-Medium'" font-size="21.5124">1</tspan><tspan x="34.914" y="0" font-family="'StoneSerifITC-Medium'" font-size="21.5124">2-</tspan><tspan x="54.425" y="0" font-family="'StoneSerifITC-Medium'" font-size="21.5124" letter-spacing="-1">1</tspan><tspan x="65.203" y="0" font-family="'StoneSerifITC-Medium'" font-size="21.5124">3</tspan></text>
			<text transform="matrix(1 0 0 1 215.457 458.9951)"><tspan x="0" y="0" font-family="'StoneSerifITC-Medium'" font-size="21.5124">2</tspan><tspan x="12.52" y="0" font-family="'StoneSerifITC-Medium'" font-size="21.5124" letter-spacing="-1">0</tspan><tspan x="23.491" y="0" font-family="'StoneSerifITC-Medium'" font-size="21.5124" letter-spacing="-2">1</tspan><tspan x="32.848" y="0" font-family="'StoneSerifITC-Medium'" font-size="21.5124">1-</tspan><tspan x="52.359" y="0" font-family="'StoneSerifITC-Medium'" font-size="21.5124">1</tspan><tspan x="63.783" y="0" font-family="'StoneSerifITC-Medium'" font-size="21.5124">2</tspan></text>
		</g>
	</g>
	<rect x="394.195" y="488.33" fill="#CF9477" width="22.5" height="22.5"/>
	<g>
		<path d="M441.507,499.973c-0.816,0.279-1.505,0.365-3.074,0.387v-0.43c1.183-0.064,1.677-0.193,2.236-0.495
			c1.118-0.581,1.72-1.827,1.72-3.526c0-2.343-1.14-3.439-3.591-3.439h-1.289v11.674c0,1.979,0,1.979,1.806,2.129v0.559h-5.74
			v-0.559c1.827-0.15,1.827-0.15,1.827-2.129v-9.674c0-2,0-1.979-1.827-2.129v-0.559h5.611c3.525,0,5.332,1.332,5.332,3.934
			C444.518,497.693,443.399,499.306,441.507,499.973z"/>
		<path d="M453.074,497.822l-0.495,0.387c-0.064,0.043-0.129,0.107-0.215,0.107c-0.064,0-0.15-0.043-0.193-0.064l-0.709-0.365
			c-0.237-0.129-0.409-0.15-0.688-0.15c-0.494,0-0.774,0.279-0.989,0.816c-0.193,0.495-0.193,1.656-0.193,2.236v3.354
			c0,2.086,0.172,2.021,2.172,2.129v0.559h-5.87v-0.559c1.785-0.086,1.764-0.258,1.764-2.129v-5.805
			c0-0.859-0.258-1.053-1.226-1.053h-0.494v-0.538c1.44-0.064,2.729-0.408,3.654-0.925v1.979l0.989-1.161
			c0.623-0.731,0.795-0.817,1.269-0.817c0.344,0,0.559,0.172,0.816,0.646l0.538,0.968c0.043,0.086,0.064,0.129,0.064,0.172
			C453.268,497.693,453.203,497.736,453.074,497.822z"/>
		<path d="M460.448,507.088h-0.559c-2.064,0-3.247-0.494-4.192-1.633c-0.946-1.162-1.462-2.709-1.462-4.193
			c0-1.461,0.537-2.924,1.44-3.934c0.859-0.968,2.128-1.506,3.547-1.506c1.914,0,3.247,0.989,3.784,2.752
			c0.193,0.646,0.258,1.162,0.236,2.301h-6.923c0.021,1.57,0.408,2.816,1.14,3.677c0.709,0.839,1.677,1.29,2.967,1.29
			c0.796,0,1.419-0.193,2.494-0.731l0.322,0.646L460.448,507.088z M459.072,496.532c-1.226,0-2.128,0.753-2.516,2.085
			c-0.129,0.409-0.172,0.753-0.236,1.484h3.698c0.967,0,1.376-0.365,1.376-1.248C461.395,497.543,460.427,496.532,459.072,496.532z"
			/>
		<path d="M467.995,507.088c-1.075,0-1.893-0.172-2.816-0.58V504.1h0.559c0.043,0.538,0.129,0.989,0.344,1.313
			c0.388,0.58,1.183,0.945,2.021,0.945c1.161,0,1.978-0.795,1.978-1.892c0-1.011-0.365-1.462-2.407-2.839
			c-1.979-1.332-2.473-1.955-2.473-3.031c0-1.654,1.462-2.773,3.611-2.773c0.839,0,1.527,0.064,2.387,0.345v2.128h-0.559
			c-0.064-0.408-0.107-0.58-0.215-0.795c-0.323-0.58-0.86-0.968-1.721-0.968c-0.967,0-1.677,0.603-1.677,1.419
			c0,0.322,0.129,0.709,0.344,0.945c0.366,0.409,0.366,0.409,2.344,1.807c1.72,1.226,2.279,1.957,2.279,3.096
			C471.994,505.777,470.425,507.088,467.995,507.088z"/>
		<path d="M479.841,507.088h-0.559c-2.064,0-3.247-0.494-4.192-1.633c-0.946-1.162-1.462-2.709-1.462-4.193
			c0-1.461,0.537-2.924,1.44-3.934c0.859-0.968,2.128-1.506,3.547-1.506c1.914,0,3.247,0.989,3.784,2.752
			c0.193,0.646,0.258,1.162,0.236,2.301h-6.923c0.021,1.57,0.408,2.816,1.14,3.677c0.709,0.839,1.677,1.29,2.967,1.29
			c0.796,0,1.419-0.193,2.494-0.731l0.322,0.646L479.841,507.088z M478.465,496.532c-1.226,0-2.128,0.753-2.516,2.085
			c-0.129,0.409-0.172,0.753-0.236,1.484h3.698c0.967,0,1.376-0.365,1.376-1.248C480.787,497.543,479.819,496.532,478.465,496.532z"
			/>
		<path d="M491.279,497.822l-0.495,0.387c-0.064,0.043-0.129,0.107-0.215,0.107c-0.064,0-0.15-0.043-0.193-0.064l-0.709-0.365
			c-0.237-0.129-0.409-0.15-0.688-0.15c-0.494,0-0.774,0.279-0.989,0.816c-0.193,0.495-0.193,1.656-0.193,2.236v3.354
			c0,2.086,0.172,2.021,2.172,2.129v0.559h-5.87v-0.559c1.785-0.086,1.764-0.258,1.764-2.129v-5.805
			c0-0.859-0.258-1.053-1.226-1.053h-0.494v-0.538c1.44-0.064,2.729-0.408,3.654-0.925v1.979l0.989-1.161
			c0.623-0.731,0.795-0.817,1.269-0.817c0.344,0,0.559,0.172,0.816,0.646l0.538,0.968c0.043,0.086,0.064,0.129,0.064,0.172
			C491.473,497.693,491.408,497.736,491.279,497.822z"/>
		<path d="M502.479,498.574l-3.87,8.256h-0.688l-3.634-8.514c-0.537-1.246-0.881-1.612-1.763-1.677v-0.56h5.568v0.56
			c-1.397,0.021-1.87,0.237-1.87,0.839c0,0.129,0.021,0.301,0.172,0.666l2.473,6.278l2.752-6.171
			c0.172-0.365,0.215-0.559,0.215-0.688c0-0.86-1.226-0.903-1.828-0.925v-0.56h4.322v0.56
			C503.404,496.747,503.211,497.027,502.479,498.574z"/>
		<path d="M510.865,507.088h-0.559c-2.064,0-3.247-0.494-4.192-1.633c-0.946-1.162-1.462-2.709-1.462-4.193
			c0-1.461,0.537-2.924,1.44-3.934c0.859-0.968,2.128-1.506,3.547-1.506c1.914,0,3.247,0.989,3.784,2.752
			c0.193,0.646,0.258,1.162,0.236,2.301h-6.923c0.021,1.57,0.408,2.816,1.14,3.677c0.709,0.839,1.677,1.29,2.967,1.29
			c0.796,0,1.419-0.193,2.494-0.731l0.322,0.646L510.865,507.088z M509.489,496.532c-1.226,0-2.128,0.753-2.516,2.085
			c-0.129,0.409-0.172,0.753-0.236,1.484h3.698c0.968,0,1.376-0.365,1.376-1.248C511.812,497.543,510.844,496.532,509.489,496.532z"
			/>
		<path d="M522.304,497.822l-0.495,0.387c-0.064,0.043-0.129,0.107-0.215,0.107c-0.064,0-0.15-0.043-0.193-0.064l-0.709-0.365
			c-0.237-0.129-0.409-0.15-0.688-0.15c-0.494,0-0.774,0.279-0.989,0.816c-0.193,0.495-0.193,1.656-0.193,2.236v3.354
			c0,2.086,0.172,2.021,2.172,2.129v0.559h-5.87v-0.559c1.785-0.086,1.764-0.258,1.764-2.129v-5.805
			c0-0.859-0.258-1.053-1.226-1.053h-0.495v-0.538c1.441-0.064,2.73-0.408,3.655-0.925v1.979l0.989-1.161
			c0.623-0.731,0.795-0.817,1.269-0.817c0.344,0,0.559,0.172,0.816,0.646l0.538,0.968c0.043,0.086,0.064,0.129,0.064,0.172
			C522.497,497.693,522.433,497.736,522.304,497.822z"/>
		<path d="M526.904,507.088c-1.075,0-1.893-0.172-2.816-0.58V504.1h0.559c0.043,0.538,0.129,0.989,0.344,1.313
			c0.388,0.58,1.183,0.945,2.021,0.945c1.161,0,1.978-0.795,1.978-1.892c0-1.011-0.365-1.462-2.407-2.839
			c-1.979-1.332-2.473-1.955-2.473-3.031c0-1.654,1.462-2.773,3.611-2.773c0.839,0,1.527,0.064,2.387,0.345v2.128h-0.559
			c-0.064-0.408-0.107-0.58-0.215-0.795c-0.323-0.58-0.86-0.968-1.721-0.968c-0.967,0-1.677,0.603-1.677,1.419
			c0,0.322,0.129,0.709,0.344,0.945c0.366,0.409,0.366,0.409,2.344,1.807c1.72,1.226,2.279,1.957,2.279,3.096
			C530.903,505.777,529.334,507.088,526.904,507.088z"/>
	</g>
	<rect x="557.965" y="488.33" fill="#939598" width="22.498" height="22.5"/>
	<g>
		<path d="M605.275,499.973c-0.816,0.279-1.505,0.365-3.074,0.387v-0.43c1.183-0.064,1.677-0.193,2.236-0.495
			c1.118-0.581,1.72-1.827,1.72-3.526c0-2.343-1.14-3.439-3.591-3.439h-1.289v11.674c0,1.979,0,1.979,1.806,2.129v0.559h-5.74
			v-0.559c1.827-0.15,1.827-0.15,1.827-2.129v-9.674c0-2,0-1.979-1.827-2.129v-0.559h5.611c3.525,0,5.332,1.332,5.332,3.934
			C608.286,497.693,607.168,499.306,605.275,499.973z"/>
		<path d="M615.553,507.088h-0.559c-2.064,0-3.247-0.494-4.192-1.633c-0.946-1.162-1.462-2.709-1.462-4.193
			c0-1.461,0.537-2.924,1.44-3.934c0.859-0.968,2.128-1.506,3.547-1.506c1.914,0,3.247,0.989,3.784,2.752
			c0.193,0.646,0.258,1.162,0.236,2.301h-6.923c0.021,1.57,0.408,2.816,1.14,3.677c0.709,0.839,1.677,1.29,2.967,1.29
			c0.796,0,1.419-0.193,2.494-0.731l0.322,0.646L615.553,507.088z M614.177,496.532c-1.226,0-2.128,0.753-2.516,2.085
			c-0.129,0.409-0.172,0.753-0.236,1.484h3.698c0.967,0,1.376-0.365,1.376-1.248C616.499,497.543,615.531,496.532,614.177,496.532z"
			/>
		<path d="M627.292,506.83v-0.559c1.849-0.193,1.72-0.43,1.72-2.129v-3.977c0-2.344-0.623-3.182-2.43-3.182
			c-1.784,0-2.645,0.967-2.945,2.3c-0.129,0.581-0.172,1.226-0.172,2.214c0,2.645,0,0,0,2.645c0,1.871,0.021,1.893,1.741,2.129
			v0.559h-5.396v-0.559c1.678-0.236,1.721-0.301,1.721-2.129v-5.826c0-0.859-0.258-1.053-1.226-1.053h-0.495v-0.538
			c1.441-0.064,2.752-0.387,3.655-0.903v1.871c1.204-1.29,2.58-1.871,4.3-1.871c1.612,0,2.58,0.688,2.988,1.828
			c0.173,0.516,0.194,0.988,0.194,1.956v4.536c0,1.828-0.086,1.957,1.72,2.129v0.559H627.292z"/>
		<path d="M637.246,507.088c-1.075,0-1.893-0.172-2.816-0.58V504.1h0.559c0.043,0.538,0.129,0.989,0.344,1.313
			c0.388,0.58,1.183,0.945,2.021,0.945c1.161,0,1.978-0.795,1.978-1.892c0-1.011-0.365-1.462-2.407-2.839
			c-1.979-1.332-2.473-1.955-2.473-3.031c0-1.654,1.462-2.773,3.611-2.773c0.839,0,1.527,0.064,2.387,0.345v2.128h-0.559
			c-0.064-0.408-0.107-0.58-0.215-0.795c-0.323-0.58-0.86-0.968-1.721-0.968c-0.967,0-1.677,0.603-1.677,1.419
			c0,0.322,0.129,0.709,0.344,0.945c0.366,0.409,0.366,0.409,2.344,1.807c1.72,1.226,2.279,1.957,2.279,3.096
			C641.245,505.777,639.676,507.088,637.246,507.088z"/>
		<path d="M642.706,506.83v-0.559c1.678-0.172,1.721-0.193,1.721-2.129v-5.805c0-0.859-0.236-1.053-1.226-1.053h-0.495v-0.538
			c1.441-0.064,2.752-0.408,3.655-0.925v8.32c0,1.807-0.043,1.957,1.72,2.129v0.559H642.706z M645.136,494.404
			c-0.688,0-1.247-0.56-1.247-1.27c0-0.645,0.581-1.225,1.269-1.225c0.667,0,1.247,0.559,1.247,1.246
			C646.404,493.866,645.846,494.404,645.136,494.404z"/>
		<path d="M654.832,507.088c-3.117,0-5.288-2.45-5.288-5.504c0-3.289,2.407-5.762,5.719-5.762c3.182,0,5.375,2.258,5.375,5.525
			C660.638,504.638,658.187,507.088,654.832,507.088z M654.983,496.532c-2.537,0-3.312,2.816-3.312,4.88
			c0,2.902,1.397,4.945,3.44,4.945c2.063,0,3.396-1.87,3.396-4.773C658.509,498.488,657.133,496.532,654.983,496.532z"/>
		<path d="M669.581,506.83v-0.559c1.849-0.193,1.72-0.43,1.72-2.129v-3.977c0-2.344-0.623-3.182-2.43-3.182
			c-1.784,0-2.645,0.967-2.945,2.3c-0.129,0.581-0.172,1.226-0.172,2.214c0,2.645,0,0,0,2.645c0,1.871,0.021,1.893,1.741,2.129
			v0.559h-5.396v-0.559c1.678-0.236,1.721-0.301,1.721-2.129v-5.826c0-0.859-0.258-1.053-1.226-1.053h-0.495v-0.538
			c1.441-0.064,2.752-0.387,3.655-0.903v1.871c1.204-1.29,2.58-1.871,4.3-1.871c1.612,0,2.58,0.688,2.988,1.828
			c0.173,0.516,0.194,0.988,0.194,1.956v4.536c0,1.828-0.086,1.957,1.72,2.129v0.559H669.581z"/>
		<path d="M682.631,507.088h-0.559c-2.064,0-3.247-0.494-4.192-1.633c-0.946-1.162-1.462-2.709-1.462-4.193
			c0-1.461,0.537-2.924,1.44-3.934c0.859-0.968,2.128-1.506,3.547-1.506c1.914,0,3.247,0.989,3.784,2.752
			c0.193,0.646,0.258,1.162,0.236,2.301h-6.923c0.021,1.57,0.408,2.816,1.14,3.677c0.709,0.839,1.677,1.29,2.967,1.29
			c0.796,0,1.419-0.193,2.494-0.731l0.322,0.646L682.631,507.088z M681.255,496.532c-1.226,0-2.128,0.753-2.516,2.085
			c-0.129,0.409-0.172,0.753-0.236,1.484h3.698c0.967,0,1.376-0.365,1.376-1.248C683.577,497.543,682.609,496.532,681.255,496.532z"
			/>
		<path d="M694.069,497.822l-0.495,0.387c-0.064,0.043-0.129,0.107-0.215,0.107c-0.064,0-0.15-0.043-0.193-0.064l-0.709-0.365
			c-0.237-0.129-0.409-0.15-0.688-0.15c-0.494,0-0.774,0.279-0.989,0.816c-0.193,0.495-0.193,1.656-0.193,2.236v3.354
			c0,2.086,0.172,2.021,2.172,2.129v0.559h-5.87v-0.559c1.785-0.086,1.764-0.258,1.764-2.129v-5.805
			c0-0.859-0.258-1.053-1.226-1.053h-0.494v-0.538c1.44-0.064,2.729-0.408,3.654-0.925v1.979l0.989-1.161
			c0.623-0.731,0.795-0.817,1.269-0.817c0.344,0,0.559,0.172,0.816,0.646l0.538,0.968c0.043,0.086,0.064,0.129,0.064,0.172
			C694.263,497.693,694.198,497.736,694.069,497.822z"/>
		<path d="M698.67,507.088c-1.075,0-1.893-0.172-2.816-0.58V504.1h0.559c0.043,0.538,0.129,0.989,0.344,1.313
			c0.388,0.58,1.183,0.945,2.021,0.945c1.161,0,1.978-0.795,1.978-1.892c0-1.011-0.365-1.462-2.407-2.839
			c-1.979-1.332-2.473-1.955-2.473-3.031c0-1.654,1.462-2.773,3.611-2.773c0.839,0,1.527,0.064,2.387,0.345v2.128h-0.559
			c-0.064-0.408-0.107-0.58-0.215-0.795c-0.323-0.58-0.86-0.968-1.721-0.968c-0.967,0-1.677,0.603-1.677,1.419
			c0,0.322,0.129,0.709,0.344,0.945c0.366,0.409,0.366,0.409,2.344,1.807c1.72,1.226,2.279,1.957,2.279,3.096
			C702.669,505.777,701.1,507.088,698.67,507.088z"/>
	</g>
	<rect x="201.456" y="488.33" fill="#AD4525" width="22.499" height="22.5"/>
	<g>
		<path d="M254.552,505.67c-0.107,0.43-0.173,0.516-0.796,0.73c-1.29,0.451-3.053,0.688-4.515,0.688
			c-2.021,0-3.935-0.602-5.439-1.74c-1.698-1.291-2.816-3.312-2.816-5.978c0-2.171,0.967-4.579,3.053-6.149
			c1.376-1.031,3.225-1.697,5.611-1.697c1.483,0,3.117,0.322,4.085,0.73c0.623,0.258,0.817,0.451,0.817,0.967v2.645h-0.56
			c-0.064-0.752-0.193-1.311-0.408-1.719c-0.624-1.184-2.387-1.893-4.171-1.893c-3.677,0-5.977,2.559-5.977,6.923
			c0,2.343,0.666,4.386,2.042,5.697c0.989,0.925,2.344,1.483,4.085,1.483c1.698,0,3.225-0.58,4.171-1.763
			c0.344-0.431,0.537-0.796,0.903-1.612h0.559L254.552,505.67z"/>
		<path d="M261.99,507.088c-3.117,0-5.288-2.45-5.288-5.504c0-3.289,2.407-5.762,5.719-5.762c3.182,0,5.375,2.258,5.375,5.525
			C267.796,504.638,265.345,507.088,261.99,507.088z M262.142,496.532c-2.537,0-3.312,2.816-3.312,4.88
			c0,2.902,1.397,4.945,3.44,4.945c2.063,0,3.396-1.87,3.396-4.773C265.667,498.488,264.291,496.532,262.142,496.532z"/>
		<path d="M276.739,506.83v-0.559c1.849-0.193,1.72-0.43,1.72-2.129v-3.977c0-2.344-0.623-3.182-2.43-3.182
			c-1.784,0-2.645,0.967-2.945,2.3c-0.129,0.581-0.172,1.226-0.172,2.214c0,2.645,0,0,0,2.645c0,1.871,0.021,1.893,1.741,2.129
			v0.559h-5.396v-0.559c1.678-0.236,1.721-0.301,1.721-2.129v-5.826c0-0.859-0.258-1.053-1.226-1.053h-0.495v-0.538
			c1.441-0.064,2.752-0.387,3.655-0.903v1.871c1.204-1.29,2.58-1.871,4.3-1.871c1.612,0,2.58,0.688,2.988,1.828
			c0.173,0.516,0.194,0.988,0.194,1.956v4.536c0,1.828-0.086,1.957,1.72,2.129v0.559H276.739z"/>
		<path d="M287.79,507.088c-1.14-0.043-1.613-0.236-2.086-0.816c-0.43-0.537-0.623-1.269-0.623-2.58v-6.148h-1.721v-0.968h1.721
			v-2.257l1.354-1.184h0.58v3.44h3.289v0.581l-0.881,0.387h-2.408c0,5.697,0,0,0,5.697c0,1.29,0.15,2.58,1.72,2.58
			c0.474,0,0.903-0.107,1.397-0.279l0.172,0.559L287.79,507.088z"/>
		<path d="M298.54,497.822l-0.495,0.387c-0.064,0.043-0.129,0.107-0.215,0.107c-0.064,0-0.15-0.043-0.193-0.064l-0.709-0.365
			c-0.237-0.129-0.409-0.15-0.688-0.15c-0.494,0-0.774,0.279-0.989,0.816c-0.193,0.495-0.193,1.656-0.193,2.236v3.354
			c0,2.086,0.172,2.021,2.172,2.129v0.559h-5.87v-0.559c1.785-0.086,1.764-0.258,1.764-2.129v-5.805
			c0-0.859-0.258-1.053-1.226-1.053h-0.494v-0.538c1.44-0.064,2.729-0.408,3.654-0.925v1.979l0.989-1.161
			c0.623-0.731,0.795-0.817,1.269-0.817c0.344,0,0.559,0.172,0.816,0.646l0.538,0.968c0.043,0.086,0.064,0.129,0.064,0.172
			C298.733,497.693,298.669,497.736,298.54,497.822z"/>
		<path d="M300.044,506.83v-0.559c1.678-0.172,1.721-0.193,1.721-2.129v-5.805c0-0.859-0.236-1.053-1.226-1.053h-0.495v-0.538
			c1.441-0.064,2.752-0.408,3.655-0.925v8.32c0,1.807-0.043,1.957,1.72,2.129v0.559H300.044z M302.474,494.404
			c-0.688,0-1.247-0.56-1.247-1.27c0-0.645,0.581-1.225,1.269-1.225c0.667,0,1.247,0.559,1.247,1.246
			C303.742,493.866,303.184,494.404,302.474,494.404z"/>
		<path d="M312.191,507.088c-0.451,0-1.031-0.064-1.634-0.15c-1.269-0.172-1.526-0.215-1.849-0.215
			c-0.193,0-0.451,0.021-0.882,0.107v-13.372c0-0.968-0.107-1.226-1.097-1.226h-0.602v-0.58c1.097,0,2.58-0.258,3.634-0.624v6.558
			c1.14-1.247,2.257-1.764,3.762-1.764c2.709,0,4.365,1.85,4.365,4.924C317.89,504.336,315.417,507.088,312.191,507.088z
			 M312.601,496.854c-1.419,0-2.344,0.796-2.645,2.236c-0.129,0.603-0.193,1.483-0.193,2.515v2.172c0,1.097,0.107,1.635,0.43,2
			s1.011,0.58,1.849,0.58c2.322,0,3.72-2,3.72-5.225C315.761,498.467,314.578,496.854,312.601,496.854z"/>
		<path d="M328.188,507.088c-0.236-0.258-0.387-0.666-0.451-1.139c-0.021-0.193-0.043-0.322-0.043-0.516l-1.893,1.117
			c-0.688,0.408-1.075,0.537-1.806,0.537c-2.387,0-3.333-1.182-3.333-4.191v-4.559c0-0.859-0.258-1.053-1.225-1.053h-0.495v-0.538
			c1.419-0.064,2.752-0.408,3.655-0.925v6.881c0,1.784,0.258,3.096,2.301,3.096c1.225,0,2.214-0.645,2.536-1.699
			c0.194-0.602,0.28-1.525,0.28-2.537v-3.225c0-0.859-0.237-1.053-1.204-1.053h-0.517v-0.538c1.44-0.064,2.752-0.408,3.655-0.925
			c0,3.44,0,7.869,0,7.869c0,1.85,0.107,1.979,0.753,1.979c0.193,0,0.387-0.043,0.73-0.15l0.129,0.602L328.188,507.088z"/>
		<path d="M336.853,507.088c-1.14-0.043-1.613-0.236-2.086-0.816c-0.43-0.537-0.623-1.269-0.623-2.58v-6.148h-1.721v-0.968h1.721
			v-2.257l1.354-1.184h0.58v3.44h3.289v0.581l-0.881,0.387h-2.408c0,5.697,0,0,0,5.697c0,1.29,0.15,2.58,1.72,2.58
			c0.474,0,0.903-0.107,1.397-0.279l0.172,0.559L336.853,507.088z"/>
		<path d="M345.71,507.088c-3.117,0-5.288-2.45-5.288-5.504c0-3.289,2.407-5.762,5.719-5.762c3.182,0,5.375,2.258,5.375,5.525
			C351.516,504.638,349.064,507.088,345.71,507.088z M345.861,496.532c-2.537,0-3.312,2.816-3.312,4.88
			c0,2.902,1.397,4.945,3.44,4.945c2.063,0,3.396-1.87,3.396-4.773C349.387,498.488,348.011,496.532,345.861,496.532z"/>
		<path d="M360.158,497.822l-0.495,0.387c-0.064,0.043-0.129,0.107-0.215,0.107c-0.064,0-0.15-0.043-0.193-0.064l-0.709-0.365
			c-0.237-0.129-0.409-0.15-0.688-0.15c-0.494,0-0.774,0.279-0.989,0.816c-0.193,0.495-0.193,1.656-0.193,2.236v3.354
			c0,2.086,0.172,2.021,2.172,2.129v0.559h-5.87v-0.559c1.785-0.086,1.764-0.258,1.764-2.129v-5.805
			c0-0.859-0.258-1.053-1.226-1.053h-0.495v-0.538c1.441-0.064,2.73-0.408,3.655-0.925v1.979l0.989-1.161
			c0.623-0.731,0.795-0.817,1.269-0.817c0.344,0,0.559,0.172,0.816,0.646l0.538,0.968c0.043,0.086,0.064,0.129,0.064,0.172
			C360.352,497.693,360.287,497.736,360.158,497.822z"/>
		<path d="M364.759,507.088c-1.075,0-1.893-0.172-2.816-0.58V504.1h0.559c0.043,0.538,0.129,0.989,0.344,1.313
			c0.388,0.58,1.183,0.945,2.021,0.945c1.161,0,1.978-0.795,1.978-1.892c0-1.011-0.365-1.462-2.407-2.839
			c-1.979-1.332-2.473-1.955-2.473-3.031c0-1.654,1.462-2.773,3.611-2.773c0.839,0,1.527,0.064,2.387,0.345v2.128h-0.559
			c-0.064-0.408-0.107-0.58-0.215-0.795c-0.323-0.58-0.86-0.968-1.721-0.968c-0.967,0-1.677,0.603-1.677,1.419
			c0,0.322,0.129,0.709,0.344,0.945c0.366,0.409,0.366,0.409,2.344,1.807c1.72,1.226,2.279,1.957,2.279,3.096
			C368.758,505.777,367.188,507.088,364.759,507.088z"/>
	</g>
	<g>
	</g>
	<g>
	</g>
	<g>
	</g>
	<g>
	</g>
	<g>
	</g>
	<g>
	</g>
	<g>
	</g>
</g>
</svg>
