<?xml version="1.0" encoding="utf-8"?>
<!-- Generator: Adobe Illustrator 16.0.0, SVG Export Plug-In . SVG Version: 6.00 Build 0)  -->
<!DOCTYPE svg PUBLIC "-//W3C//DTD SVG 1.1//EN" "http://www.w3.org/Graphics/SVG/1.1/DTD/svg11.dtd">
<svg version="1.1" id="Layer_1" xmlns="http://www.w3.org/2000/svg" xmlns:xlink="http://www.w3.org/1999/xlink" x="0px" y="0px"
	 width="841.89px" height="595.28px" viewBox="0 0 841.89 595.28" enable-background="new 0 0 841.89 595.28" xml:space="preserve">
<g>
	<g>
		<g>
			<g>
				<rect x="192.549" y="169.251" fill="#AF3E18" width="77.616" height="267.018"/>
				<rect x="300.35" y="161.332" fill="#AF3E18" width="77.616" height="274.938"/>
				<rect x="408.15" y="148.886" fill="#AF3E18" width="77.617" height="287.383"/>
				<rect x="515.95" y="129.511" fill="#AF3E18" width="77.616" height="306.758"/>
				<rect x="623.75" y="78.738" fill="#AF3E18" width="77.616" height="357.532"/>
			</g>
		</g>
	</g>
	<g>
		<line fill="none" stroke="#000000" stroke-miterlimit="10" x1="177.458" y1="436.27" x2="716.458" y2="436.27"/>
		<g>
			<g>
				<line fill="none" stroke="#000000" stroke-miterlimit="10" x1="177.458" y1="436.27" x2="177.458" y2="426.369"/>
				<line fill="none" stroke="#000000" stroke-miterlimit="10" x1="285.257" y1="436.27" x2="285.257" y2="426.369"/>
				<line fill="none" stroke="#000000" stroke-miterlimit="10" x1="393.057" y1="436.27" x2="393.057" y2="426.369"/>
				<line fill="none" stroke="#000000" stroke-miterlimit="10" x1="500.858" y1="436.27" x2="500.858" y2="426.369"/>
				<line fill="none" stroke="#000000" stroke-miterlimit="10" x1="608.658" y1="436.27" x2="608.658" y2="426.369"/>
				<line fill="none" stroke="#000000" stroke-miterlimit="10" x1="716.458" y1="436.27" x2="716.458" y2="426.369"/>
			</g>
			<g>
			</g>
		</g>
	</g>
	<g>
		<g>
			<text transform="matrix(1 0 0 1 156.9819 445.7441)" font-family="'StoneSerifITC-Medium'" font-size="21">0</text>
			<text transform="matrix(1 0 0 1 113.0083 389.1719)" font-family="'StoneSerifITC-Medium'" font-size="21">$50m</text>
			<text transform="matrix(1 0 0 1 101.7944 332.6016)"><tspan x="0" y="0" font-family="'StoneSerifITC-Medium'" font-size="21">$</tspan><tspan x="12.054" y="0" font-family="'StoneSerifITC-Medium'" font-size="21" letter-spacing="-1">1</tspan><tspan x="23.058" y="0" font-family="'StoneSerifITC-Medium'" font-size="21">0</tspan><tspan x="35.321" y="0" font-family="'StoneSerifITC-Medium'" font-size="21">0m</tspan></text>
			<text transform="matrix(1 0 0 1 102.4873 276.0298)"><tspan x="0" y="0" font-family="'StoneSerifITC-Medium'" font-size="21">$</tspan><tspan x="12.054" y="0" font-family="'StoneSerifITC-Medium'" font-size="21" letter-spacing="-1">1</tspan><tspan x="22.575" y="0" font-family="'StoneSerifITC-Medium'" font-size="21">50m</tspan></text>
			<text transform="matrix(1 0 0 1 100.5767 219.4575)"><tspan x="0" y="0" font-family="'StoneSerifITC-Medium'" font-size="21">$</tspan><tspan x="12.054" y="0" font-family="'StoneSerifITC-Medium'" font-size="21">2</tspan><tspan x="24.275" y="0" font-family="'StoneSerifITC-Medium'" font-size="21">0</tspan><tspan x="36.539" y="0" font-family="'StoneSerifITC-Medium'" font-size="21">0m</tspan></text>
			<text transform="matrix(1 0 0 1 100.9546 162.8862)" font-family="'StoneSerifITC-Medium'" font-size="21">$250m</text>
			<text transform="matrix(1 0 0 1 100.7446 106.3149)"><tspan x="0" y="0" font-family="'StoneSerifITC-Medium'" font-size="21">$3</tspan><tspan x="24.107" y="0" font-family="'StoneSerifITC-Medium'" font-size="21">0</tspan><tspan x="36.371" y="0" font-family="'StoneSerifITC-Medium'" font-size="21">0m</tspan></text>
			<text transform="matrix(1 0 0 1 100.9546 49.7437)" font-family="'StoneSerifITC-Medium'" font-size="21">$350m</text>
		</g>
		<line fill="none" stroke="#000000" stroke-miterlimit="10" x1="177.458" y1="436.27" x2="177.458" y2="40.269"/>
		<g>
			<g>
				<line fill="none" stroke="#000000" stroke-miterlimit="10" x1="177.458" y1="436.27" x2="190.933" y2="436.27"/>
				<line fill="none" stroke="#000000" stroke-miterlimit="10" x1="177.458" y1="379.698" x2="190.933" y2="379.698"/>
				<line fill="none" stroke="#000000" stroke-miterlimit="10" x1="177.458" y1="323.127" x2="190.933" y2="323.127"/>
				<line fill="none" stroke="#000000" stroke-miterlimit="10" x1="177.458" y1="266.555" x2="190.933" y2="266.555"/>
				<line fill="none" stroke="#000000" stroke-miterlimit="10" x1="177.458" y1="209.983" x2="190.933" y2="209.983"/>
				<line fill="none" stroke="#000000" stroke-miterlimit="10" x1="177.458" y1="153.412" x2="190.933" y2="153.412"/>
				<line fill="none" stroke="#000000" stroke-miterlimit="10" x1="177.458" y1="96.84" x2="190.933" y2="96.84"/>
				<line fill="none" stroke="#000000" stroke-miterlimit="10" x1="177.458" y1="40.269" x2="190.933" y2="40.269"/>
			</g>
			<g>
			</g>
		</g>
	</g>
	<g>
		<g>
		</g>
	</g>
	<g>
		<text transform="matrix(1 0 0 1 622.1563 462.4063)"><tspan x="0" y="0" font-family="'StoneSerifITC-Medium'" font-size="21">2</tspan><tspan x="12.221" y="0" font-family="'StoneSerifITC-Medium'" font-size="21" letter-spacing="-1">0</tspan><tspan x="22.932" y="0" font-family="'StoneSerifITC-Medium'" font-size="21" letter-spacing="-1">1</tspan><tspan x="33.451" y="0" font-family="'StoneSerifITC-Medium'" font-size="21">5-</tspan><tspan x="52.498" y="0" font-family="'StoneSerifITC-Medium'" font-size="21" letter-spacing="-1">1</tspan><tspan x="62.746" y="0" font-family="'StoneSerifITC-Medium'" font-size="21">6</tspan></text>
		<text transform="matrix(1 0 0 1 514.4609 462.4063)"><tspan x="0" y="0" font-family="'StoneSerifITC-Medium'" font-size="21">2</tspan><tspan x="12.223" y="0" font-family="'StoneSerifITC-Medium'" font-size="21" letter-spacing="-1">0</tspan><tspan x="22.932" y="0" font-family="'StoneSerifITC-Medium'" font-size="21" letter-spacing="-2">1</tspan><tspan x="32.971" y="0" font-family="'StoneSerifITC-Medium'" font-size="21">4-</tspan><tspan x="52.018" y="0" font-family="'StoneSerifITC-Medium'" font-size="21" letter-spacing="-1">1</tspan><tspan x="62.537" y="0" font-family="'StoneSerifITC-Medium'" font-size="21">5</tspan></text>
		<text transform="matrix(1 0 0 1 406.6616 462.4063)"><tspan x="0" y="0" font-family="'StoneSerifITC-Medium'" font-size="21">2</tspan><tspan x="12.222" y="0" font-family="'StoneSerifITC-Medium'" font-size="21" letter-spacing="-1">0</tspan><tspan x="22.932" y="0" font-family="'StoneSerifITC-Medium'" font-size="21" letter-spacing="-1">1</tspan><tspan x="33.452" y="0" font-family="'StoneSerifITC-Medium'" font-size="21">3-</tspan><tspan x="52.499" y="0" font-family="'StoneSerifITC-Medium'" font-size="21" letter-spacing="-2">1</tspan><tspan x="62.538" y="0" font-family="'StoneSerifITC-Medium'" font-size="21">4</tspan></text>
		<text transform="matrix(1 0 0 1 298.3047 462.4063)"><tspan x="0" y="0" font-family="'StoneSerifITC-Medium'" font-size="21">2</tspan><tspan x="12.222" y="0" font-family="'StoneSerifITC-Medium'" font-size="21" letter-spacing="-1">0</tspan><tspan x="22.932" y="0" font-family="'StoneSerifITC-Medium'" font-size="21">1</tspan><tspan x="34.082" y="0" font-family="'StoneSerifITC-Medium'" font-size="21">2-</tspan><tspan x="53.129" y="0" font-family="'StoneSerifITC-Medium'" font-size="21" letter-spacing="-1">1</tspan><tspan x="63.65" y="0" font-family="'StoneSerifITC-Medium'" font-size="21">3</tspan></text>
		<text transform="matrix(1 0 0 1 191.1978 462.4063)"><tspan x="0" y="0" font-family="'StoneSerifITC-Medium'" font-size="21">2</tspan><tspan x="12.222" y="0" font-family="'StoneSerifITC-Medium'" font-size="21" letter-spacing="-1">0</tspan><tspan x="22.932" y="0" font-family="'StoneSerifITC-Medium'" font-size="21" letter-spacing="-2">1</tspan><tspan x="32.066" y="0" font-family="'StoneSerifITC-Medium'" font-size="21">1-</tspan><tspan x="51.113" y="0" font-family="'StoneSerifITC-Medium'" font-size="21">1</tspan><tspan x="62.263" y="0" font-family="'StoneSerifITC-Medium'" font-size="21">2</tspan></text>
	</g>
</g>
<g>
</g>
<g>
</g>
<g>
</g>
<g>
</g>
<g>
</g>
<g>
</g>
</svg>
