<?xml version="1.0" encoding="utf-8"?>
<!-- Generator: Adobe Illustrator 16.0.0, SVG Export Plug-In . SVG Version: 6.00 Build 0)  -->
<!DOCTYPE svg PUBLIC "-//W3C//DTD SVG 1.1//EN" "http://www.w3.org/Graphics/SVG/1.1/DTD/svg11.dtd">
<svg version="1.1" id="Layer_1" xmlns="http://www.w3.org/2000/svg" xmlns:xlink="http://www.w3.org/1999/xlink" x="0px" y="0px"
	 width="841.89px" height="595.28px" viewBox="0 0 841.89 595.28" enable-background="new 0 0 841.89 595.28" xml:space="preserve">
<g>
	<g>
		<g>
			<g>
				<rect x="113.053" y="48.189" fill="#0078BF" width="77.616" height="388.081"/>
				<rect x="220.854" y="79.869" fill="#0078BF" width="77.616" height="356.4"/>
				<rect x="328.654" y="107.589" fill="#0078BF" width="77.616" height="328.68"/>
				<rect x="436.454" y="128.973" fill="#0078BF" width="77.616" height="307.296"/>
				<rect x="544.254" y="168.573" fill="#0078BF" width="77.616" height="267.697"/>
			</g>
		</g>
	</g>
	<g>
		<line fill="none" stroke="#000000" stroke-miterlimit="10" x1="97.961" y1="436.27" x2="636.962" y2="436.27"/>
		<g>
			<g>
				<line fill="none" stroke="#000000" stroke-miterlimit="10" x1="97.961" y1="436.27" x2="97.961" y2="426.369"/>
				<line fill="none" stroke="#000000" stroke-miterlimit="10" x1="205.761" y1="436.27" x2="205.761" y2="426.369"/>
				<line fill="none" stroke="#000000" stroke-miterlimit="10" x1="313.561" y1="436.27" x2="313.561" y2="426.369"/>
				<line fill="none" stroke="#000000" stroke-miterlimit="10" x1="421.362" y1="436.27" x2="421.362" y2="426.369"/>
				<line fill="none" stroke="#000000" stroke-miterlimit="10" x1="529.162" y1="436.27" x2="529.162" y2="426.369"/>
				<line fill="none" stroke="#000000" stroke-miterlimit="10" x1="636.962" y1="436.27" x2="636.962" y2="426.369"/>
			</g>
			<g>
			</g>
		</g>
	</g>
	<g>
		<g>
			<text transform="matrix(1 0 0 1 77.4858 445.7441)" font-family="'StoneSerifITC-Medium'" font-size="21">0</text>
			<text transform="matrix(1 0 0 1 45.5659 366.543)" font-family="'StoneSerifITC-Medium'" font-size="21">$2m</text>
			<text transform="matrix(1 0 0 1 45.5659 287.3433)" font-family="'StoneSerifITC-Medium'" font-size="21">$4m</text>
			<text transform="matrix(1 0 0 1 45.5659 208.144)" font-family="'StoneSerifITC-Medium'" font-size="21">$6m</text>
			<text transform="matrix(1 0 0 1 45.5659 128.9438)" font-family="'StoneSerifITC-Medium'" font-size="21">$8m</text>
			<text transform="matrix(1 0 0 1 34.562 49.7437)"><tspan x="0" y="0" font-family="'StoneSerifITC-Medium'" font-size="21">$</tspan><tspan x="12.054" y="0" font-family="'StoneSerifITC-Medium'" font-size="21" letter-spacing="-1">1</tspan><tspan x="23.058" y="0" font-family="'StoneSerifITC-Medium'" font-size="21">0m</tspan></text>
		</g>
		<line fill="none" stroke="#000000" stroke-miterlimit="10" x1="97.961" y1="436.27" x2="97.961" y2="40.269"/>
		<g>
			<g>
				<line fill="none" stroke="#000000" stroke-miterlimit="10" x1="97.961" y1="436.27" x2="111.437" y2="436.27"/>
				<line fill="none" stroke="#000000" stroke-miterlimit="10" x1="97.961" y1="357.069" x2="111.437" y2="357.069"/>
				<line fill="none" stroke="#000000" stroke-miterlimit="10" x1="97.961" y1="277.869" x2="111.437" y2="277.869"/>
				<line fill="none" stroke="#000000" stroke-miterlimit="10" x1="97.961" y1="198.669" x2="111.437" y2="198.669"/>
				<line fill="none" stroke="#000000" stroke-miterlimit="10" x1="97.961" y1="119.469" x2="111.437" y2="119.469"/>
				<line fill="none" stroke="#000000" stroke-miterlimit="10" x1="97.961" y1="40.269" x2="111.437" y2="40.269"/>
			</g>
			<g>
			</g>
		</g>
	</g>
	<g>
		<g>
		</g>
	</g>
	<g>
		<text transform="matrix(1 0 0 1 541.6602 462.4063)"><tspan x="0" y="0" font-family="'StoneSerifITC-Medium'" font-size="21">2</tspan><tspan x="12.221" y="0" font-family="'StoneSerifITC-Medium'" font-size="21" letter-spacing="-1">0</tspan><tspan x="22.932" y="0" font-family="'StoneSerifITC-Medium'" font-size="21" letter-spacing="-1">1</tspan><tspan x="33.451" y="0" font-family="'StoneSerifITC-Medium'" font-size="21">5-</tspan><tspan x="52.498" y="0" font-family="'StoneSerifITC-Medium'" font-size="21" letter-spacing="-1">1</tspan><tspan x="62.746" y="0" font-family="'StoneSerifITC-Medium'" font-size="21">6</tspan></text>
		<text transform="matrix(1 0 0 1 433.9648 462.4063)"><tspan x="0" y="0" font-family="'StoneSerifITC-Medium'" font-size="21">2</tspan><tspan x="12.223" y="0" font-family="'StoneSerifITC-Medium'" font-size="21" letter-spacing="-1">0</tspan><tspan x="22.932" y="0" font-family="'StoneSerifITC-Medium'" font-size="21" letter-spacing="-2">1</tspan><tspan x="32.971" y="0" font-family="'StoneSerifITC-Medium'" font-size="21">4-</tspan><tspan x="52.018" y="0" font-family="'StoneSerifITC-Medium'" font-size="21" letter-spacing="-1">1</tspan><tspan x="62.537" y="0" font-family="'StoneSerifITC-Medium'" font-size="21">5</tspan></text>
		<text transform="matrix(1 0 0 1 326.1655 462.4063)"><tspan x="0" y="0" font-family="'StoneSerifITC-Medium'" font-size="21">2</tspan><tspan x="12.222" y="0" font-family="'StoneSerifITC-Medium'" font-size="21" letter-spacing="-1">0</tspan><tspan x="22.932" y="0" font-family="'StoneSerifITC-Medium'" font-size="21" letter-spacing="-1">1</tspan><tspan x="33.452" y="0" font-family="'StoneSerifITC-Medium'" font-size="21">3-</tspan><tspan x="52.499" y="0" font-family="'StoneSerifITC-Medium'" font-size="21" letter-spacing="-2">1</tspan><tspan x="62.537" y="0" font-family="'StoneSerifITC-Medium'" font-size="21">4</tspan></text>
		<text transform="matrix(1 0 0 1 217.8086 462.4063)"><tspan x="0" y="0" font-family="'StoneSerifITC-Medium'" font-size="21">2</tspan><tspan x="12.222" y="0" font-family="'StoneSerifITC-Medium'" font-size="21" letter-spacing="-1">0</tspan><tspan x="22.932" y="0" font-family="'StoneSerifITC-Medium'" font-size="21">1</tspan><tspan x="34.082" y="0" font-family="'StoneSerifITC-Medium'" font-size="21">2-</tspan><tspan x="53.129" y="0" font-family="'StoneSerifITC-Medium'" font-size="21" letter-spacing="-1">1</tspan><tspan x="63.65" y="0" font-family="'StoneSerifITC-Medium'" font-size="21">3</tspan></text>
		<text transform="matrix(1 0 0 1 110.7017 462.4063)"><tspan x="0" y="0" font-family="'StoneSerifITC-Medium'" font-size="21">2</tspan><tspan x="12.222" y="0" font-family="'StoneSerifITC-Medium'" font-size="21" letter-spacing="-1">0</tspan><tspan x="22.932" y="0" font-family="'StoneSerifITC-Medium'" font-size="21" letter-spacing="-2">1</tspan><tspan x="32.066" y="0" font-family="'StoneSerifITC-Medium'" font-size="21">1-</tspan><tspan x="51.113" y="0" font-family="'StoneSerifITC-Medium'" font-size="21">1</tspan><tspan x="62.263" y="0" font-family="'StoneSerifITC-Medium'" font-size="21">2</tspan></text>
	</g>
</g>
<g>
</g>
<g>
</g>
<g>
</g>
<g>
</g>
<g>
</g>
<g>
</g>
<g>
</g>
</svg>
