<?xml version="1.0" encoding="utf-8"?>
<!-- Generator: Adobe Illustrator 16.0.0, SVG Export Plug-In . SVG Version: 6.00 Build 0)  -->
<!DOCTYPE svg PUBLIC "-//W3C//DTD SVG 1.1//EN" "http://www.w3.org/Graphics/SVG/1.1/DTD/svg11.dtd">
<svg version="1.1" id="Layer_1" xmlns="http://www.w3.org/2000/svg" xmlns:xlink="http://www.w3.org/1999/xlink" x="0px" y="0px"
	 width="841.89px" height="595.28px" viewBox="0 0 841.89 595.28" enable-background="new 0 0 841.89 595.28" xml:space="preserve">
<g>
	<g>
		<g>
			<g>
				<rect x="254.046" y="152.958" fill="#0078BF" width="77.616" height="335.808"/>
				<rect x="361.847" y="186.223" fill="#0078BF" width="77.616" height="302.544"/>
				<rect x="469.647" y="211.566" fill="#0078BF" width="77.616" height="277.2"/>
				<rect x="577.447" y="240.078" fill="#0078BF" width="77.616" height="248.688"/>
				<rect x="685.247" y="267.007" fill="#0078BF" width="77.616" height="221.76"/>
			</g>
		</g>
	</g>
	<g>
		<line fill="none" stroke="#000000" stroke-miterlimit="10" x1="238.955" y1="488.767" x2="777.955" y2="488.767"/>
		<g>
			<g>
				<line fill="none" stroke="#000000" stroke-miterlimit="10" x1="238.955" y1="488.767" x2="238.955" y2="478.866"/>
				<line fill="none" stroke="#000000" stroke-miterlimit="10" x1="346.754" y1="488.767" x2="346.754" y2="478.866"/>
				<line fill="none" stroke="#000000" stroke-miterlimit="10" x1="454.555" y1="488.767" x2="454.555" y2="478.866"/>
				<line fill="none" stroke="#000000" stroke-miterlimit="10" x1="562.355" y1="488.767" x2="562.355" y2="478.866"/>
				<line fill="none" stroke="#000000" stroke-miterlimit="10" x1="670.155" y1="488.767" x2="670.155" y2="478.866"/>
				<line fill="none" stroke="#000000" stroke-miterlimit="10" x1="777.955" y1="488.767" x2="777.955" y2="478.866"/>
			</g>
			<g>
			</g>
		</g>
	</g>
	<g>
		<g>
			<text transform="matrix(1 0 0 1 218.479 498.2412)" font-family="'StoneSerifITC-Medium'" font-size="21">0</text>
			<text transform="matrix(1 0 0 1 206.4253 419.041)" font-family="'StoneSerifITC-Medium'" font-size="21">50</text>
			<text transform="matrix(1 0 0 1 195.2114 339.8408)"><tspan x="0" y="0" font-family="'StoneSerifITC-Medium'" font-size="21" letter-spacing="-1">1</tspan><tspan x="11.004" y="0" font-family="'StoneSerifITC-Medium'" font-size="21">0</tspan><tspan x="23.268" y="0" font-family="'StoneSerifITC-Medium'" font-size="21">0</tspan></text>
			<text transform="matrix(1 0 0 1 195.9043 260.6416)"><tspan x="0" y="0" font-family="'StoneSerifITC-Medium'" font-size="21" letter-spacing="-1">1</tspan><tspan x="10.521" y="0" font-family="'StoneSerifITC-Medium'" font-size="21">50</tspan></text>
			<text transform="matrix(1 0 0 1 193.9937 181.4414)"><tspan x="0" y="0" font-family="'StoneSerifITC-Medium'" font-size="21">2</tspan><tspan x="12.222" y="0" font-family="'StoneSerifITC-Medium'" font-size="21">0</tspan><tspan x="24.485" y="0" font-family="'StoneSerifITC-Medium'" font-size="21">0</tspan></text>
			<text transform="matrix(1 0 0 1 194.3716 102.2412)" font-family="'StoneSerifITC-Medium'" font-size="21">250</text>
		</g>
		<line fill="none" stroke="#000000" stroke-miterlimit="10" x1="238.955" y1="488.767" x2="238.955" y2="92.767"/>
		<g>
			<g>
				<line fill="none" stroke="#000000" stroke-miterlimit="10" x1="238.955" y1="488.767" x2="252.43" y2="488.767"/>
				<line fill="none" stroke="#000000" stroke-miterlimit="10" x1="238.955" y1="409.566" x2="252.43" y2="409.566"/>
				<line fill="none" stroke="#000000" stroke-miterlimit="10" x1="238.955" y1="330.366" x2="252.43" y2="330.366"/>
				<line fill="none" stroke="#000000" stroke-miterlimit="10" x1="238.955" y1="251.167" x2="252.43" y2="251.167"/>
				<line fill="none" stroke="#000000" stroke-miterlimit="10" x1="238.955" y1="171.967" x2="252.43" y2="171.967"/>
				<line fill="none" stroke="#000000" stroke-miterlimit="10" x1="238.955" y1="92.767" x2="252.43" y2="92.767"/>
			</g>
			<g>
			</g>
		</g>
	</g>
	<g>
		<g>
		</g>
	</g>
	<g>
		<text transform="matrix(1 0 0 1 687.6523 514.9033)"><tspan x="0" y="0" font-family="'StoneSerifITC-Medium'" font-size="21">2</tspan><tspan x="12.223" y="0" font-family="'StoneSerifITC-Medium'" font-size="21" letter-spacing="-1">0</tspan><tspan x="22.932" y="0" font-family="'StoneSerifITC-Medium'" font-size="21" letter-spacing="-1">1</tspan><tspan x="33.453" y="0" font-family="'StoneSerifITC-Medium'" font-size="21">5-</tspan><tspan x="52.5" y="0" font-family="'StoneSerifITC-Medium'" font-size="21" letter-spacing="-1">1</tspan><tspan x="62.748" y="0" font-family="'StoneSerifITC-Medium'" font-size="21">6</tspan></text>
		<text transform="matrix(1 0 0 1 579.959 514.9033)"><tspan x="0" y="0" font-family="'StoneSerifITC-Medium'" font-size="21">2</tspan><tspan x="12.221" y="0" font-family="'StoneSerifITC-Medium'" font-size="21" letter-spacing="-1">0</tspan><tspan x="22.932" y="0" font-family="'StoneSerifITC-Medium'" font-size="21" letter-spacing="-2">1</tspan><tspan x="32.969" y="0" font-family="'StoneSerifITC-Medium'" font-size="21">4-</tspan><tspan x="52.016" y="0" font-family="'StoneSerifITC-Medium'" font-size="21" letter-spacing="-1">1</tspan><tspan x="62.537" y="0" font-family="'StoneSerifITC-Medium'" font-size="21">5</tspan></text>
		<text transform="matrix(1 0 0 1 472.1582 514.9033)"><tspan x="0" y="0" font-family="'StoneSerifITC-Medium'" font-size="21">2</tspan><tspan x="12.223" y="0" font-family="'StoneSerifITC-Medium'" font-size="21" letter-spacing="-1">0</tspan><tspan x="22.932" y="0" font-family="'StoneSerifITC-Medium'" font-size="21" letter-spacing="-1">1</tspan><tspan x="33.453" y="0" font-family="'StoneSerifITC-Medium'" font-size="21">3-</tspan><tspan x="52.5" y="0" font-family="'StoneSerifITC-Medium'" font-size="21" letter-spacing="-2">1</tspan><tspan x="62.537" y="0" font-family="'StoneSerifITC-Medium'" font-size="21">4</tspan></text>
		<text transform="matrix(1 0 0 1 363.8018 514.9033)"><tspan x="0" y="0" font-family="'StoneSerifITC-Medium'" font-size="21">2</tspan><tspan x="12.222" y="0" font-family="'StoneSerifITC-Medium'" font-size="21" letter-spacing="-1">0</tspan><tspan x="22.932" y="0" font-family="'StoneSerifITC-Medium'" font-size="21">1</tspan><tspan x="34.082" y="0" font-family="'StoneSerifITC-Medium'" font-size="21">2-</tspan><tspan x="53.129" y="0" font-family="'StoneSerifITC-Medium'" font-size="21" letter-spacing="-1">1</tspan><tspan x="63.649" y="0" font-family="'StoneSerifITC-Medium'" font-size="21">3</tspan></text>
		<text transform="matrix(1 0 0 1 256.6948 514.9033)"><tspan x="0" y="0" font-family="'StoneSerifITC-Medium'" font-size="21">2</tspan><tspan x="12.222" y="0" font-family="'StoneSerifITC-Medium'" font-size="21" letter-spacing="-1">0</tspan><tspan x="22.932" y="0" font-family="'StoneSerifITC-Medium'" font-size="21" letter-spacing="-2">1</tspan><tspan x="32.066" y="0" font-family="'StoneSerifITC-Medium'" font-size="21">1-</tspan><tspan x="51.113" y="0" font-family="'StoneSerifITC-Medium'" font-size="21">1</tspan><tspan x="62.263" y="0" font-family="'StoneSerifITC-Medium'" font-size="21">2</tspan></text>
	</g>
</g>
<g>
</g>
<g>
</g>
<g>
</g>
<g>
</g>
<g>
</g>
<g>
</g>
</svg>
