<?xml version="1.0" encoding="utf-8"?>
<!-- Generator: Adobe Illustrator 16.0.0, SVG Export Plug-In . SVG Version: 6.00 Build 0)  -->
<!DOCTYPE svg PUBLIC "-//W3C//DTD SVG 1.1//EN" "http://www.w3.org/Graphics/SVG/1.1/DTD/svg11.dtd">
<svg version="1.1" xmlns="http://www.w3.org/2000/svg" xmlns:xlink="http://www.w3.org/1999/xlink" x="0px" y="0px"
	 width="841.89px" height="595.28px" viewBox="0 0 841.89 595.28" enable-background="new 0 0 841.89 595.28" xml:space="preserve">
<g id="Layer_2">
</g>
<g id="Layer_1">
	<g>
		<g>
			<g>
				<g>
					<rect x="303.688" y="347.859" fill-rule="evenodd" clip-rule="evenodd" fill="#939598" width="24.011" height="87.422"/>
					<rect x="403.733" y="336.236" fill="#939598" width="24.011" height="99.045"/>
					<rect x="503.777" y="323.137" fill="#939598" width="24.011" height="112.145"/>
					<rect x="603.822" y="304.599" fill="#939598" width="24.011" height="130.683"/>
					<rect x="703.866" y="291.604" fill="#939598" width="24.011" height="143.677"/>
				</g>
			</g>
			<g>
				<g>
					<rect x="277.01" y="99.236" fill-rule="evenodd" clip-rule="evenodd" fill="#FBBB88" width="24.011" height="336.045"/>
					<rect x="377.055" y="100.141" fill="#FBBB88" width="24.011" height="335.141"/>
					<rect x="477.099" y="98.831" fill="#FBBB88" width="24.011" height="336.451"/>
					<rect x="577.144" y="98.17" fill="#FBBB88" width="24.011" height="337.111"/>
					<rect x="677.188" y="102.784" fill="#FBBB88" width="24.011" height="332.497"/>
				</g>
			</g>
			<g>
				<g>
					<rect x="250.332" y="82.662" fill-rule="evenodd" clip-rule="evenodd" fill="#F58025" width="24.011" height="352.619"/>
					<rect x="350.376" y="102.347" fill="#F58025" width="24.011" height="332.935"/>
					<rect x="450.421" y="121.423" fill="#F58025" width="24.011" height="313.858"/>
					<rect x="550.464" y="146.721" fill="#F58025" width="24.011" height="288.561"/>
					<rect x="650.509" y="161.879" fill="#F58025" width="24.011" height="273.402"/>
				</g>
			</g>
		</g>
		<g>
			
				<line fill-rule="evenodd" clip-rule="evenodd" fill="none" stroke="#000000" stroke-miterlimit="10" x1="238.994" y1="435.281" x2="739.215" y2="435.281"/>
			<g>
				<g>
					<line fill="#6660AA" stroke="#000000" stroke-miterlimit="10" x1="238.994" y1="435.281" x2="238.994" y2="425.479"/>
					<line fill="#6660AA" stroke="#000000" stroke-miterlimit="10" x1="339.038" y1="435.281" x2="339.038" y2="425.479"/>
					<line fill="#6660AA" stroke="#000000" stroke-miterlimit="10" x1="439.082" y1="435.281" x2="439.082" y2="425.479"/>
					<line fill="#6660AA" stroke="#000000" stroke-miterlimit="10" x1="539.126" y1="435.281" x2="539.126" y2="425.479"/>
					<line fill="#6660AA" stroke="#000000" stroke-miterlimit="10" x1="639.171" y1="435.281" x2="639.171" y2="425.479"/>
					<line fill="#6660AA" stroke="#000000" stroke-miterlimit="10" x1="739.215" y1="435.281" x2="739.215" y2="425.479"/>
				</g>
				<g>
				</g>
			</g>
		</g>
		<g>
			<g>
				<text transform="matrix(1 0 0 1 218.8301 444.0742)" font-family="'StoneSerifITC-Medium'" font-size="21.5124">0</text>
				<text transform="matrix(1 0 0 1 162.6626 378.7217)"><tspan x="0" y="0" font-family="'StoneSerifITC-Medium'" font-size="21.5124">2</tspan><tspan x="12.52" y="0" font-family="'StoneSerifITC-Medium'" font-size="21.5124">0,</tspan><tspan x="31.042" y="0" font-family="'StoneSerifITC-Medium'" font-size="21.5124">00</tspan><tspan x="56.167" y="0" font-family="'StoneSerifITC-Medium'" font-size="21.5124">0</tspan></text>
				<text transform="matrix(1 0 0 1 162.8345 313.3691)"><tspan x="0" y="0" font-family="'StoneSerifITC-Medium'" font-size="21.5124">40,</tspan><tspan x="30.87" y="0" font-family="'StoneSerifITC-Medium'" font-size="21.5124">00</tspan><tspan x="55.995" y="0" font-family="'StoneSerifITC-Medium'" font-size="21.5124">0</tspan></text>
				<text transform="matrix(1 0 0 1 162.8345 248.0166)"><tspan x="0" y="0" font-family="'StoneSerifITC-Medium'" font-size="21.5124">60,</tspan><tspan x="30.87" y="0" font-family="'StoneSerifITC-Medium'" font-size="21.5124">00</tspan><tspan x="55.995" y="0" font-family="'StoneSerifITC-Medium'" font-size="21.5124">0</tspan></text>
				<text transform="matrix(1 0 0 1 162.8345 182.665)"><tspan x="0" y="0" font-family="'StoneSerifITC-Medium'" font-size="21.5124">80,</tspan><tspan x="30.87" y="0" font-family="'StoneSerifITC-Medium'" font-size="21.5124">00</tspan><tspan x="55.995" y="0" font-family="'StoneSerifITC-Medium'" font-size="21.5124">0</tspan></text>
				<text transform="matrix(1 0 0 1 151.3467 117.3125)"><tspan x="0" y="0" font-family="'StoneSerifITC-Medium'" font-size="21.5124" letter-spacing="-1">1</tspan><tspan x="11.272" y="0" font-family="'StoneSerifITC-Medium'" font-size="21.5124">0</tspan><tspan x="23.835" y="0" font-family="'StoneSerifITC-Medium'" font-size="21.5124">0,</tspan><tspan x="42.356" y="0" font-family="'StoneSerifITC-Medium'" font-size="21.5124">00</tspan><tspan x="67.482" y="0" font-family="'StoneSerifITC-Medium'" font-size="21.5124">0</tspan></text>
				<text transform="matrix(1 0 0 1 151.2397 51.96)"><tspan x="0" y="0" font-family="'StoneSerifITC-Medium'" font-size="21.5124">1</tspan><tspan x="11.423" y="0" font-family="'StoneSerifITC-Medium'" font-size="21.5124">2</tspan><tspan x="23.943" y="0" font-family="'StoneSerifITC-Medium'" font-size="21.5124">0,</tspan><tspan x="42.464" y="0" font-family="'StoneSerifITC-Medium'" font-size="21.5124">00</tspan><tspan x="67.589" y="0" font-family="'StoneSerifITC-Medium'" font-size="21.5124">0</tspan></text>
			</g>
			
				<line fill-rule="evenodd" clip-rule="evenodd" fill="none" stroke="#000000" stroke-miterlimit="10" x1="238.994" y1="435.281" x2="238.994" y2="43.167"/>
			<g>
				<g>
					<line fill="#6660AA" stroke="#000000" stroke-miterlimit="10" x1="238.994" y1="435.281" x2="251.499" y2="435.281"/>
					<line fill="#6660AA" stroke="#000000" stroke-miterlimit="10" x1="238.994" y1="369.929" x2="251.499" y2="369.929"/>
					<line fill="#6660AA" stroke="#000000" stroke-miterlimit="10" x1="238.994" y1="304.576" x2="251.499" y2="304.576"/>
					<line fill="#6660AA" stroke="#000000" stroke-miterlimit="10" x1="238.994" y1="239.224" x2="251.499" y2="239.224"/>
					<line fill="#6660AA" stroke="#000000" stroke-miterlimit="10" x1="238.994" y1="173.872" x2="251.499" y2="173.872"/>
					<line fill="#6660AA" stroke="#000000" stroke-miterlimit="10" x1="238.994" y1="108.519" x2="251.499" y2="108.519"/>
					<line fill="#6660AA" stroke="#000000" stroke-miterlimit="10" x1="238.994" y1="43.167" x2="251.499" y2="43.167"/>
				</g>
				<g>
				</g>
			</g>
		</g>
		<g>
			<g>
			</g>
			<g>
			</g>
			<g>
			</g>
		</g>
		<g>
			<text transform="matrix(1 0 0 1 650.8809 458.9951)"><tspan x="0" y="0" font-family="'StoneSerifITC-Medium'" font-size="21.5124">2</tspan><tspan x="12.52" y="0" font-family="'StoneSerifITC-Medium'" font-size="21.5124" letter-spacing="-1">0</tspan><tspan x="23.49" y="0" font-family="'StoneSerifITC-Medium'" font-size="21.5124" letter-spacing="-1">1</tspan><tspan x="34.268" y="0" font-family="'StoneSerifITC-Medium'" font-size="21.5124">5-</tspan><tspan x="53.778" y="0" font-family="'StoneSerifITC-Medium'" font-size="21.5124" letter-spacing="-1">1</tspan><tspan x="64.276" y="0" font-family="'StoneSerifITC-Medium'" font-size="21.5124">6</tspan></text>
			<text transform="matrix(1 0 0 1 550.9434 458.9951)"><tspan x="0" y="0" font-family="'StoneSerifITC-Medium'" font-size="21.5124">2</tspan><tspan x="12.52" y="0" font-family="'StoneSerifITC-Medium'" font-size="21.5124" letter-spacing="-1">0</tspan><tspan x="23.49" y="0" font-family="'StoneSerifITC-Medium'" font-size="21.5124" letter-spacing="-2">1</tspan><tspan x="33.773" y="0" font-family="'StoneSerifITC-Medium'" font-size="21.5124">4-</tspan><tspan x="53.284" y="0" font-family="'StoneSerifITC-Medium'" font-size="21.5124" letter-spacing="-1">1</tspan><tspan x="64.062" y="0" font-family="'StoneSerifITC-Medium'" font-size="21.5124">5</tspan></text>
			<text transform="matrix(1 0 0 1 450.8994 458.9951)"><tspan x="0" y="0" font-family="'StoneSerifITC-Medium'" font-size="21.5124">2</tspan><tspan x="12.52" y="0" font-family="'StoneSerifITC-Medium'" font-size="21.5124" letter-spacing="-1">0</tspan><tspan x="23.49" y="0" font-family="'StoneSerifITC-Medium'" font-size="21.5124" letter-spacing="-1">1</tspan><tspan x="34.268" y="0" font-family="'StoneSerifITC-Medium'" font-size="21.5124">3-</tspan><tspan x="53.778" y="0" font-family="'StoneSerifITC-Medium'" font-size="21.5124" letter-spacing="-2">1</tspan><tspan x="64.062" y="0" font-family="'StoneSerifITC-Medium'" font-size="21.5124">4</tspan></text>
			<text transform="matrix(1 0 0 1 350.2847 458.9951)"><tspan x="0" y="0" font-family="'StoneSerifITC-Medium'" font-size="21.5124">2</tspan><tspan x="12.52" y="0" font-family="'StoneSerifITC-Medium'" font-size="21.5124" letter-spacing="-1">0</tspan><tspan x="23.491" y="0" font-family="'StoneSerifITC-Medium'" font-size="21.5124">1</tspan><tspan x="34.914" y="0" font-family="'StoneSerifITC-Medium'" font-size="21.5124">2-</tspan><tspan x="54.425" y="0" font-family="'StoneSerifITC-Medium'" font-size="21.5124" letter-spacing="-1">1</tspan><tspan x="65.203" y="0" font-family="'StoneSerifITC-Medium'" font-size="21.5124">3</tspan></text>
			<text transform="matrix(1 0 0 1 250.9502 458.9951)"><tspan x="0" y="0" font-family="'StoneSerifITC-Medium'" font-size="21.5124">2</tspan><tspan x="12.52" y="0" font-family="'StoneSerifITC-Medium'" font-size="21.5124" letter-spacing="-1">0</tspan><tspan x="23.491" y="0" font-family="'StoneSerifITC-Medium'" font-size="21.5124" letter-spacing="-2">1</tspan><tspan x="32.848" y="0" font-family="'StoneSerifITC-Medium'" font-size="21.5124">1-</tspan><tspan x="52.359" y="0" font-family="'StoneSerifITC-Medium'" font-size="21.5124">1</tspan><tspan x="63.783" y="0" font-family="'StoneSerifITC-Medium'" font-size="21.5124">2</tspan></text>
		</g>
	</g>
	<rect x="429.461" y="487.58" fill="#FBBB88" width="22.5" height="22.5"/>
	<g>
		<path d="M476.773,499.223c-0.816,0.279-1.506,0.365-3.074,0.387v-0.43c1.182-0.064,1.676-0.193,2.236-0.495
			c1.117-0.581,1.719-1.827,1.719-3.526c0-2.343-1.139-3.439-3.59-3.439h-1.289v11.674c0,1.979,0,1.979,1.805,2.129v0.559h-5.74
			v-0.559c1.828-0.15,1.828-0.15,1.828-2.129v-9.674c0-2,0-1.979-1.828-2.129v-0.559h5.611c3.525,0,5.332,1.332,5.332,3.934
			C479.783,496.943,478.666,498.556,476.773,499.223z"/>
		<path d="M488.34,497.072l-0.494,0.387c-0.064,0.043-0.129,0.107-0.215,0.107c-0.064,0-0.15-0.043-0.193-0.064l-0.709-0.365
			c-0.238-0.129-0.41-0.15-0.689-0.15c-0.494,0-0.773,0.279-0.988,0.816c-0.193,0.495-0.193,1.656-0.193,2.236v3.354
			c0,2.086,0.172,2.021,2.172,2.129v0.559h-5.871v-0.559c1.785-0.086,1.764-0.258,1.764-2.129v-5.805
			c0-0.859-0.258-1.053-1.225-1.053h-0.494v-0.538c1.439-0.064,2.729-0.408,3.654-0.925v1.979l0.988-1.161
			c0.623-0.731,0.795-0.817,1.27-0.817c0.344,0,0.559,0.172,0.816,0.646l0.537,0.968c0.043,0.086,0.064,0.129,0.064,0.172
			C488.533,496.943,488.469,496.986,488.34,497.072z"/>
		<path d="M495.715,506.338h-0.559c-2.064,0-3.248-0.494-4.193-1.633c-0.945-1.162-1.461-2.709-1.461-4.193
			c0-1.461,0.537-2.924,1.439-3.934c0.859-0.968,2.129-1.506,3.547-1.506c1.914,0,3.248,0.989,3.785,2.752
			c0.193,0.646,0.258,1.162,0.236,2.301h-6.924c0.021,1.57,0.408,2.816,1.141,3.677c0.709,0.839,1.676,1.29,2.967,1.29
			c0.795,0,1.418-0.193,2.494-0.731l0.322,0.646L495.715,506.338z M494.338,495.782c-1.225,0-2.127,0.753-2.516,2.085
			c-0.129,0.409-0.172,0.753-0.236,1.484h3.699c0.967,0,1.375-0.365,1.375-1.248C496.66,496.793,495.693,495.782,494.338,495.782z"
			/>
		<path d="M503.262,506.338c-1.076,0-1.893-0.172-2.816-0.58v-2.408h0.559c0.043,0.538,0.129,0.989,0.344,1.313
			c0.387,0.58,1.182,0.945,2.021,0.945c1.16,0,1.977-0.795,1.977-1.892c0-1.011-0.365-1.462-2.406-2.839
			c-1.979-1.332-2.473-1.955-2.473-3.031c0-1.654,1.461-2.773,3.611-2.773c0.838,0,1.527,0.064,2.387,0.345v2.128h-0.559
			c-0.064-0.408-0.107-0.58-0.215-0.795c-0.324-0.58-0.861-0.968-1.721-0.968c-0.967,0-1.678,0.603-1.678,1.419
			c0,0.322,0.129,0.709,0.344,0.945c0.367,0.409,0.367,0.409,2.344,1.807c1.721,1.226,2.279,1.957,2.279,3.096
			C507.26,505.027,505.691,506.338,503.262,506.338z"/>
		<path d="M515.107,506.338h-0.559c-2.064,0-3.248-0.494-4.193-1.633c-0.945-1.162-1.461-2.709-1.461-4.193
			c0-1.461,0.537-2.924,1.439-3.934c0.859-0.968,2.129-1.506,3.547-1.506c1.914,0,3.248,0.989,3.785,2.752
			c0.193,0.646,0.258,1.162,0.236,2.301h-6.924c0.021,1.57,0.408,2.816,1.141,3.677c0.709,0.839,1.676,1.29,2.967,1.29
			c0.795,0,1.418-0.193,2.494-0.731l0.322,0.646L515.107,506.338z M513.73,495.782c-1.225,0-2.127,0.753-2.516,2.085
			c-0.129,0.409-0.172,0.753-0.236,1.484h3.699c0.967,0,1.375-0.365,1.375-1.248C516.053,496.793,515.086,495.782,513.73,495.782z"
			/>
		<path d="M526.545,497.072l-0.494,0.387c-0.064,0.043-0.129,0.107-0.215,0.107c-0.064,0-0.15-0.043-0.193-0.064l-0.709-0.365
			c-0.238-0.129-0.41-0.15-0.689-0.15c-0.494,0-0.773,0.279-0.988,0.816c-0.193,0.495-0.193,1.656-0.193,2.236v3.354
			c0,2.086,0.172,2.021,2.172,2.129v0.559h-5.871v-0.559c1.785-0.086,1.764-0.258,1.764-2.129v-5.805
			c0-0.859-0.258-1.053-1.225-1.053h-0.494v-0.538c1.439-0.064,2.729-0.408,3.654-0.925v1.979l0.988-1.161
			c0.623-0.731,0.795-0.817,1.27-0.817c0.344,0,0.559,0.172,0.816,0.646l0.537,0.968c0.043,0.086,0.064,0.129,0.064,0.172
			C526.738,496.943,526.674,496.986,526.545,497.072z"/>
		<path d="M537.746,497.824l-3.871,8.256h-0.688l-3.633-8.514c-0.537-1.246-0.881-1.612-1.764-1.677v-0.56h5.568v0.56
			c-1.396,0.021-1.869,0.237-1.869,0.839c0,0.129,0.021,0.301,0.172,0.666l2.473,6.278l2.752-6.171
			c0.172-0.365,0.215-0.559,0.215-0.688c0-0.86-1.227-0.903-1.828-0.925v-0.56h4.322v0.56
			C538.67,495.997,538.477,496.277,537.746,497.824z"/>
		<path d="M546.131,506.338h-0.559c-2.064,0-3.246-0.494-4.191-1.633c-0.947-1.162-1.463-2.709-1.463-4.193
			c0-1.461,0.537-2.924,1.441-3.934c0.859-0.968,2.127-1.506,3.547-1.506c1.914,0,3.246,0.989,3.783,2.752
			c0.193,0.646,0.258,1.162,0.236,2.301h-6.922c0.021,1.57,0.408,2.816,1.139,3.677c0.709,0.839,1.678,1.29,2.967,1.29
			c0.797,0,1.42-0.193,2.494-0.731l0.322,0.646L546.131,506.338z M544.756,495.782c-1.227,0-2.129,0.753-2.516,2.085
			c-0.129,0.409-0.172,0.753-0.236,1.484h3.697c0.969,0,1.377-0.365,1.377-1.248C547.078,496.793,546.109,495.782,544.756,495.782z"
			/>
		<path d="M557.57,497.072l-0.496,0.387c-0.064,0.043-0.129,0.107-0.215,0.107c-0.064,0-0.15-0.043-0.193-0.064l-0.709-0.365
			c-0.236-0.129-0.408-0.15-0.688-0.15c-0.494,0-0.775,0.279-0.99,0.816c-0.193,0.495-0.193,1.656-0.193,2.236v3.354
			c0,2.086,0.172,2.021,2.172,2.129v0.559h-5.869v-0.559c1.785-0.086,1.764-0.258,1.764-2.129v-5.805
			c0-0.859-0.258-1.053-1.227-1.053h-0.494v-0.538c1.441-0.064,2.73-0.408,3.654-0.925v1.979l0.99-1.161
			c0.623-0.731,0.795-0.817,1.268-0.817c0.344,0,0.559,0.172,0.816,0.646l0.539,0.968c0.043,0.086,0.064,0.129,0.064,0.172
			C557.764,496.943,557.699,496.986,557.57,497.072z"/>
		<path d="M562.17,506.338c-1.074,0-1.893-0.172-2.816-0.58v-2.408h0.559c0.043,0.538,0.129,0.989,0.344,1.313
			c0.389,0.58,1.184,0.945,2.021,0.945c1.162,0,1.979-0.795,1.979-1.892c0-1.011-0.365-1.462-2.408-2.839
			c-1.979-1.332-2.473-1.955-2.473-3.031c0-1.654,1.463-2.773,3.611-2.773c0.84,0,1.527,0.064,2.387,0.345v2.128h-0.559
			c-0.064-0.408-0.107-0.58-0.215-0.795c-0.322-0.58-0.859-0.968-1.721-0.968c-0.967,0-1.676,0.603-1.676,1.419
			c0,0.322,0.129,0.709,0.344,0.945c0.365,0.409,0.365,0.409,2.344,1.807c1.719,1.226,2.279,1.957,2.279,3.096
			C566.17,505.027,564.6,506.338,562.17,506.338z"/>
	</g>
	<rect x="593.23" y="487.58" fill="#939598" width="22.498" height="22.5"/>
	<g>
		<path d="M640.541,499.223c-0.816,0.279-1.504,0.365-3.074,0.387v-0.43c1.184-0.064,1.678-0.193,2.236-0.495
			c1.119-0.581,1.721-1.827,1.721-3.526c0-2.343-1.141-3.439-3.592-3.439h-1.289v11.674c0,1.979,0,1.979,1.807,2.129v0.559h-5.74
			v-0.559c1.826-0.15,1.826-0.15,1.826-2.129v-9.674c0-2,0-1.979-1.826-2.129v-0.559h5.611c3.525,0,5.332,1.332,5.332,3.934
			C643.553,496.943,642.434,498.556,640.541,499.223z"/>
		<path d="M650.818,506.338h-0.559c-2.064,0-3.246-0.494-4.191-1.633c-0.947-1.162-1.463-2.709-1.463-4.193
			c0-1.461,0.537-2.924,1.441-3.934c0.859-0.968,2.127-1.506,3.547-1.506c1.914,0,3.246,0.989,3.783,2.752
			c0.193,0.646,0.258,1.162,0.236,2.301h-6.922c0.021,1.57,0.408,2.816,1.139,3.677c0.709,0.839,1.678,1.29,2.967,1.29
			c0.797,0,1.42-0.193,2.494-0.731l0.322,0.646L650.818,506.338z M649.443,495.782c-1.227,0-2.129,0.753-2.516,2.085
			c-0.129,0.409-0.172,0.753-0.236,1.484h3.697c0.967,0,1.377-0.365,1.377-1.248C651.766,496.793,650.797,495.782,649.443,495.782z"
			/>
		<path d="M662.559,506.08v-0.559c1.848-0.193,1.719-0.43,1.719-2.129v-3.977c0-2.344-0.623-3.182-2.43-3.182
			c-1.783,0-2.645,0.967-2.945,2.3c-0.129,0.581-0.172,1.226-0.172,2.214c0,2.645,0,0,0,2.645c0,1.871,0.021,1.893,1.742,2.129
			v0.559h-5.396v-0.559c1.678-0.236,1.721-0.301,1.721-2.129v-5.826c0-0.859-0.258-1.053-1.227-1.053h-0.494v-0.538
			c1.441-0.064,2.752-0.387,3.654-0.903v1.871c1.205-1.29,2.58-1.871,4.301-1.871c1.611,0,2.58,0.688,2.988,1.828
			c0.172,0.516,0.193,0.988,0.193,1.956v4.536c0,1.828-0.086,1.957,1.721,2.129v0.559H662.559z"/>
		<path d="M672.512,506.338c-1.074,0-1.893-0.172-2.816-0.58v-2.408h0.559c0.043,0.538,0.129,0.989,0.344,1.313
			c0.389,0.58,1.184,0.945,2.021,0.945c1.162,0,1.979-0.795,1.979-1.892c0-1.011-0.365-1.462-2.408-2.839
			c-1.979-1.332-2.473-1.955-2.473-3.031c0-1.654,1.463-2.773,3.611-2.773c0.84,0,1.527,0.064,2.387,0.345v2.128h-0.559
			c-0.064-0.408-0.107-0.58-0.215-0.795c-0.322-0.58-0.859-0.968-1.721-0.968c-0.967,0-1.676,0.603-1.676,1.419
			c0,0.322,0.129,0.709,0.344,0.945c0.365,0.409,0.365,0.409,2.344,1.807c1.719,1.226,2.279,1.957,2.279,3.096
			C676.512,505.027,674.941,506.338,672.512,506.338z"/>
		<path d="M677.973,506.08v-0.559c1.678-0.172,1.721-0.193,1.721-2.129v-5.805c0-0.859-0.236-1.053-1.227-1.053h-0.494v-0.538
			c1.441-0.064,2.752-0.408,3.654-0.925v8.32c0,1.807-0.043,1.957,1.721,2.129v0.559H677.973z M680.402,493.654
			c-0.688,0-1.248-0.56-1.248-1.27c0-0.645,0.582-1.225,1.27-1.225c0.666,0,1.246,0.559,1.246,1.246
			C681.67,493.116,681.111,493.654,680.402,493.654z"/>
		<path d="M690.098,506.338c-3.117,0-5.287-2.45-5.287-5.504c0-3.289,2.406-5.762,5.719-5.762c3.182,0,5.375,2.258,5.375,5.525
			C695.904,503.888,693.453,506.338,690.098,506.338z M690.25,495.782c-2.537,0-3.313,2.816-3.313,4.88
			c0,2.902,1.398,4.945,3.441,4.945c2.063,0,3.396-1.87,3.396-4.773C693.775,497.738,692.398,495.782,690.25,495.782z"/>
		<path d="M704.848,506.08v-0.559c1.848-0.193,1.719-0.43,1.719-2.129v-3.977c0-2.344-0.623-3.182-2.43-3.182
			c-1.783,0-2.645,0.967-2.945,2.3c-0.129,0.581-0.172,1.226-0.172,2.214c0,2.645,0,0,0,2.645c0,1.871,0.021,1.893,1.742,2.129
			v0.559h-5.396v-0.559c1.678-0.236,1.721-0.301,1.721-2.129v-5.826c0-0.859-0.258-1.053-1.227-1.053h-0.494v-0.538
			c1.441-0.064,2.752-0.387,3.654-0.903v1.871c1.205-1.29,2.58-1.871,4.301-1.871c1.611,0,2.58,0.688,2.988,1.828
			c0.172,0.516,0.193,0.988,0.193,1.956v4.536c0,1.828-0.086,1.957,1.721,2.129v0.559H704.848z"/>
		<path d="M717.896,506.338h-0.559c-2.064,0-3.246-0.494-4.191-1.633c-0.947-1.162-1.463-2.709-1.463-4.193
			c0-1.461,0.537-2.924,1.441-3.934c0.859-0.968,2.127-1.506,3.547-1.506c1.914,0,3.246,0.989,3.783,2.752
			c0.193,0.646,0.258,1.162,0.236,2.301h-6.922c0.021,1.57,0.408,2.816,1.139,3.677c0.709,0.839,1.678,1.29,2.967,1.29
			c0.797,0,1.42-0.193,2.494-0.731l0.322,0.646L717.896,506.338z M716.521,495.782c-1.227,0-2.129,0.753-2.516,2.085
			c-0.129,0.409-0.172,0.753-0.236,1.484h3.697c0.967,0,1.377-0.365,1.377-1.248C718.844,496.793,717.875,495.782,716.521,495.782z"
			/>
		<path d="M729.336,497.072l-0.496,0.387c-0.064,0.043-0.129,0.107-0.215,0.107c-0.064,0-0.15-0.043-0.193-0.064l-0.709-0.365
			c-0.236-0.129-0.408-0.15-0.688-0.15c-0.494,0-0.775,0.279-0.99,0.816c-0.193,0.495-0.193,1.656-0.193,2.236v3.354
			c0,2.086,0.172,2.021,2.172,2.129v0.559h-5.869v-0.559c1.785-0.086,1.764-0.258,1.764-2.129v-5.805
			c0-0.859-0.258-1.053-1.227-1.053h-0.494v-0.538c1.441-0.064,2.73-0.408,3.654-0.925v1.979l0.99-1.161
			c0.623-0.731,0.795-0.817,1.268-0.817c0.344,0,0.559,0.172,0.816,0.646l0.539,0.968c0.043,0.086,0.064,0.129,0.064,0.172
			C729.529,496.943,729.465,496.986,729.336,497.072z"/>
		<path d="M733.936,506.338c-1.074,0-1.893-0.172-2.816-0.58v-2.408h0.559c0.043,0.538,0.129,0.989,0.344,1.313
			c0.389,0.58,1.184,0.945,2.021,0.945c1.162,0,1.979-0.795,1.979-1.892c0-1.011-0.365-1.462-2.408-2.839
			c-1.979-1.332-2.473-1.955-2.473-3.031c0-1.654,1.463-2.773,3.611-2.773c0.84,0,1.527,0.064,2.387,0.345v2.128h-0.559
			c-0.064-0.408-0.107-0.58-0.215-0.795c-0.322-0.58-0.859-0.968-1.721-0.968c-0.967,0-1.676,0.603-1.676,1.419
			c0,0.322,0.129,0.709,0.344,0.945c0.365,0.409,0.365,0.409,2.344,1.807c1.719,1.226,2.279,1.957,2.279,3.096
			C737.936,505.027,736.365,506.338,733.936,506.338z"/>
	</g>
	<rect x="236.722" y="487.58" fill="#F58025" width="22.499" height="22.5"/>
	<g>
		<path d="M289.817,504.92c-0.107,0.43-0.173,0.516-0.796,0.73c-1.29,0.451-3.053,0.688-4.515,0.688
			c-2.021,0-3.935-0.602-5.439-1.74c-1.698-1.291-2.816-3.312-2.816-5.978c0-2.171,0.967-4.579,3.053-6.149
			c1.376-1.031,3.225-1.697,5.611-1.697c1.483,0,3.117,0.322,4.085,0.73c0.623,0.258,0.817,0.451,0.817,0.967v2.645h-0.56
			c-0.064-0.752-0.193-1.311-0.408-1.719c-0.624-1.184-2.387-1.893-4.171-1.893c-3.677,0-5.977,2.559-5.977,6.923
			c0,2.343,0.666,4.386,2.042,5.697c0.989,0.925,2.344,1.483,4.085,1.483c1.698,0,3.225-0.58,4.171-1.763
			c0.344-0.431,0.537-0.796,0.903-1.612h0.559L289.817,504.92z"/>
		<path d="M297.256,506.338c-3.117,0-5.288-2.45-5.288-5.504c0-3.289,2.407-5.762,5.719-5.762c3.182,0,5.375,2.258,5.375,5.525
			C303.062,503.888,300.61,506.338,297.256,506.338z M297.407,495.782c-2.537,0-3.312,2.816-3.312,4.88
			c0,2.902,1.397,4.945,3.44,4.945c2.063,0,3.396-1.87,3.396-4.773C300.933,497.738,299.557,495.782,297.407,495.782z"/>
		<path d="M312.005,506.08v-0.559c1.849-0.193,1.72-0.43,1.72-2.129v-3.977c0-2.344-0.623-3.182-2.43-3.182
			c-1.784,0-2.645,0.967-2.945,2.3c-0.129,0.581-0.172,1.226-0.172,2.214c0,2.645,0,0,0,2.645c0,1.871,0.021,1.893,1.741,2.129
			v0.559h-5.396v-0.559c1.678-0.236,1.721-0.301,1.721-2.129v-5.826c0-0.859-0.258-1.053-1.226-1.053h-0.495v-0.538
			c1.441-0.064,2.752-0.387,3.655-0.903v1.871c1.204-1.29,2.58-1.871,4.3-1.871c1.612,0,2.58,0.688,2.988,1.828
			c0.173,0.516,0.194,0.988,0.194,1.956v4.536c0,1.828-0.086,1.957,1.72,2.129v0.559H312.005z"/>
		<path d="M323.056,506.338c-1.14-0.043-1.613-0.236-2.086-0.816c-0.43-0.537-0.623-1.269-0.623-2.58v-6.148h-1.721v-0.968h1.721
			v-2.257l1.354-1.184h0.58v3.44h3.289v0.581l-0.881,0.387h-2.408c0,5.697,0,0,0,5.697c0,1.29,0.15,2.58,1.72,2.58
			c0.474,0,0.903-0.107,1.397-0.279l0.172,0.559L323.056,506.338z"/>
		<path d="M333.806,497.072l-0.495,0.387c-0.064,0.043-0.129,0.107-0.215,0.107c-0.064,0-0.15-0.043-0.193-0.064l-0.709-0.365
			c-0.237-0.129-0.409-0.15-0.688-0.15c-0.494,0-0.774,0.279-0.989,0.816c-0.193,0.495-0.193,1.656-0.193,2.236v3.354
			c0,2.086,0.172,2.021,2.172,2.129v0.559h-5.87v-0.559c1.785-0.086,1.764-0.258,1.764-2.129v-5.805
			c0-0.859-0.258-1.053-1.226-1.053h-0.494v-0.538c1.44-0.064,2.729-0.408,3.654-0.925v1.979l0.989-1.161
			c0.623-0.731,0.795-0.817,1.269-0.817c0.344,0,0.559,0.172,0.816,0.646l0.538,0.968c0.043,0.086,0.064,0.129,0.064,0.172
			C333.999,496.943,333.935,496.986,333.806,497.072z"/>
		<path d="M335.31,506.08v-0.559c1.678-0.172,1.721-0.193,1.721-2.129v-5.805c0-0.859-0.236-1.053-1.226-1.053h-0.495v-0.538
			c1.441-0.064,2.752-0.408,3.655-0.925v8.32c0,1.807-0.043,1.957,1.72,2.129v0.559H335.31z M337.739,493.654
			c-0.688,0-1.247-0.56-1.247-1.27c0-0.645,0.581-1.225,1.269-1.225c0.667,0,1.247,0.559,1.247,1.246
			C339.008,493.116,338.449,493.654,337.739,493.654z"/>
		<path d="M347.457,506.338c-0.451,0-1.031-0.064-1.634-0.15c-1.269-0.172-1.526-0.215-1.849-0.215
			c-0.193,0-0.451,0.021-0.882,0.107v-13.372c0-0.968-0.107-1.226-1.097-1.226h-0.602v-0.58c1.097,0,2.58-0.258,3.634-0.624v6.558
			c1.14-1.247,2.257-1.764,3.762-1.764c2.709,0,4.365,1.85,4.365,4.924C353.155,503.586,350.683,506.338,347.457,506.338z
			 M347.866,496.104c-1.419,0-2.344,0.796-2.645,2.236c-0.129,0.603-0.193,1.483-0.193,2.515v2.172c0,1.097,0.107,1.635,0.43,2
			s1.011,0.58,1.849,0.58c2.322,0,3.72-2,3.72-5.225C351.026,497.717,349.844,496.104,347.866,496.104z"/>
		<path d="M363.453,506.338c-0.236-0.258-0.387-0.666-0.451-1.139c-0.021-0.193-0.043-0.322-0.043-0.516l-1.893,1.117
			c-0.688,0.408-1.075,0.537-1.806,0.537c-2.387,0-3.333-1.182-3.333-4.191v-4.559c0-0.859-0.258-1.053-1.225-1.053h-0.495v-0.538
			c1.419-0.064,2.752-0.408,3.655-0.925v6.881c0,1.784,0.258,3.096,2.301,3.096c1.225,0,2.214-0.645,2.536-1.699
			c0.194-0.602,0.28-1.525,0.28-2.537v-3.225c0-0.859-0.237-1.053-1.204-1.053h-0.517v-0.538c1.44-0.064,2.752-0.408,3.655-0.925
			c0,3.44,0,7.869,0,7.869c0,1.85,0.107,1.979,0.753,1.979c0.193,0,0.387-0.043,0.73-0.15l0.129,0.602L363.453,506.338z"/>
		<path d="M372.118,506.338c-1.14-0.043-1.613-0.236-2.086-0.816c-0.43-0.537-0.623-1.269-0.623-2.58v-6.148h-1.721v-0.968h1.721
			v-2.257l1.354-1.184h0.58v3.44h3.289v0.581l-0.881,0.387h-2.408c0,5.697,0,0,0,5.697c0,1.29,0.15,2.58,1.72,2.58
			c0.474,0,0.903-0.107,1.397-0.279l0.172,0.559L372.118,506.338z"/>
		<path d="M380.976,506.338c-3.117,0-5.288-2.45-5.288-5.504c0-3.289,2.407-5.762,5.719-5.762c3.182,0,5.375,2.258,5.375,5.525
			C386.781,503.888,384.33,506.338,380.976,506.338z M381.127,495.782c-2.537,0-3.312,2.816-3.312,4.88
			c0,2.902,1.397,4.945,3.44,4.945c2.063,0,3.396-1.87,3.396-4.773C384.652,497.738,383.276,495.782,381.127,495.782z"/>
		<path d="M395.424,497.072l-0.495,0.387c-0.064,0.043-0.129,0.107-0.215,0.107c-0.064,0-0.15-0.043-0.193-0.064l-0.709-0.365
			c-0.237-0.129-0.409-0.15-0.688-0.15c-0.494,0-0.774,0.279-0.989,0.816c-0.193,0.495-0.193,1.656-0.193,2.236v3.354
			c0,2.086,0.172,2.021,2.172,2.129v0.559h-5.87v-0.559c1.785-0.086,1.764-0.258,1.764-2.129v-5.805
			c0-0.859-0.258-1.053-1.226-1.053h-0.495v-0.538c1.441-0.064,2.73-0.408,3.655-0.925v1.979l0.989-1.161
			c0.623-0.731,0.795-0.817,1.269-0.817c0.344,0,0.559,0.172,0.816,0.646l0.538,0.968c0.043,0.086,0.064,0.129,0.064,0.172
			C395.617,496.943,395.553,496.986,395.424,497.072z"/>
		<path d="M400.024,506.338c-1.075,0-1.893-0.172-2.816-0.58v-2.408h0.559c0.043,0.538,0.129,0.989,0.344,1.313
			c0.388,0.58,1.183,0.945,2.021,0.945c1.161,0,1.978-0.795,1.978-1.892c0-1.011-0.365-1.462-2.407-2.839
			c-1.979-1.332-2.473-1.955-2.473-3.031c0-1.654,1.462-2.773,3.611-2.773c0.839,0,1.527,0.064,2.387,0.345v2.128h-0.559
			c-0.064-0.408-0.107-0.58-0.215-0.795c-0.323-0.58-0.86-0.968-1.721-0.968c-0.967,0-1.677,0.603-1.677,1.419
			c0,0.322,0.129,0.709,0.344,0.945c0.366,0.409,0.366,0.409,2.344,1.807c1.72,1.226,2.279,1.957,2.279,3.096
			C404.023,505.027,402.454,506.338,400.024,506.338z"/>
	</g>
	<g>
	</g>
	<g>
	</g>
	<g>
	</g>
	<g>
	</g>
	<g>
	</g>
	<g>
	</g>
</g>
</svg>
