<?xml version="1.0" encoding="utf-8"?>
<!-- Generator: Adobe Illustrator 16.0.0, SVG Export Plug-In . SVG Version: 6.00 Build 0)  -->
<!DOCTYPE svg PUBLIC "-//W3C//DTD SVG 1.1//EN" "http://www.w3.org/Graphics/SVG/1.1/DTD/svg11.dtd">
<svg version="1.1" id="Layer_1" xmlns="http://www.w3.org/2000/svg" xmlns:xlink="http://www.w3.org/1999/xlink" x="0px" y="0px"
	 width="841.89px" height="595.28px" viewBox="0 0 841.89 595.28" enable-background="new 0 0 841.89 595.28" xml:space="preserve">
<g>
	<g>
		<g>
			<g>
				<rect x="263.743" y="258.336" fill="#EF7B10" width="77.616" height="224.235"/>
				<rect x="371.543" y="259.821" fill="#EF7B10" width="77.615" height="222.75"/>
				<rect x="479.343" y="234.081" fill="#EF7B10" width="77.616" height="248.49"/>
				<rect x="587.143" y="146.783" fill="#EF7B10" width="77.616" height="335.788"/>
				<rect x="694.942" y="255.861" fill="#EF7B10" width="77.616" height="226.71"/>
			</g>
		</g>
	</g>
	<g>
		<line fill="none" stroke="#000000" stroke-miterlimit="10" x1="248.651" y1="482.571" x2="787.65" y2="482.571"/>
		<g>
			<g>
				<line fill="none" stroke="#000000" stroke-miterlimit="10" x1="248.651" y1="482.571" x2="248.651" y2="472.671"/>
				<line fill="none" stroke="#000000" stroke-miterlimit="10" x1="356.451" y1="482.571" x2="356.451" y2="472.671"/>
				<line fill="none" stroke="#000000" stroke-miterlimit="10" x1="464.25" y1="482.571" x2="464.25" y2="472.671"/>
				<line fill="none" stroke="#000000" stroke-miterlimit="10" x1="572.051" y1="482.571" x2="572.051" y2="472.671"/>
				<line fill="none" stroke="#000000" stroke-miterlimit="10" x1="679.851" y1="482.571" x2="679.851" y2="472.671"/>
				<line fill="none" stroke="#000000" stroke-miterlimit="10" x1="787.65" y1="482.571" x2="787.65" y2="472.671"/>
			</g>
			<g>
			</g>
		</g>
	</g>
	<g>
		<g>
			<text transform="matrix(1 0 0 1 228.1753 492.0459)" font-family="'StoneSerifITC-Medium'" font-size="21">0</text>
			<text transform="matrix(1 0 0 1 172.9878 442.5459)"><tspan x="0" y="0" font-family="'StoneSerifITC-Medium'" font-size="21">$</tspan><tspan x="12.054" y="0" font-family="'StoneSerifITC-Medium'" font-size="21" letter-spacing="-1">1</tspan><tspan x="23.058" y="0" font-family="'StoneSerifITC-Medium'" font-size="21">0</tspan><tspan x="35.321" y="0" font-family="'StoneSerifITC-Medium'" font-size="21">0m</tspan></text>
			<text transform="matrix(1 0 0 1 171.77 393.0459)"><tspan x="0" y="0" font-family="'StoneSerifITC-Medium'" font-size="21">$</tspan><tspan x="12.054" y="0" font-family="'StoneSerifITC-Medium'" font-size="21">2</tspan><tspan x="24.275" y="0" font-family="'StoneSerifITC-Medium'" font-size="21">0</tspan><tspan x="36.539" y="0" font-family="'StoneSerifITC-Medium'" font-size="21">0m</tspan></text>
			<text transform="matrix(1 0 0 1 171.938 343.5459)"><tspan x="0" y="0" font-family="'StoneSerifITC-Medium'" font-size="21">$3</tspan><tspan x="24.107" y="0" font-family="'StoneSerifITC-Medium'" font-size="21">0</tspan><tspan x="36.371" y="0" font-family="'StoneSerifITC-Medium'" font-size="21">0m</tspan></text>
			<text transform="matrix(1 0 0 1 171.938 294.0459)"><tspan x="0" y="0" font-family="'StoneSerifITC-Medium'" font-size="21">$4</tspan><tspan x="24.107" y="0" font-family="'StoneSerifITC-Medium'" font-size="21">0</tspan><tspan x="36.371" y="0" font-family="'StoneSerifITC-Medium'" font-size="21">0m</tspan></text>
			<text transform="matrix(1 0 0 1 171.938 244.5459)"><tspan x="0" y="0" font-family="'StoneSerifITC-Medium'" font-size="21">$5</tspan><tspan x="24.107" y="0" font-family="'StoneSerifITC-Medium'" font-size="21">0</tspan><tspan x="36.371" y="0" font-family="'StoneSerifITC-Medium'" font-size="21">0m</tspan></text>
			<text transform="matrix(1 0 0 1 171.938 195.0459)"><tspan x="0" y="0" font-family="'StoneSerifITC-Medium'" font-size="21">$6</tspan><tspan x="24.107" y="0" font-family="'StoneSerifITC-Medium'" font-size="21">0</tspan><tspan x="36.371" y="0" font-family="'StoneSerifITC-Medium'" font-size="21">0m</tspan></text>
			<text transform="matrix(1 0 0 1 172.6099 145.5459)"><tspan x="0" y="0" font-family="'StoneSerifITC-Medium'" font-size="21">$</tspan><tspan x="12.054" y="0" font-family="'StoneSerifITC-Medium'" font-size="21">7</tspan><tspan x="23.436" y="0" font-family="'StoneSerifITC-Medium'" font-size="21">0</tspan><tspan x="35.699" y="0" font-family="'StoneSerifITC-Medium'" font-size="21">0m</tspan></text>
			<text transform="matrix(1 0 0 1 171.938 96.0459)"><tspan x="0" y="0" font-family="'StoneSerifITC-Medium'" font-size="21">$8</tspan><tspan x="24.107" y="0" font-family="'StoneSerifITC-Medium'" font-size="21">0</tspan><tspan x="36.371" y="0" font-family="'StoneSerifITC-Medium'" font-size="21">0m</tspan></text>
		</g>
		<line fill="none" stroke="#000000" stroke-miterlimit="10" x1="248.651" y1="482.571" x2="248.651" y2="86.571"/>
		<g>
			<g>
				<line fill="none" stroke="#000000" stroke-miterlimit="10" x1="248.651" y1="482.571" x2="262.126" y2="482.571"/>
				<line fill="none" stroke="#000000" stroke-miterlimit="10" x1="248.651" y1="433.071" x2="262.126" y2="433.071"/>
				<line fill="none" stroke="#000000" stroke-miterlimit="10" x1="248.651" y1="383.571" x2="262.126" y2="383.571"/>
				<line fill="none" stroke="#000000" stroke-miterlimit="10" x1="248.651" y1="334.071" x2="262.126" y2="334.071"/>
				<line fill="none" stroke="#000000" stroke-miterlimit="10" x1="248.651" y1="284.571" x2="262.126" y2="284.571"/>
				<line fill="none" stroke="#000000" stroke-miterlimit="10" x1="248.651" y1="235.071" x2="262.126" y2="235.071"/>
				<line fill="none" stroke="#000000" stroke-miterlimit="10" x1="248.651" y1="185.571" x2="262.126" y2="185.571"/>
				<line fill="none" stroke="#000000" stroke-miterlimit="10" x1="248.651" y1="136.071" x2="262.126" y2="136.071"/>
				<line fill="none" stroke="#000000" stroke-miterlimit="10" x1="248.651" y1="86.571" x2="262.126" y2="86.571"/>
			</g>
			<g>
			</g>
		</g>
	</g>
	<g>
		<g>
		</g>
	</g>
	<g>
		<text transform="matrix(1 0 0 1 692.3496 508.708)"><tspan x="0" y="0" font-family="'StoneSerifITC-Medium'" font-size="21">2</tspan><tspan x="12.221" y="0" font-family="'StoneSerifITC-Medium'" font-size="21" letter-spacing="-1">0</tspan><tspan x="22.932" y="0" font-family="'StoneSerifITC-Medium'" font-size="21" letter-spacing="-1">1</tspan><tspan x="33.451" y="0" font-family="'StoneSerifITC-Medium'" font-size="21">5-</tspan><tspan x="52.498" y="0" font-family="'StoneSerifITC-Medium'" font-size="21" letter-spacing="-1">1</tspan><tspan x="62.746" y="0" font-family="'StoneSerifITC-Medium'" font-size="21">6</tspan></text>
		<text transform="matrix(1 0 0 1 584.6543 508.708)"><tspan x="0" y="0" font-family="'StoneSerifITC-Medium'" font-size="21">2</tspan><tspan x="12.223" y="0" font-family="'StoneSerifITC-Medium'" font-size="21" letter-spacing="-1">0</tspan><tspan x="22.932" y="0" font-family="'StoneSerifITC-Medium'" font-size="21" letter-spacing="-2">1</tspan><tspan x="32.971" y="0" font-family="'StoneSerifITC-Medium'" font-size="21">4-</tspan><tspan x="52.018" y="0" font-family="'StoneSerifITC-Medium'" font-size="21" letter-spacing="-1">1</tspan><tspan x="62.537" y="0" font-family="'StoneSerifITC-Medium'" font-size="21">5</tspan></text>
		<text transform="matrix(1 0 0 1 476.8555 508.708)"><tspan x="0" y="0" font-family="'StoneSerifITC-Medium'" font-size="21">2</tspan><tspan x="12.221" y="0" font-family="'StoneSerifITC-Medium'" font-size="21" letter-spacing="-1">0</tspan><tspan x="22.932" y="0" font-family="'StoneSerifITC-Medium'" font-size="21" letter-spacing="-1">1</tspan><tspan x="33.451" y="0" font-family="'StoneSerifITC-Medium'" font-size="21">3-</tspan><tspan x="52.498" y="0" font-family="'StoneSerifITC-Medium'" font-size="21" letter-spacing="-2">1</tspan><tspan x="62.537" y="0" font-family="'StoneSerifITC-Medium'" font-size="21">4</tspan></text>
		<text transform="matrix(1 0 0 1 368.498 508.708)"><tspan x="0" y="0" font-family="'StoneSerifITC-Medium'" font-size="21">2</tspan><tspan x="12.222" y="0" font-family="'StoneSerifITC-Medium'" font-size="21" letter-spacing="-1">0</tspan><tspan x="22.932" y="0" font-family="'StoneSerifITC-Medium'" font-size="21">1</tspan><tspan x="34.082" y="0" font-family="'StoneSerifITC-Medium'" font-size="21">2-</tspan><tspan x="53.129" y="0" font-family="'StoneSerifITC-Medium'" font-size="21" letter-spacing="-1">1</tspan><tspan x="63.65" y="0" font-family="'StoneSerifITC-Medium'" font-size="21">3</tspan></text>
		<text transform="matrix(1 0 0 1 261.3911 508.708)"><tspan x="0" y="0" font-family="'StoneSerifITC-Medium'" font-size="21">2</tspan><tspan x="12.222" y="0" font-family="'StoneSerifITC-Medium'" font-size="21" letter-spacing="-1">0</tspan><tspan x="22.932" y="0" font-family="'StoneSerifITC-Medium'" font-size="21" letter-spacing="-2">1</tspan><tspan x="32.066" y="0" font-family="'StoneSerifITC-Medium'" font-size="21">1-</tspan><tspan x="51.113" y="0" font-family="'StoneSerifITC-Medium'" font-size="21">1</tspan><tspan x="62.263" y="0" font-family="'StoneSerifITC-Medium'" font-size="21">2</tspan></text>
	</g>
</g>
<g>
</g>
<g>
</g>
<g>
</g>
<g>
</g>
<g>
</g>
<g>
</g>
<g>
</g>
</svg>
