<?xml version="1.0" encoding="utf-8"?>
<!-- Generator: Adobe Illustrator 16.0.0, SVG Export Plug-In . SVG Version: 6.00 Build 0)  -->
<!DOCTYPE svg PUBLIC "-//W3C//DTD SVG 1.1//EN" "http://www.w3.org/Graphics/SVG/1.1/DTD/svg11.dtd">
<svg version="1.1" id="Layer_1" xmlns="http://www.w3.org/2000/svg" xmlns:xlink="http://www.w3.org/1999/xlink" x="0px" y="0px"
	 width="841.89px" height="595.28px" viewBox="0 0 841.89 595.28" enable-background="new 0 0 841.89 595.28" xml:space="preserve">
<g>
	<g>
		<g>
			<g>
				<rect x="256.243" y="316.951" fill="#EF7B10" width="77.616" height="156.816"/>
				<rect x="364.043" y="285.008" fill="#EF7B10" width="77.616" height="188.76"/>
				<rect x="471.844" y="250.424" fill="#EF7B10" width="77.616" height="223.344"/>
				<rect x="579.644" y="188.801" fill="#EF7B10" width="77.616" height="284.967"/>
				<rect x="687.443" y="142.184" fill="#EF7B10" width="77.616" height="331.584"/>
			</g>
		</g>
	</g>
	<g>
		<line fill="none" stroke="#000000" stroke-miterlimit="10" x1="241.151" y1="473.768" x2="780.151" y2="473.768"/>
		<g>
			<g>
				<line fill="none" stroke="#000000" stroke-miterlimit="10" x1="241.151" y1="473.768" x2="241.151" y2="463.867"/>
				<line fill="none" stroke="#000000" stroke-miterlimit="10" x1="348.951" y1="473.768" x2="348.951" y2="463.867"/>
				<line fill="none" stroke="#000000" stroke-miterlimit="10" x1="456.751" y1="473.768" x2="456.751" y2="463.867"/>
				<line fill="none" stroke="#000000" stroke-miterlimit="10" x1="564.552" y1="473.768" x2="564.552" y2="463.867"/>
				<line fill="none" stroke="#000000" stroke-miterlimit="10" x1="672.352" y1="473.768" x2="672.352" y2="463.867"/>
				<line fill="none" stroke="#000000" stroke-miterlimit="10" x1="780.151" y1="473.768" x2="780.151" y2="463.867"/>
			</g>
			<g>
			</g>
		</g>
	</g>
	<g>
		<g>
			<text transform="matrix(1 0 0 1 220.6758 483.2422)" font-family="'StoneSerifITC-Medium'" font-size="21">0</text>
			<text transform="matrix(1 0 0 1 164.4385 404.042)"><tspan x="0" y="0" font-family="'StoneSerifITC-Medium'" font-size="21">$3</tspan><tspan x="24.107" y="0" font-family="'StoneSerifITC-Medium'" font-size="21">0</tspan><tspan x="36.371" y="0" font-family="'StoneSerifITC-Medium'" font-size="21">0m</tspan></text>
			<text transform="matrix(1 0 0 1 164.4385 324.8418)"><tspan x="0" y="0" font-family="'StoneSerifITC-Medium'" font-size="21">$6</tspan><tspan x="24.107" y="0" font-family="'StoneSerifITC-Medium'" font-size="21">0</tspan><tspan x="36.371" y="0" font-family="'StoneSerifITC-Medium'" font-size="21">0m</tspan></text>
			<text transform="matrix(1 0 0 1 164.4385 245.6426)"><tspan x="0" y="0" font-family="'StoneSerifITC-Medium'" font-size="21">$9</tspan><tspan x="24.107" y="0" font-family="'StoneSerifITC-Medium'" font-size="21">0</tspan><tspan x="36.371" y="0" font-family="'StoneSerifITC-Medium'" font-size="21">0m</tspan></text>
			<text transform="matrix(1 0 0 1 147.0933 166.4424)"><tspan x="0" y="0" font-family="'StoneSerifITC-Medium'" font-size="21">$</tspan><tspan x="12.054" y="0" font-family="'StoneSerifITC-Medium'" font-size="21">1</tspan><tspan x="23.205" y="0" font-family="'StoneSerifITC-Medium'" font-size="21">,</tspan><tspan x="29.231" y="0" font-family="'StoneSerifITC-Medium'" font-size="21">2</tspan><tspan x="41.453" y="0" font-family="'StoneSerifITC-Medium'" font-size="21">0</tspan><tspan x="53.716" y="0" font-family="'StoneSerifITC-Medium'" font-size="21">0m</tspan></text>
			<text transform="matrix(1 0 0 1 147.2607 87.2422)"><tspan x="0" y="0" font-family="'StoneSerifITC-Medium'" font-size="21">$</tspan><tspan x="12.054" y="0" font-family="'StoneSerifITC-Medium'" font-size="21">1</tspan><tspan x="23.205" y="0" font-family="'StoneSerifITC-Medium'" font-size="21">,5</tspan><tspan x="41.285" y="0" font-family="'StoneSerifITC-Medium'" font-size="21">0</tspan><tspan x="53.549" y="0" font-family="'StoneSerifITC-Medium'" font-size="21">0m</tspan></text>
		</g>
		<line fill="none" stroke="#000000" stroke-miterlimit="10" x1="241.151" y1="473.768" x2="241.151" y2="77.768"/>
		<g>
			<g>
				<line fill="none" stroke="#000000" stroke-miterlimit="10" x1="241.151" y1="473.768" x2="254.626" y2="473.768"/>
				<line fill="none" stroke="#000000" stroke-miterlimit="10" x1="241.151" y1="394.567" x2="254.626" y2="394.567"/>
				<line fill="none" stroke="#000000" stroke-miterlimit="10" x1="241.151" y1="315.367" x2="254.626" y2="315.367"/>
				<line fill="none" stroke="#000000" stroke-miterlimit="10" x1="241.151" y1="236.168" x2="254.626" y2="236.168"/>
				<line fill="none" stroke="#000000" stroke-miterlimit="10" x1="241.151" y1="156.968" x2="254.626" y2="156.968"/>
				<line fill="none" stroke="#000000" stroke-miterlimit="10" x1="241.151" y1="77.768" x2="254.626" y2="77.768"/>
			</g>
			<g>
			</g>
		</g>
	</g>
	<g>
		<g>
		</g>
	</g>
	<g>
		<text transform="matrix(1 0 0 1 684.8496 499.9043)"><tspan x="0" y="0" font-family="'StoneSerifITC-Medium'" font-size="21">2</tspan><tspan x="12.222" y="0" font-family="'StoneSerifITC-Medium'" font-size="21" letter-spacing="-1">0</tspan><tspan x="22.932" y="0" font-family="'StoneSerifITC-Medium'" font-size="21" letter-spacing="-1">1</tspan><tspan x="33.452" y="0" font-family="'StoneSerifITC-Medium'" font-size="21">5-</tspan><tspan x="52.499" y="0" font-family="'StoneSerifITC-Medium'" font-size="21" letter-spacing="-1">1</tspan><tspan x="62.747" y="0" font-family="'StoneSerifITC-Medium'" font-size="21">6</tspan></text>
		<text transform="matrix(1 0 0 1 577.1553 499.9043)"><tspan x="0" y="0" font-family="'StoneSerifITC-Medium'" font-size="21">2</tspan><tspan x="12.222" y="0" font-family="'StoneSerifITC-Medium'" font-size="21" letter-spacing="-1">0</tspan><tspan x="22.932" y="0" font-family="'StoneSerifITC-Medium'" font-size="21" letter-spacing="-2">1</tspan><tspan x="32.97" y="0" font-family="'StoneSerifITC-Medium'" font-size="21">4-</tspan><tspan x="52.017" y="0" font-family="'StoneSerifITC-Medium'" font-size="21" letter-spacing="-1">1</tspan><tspan x="62.537" y="0" font-family="'StoneSerifITC-Medium'" font-size="21">5</tspan></text>
		<text transform="matrix(1 0 0 1 469.3555 499.9043)"><tspan x="0" y="0" font-family="'StoneSerifITC-Medium'" font-size="21">2</tspan><tspan x="12.222" y="0" font-family="'StoneSerifITC-Medium'" font-size="21" letter-spacing="-1">0</tspan><tspan x="22.932" y="0" font-family="'StoneSerifITC-Medium'" font-size="21" letter-spacing="-1">1</tspan><tspan x="33.452" y="0" font-family="'StoneSerifITC-Medium'" font-size="21">3-</tspan><tspan x="52.499" y="0" font-family="'StoneSerifITC-Medium'" font-size="21" letter-spacing="-2">1</tspan><tspan x="62.537" y="0" font-family="'StoneSerifITC-Medium'" font-size="21">4</tspan></text>
		<text transform="matrix(1 0 0 1 360.9985 499.9043)"><tspan x="0" y="0" font-family="'StoneSerifITC-Medium'" font-size="21">2</tspan><tspan x="12.222" y="0" font-family="'StoneSerifITC-Medium'" font-size="21" letter-spacing="-1">0</tspan><tspan x="22.932" y="0" font-family="'StoneSerifITC-Medium'" font-size="21">1</tspan><tspan x="34.082" y="0" font-family="'StoneSerifITC-Medium'" font-size="21">2-</tspan><tspan x="53.129" y="0" font-family="'StoneSerifITC-Medium'" font-size="21" letter-spacing="-1">1</tspan><tspan x="63.65" y="0" font-family="'StoneSerifITC-Medium'" font-size="21">3</tspan></text>
		<text transform="matrix(1 0 0 1 253.8916 499.9043)"><tspan x="0" y="0" font-family="'StoneSerifITC-Medium'" font-size="21">2</tspan><tspan x="12.222" y="0" font-family="'StoneSerifITC-Medium'" font-size="21" letter-spacing="-1">0</tspan><tspan x="22.932" y="0" font-family="'StoneSerifITC-Medium'" font-size="21" letter-spacing="-2">1</tspan><tspan x="32.066" y="0" font-family="'StoneSerifITC-Medium'" font-size="21">1-</tspan><tspan x="51.113" y="0" font-family="'StoneSerifITC-Medium'" font-size="21">1</tspan><tspan x="62.263" y="0" font-family="'StoneSerifITC-Medium'" font-size="21">2</tspan></text>
	</g>
</g>
<g>
</g>
<g>
</g>
<g>
</g>
<g>
</g>
<g>
</g>
<g>
</g>
</svg>
