<?xml version="1.0" encoding="utf-8"?>
<!-- Generator: Adobe Illustrator 16.0.0, SVG Export Plug-In . SVG Version: 6.00 Build 0)  -->
<!DOCTYPE svg PUBLIC "-//W3C//DTD SVG 1.1//EN" "http://www.w3.org/Graphics/SVG/1.1/DTD/svg11.dtd">
<svg version="1.1" id="Layer_1" xmlns="http://www.w3.org/2000/svg" xmlns:xlink="http://www.w3.org/1999/xlink" x="0px" y="0px"
	 width="841.89px" height="595.28px" viewBox="0 0 841.89 595.28" enable-background="new 0 0 841.89 595.28" xml:space="preserve">
<g>
	<g>
		<g>
			<g>
				<rect x="283.242" y="90.369" fill="#EF7B10" width="77.616" height="356.4"/>
				<rect x="391.042" y="91.953" fill="#EF7B10" width="77.615" height="354.816"/>
				<rect x="498.842" y="91.953" fill="#EF7B10" width="77.616" height="354.816"/>
				<rect x="606.642" y="110.96" fill="#EF7B10" width="77.616" height="335.808"/>
				<rect x="714.441" y="110.96" fill="#EF7B10" width="77.616" height="335.808"/>
			</g>
		</g>
	</g>
	<g>
		<line fill="none" stroke="#000000" stroke-miterlimit="10" x1="268.15" y1="446.769" x2="807.149" y2="446.769"/>
		<g>
			<g>
				<line fill="none" stroke="#000000" stroke-miterlimit="10" x1="268.15" y1="446.769" x2="268.15" y2="436.868"/>
				<line fill="none" stroke="#000000" stroke-miterlimit="10" x1="375.95" y1="446.769" x2="375.95" y2="436.868"/>
				<line fill="none" stroke="#000000" stroke-miterlimit="10" x1="483.749" y1="446.769" x2="483.749" y2="436.868"/>
				<line fill="none" stroke="#000000" stroke-miterlimit="10" x1="591.55" y1="446.769" x2="591.55" y2="436.868"/>
				<line fill="none" stroke="#000000" stroke-miterlimit="10" x1="699.35" y1="446.769" x2="699.35" y2="436.868"/>
				<line fill="none" stroke="#000000" stroke-miterlimit="10" x1="807.149" y1="446.769" x2="807.149" y2="436.868"/>
			</g>
			<g>
			</g>
		</g>
	</g>
	<g>
		<g>
			<text transform="matrix(1 0 0 1 247.6743 456.2432)" font-family="'StoneSerifITC-Medium'" font-size="21">0</text>
			<text transform="matrix(1 0 0 1 203.7007 377.043)" font-family="'StoneSerifITC-Medium'" font-size="21">$50m</text>
			<text transform="matrix(1 0 0 1 192.4868 297.8428)"><tspan x="0" y="0" font-family="'StoneSerifITC-Medium'" font-size="21">$</tspan><tspan x="12.054" y="0" font-family="'StoneSerifITC-Medium'" font-size="21" letter-spacing="-1">1</tspan><tspan x="23.058" y="0" font-family="'StoneSerifITC-Medium'" font-size="21">0</tspan><tspan x="35.321" y="0" font-family="'StoneSerifITC-Medium'" font-size="21">0m</tspan></text>
			<text transform="matrix(1 0 0 1 193.1797 218.6436)"><tspan x="0" y="0" font-family="'StoneSerifITC-Medium'" font-size="21">$</tspan><tspan x="12.054" y="0" font-family="'StoneSerifITC-Medium'" font-size="21" letter-spacing="-1">1</tspan><tspan x="22.575" y="0" font-family="'StoneSerifITC-Medium'" font-size="21">50m</tspan></text>
			<text transform="matrix(1 0 0 1 191.269 139.4434)"><tspan x="0" y="0" font-family="'StoneSerifITC-Medium'" font-size="21">$</tspan><tspan x="12.054" y="0" font-family="'StoneSerifITC-Medium'" font-size="21">2</tspan><tspan x="24.275" y="0" font-family="'StoneSerifITC-Medium'" font-size="21">0</tspan><tspan x="36.539" y="0" font-family="'StoneSerifITC-Medium'" font-size="21">0m</tspan></text>
			<text transform="matrix(1 0 0 1 191.647 60.2432)" font-family="'StoneSerifITC-Medium'" font-size="21">$250m</text>
		</g>
		<line fill="none" stroke="#000000" stroke-miterlimit="10" x1="268.15" y1="446.769" x2="268.15" y2="50.769"/>
		<g>
			<g>
				<line fill="none" stroke="#000000" stroke-miterlimit="10" x1="268.15" y1="446.769" x2="281.625" y2="446.769"/>
				<line fill="none" stroke="#000000" stroke-miterlimit="10" x1="268.15" y1="367.568" x2="281.625" y2="367.568"/>
				<line fill="none" stroke="#000000" stroke-miterlimit="10" x1="268.15" y1="288.368" x2="281.625" y2="288.368"/>
				<line fill="none" stroke="#000000" stroke-miterlimit="10" x1="268.15" y1="209.169" x2="281.625" y2="209.169"/>
				<line fill="none" stroke="#000000" stroke-miterlimit="10" x1="268.15" y1="129.969" x2="281.625" y2="129.969"/>
				<line fill="none" stroke="#000000" stroke-miterlimit="10" x1="268.15" y1="50.769" x2="281.625" y2="50.769"/>
			</g>
			<g>
			</g>
		</g>
	</g>
	<g>
		<g>
		</g>
	</g>
	<g>
		<text transform="matrix(1 0 0 1 711.8477 472.9053)"><tspan x="0" y="0" font-family="'StoneSerifITC-Medium'" font-size="21">2</tspan><tspan x="12.223" y="0" font-family="'StoneSerifITC-Medium'" font-size="21" letter-spacing="-1">0</tspan><tspan x="22.932" y="0" font-family="'StoneSerifITC-Medium'" font-size="21" letter-spacing="-1">1</tspan><tspan x="33.453" y="0" font-family="'StoneSerifITC-Medium'" font-size="21">5-</tspan><tspan x="52.5" y="0" font-family="'StoneSerifITC-Medium'" font-size="21" letter-spacing="-1">1</tspan><tspan x="62.748" y="0" font-family="'StoneSerifITC-Medium'" font-size="21">6</tspan></text>
		<text transform="matrix(1 0 0 1 604.1543 472.9053)"><tspan x="0" y="0" font-family="'StoneSerifITC-Medium'" font-size="21">2</tspan><tspan x="12.221" y="0" font-family="'StoneSerifITC-Medium'" font-size="21" letter-spacing="-1">0</tspan><tspan x="22.932" y="0" font-family="'StoneSerifITC-Medium'" font-size="21" letter-spacing="-2">1</tspan><tspan x="32.969" y="0" font-family="'StoneSerifITC-Medium'" font-size="21">4-</tspan><tspan x="52.016" y="0" font-family="'StoneSerifITC-Medium'" font-size="21" letter-spacing="-1">1</tspan><tspan x="62.537" y="0" font-family="'StoneSerifITC-Medium'" font-size="21">5</tspan></text>
		<text transform="matrix(1 0 0 1 496.3535 472.9053)"><tspan x="0" y="0" font-family="'StoneSerifITC-Medium'" font-size="21">2</tspan><tspan x="12.223" y="0" font-family="'StoneSerifITC-Medium'" font-size="21" letter-spacing="-1">0</tspan><tspan x="22.932" y="0" font-family="'StoneSerifITC-Medium'" font-size="21" letter-spacing="-1">1</tspan><tspan x="33.453" y="0" font-family="'StoneSerifITC-Medium'" font-size="21">3-</tspan><tspan x="52.5" y="0" font-family="'StoneSerifITC-Medium'" font-size="21" letter-spacing="-2">1</tspan><tspan x="62.537" y="0" font-family="'StoneSerifITC-Medium'" font-size="21">4</tspan></text>
		<text transform="matrix(1 0 0 1 387.9971 472.9053)"><tspan x="0" y="0" font-family="'StoneSerifITC-Medium'" font-size="21">2</tspan><tspan x="12.222" y="0" font-family="'StoneSerifITC-Medium'" font-size="21" letter-spacing="-1">0</tspan><tspan x="22.932" y="0" font-family="'StoneSerifITC-Medium'" font-size="21">1</tspan><tspan x="34.082" y="0" font-family="'StoneSerifITC-Medium'" font-size="21">2-</tspan><tspan x="53.13" y="0" font-family="'StoneSerifITC-Medium'" font-size="21" letter-spacing="-1">1</tspan><tspan x="63.649" y="0" font-family="'StoneSerifITC-Medium'" font-size="21">3</tspan></text>
		<text transform="matrix(1 0 0 1 280.8901 472.9053)"><tspan x="0" y="0" font-family="'StoneSerifITC-Medium'" font-size="21">2</tspan><tspan x="12.222" y="0" font-family="'StoneSerifITC-Medium'" font-size="21" letter-spacing="-1">0</tspan><tspan x="22.932" y="0" font-family="'StoneSerifITC-Medium'" font-size="21" letter-spacing="-2">1</tspan><tspan x="32.066" y="0" font-family="'StoneSerifITC-Medium'" font-size="21">1-</tspan><tspan x="51.113" y="0" font-family="'StoneSerifITC-Medium'" font-size="21">1</tspan><tspan x="62.263" y="0" font-family="'StoneSerifITC-Medium'" font-size="21">2</tspan></text>
	</g>
</g>
<g>
</g>
<g>
</g>
<g>
</g>
<g>
</g>
<g>
</g>
<g>
</g>
</svg>
