<?xml version="1.0" encoding="utf-8"?>
<!-- Generator: Adobe Illustrator 16.0.0, SVG Export Plug-In . SVG Version: 6.00 Build 0)  -->
<!DOCTYPE svg PUBLIC "-//W3C//DTD SVG 1.1//EN" "http://www.w3.org/Graphics/SVG/1.1/DTD/svg11.dtd">
<svg version="1.1" id="Layer_1" xmlns="http://www.w3.org/2000/svg" xmlns:xlink="http://www.w3.org/1999/xlink" x="0px" y="0px"
	 width="841.89px" height="595.28px" viewBox="0 0 841.89 595.28" enable-background="new 0 0 841.89 595.28" xml:space="preserve">
<g>
	<g>
		<g>
			<g>
				<rect x="254.743" y="171.248" fill="#EF7B10" width="77.616" height="295.02"/>
				<rect x="362.543" y="168.277" fill="#EF7B10" width="77.616" height="297.99"/>
				<rect x="470.344" y="162.833" fill="#EF7B10" width="77.616" height="303.435"/>
				<rect x="578.144" y="172.834" fill="#EF7B10" width="77.616" height="293.434"/>
				<rect x="685.943" y="169.268" fill="#EF7B10" width="77.616" height="297"/>
			</g>
		</g>
	</g>
	<g>
		<line fill="none" stroke="#000000" stroke-miterlimit="10" x1="239.651" y1="466.268" x2="778.651" y2="466.268"/>
		<g>
			<g>
				<line fill="none" stroke="#000000" stroke-miterlimit="10" x1="239.651" y1="466.268" x2="239.651" y2="456.367"/>
				<line fill="none" stroke="#000000" stroke-miterlimit="10" x1="347.451" y1="466.268" x2="347.451" y2="456.367"/>
				<line fill="none" stroke="#000000" stroke-miterlimit="10" x1="455.251" y1="466.268" x2="455.251" y2="456.367"/>
				<line fill="none" stroke="#000000" stroke-miterlimit="10" x1="563.052" y1="466.268" x2="563.052" y2="456.367"/>
				<line fill="none" stroke="#000000" stroke-miterlimit="10" x1="670.852" y1="466.268" x2="670.852" y2="456.367"/>
				<line fill="none" stroke="#000000" stroke-miterlimit="10" x1="778.651" y1="466.268" x2="778.651" y2="456.367"/>
			</g>
			<g>
			</g>
		</g>
	</g>
	<g>
		<g>
			<text transform="matrix(1 0 0 1 219.1758 475.7422)" font-family="'StoneSerifITC-Medium'" font-size="21">0</text>
			<text transform="matrix(1 0 0 1 163.9883 426.2422)"><tspan x="0" y="0" font-family="'StoneSerifITC-Medium'" font-size="21">$</tspan><tspan x="12.054" y="0" font-family="'StoneSerifITC-Medium'" font-size="21" letter-spacing="-1">1</tspan><tspan x="23.058" y="0" font-family="'StoneSerifITC-Medium'" font-size="21">0</tspan><tspan x="35.321" y="0" font-family="'StoneSerifITC-Medium'" font-size="21">0m</tspan></text>
			<text transform="matrix(1 0 0 1 162.7705 376.7422)"><tspan x="0" y="0" font-family="'StoneSerifITC-Medium'" font-size="21">$</tspan><tspan x="12.054" y="0" font-family="'StoneSerifITC-Medium'" font-size="21">2</tspan><tspan x="24.275" y="0" font-family="'StoneSerifITC-Medium'" font-size="21">0</tspan><tspan x="36.539" y="0" font-family="'StoneSerifITC-Medium'" font-size="21">0m</tspan></text>
			<text transform="matrix(1 0 0 1 162.9385 327.2422)"><tspan x="0" y="0" font-family="'StoneSerifITC-Medium'" font-size="21">$3</tspan><tspan x="24.107" y="0" font-family="'StoneSerifITC-Medium'" font-size="21">0</tspan><tspan x="36.371" y="0" font-family="'StoneSerifITC-Medium'" font-size="21">0m</tspan></text>
			<text transform="matrix(1 0 0 1 162.9385 277.7422)"><tspan x="0" y="0" font-family="'StoneSerifITC-Medium'" font-size="21">$4</tspan><tspan x="24.107" y="0" font-family="'StoneSerifITC-Medium'" font-size="21">0</tspan><tspan x="36.371" y="0" font-family="'StoneSerifITC-Medium'" font-size="21">0m</tspan></text>
			<text transform="matrix(1 0 0 1 162.9385 228.2422)"><tspan x="0" y="0" font-family="'StoneSerifITC-Medium'" font-size="21">$5</tspan><tspan x="24.107" y="0" font-family="'StoneSerifITC-Medium'" font-size="21">0</tspan><tspan x="36.371" y="0" font-family="'StoneSerifITC-Medium'" font-size="21">0m</tspan></text>
			<text transform="matrix(1 0 0 1 162.9385 178.7422)"><tspan x="0" y="0" font-family="'StoneSerifITC-Medium'" font-size="21">$6</tspan><tspan x="24.107" y="0" font-family="'StoneSerifITC-Medium'" font-size="21">0</tspan><tspan x="36.371" y="0" font-family="'StoneSerifITC-Medium'" font-size="21">0m</tspan></text>
			<text transform="matrix(1 0 0 1 163.6104 129.2422)"><tspan x="0" y="0" font-family="'StoneSerifITC-Medium'" font-size="21">$</tspan><tspan x="12.054" y="0" font-family="'StoneSerifITC-Medium'" font-size="21">7</tspan><tspan x="23.436" y="0" font-family="'StoneSerifITC-Medium'" font-size="21">0</tspan><tspan x="35.699" y="0" font-family="'StoneSerifITC-Medium'" font-size="21">0m</tspan></text>
			<text transform="matrix(1 0 0 1 194.8584 79.7422)"><tspan x="0" y="0" font-family="'StoneSerifITC-Medium'" font-size="21">8</tspan><tspan x="12.054" y="0" font-family="'StoneSerifITC-Medium'" font-size="21">0</tspan><tspan x="24.317" y="0" font-family="'StoneSerifITC-Medium'" font-size="21">0</tspan></text>
		</g>
		<line fill="none" stroke="#000000" stroke-miterlimit="10" x1="239.651" y1="466.268" x2="239.651" y2="70.268"/>
		<g>
			<g>
				<line fill="none" stroke="#000000" stroke-miterlimit="10" x1="239.651" y1="466.268" x2="253.126" y2="466.268"/>
				<line fill="none" stroke="#000000" stroke-miterlimit="10" x1="239.651" y1="416.768" x2="253.126" y2="416.768"/>
				<line fill="none" stroke="#000000" stroke-miterlimit="10" x1="239.651" y1="367.268" x2="253.126" y2="367.268"/>
				<line fill="none" stroke="#000000" stroke-miterlimit="10" x1="239.651" y1="317.768" x2="253.126" y2="317.768"/>
				<line fill="none" stroke="#000000" stroke-miterlimit="10" x1="239.651" y1="268.268" x2="253.126" y2="268.268"/>
				<line fill="none" stroke="#000000" stroke-miterlimit="10" x1="239.651" y1="218.768" x2="253.126" y2="218.768"/>
				<line fill="none" stroke="#000000" stroke-miterlimit="10" x1="239.651" y1="169.268" x2="253.126" y2="169.268"/>
				<line fill="none" stroke="#000000" stroke-miterlimit="10" x1="239.651" y1="119.768" x2="253.126" y2="119.768"/>
				<line fill="none" stroke="#000000" stroke-miterlimit="10" x1="239.651" y1="70.268" x2="253.126" y2="70.268"/>
			</g>
			<g>
			</g>
		</g>
	</g>
	<g>
		<g>
		</g>
	</g>
	<g>
		<text transform="matrix(1 0 0 1 687.3496 492.4043)"><tspan x="0" y="0" font-family="'StoneSerifITC-Medium'" font-size="21">2</tspan><tspan x="12.222" y="0" font-family="'StoneSerifITC-Medium'" font-size="21" letter-spacing="-1">0</tspan><tspan x="22.932" y="0" font-family="'StoneSerifITC-Medium'" font-size="21" letter-spacing="-1">1</tspan><tspan x="33.452" y="0" font-family="'StoneSerifITC-Medium'" font-size="21">5-</tspan><tspan x="52.499" y="0" font-family="'StoneSerifITC-Medium'" font-size="21" letter-spacing="-1">1</tspan><tspan x="62.747" y="0" font-family="'StoneSerifITC-Medium'" font-size="21">6</tspan></text>
		<text transform="matrix(1 0 0 1 579.6553 492.4043)"><tspan x="0" y="0" font-family="'StoneSerifITC-Medium'" font-size="21">2</tspan><tspan x="12.222" y="0" font-family="'StoneSerifITC-Medium'" font-size="21" letter-spacing="-1">0</tspan><tspan x="22.932" y="0" font-family="'StoneSerifITC-Medium'" font-size="21" letter-spacing="-2">1</tspan><tspan x="32.97" y="0" font-family="'StoneSerifITC-Medium'" font-size="21">4-</tspan><tspan x="52.017" y="0" font-family="'StoneSerifITC-Medium'" font-size="21" letter-spacing="-1">1</tspan><tspan x="62.537" y="0" font-family="'StoneSerifITC-Medium'" font-size="21">5</tspan></text>
		<text transform="matrix(1 0 0 1 471.8555 492.4043)"><tspan x="0" y="0" font-family="'StoneSerifITC-Medium'" font-size="21">2</tspan><tspan x="12.222" y="0" font-family="'StoneSerifITC-Medium'" font-size="21" letter-spacing="-1">0</tspan><tspan x="22.932" y="0" font-family="'StoneSerifITC-Medium'" font-size="21" letter-spacing="-1">1</tspan><tspan x="33.452" y="0" font-family="'StoneSerifITC-Medium'" font-size="21">3-</tspan><tspan x="52.499" y="0" font-family="'StoneSerifITC-Medium'" font-size="21" letter-spacing="-2">1</tspan><tspan x="62.537" y="0" font-family="'StoneSerifITC-Medium'" font-size="21">4</tspan></text>
		<text transform="matrix(1 0 0 1 363.4985 492.4043)"><tspan x="0" y="0" font-family="'StoneSerifITC-Medium'" font-size="21">2</tspan><tspan x="12.222" y="0" font-family="'StoneSerifITC-Medium'" font-size="21" letter-spacing="-1">0</tspan><tspan x="22.932" y="0" font-family="'StoneSerifITC-Medium'" font-size="21">1</tspan><tspan x="34.082" y="0" font-family="'StoneSerifITC-Medium'" font-size="21">2-</tspan><tspan x="53.129" y="0" font-family="'StoneSerifITC-Medium'" font-size="21" letter-spacing="-1">1</tspan><tspan x="63.65" y="0" font-family="'StoneSerifITC-Medium'" font-size="21">3</tspan></text>
		<text transform="matrix(1 0 0 1 256.3916 492.4043)"><tspan x="0" y="0" font-family="'StoneSerifITC-Medium'" font-size="21">2</tspan><tspan x="12.222" y="0" font-family="'StoneSerifITC-Medium'" font-size="21" letter-spacing="-1">0</tspan><tspan x="22.932" y="0" font-family="'StoneSerifITC-Medium'" font-size="21" letter-spacing="-2">1</tspan><tspan x="32.066" y="0" font-family="'StoneSerifITC-Medium'" font-size="21">1-</tspan><tspan x="51.113" y="0" font-family="'StoneSerifITC-Medium'" font-size="21">1</tspan><tspan x="62.263" y="0" font-family="'StoneSerifITC-Medium'" font-size="21">2</tspan></text>
	</g>
</g>
<rect x="236.454" y="24.491" fill="#FFFFFF" width="448.478" height="94.495"/>
<rect x="156.958" y="42.744" fill="#FFFFFF" width="91.488" height="53.989"/>
<g>
</g>
<g>
</g>
<g>
</g>
<g>
</g>
<g>
</g>
<g>
</g>
<g>
</g>
</svg>
