<?xml version="1.0" encoding="utf-8"?>
<!-- Generator: Adobe Illustrator 16.0.0, SVG Export Plug-In . SVG Version: 6.00 Build 0)  -->
<!DOCTYPE svg PUBLIC "-//W3C//DTD SVG 1.1//EN" "http://www.w3.org/Graphics/SVG/1.1/DTD/svg11.dtd">
<svg version="1.1" id="Layer_1" xmlns="http://www.w3.org/2000/svg" xmlns:xlink="http://www.w3.org/1999/xlink" x="0px" y="0px"
	 width="841.89px" height="595.28px" viewBox="0 0 841.89 595.28" enable-background="new 0 0 841.89 595.28" xml:space="preserve">
<g>
	<g>
		<g>
			<g>
				<rect x="273.547" y="215.602" fill="#6A59A3" width="77.616" height="266.97"/>
				<rect x="381.348" y="188.872" fill="#6A59A3" width="77.616" height="293.701"/>
				<rect x="489.148" y="165.112" fill="#6A59A3" width="77.616" height="317.46"/>
				<rect x="596.948" y="178.642" fill="#6A59A3" width="77.616" height="303.93"/>
				<rect x="704.748" y="124.522" fill="#6A59A3" width="77.616" height="358.05"/>
			</g>
		</g>
	</g>
	<g>
		<line fill="none" stroke="#000000" stroke-miterlimit="10" x1="258.456" y1="482.572" x2="797.456" y2="482.572"/>
		<g>
			<g>
				<line fill="none" stroke="#000000" stroke-miterlimit="10" x1="258.456" y1="482.572" x2="258.456" y2="472.672"/>
				<line fill="none" stroke="#000000" stroke-miterlimit="10" x1="366.255" y1="482.572" x2="366.255" y2="472.672"/>
				<line fill="none" stroke="#000000" stroke-miterlimit="10" x1="474.056" y1="482.572" x2="474.056" y2="472.672"/>
				<line fill="none" stroke="#000000" stroke-miterlimit="10" x1="581.856" y1="482.572" x2="581.856" y2="472.672"/>
				<line fill="none" stroke="#000000" stroke-miterlimit="10" x1="689.656" y1="482.572" x2="689.656" y2="472.672"/>
				<line fill="none" stroke="#000000" stroke-miterlimit="10" x1="797.456" y1="482.572" x2="797.456" y2="472.672"/>
			</g>
			<g>
			</g>
		</g>
	</g>
	<g>
		<g>
			<text transform="matrix(1 0 0 1 237.98 492.0469)" font-family="'StoneSerifITC-Medium'" font-size="21">0</text>
			<text transform="matrix(1 0 0 1 181.5747 426.0469)"><tspan x="0" y="0" font-family="'StoneSerifITC-Medium'" font-size="21">$</tspan><tspan x="12.054" y="0" font-family="'StoneSerifITC-Medium'" font-size="21">2</tspan><tspan x="24.275" y="0" font-family="'StoneSerifITC-Medium'" font-size="21">0</tspan><tspan x="36.539" y="0" font-family="'StoneSerifITC-Medium'" font-size="21">0m</tspan></text>
			<text transform="matrix(1 0 0 1 181.7427 360.0469)"><tspan x="0" y="0" font-family="'StoneSerifITC-Medium'" font-size="21">$4</tspan><tspan x="24.107" y="0" font-family="'StoneSerifITC-Medium'" font-size="21">0</tspan><tspan x="36.371" y="0" font-family="'StoneSerifITC-Medium'" font-size="21">0m</tspan></text>
			<text transform="matrix(1 0 0 1 181.7427 294.0464)"><tspan x="0" y="0" font-family="'StoneSerifITC-Medium'" font-size="21">$6</tspan><tspan x="24.107" y="0" font-family="'StoneSerifITC-Medium'" font-size="21">0</tspan><tspan x="36.371" y="0" font-family="'StoneSerifITC-Medium'" font-size="21">0m</tspan></text>
			<text transform="matrix(1 0 0 1 181.7427 228.0464)"><tspan x="0" y="0" font-family="'StoneSerifITC-Medium'" font-size="21">$8</tspan><tspan x="24.107" y="0" font-family="'StoneSerifITC-Medium'" font-size="21">0</tspan><tspan x="36.371" y="0" font-family="'StoneSerifITC-Medium'" font-size="21">0m</tspan></text>
			<text transform="matrix(1 0 0 1 164.3555 162.0464)"><tspan x="0" y="0" font-family="'StoneSerifITC-Medium'" font-size="21">$</tspan><tspan x="12.054" y="0" font-family="'StoneSerifITC-Medium'" font-size="21">1</tspan><tspan x="23.205" y="0" font-family="'StoneSerifITC-Medium'" font-size="21">,</tspan><tspan x="29.231" y="0" font-family="'StoneSerifITC-Medium'" font-size="21">00</tspan><tspan x="53.758" y="0" font-family="'StoneSerifITC-Medium'" font-size="21">0m</tspan></text>
			<text transform="matrix(1 0 0 1 164.3975 96.0464)"><tspan x="0" y="0" font-family="'StoneSerifITC-Medium'" font-size="21">$</tspan><tspan x="12.054" y="0" font-family="'StoneSerifITC-Medium'" font-size="21">1</tspan><tspan x="23.205" y="0" font-family="'StoneSerifITC-Medium'" font-size="21">,</tspan><tspan x="29.231" y="0" font-family="'StoneSerifITC-Medium'" font-size="21">2</tspan><tspan x="41.453" y="0" font-family="'StoneSerifITC-Medium'" font-size="21">0</tspan><tspan x="53.716" y="0" font-family="'StoneSerifITC-Medium'" font-size="21">0m</tspan></text>
		</g>
		<line fill="none" stroke="#000000" stroke-miterlimit="10" x1="258.456" y1="482.572" x2="258.456" y2="86.572"/>
		<g>
			<g>
				<line fill="none" stroke="#000000" stroke-miterlimit="10" x1="258.456" y1="482.572" x2="271.931" y2="482.572"/>
				<line fill="none" stroke="#000000" stroke-miterlimit="10" x1="258.456" y1="416.572" x2="271.931" y2="416.572"/>
				<line fill="none" stroke="#000000" stroke-miterlimit="10" x1="258.456" y1="350.572" x2="271.931" y2="350.572"/>
				<line fill="none" stroke="#000000" stroke-miterlimit="10" x1="258.456" y1="284.572" x2="271.931" y2="284.572"/>
				<line fill="none" stroke="#000000" stroke-miterlimit="10" x1="258.456" y1="218.572" x2="271.931" y2="218.572"/>
				<line fill="none" stroke="#000000" stroke-miterlimit="10" x1="258.456" y1="152.572" x2="271.931" y2="152.572"/>
				<line fill="none" stroke="#000000" stroke-miterlimit="10" x1="258.456" y1="86.572" x2="271.931" y2="86.572"/>
			</g>
			<g>
			</g>
		</g>
	</g>
	<g>
		<g>
		</g>
	</g>
	<g>
		<text transform="matrix(1 0 0 1 702.1543 508.709)"><tspan x="0" y="0" font-family="'StoneSerifITC-Medium'" font-size="21">2</tspan><tspan x="12.221" y="0" font-family="'StoneSerifITC-Medium'" font-size="21" letter-spacing="-1">0</tspan><tspan x="22.932" y="0" font-family="'StoneSerifITC-Medium'" font-size="21" letter-spacing="-1">1</tspan><tspan x="33.451" y="0" font-family="'StoneSerifITC-Medium'" font-size="21">5-</tspan><tspan x="52.498" y="0" font-family="'StoneSerifITC-Medium'" font-size="21" letter-spacing="-1">1</tspan><tspan x="62.746" y="0" font-family="'StoneSerifITC-Medium'" font-size="21">6</tspan></text>
		<text transform="matrix(1 0 0 1 594.459 508.709)"><tspan x="0" y="0" font-family="'StoneSerifITC-Medium'" font-size="21">2</tspan><tspan x="12.223" y="0" font-family="'StoneSerifITC-Medium'" font-size="21" letter-spacing="-1">0</tspan><tspan x="22.932" y="0" font-family="'StoneSerifITC-Medium'" font-size="21" letter-spacing="-2">1</tspan><tspan x="32.971" y="0" font-family="'StoneSerifITC-Medium'" font-size="21">4-</tspan><tspan x="52.018" y="0" font-family="'StoneSerifITC-Medium'" font-size="21" letter-spacing="-1">1</tspan><tspan x="62.537" y="0" font-family="'StoneSerifITC-Medium'" font-size="21">5</tspan></text>
		<text transform="matrix(1 0 0 1 486.6602 508.709)"><tspan x="0" y="0" font-family="'StoneSerifITC-Medium'" font-size="21">2</tspan><tspan x="12.221" y="0" font-family="'StoneSerifITC-Medium'" font-size="21" letter-spacing="-1">0</tspan><tspan x="22.932" y="0" font-family="'StoneSerifITC-Medium'" font-size="21" letter-spacing="-1">1</tspan><tspan x="33.451" y="0" font-family="'StoneSerifITC-Medium'" font-size="21">3-</tspan><tspan x="52.498" y="0" font-family="'StoneSerifITC-Medium'" font-size="21" letter-spacing="-2">1</tspan><tspan x="62.537" y="0" font-family="'StoneSerifITC-Medium'" font-size="21">4</tspan></text>
		<text transform="matrix(1 0 0 1 378.3027 508.709)"><tspan x="0" y="0" font-family="'StoneSerifITC-Medium'" font-size="21">2</tspan><tspan x="12.222" y="0" font-family="'StoneSerifITC-Medium'" font-size="21" letter-spacing="-1">0</tspan><tspan x="22.932" y="0" font-family="'StoneSerifITC-Medium'" font-size="21">1</tspan><tspan x="34.082" y="0" font-family="'StoneSerifITC-Medium'" font-size="21">2-</tspan><tspan x="53.129" y="0" font-family="'StoneSerifITC-Medium'" font-size="21" letter-spacing="-1">1</tspan><tspan x="63.65" y="0" font-family="'StoneSerifITC-Medium'" font-size="21">3</tspan></text>
		<text transform="matrix(1 0 0 1 271.1958 508.709)"><tspan x="0" y="0" font-family="'StoneSerifITC-Medium'" font-size="21">2</tspan><tspan x="12.222" y="0" font-family="'StoneSerifITC-Medium'" font-size="21" letter-spacing="-1">0</tspan><tspan x="22.932" y="0" font-family="'StoneSerifITC-Medium'" font-size="21" letter-spacing="-2">1</tspan><tspan x="32.066" y="0" font-family="'StoneSerifITC-Medium'" font-size="21">1-</tspan><tspan x="51.113" y="0" font-family="'StoneSerifITC-Medium'" font-size="21">1</tspan><tspan x="62.263" y="0" font-family="'StoneSerifITC-Medium'" font-size="21">2</tspan></text>
	</g>
</g>
<g>
</g>
<g>
</g>
<g>
</g>
<g>
</g>
<g>
</g>
<g>
</g>
</svg>
