<?xml version="1.0" encoding="utf-8"?>
<!-- Generator: Adobe Illustrator 16.0.0, SVG Export Plug-In . SVG Version: 6.00 Build 0)  -->
<!DOCTYPE svg PUBLIC "-//W3C//DTD SVG 1.1//EN" "http://www.w3.org/Graphics/SVG/1.1/DTD/svg11.dtd">
<svg version="1.1" xmlns="http://www.w3.org/2000/svg" xmlns:xlink="http://www.w3.org/1999/xlink" x="0px" y="0px"
	 width="841.89px" height="595.28px" viewBox="0 0 841.89 595.28" enable-background="new 0 0 841.89 595.28" xml:space="preserve">
<g id="Layer_2">
</g>
<g id="Layer_1">
	<g>
		<g>
			<g>
				<g>
					<rect x="273.523" y="318.717" fill-rule="evenodd" clip-rule="evenodd" fill="#939296" width="36.016" height="138.941"/>
					<rect x="373.568" y="310.686" fill="#939296" width="36.016" height="146.973"/>
					<rect x="473.612" y="273.533" fill="#939296" width="36.016" height="184.125"/>
					<rect x="573.656" y="274.812" fill="#939296" width="36.016" height="182.847"/>
					<rect x="673.7" y="288.77" fill="#939296" width="36.017" height="168.888"/>
				</g>
			</g>
			<g>
				<g>
					<rect x="233.506" y="121.099" fill-rule="evenodd" clip-rule="evenodd" fill="#6660AA" width="36.016" height="336.56"/>
					<rect x="333.55" y="104.183" fill="#6660AA" width="36.016" height="353.476"/>
					<rect x="433.595" y="131.595" fill="#6660AA" width="36.016" height="326.063"/>
					<rect x="533.639" y="134.183" fill="#6660AA" width="36.016" height="323.475"/>
					<rect x="633.683" y="108.81" fill="#6660AA" width="36.017" height="348.849"/>
				</g>
			</g>
		</g>
		<g>
			
				<line fill-rule="evenodd" clip-rule="evenodd" fill="none" stroke="#000000" stroke-miterlimit="10" x1="221.5" y1="457.658" x2="721.722" y2="457.658"/>
			<g>
				<g>
					<line fill="#6660AA" stroke="#000000" stroke-miterlimit="10" x1="221.5" y1="457.658" x2="221.5" y2="447.855"/>
					<line fill="#6660AA" stroke="#000000" stroke-miterlimit="10" x1="321.544" y1="457.658" x2="321.544" y2="447.855"/>
					<line fill="#6660AA" stroke="#000000" stroke-miterlimit="10" x1="421.589" y1="457.658" x2="421.589" y2="447.855"/>
					<line fill="#6660AA" stroke="#000000" stroke-miterlimit="10" x1="521.633" y1="457.658" x2="521.633" y2="447.855"/>
					<line fill="#6660AA" stroke="#000000" stroke-miterlimit="10" x1="621.678" y1="457.658" x2="621.678" y2="447.855"/>
					<line fill="#6660AA" stroke="#000000" stroke-miterlimit="10" x1="721.722" y1="457.658" x2="721.722" y2="447.855"/>
				</g>
				<g>
				</g>
			</g>
		</g>
		<g>
			<g>
				<text transform="matrix(1 0 0 1 201.3369 466.4512)" font-family="'StoneSerifITC-Medium'" font-size="21.5124">0</text>
				<text transform="matrix(1 0 0 1 145.1694 388.0283)"><tspan x="0" y="0" font-family="'StoneSerifITC-Medium'" font-size="21.5124">2</tspan><tspan x="12.52" y="0" font-family="'StoneSerifITC-Medium'" font-size="21.5124">0,</tspan><tspan x="31.042" y="0" font-family="'StoneSerifITC-Medium'" font-size="21.5124">00</tspan><tspan x="56.167" y="0" font-family="'StoneSerifITC-Medium'" font-size="21.5124">0</tspan></text>
				<text transform="matrix(1 0 0 1 145.3413 309.6055)"><tspan x="0" y="0" font-family="'StoneSerifITC-Medium'" font-size="21.5124">40,</tspan><tspan x="30.87" y="0" font-family="'StoneSerifITC-Medium'" font-size="21.5124">00</tspan><tspan x="55.995" y="0" font-family="'StoneSerifITC-Medium'" font-size="21.5124">0</tspan></text>
				<text transform="matrix(1 0 0 1 145.3413 231.1826)"><tspan x="0" y="0" font-family="'StoneSerifITC-Medium'" font-size="21.5124">60,</tspan><tspan x="30.87" y="0" font-family="'StoneSerifITC-Medium'" font-size="21.5124">00</tspan><tspan x="55.995" y="0" font-family="'StoneSerifITC-Medium'" font-size="21.5124">0</tspan></text>
				<text transform="matrix(1 0 0 1 145.3413 152.7598)"><tspan x="0" y="0" font-family="'StoneSerifITC-Medium'" font-size="21.5124">80,</tspan><tspan x="30.87" y="0" font-family="'StoneSerifITC-Medium'" font-size="21.5124">00</tspan><tspan x="55.995" y="0" font-family="'StoneSerifITC-Medium'" font-size="21.5124">0</tspan></text>
				<text transform="matrix(1 0 0 1 133.8535 74.3369)"><tspan x="0" y="0" font-family="'StoneSerifITC-Medium'" font-size="21.5124" letter-spacing="-1">1</tspan><tspan x="11.272" y="0" font-family="'StoneSerifITC-Medium'" font-size="21.5124">0</tspan><tspan x="23.835" y="0" font-family="'StoneSerifITC-Medium'" font-size="21.5124">0,</tspan><tspan x="42.356" y="0" font-family="'StoneSerifITC-Medium'" font-size="21.5124">00</tspan><tspan x="67.482" y="0" font-family="'StoneSerifITC-Medium'" font-size="21.5124">0</tspan></text>
			</g>
			
				<line fill-rule="evenodd" clip-rule="evenodd" fill="none" stroke="#000000" stroke-miterlimit="10" x1="221.5" y1="457.658" x2="221.5" y2="65.543"/>
			<g>
				<g>
					<line fill="#6660AA" stroke="#000000" stroke-miterlimit="10" x1="221.5" y1="457.658" x2="234.006" y2="457.658"/>
					<line fill="#6660AA" stroke="#000000" stroke-miterlimit="10" x1="221.5" y1="379.235" x2="234.006" y2="379.235"/>
					<line fill="#6660AA" stroke="#000000" stroke-miterlimit="10" x1="221.5" y1="300.813" x2="234.006" y2="300.813"/>
					<line fill="#6660AA" stroke="#000000" stroke-miterlimit="10" x1="221.5" y1="222.39" x2="234.006" y2="222.39"/>
					<line fill="#6660AA" stroke="#000000" stroke-miterlimit="10" x1="221.5" y1="143.966" x2="234.006" y2="143.966"/>
					<line fill="#6660AA" stroke="#000000" stroke-miterlimit="10" x1="221.5" y1="65.543" x2="234.006" y2="65.543"/>
				</g>
				<g>
				</g>
			</g>
		</g>
		<g>
			<g>
			</g>
			<g>
			</g>
		</g>
		<g>
			<text transform="matrix(1 0 0 1 634.3867 481.3721)"><tspan x="0" y="0" font-family="'StoneSerifITC-Medium'" font-size="21.5124">2</tspan><tspan x="12.52" y="0" font-family="'StoneSerifITC-Medium'" font-size="21.5124" letter-spacing="-1">0</tspan><tspan x="23.49" y="0" font-family="'StoneSerifITC-Medium'" font-size="21.5124" letter-spacing="-1">1</tspan><tspan x="34.268" y="0" font-family="'StoneSerifITC-Medium'" font-size="21.5124">5-</tspan><tspan x="53.778" y="0" font-family="'StoneSerifITC-Medium'" font-size="21.5124" letter-spacing="-1">1</tspan><tspan x="64.276" y="0" font-family="'StoneSerifITC-Medium'" font-size="21.5124">6</tspan></text>
			<text transform="matrix(1 0 0 1 534.4502 481.3721)"><tspan x="0" y="0" font-family="'StoneSerifITC-Medium'" font-size="21.5124">2</tspan><tspan x="12.52" y="0" font-family="'StoneSerifITC-Medium'" font-size="21.5124" letter-spacing="-1">0</tspan><tspan x="23.49" y="0" font-family="'StoneSerifITC-Medium'" font-size="21.5124" letter-spacing="-2">1</tspan><tspan x="33.773" y="0" font-family="'StoneSerifITC-Medium'" font-size="21.5124">4-</tspan><tspan x="53.284" y="0" font-family="'StoneSerifITC-Medium'" font-size="21.5124" letter-spacing="-1">1</tspan><tspan x="64.062" y="0" font-family="'StoneSerifITC-Medium'" font-size="21.5124">5</tspan></text>
			<text transform="matrix(1 0 0 1 434.4063 481.3721)"><tspan x="0" y="0" font-family="'StoneSerifITC-Medium'" font-size="21.5124">2</tspan><tspan x="12.52" y="0" font-family="'StoneSerifITC-Medium'" font-size="21.5124" letter-spacing="-1">0</tspan><tspan x="23.49" y="0" font-family="'StoneSerifITC-Medium'" font-size="21.5124" letter-spacing="-1">1</tspan><tspan x="34.268" y="0" font-family="'StoneSerifITC-Medium'" font-size="21.5124">3-</tspan><tspan x="53.778" y="0" font-family="'StoneSerifITC-Medium'" font-size="21.5124" letter-spacing="-2">1</tspan><tspan x="64.062" y="0" font-family="'StoneSerifITC-Medium'" font-size="21.5124">4</tspan></text>
			<text transform="matrix(1 0 0 1 333.7915 481.3721)"><tspan x="0" y="0" font-family="'StoneSerifITC-Medium'" font-size="21.5124">2</tspan><tspan x="12.52" y="0" font-family="'StoneSerifITC-Medium'" font-size="21.5124" letter-spacing="-1">0</tspan><tspan x="23.491" y="0" font-family="'StoneSerifITC-Medium'" font-size="21.5124">1</tspan><tspan x="34.914" y="0" font-family="'StoneSerifITC-Medium'" font-size="21.5124">2-</tspan><tspan x="54.425" y="0" font-family="'StoneSerifITC-Medium'" font-size="21.5124" letter-spacing="-1">1</tspan><tspan x="65.203" y="0" font-family="'StoneSerifITC-Medium'" font-size="21.5124">3</tspan></text>
			<text transform="matrix(1 0 0 1 234.457 481.3721)"><tspan x="0" y="0" font-family="'StoneSerifITC-Medium'" font-size="21.5124">2</tspan><tspan x="12.52" y="0" font-family="'StoneSerifITC-Medium'" font-size="21.5124" letter-spacing="-1">0</tspan><tspan x="23.491" y="0" font-family="'StoneSerifITC-Medium'" font-size="21.5124" letter-spacing="-2">1</tspan><tspan x="32.848" y="0" font-family="'StoneSerifITC-Medium'" font-size="21.5124">1-</tspan><tspan x="52.359" y="0" font-family="'StoneSerifITC-Medium'" font-size="21.5124">1</tspan><tspan x="63.783" y="0" font-family="'StoneSerifITC-Medium'" font-size="21.5124">2</tspan></text>
		</g>
	</g>
	<rect x="492.566" y="514.707" fill="#939296" width="22.498" height="22.5"/>
	<g>
		<path d="M539.878,526.35c-0.816,0.279-1.505,0.365-3.074,0.387v-0.43c1.183-0.064,1.677-0.193,2.236-0.495
			c1.118-0.581,1.72-1.827,1.72-3.526c0-2.343-1.14-3.439-3.591-3.439h-1.289v11.674c0,1.979,0,1.979,1.806,2.129v0.559h-5.74
			v-0.559c1.827-0.15,1.827-0.15,1.827-2.129v-9.674c0-2,0-1.979-1.827-2.129v-0.559h5.611c3.525,0,5.332,1.332,5.332,3.934
			C542.889,524.07,541.771,525.683,539.878,526.35z"/>
		<path d="M551.445,524.199l-0.495,0.387c-0.064,0.043-0.129,0.107-0.215,0.107c-0.064,0-0.15-0.043-0.193-0.064l-0.709-0.365
			c-0.237-0.129-0.409-0.15-0.688-0.15c-0.494,0-0.774,0.279-0.989,0.816c-0.193,0.495-0.193,1.656-0.193,2.236v3.354
			c0,2.086,0.172,2.021,2.172,2.129v0.559h-5.87v-0.559c1.785-0.086,1.764-0.258,1.764-2.129v-5.805
			c0-0.859-0.258-1.053-1.226-1.053h-0.494v-0.538c1.44-0.064,2.729-0.408,3.654-0.925v1.979l0.989-1.161
			c0.623-0.731,0.795-0.817,1.269-0.817c0.344,0,0.559,0.172,0.816,0.646l0.538,0.968c0.043,0.086,0.064,0.129,0.064,0.172
			C551.639,524.07,551.574,524.113,551.445,524.199z"/>
		<path d="M558.819,533.465h-0.559c-2.064,0-3.247-0.494-4.192-1.633c-0.946-1.162-1.462-2.709-1.462-4.193
			c0-1.461,0.537-2.924,1.44-3.934c0.859-0.968,2.128-1.506,3.547-1.506c1.914,0,3.247,0.989,3.784,2.752
			c0.193,0.646,0.258,1.162,0.236,2.301h-6.923c0.021,1.57,0.408,2.816,1.14,3.677c0.709,0.839,1.677,1.29,2.967,1.29
			c0.796,0,1.419-0.193,2.494-0.731l0.322,0.646L558.819,533.465z M557.443,522.909c-1.226,0-2.128,0.753-2.516,2.085
			c-0.129,0.409-0.172,0.753-0.236,1.484h3.698c0.967,0,1.376-0.365,1.376-1.248C559.766,523.92,558.798,522.909,557.443,522.909z"
			/>
		<path d="M566.366,533.465c-1.075,0-1.893-0.172-2.816-0.58v-2.408h0.559c0.043,0.538,0.129,0.989,0.344,1.313
			c0.388,0.58,1.183,0.945,2.021,0.945c1.161,0,1.978-0.795,1.978-1.892c0-1.011-0.365-1.462-2.407-2.839
			c-1.979-1.332-2.473-1.955-2.473-3.031c0-1.654,1.462-2.773,3.611-2.773c0.839,0,1.527,0.064,2.387,0.345v2.128h-0.559
			c-0.064-0.408-0.107-0.58-0.215-0.795c-0.323-0.58-0.86-0.968-1.721-0.968c-0.967,0-1.677,0.603-1.677,1.419
			c0,0.322,0.129,0.709,0.344,0.945c0.366,0.409,0.366,0.409,2.344,1.807c1.72,1.226,2.279,1.957,2.279,3.096
			C570.365,532.154,568.796,533.465,566.366,533.465z"/>
		<path d="M578.212,533.465h-0.559c-2.064,0-3.247-0.494-4.192-1.633c-0.946-1.162-1.462-2.709-1.462-4.193
			c0-1.461,0.537-2.924,1.44-3.934c0.859-0.968,2.128-1.506,3.547-1.506c1.914,0,3.247,0.989,3.784,2.752
			c0.193,0.646,0.258,1.162,0.236,2.301h-6.923c0.021,1.57,0.408,2.816,1.14,3.677c0.709,0.839,1.677,1.29,2.967,1.29
			c0.796,0,1.419-0.193,2.494-0.731l0.322,0.646L578.212,533.465z M576.836,522.909c-1.226,0-2.128,0.753-2.516,2.085
			c-0.129,0.409-0.172,0.753-0.236,1.484h3.698c0.967,0,1.376-0.365,1.376-1.248C579.158,523.92,578.19,522.909,576.836,522.909z"/>
		<path d="M589.65,524.199l-0.495,0.387c-0.064,0.043-0.129,0.107-0.215,0.107c-0.064,0-0.15-0.043-0.193-0.064l-0.709-0.365
			c-0.237-0.129-0.409-0.15-0.688-0.15c-0.494,0-0.774,0.279-0.989,0.816c-0.193,0.495-0.193,1.656-0.193,2.236v3.354
			c0,2.086,0.172,2.021,2.172,2.129v0.559h-5.87v-0.559c1.785-0.086,1.764-0.258,1.764-2.129v-5.805
			c0-0.859-0.258-1.053-1.226-1.053h-0.494v-0.538c1.44-0.064,2.729-0.408,3.654-0.925v1.979l0.989-1.161
			c0.623-0.731,0.795-0.817,1.269-0.817c0.344,0,0.559,0.172,0.816,0.646l0.538,0.968c0.043,0.086,0.064,0.129,0.064,0.172
			C589.844,524.07,589.779,524.113,589.65,524.199z"/>
		<path d="M600.851,524.951l-3.87,8.256h-0.688l-3.634-8.514c-0.537-1.246-0.881-1.612-1.763-1.677v-0.56h5.568v0.56
			c-1.397,0.021-1.87,0.237-1.87,0.839c0,0.129,0.021,0.301,0.172,0.666l2.473,6.278l2.752-6.171
			c0.172-0.365,0.215-0.559,0.215-0.688c0-0.86-1.226-0.903-1.828-0.925v-0.56h4.322v0.56
			C601.775,523.124,601.582,523.404,600.851,524.951z"/>
		<path d="M609.236,533.465h-0.559c-2.064,0-3.247-0.494-4.192-1.633c-0.946-1.162-1.462-2.709-1.462-4.193
			c0-1.461,0.537-2.924,1.44-3.934c0.859-0.968,2.128-1.506,3.547-1.506c1.914,0,3.247,0.989,3.784,2.752
			c0.193,0.646,0.258,1.162,0.236,2.301h-6.923c0.021,1.57,0.408,2.816,1.14,3.677c0.709,0.839,1.677,1.29,2.967,1.29
			c0.796,0,1.419-0.193,2.494-0.731l0.322,0.646L609.236,533.465z M607.86,522.909c-1.226,0-2.128,0.753-2.516,2.085
			c-0.129,0.409-0.172,0.753-0.236,1.484h3.698c0.968,0,1.376-0.365,1.376-1.248C610.183,523.92,609.215,522.909,607.86,522.909z"/>
		<path d="M620.675,524.199l-0.495,0.387c-0.064,0.043-0.129,0.107-0.215,0.107c-0.064,0-0.15-0.043-0.193-0.064l-0.709-0.365
			c-0.237-0.129-0.409-0.15-0.688-0.15c-0.494,0-0.774,0.279-0.989,0.816c-0.193,0.495-0.193,1.656-0.193,2.236v3.354
			c0,2.086,0.172,2.021,2.172,2.129v0.559h-5.87v-0.559c1.785-0.086,1.764-0.258,1.764-2.129v-5.805
			c0-0.859-0.258-1.053-1.226-1.053h-0.495v-0.538c1.441-0.064,2.73-0.408,3.655-0.925v1.979l0.989-1.161
			c0.623-0.731,0.795-0.817,1.269-0.817c0.344,0,0.559,0.172,0.816,0.646l0.538,0.968c0.043,0.086,0.064,0.129,0.064,0.172
			C620.868,524.07,620.804,524.113,620.675,524.199z"/>
		<path d="M625.275,533.465c-1.075,0-1.893-0.172-2.816-0.58v-2.408h0.559c0.043,0.538,0.129,0.989,0.344,1.313
			c0.388,0.58,1.183,0.945,2.021,0.945c1.161,0,1.978-0.795,1.978-1.892c0-1.011-0.365-1.462-2.407-2.839
			c-1.979-1.332-2.473-1.955-2.473-3.031c0-1.654,1.462-2.773,3.611-2.773c0.839,0,1.527,0.064,2.387,0.345v2.128h-0.559
			c-0.064-0.408-0.107-0.58-0.215-0.795c-0.323-0.58-0.86-0.968-1.721-0.968c-0.967,0-1.677,0.603-1.677,1.419
			c0,0.322,0.129,0.709,0.344,0.945c0.366,0.409,0.366,0.409,2.344,1.807c1.72,1.226,2.279,1.957,2.279,3.096
			C629.274,532.154,627.705,533.465,625.275,533.465z"/>
	</g>
	<rect x="296.827" y="514.707" fill="#6660AA" width="22.499" height="22.5"/>
	<g>
		<path d="M349.923,532.047c-0.107,0.43-0.173,0.516-0.796,0.73c-1.29,0.451-3.053,0.688-4.515,0.688
			c-2.021,0-3.935-0.602-5.439-1.74c-1.698-1.291-2.816-3.312-2.816-5.978c0-2.171,0.967-4.579,3.053-6.149
			c1.376-1.031,3.225-1.697,5.611-1.697c1.483,0,3.117,0.322,4.085,0.73c0.623,0.258,0.817,0.451,0.817,0.967v2.645h-0.56
			c-0.064-0.752-0.193-1.311-0.408-1.719c-0.624-1.184-2.387-1.893-4.171-1.893c-3.677,0-5.977,2.559-5.977,6.923
			c0,2.343,0.666,4.386,2.042,5.697c0.989,0.925,2.344,1.483,4.085,1.483c1.698,0,3.225-0.58,4.171-1.763
			c0.344-0.431,0.537-0.796,0.903-1.612h0.559L349.923,532.047z"/>
		<path d="M357.361,533.465c-3.117,0-5.288-2.45-5.288-5.504c0-3.289,2.407-5.762,5.719-5.762c3.182,0,5.375,2.258,5.375,5.525
			C363.167,531.015,360.716,533.465,357.361,533.465z M357.513,522.909c-2.537,0-3.312,2.816-3.312,4.88
			c0,2.902,1.397,4.945,3.44,4.945c2.063,0,3.396-1.87,3.396-4.773C361.038,524.865,359.662,522.909,357.513,522.909z"/>
		<path d="M372.11,533.207v-0.559c1.849-0.193,1.72-0.43,1.72-2.129v-3.977c0-2.344-0.623-3.182-2.43-3.182
			c-1.784,0-2.645,0.967-2.945,2.3c-0.129,0.581-0.172,1.226-0.172,2.214c0,2.645,0,0,0,2.645c0,1.871,0.021,1.893,1.741,2.129
			v0.559h-5.396v-0.559c1.678-0.236,1.721-0.301,1.721-2.129v-5.826c0-0.859-0.258-1.053-1.226-1.053h-0.495v-0.538
			c1.441-0.064,2.752-0.387,3.655-0.903v1.871c1.204-1.29,2.58-1.871,4.3-1.871c1.612,0,2.58,0.688,2.988,1.828
			c0.173,0.516,0.194,0.988,0.194,1.956v4.536c0,1.828-0.086,1.957,1.72,2.129v0.559H372.11z"/>
		<path d="M383.161,533.465c-1.14-0.043-1.613-0.236-2.086-0.816c-0.43-0.537-0.623-1.269-0.623-2.58v-6.148h-1.721v-0.968h1.721
			v-2.257l1.354-1.184h0.58v3.44h3.289v0.581l-0.881,0.387h-2.408c0,5.697,0,0,0,5.697c0,1.29,0.15,2.58,1.72,2.58
			c0.474,0,0.903-0.107,1.397-0.279l0.172,0.559L383.161,533.465z"/>
		<path d="M393.911,524.199l-0.495,0.387c-0.064,0.043-0.129,0.107-0.215,0.107c-0.064,0-0.15-0.043-0.193-0.064l-0.709-0.365
			c-0.237-0.129-0.409-0.15-0.688-0.15c-0.494,0-0.774,0.279-0.989,0.816c-0.193,0.495-0.193,1.656-0.193,2.236v3.354
			c0,2.086,0.172,2.021,2.172,2.129v0.559h-5.87v-0.559c1.785-0.086,1.764-0.258,1.764-2.129v-5.805
			c0-0.859-0.258-1.053-1.226-1.053h-0.494v-0.538c1.44-0.064,2.729-0.408,3.654-0.925v1.979l0.989-1.161
			c0.623-0.731,0.795-0.817,1.269-0.817c0.344,0,0.559,0.172,0.816,0.646l0.538,0.968c0.043,0.086,0.064,0.129,0.064,0.172
			C394.104,524.07,394.04,524.113,393.911,524.199z"/>
		<path d="M395.415,533.207v-0.559c1.678-0.172,1.721-0.193,1.721-2.129v-5.805c0-0.859-0.236-1.053-1.226-1.053h-0.495v-0.538
			c1.441-0.064,2.752-0.408,3.655-0.925v8.32c0,1.807-0.043,1.957,1.72,2.129v0.559H395.415z M397.845,520.781
			c-0.688,0-1.247-0.56-1.247-1.27c0-0.645,0.581-1.225,1.269-1.225c0.667,0,1.247,0.559,1.247,1.246
			C399.113,520.243,398.555,520.781,397.845,520.781z"/>
		<path d="M407.563,533.465c-0.451,0-1.031-0.064-1.634-0.15c-1.269-0.172-1.526-0.215-1.849-0.215
			c-0.193,0-0.451,0.021-0.882,0.107v-13.372c0-0.968-0.107-1.226-1.097-1.226H401.5v-0.58c1.097,0,2.58-0.258,3.634-0.624v6.558
			c1.14-1.247,2.257-1.764,3.762-1.764c2.709,0,4.365,1.85,4.365,4.924C413.261,530.713,410.788,533.465,407.563,533.465z
			 M407.972,523.231c-1.419,0-2.344,0.796-2.645,2.236c-0.129,0.603-0.193,1.483-0.193,2.515v2.172c0,1.097,0.107,1.635,0.43,2
			s1.011,0.58,1.849,0.58c2.322,0,3.72-2,3.72-5.225C411.132,524.844,409.949,523.231,407.972,523.231z"/>
		<path d="M423.559,533.465c-0.236-0.258-0.387-0.666-0.451-1.139c-0.021-0.193-0.043-0.322-0.043-0.516l-1.893,1.117
			c-0.688,0.408-1.075,0.537-1.806,0.537c-2.387,0-3.333-1.182-3.333-4.191v-4.559c0-0.859-0.258-1.053-1.225-1.053h-0.495v-0.538
			c1.419-0.064,2.752-0.408,3.655-0.925v6.881c0,1.784,0.258,3.096,2.301,3.096c1.225,0,2.214-0.645,2.536-1.699
			c0.194-0.602,0.28-1.525,0.28-2.537v-3.225c0-0.859-0.237-1.053-1.204-1.053h-0.517v-0.538c1.44-0.064,2.752-0.408,3.655-0.925
			c0,3.44,0,7.869,0,7.869c0,1.85,0.107,1.979,0.753,1.979c0.193,0,0.387-0.043,0.73-0.15l0.129,0.602L423.559,533.465z"/>
		<path d="M432.224,533.465c-1.14-0.043-1.613-0.236-2.086-0.816c-0.43-0.537-0.623-1.269-0.623-2.58v-6.148h-1.721v-0.968h1.721
			v-2.257l1.354-1.184h0.58v3.44h3.289v0.581l-0.881,0.387h-2.408c0,5.697,0,0,0,5.697c0,1.29,0.15,2.58,1.72,2.58
			c0.474,0,0.903-0.107,1.397-0.279l0.172,0.559L432.224,533.465z"/>
		<path d="M441.081,533.465c-3.117,0-5.288-2.45-5.288-5.504c0-3.289,2.407-5.762,5.719-5.762c3.182,0,5.375,2.258,5.375,5.525
			C446.887,531.015,444.436,533.465,441.081,533.465z M441.232,522.909c-2.537,0-3.312,2.816-3.312,4.88
			c0,2.902,1.397,4.945,3.44,4.945c2.063,0,3.396-1.87,3.396-4.773C444.758,524.865,443.382,522.909,441.232,522.909z"/>
		<path d="M455.529,524.199l-0.495,0.387c-0.064,0.043-0.129,0.107-0.215,0.107c-0.064,0-0.15-0.043-0.193-0.064l-0.709-0.365
			c-0.237-0.129-0.409-0.15-0.688-0.15c-0.494,0-0.774,0.279-0.989,0.816c-0.193,0.495-0.193,1.656-0.193,2.236v3.354
			c0,2.086,0.172,2.021,2.172,2.129v0.559h-5.87v-0.559c1.785-0.086,1.764-0.258,1.764-2.129v-5.805
			c0-0.859-0.258-1.053-1.226-1.053h-0.495v-0.538c1.441-0.064,2.73-0.408,3.655-0.925v1.979l0.989-1.161
			c0.623-0.731,0.795-0.817,1.269-0.817c0.344,0,0.559,0.172,0.816,0.646l0.538,0.968c0.043,0.086,0.064,0.129,0.064,0.172
			C455.723,524.07,455.658,524.113,455.529,524.199z"/>
		<path d="M460.13,533.465c-1.075,0-1.893-0.172-2.816-0.58v-2.408h0.559c0.043,0.538,0.129,0.989,0.344,1.313
			c0.388,0.58,1.183,0.945,2.021,0.945c1.161,0,1.978-0.795,1.978-1.892c0-1.011-0.365-1.462-2.407-2.839
			c-1.979-1.332-2.473-1.955-2.473-3.031c0-1.654,1.462-2.773,3.611-2.773c0.839,0,1.527,0.064,2.387,0.345v2.128h-0.559
			c-0.064-0.408-0.107-0.58-0.215-0.795c-0.323-0.58-0.86-0.968-1.721-0.968c-0.967,0-1.677,0.603-1.677,1.419
			c0,0.322,0.129,0.709,0.344,0.945c0.366,0.409,0.366,0.409,2.344,1.807c1.72,1.226,2.279,1.957,2.279,3.096
			C464.129,532.154,462.56,533.465,460.13,533.465z"/>
	</g>
	<g>
	</g>
	<g>
	</g>
	<g>
	</g>
	<g>
	</g>
	<g>
	</g>
	<g>
	</g>
	<g>
	</g>
</g>
</svg>
