<?xml version="1.0" encoding="utf-8"?>
<!-- Generator: Adobe Illustrator 16.0.0, SVG Export Plug-In . SVG Version: 6.00 Build 0)  -->
<!DOCTYPE svg PUBLIC "-//W3C//DTD SVG 1.1//EN" "http://www.w3.org/Graphics/SVG/1.1/DTD/svg11.dtd">
<svg version="1.1" id="Layer_1" xmlns="http://www.w3.org/2000/svg" xmlns:xlink="http://www.w3.org/1999/xlink" x="0px" y="0px"
	 width="841.89px" height="595.28px" viewBox="0 0 841.89 595.28" enable-background="new 0 0 841.89 595.28" xml:space="preserve">
<g>
	<g>
		<g>
			<g>
				<rect x="228.547" y="383.647" fill="#6A59A3" width="77.616" height="87.12"/>
				<rect x="336.348" y="351.968" fill="#6A59A3" width="77.616" height="118.8"/>
				<rect x="444.148" y="312.367" fill="#6A59A3" width="77.616" height="158.4"/>
				<rect x="551.948" y="241.088" fill="#6A59A3" width="77.616" height="229.68"/>
				<rect x="659.748" y="90.607" fill="#6A59A3" width="77.616" height="380.16"/>
			</g>
		</g>
	</g>
	<g>
		<line fill="none" stroke="#000000" stroke-miterlimit="10" x1="213.456" y1="470.768" x2="752.456" y2="470.768"/>
		<g>
			<g>
				<line fill="none" stroke="#000000" stroke-miterlimit="10" x1="213.456" y1="470.768" x2="213.456" y2="460.867"/>
				<line fill="none" stroke="#000000" stroke-miterlimit="10" x1="321.255" y1="470.768" x2="321.255" y2="460.867"/>
				<line fill="none" stroke="#000000" stroke-miterlimit="10" x1="429.056" y1="470.768" x2="429.056" y2="460.867"/>
				<line fill="none" stroke="#000000" stroke-miterlimit="10" x1="536.856" y1="470.768" x2="536.856" y2="460.867"/>
				<line fill="none" stroke="#000000" stroke-miterlimit="10" x1="644.656" y1="470.768" x2="644.656" y2="460.867"/>
				<line fill="none" stroke="#000000" stroke-miterlimit="10" x1="752.456" y1="470.768" x2="752.456" y2="460.867"/>
			</g>
			<g>
			</g>
		</g>
	</g>
	<g>
		<g>
			<text transform="matrix(1 0 0 1 192.98 480.2422)" font-family="'StoneSerifITC-Medium'" font-size="21">0</text>
			<text transform="matrix(1 0 0 1 150.0562 401.042)"><tspan x="0" y="0" font-family="'StoneSerifITC-Medium'" font-size="21">$</tspan><tspan x="12.054" y="0" font-family="'StoneSerifITC-Medium'" font-size="21" letter-spacing="-1">1</tspan><tspan x="23.058" y="0" font-family="'StoneSerifITC-Medium'" font-size="21">0m</tspan></text>
			<text transform="matrix(1 0 0 1 148.8384 321.8418)"><tspan x="0" y="0" font-family="'StoneSerifITC-Medium'" font-size="21">$</tspan><tspan x="12.054" y="0" font-family="'StoneSerifITC-Medium'" font-size="21">2</tspan><tspan x="24.275" y="0" font-family="'StoneSerifITC-Medium'" font-size="21">0m</tspan></text>
			<text transform="matrix(1 0 0 1 149.0063 242.6426)" font-family="'StoneSerifITC-Medium'" font-size="21">$30m</text>
			<text transform="matrix(1 0 0 1 149.0063 163.4424)" font-family="'StoneSerifITC-Medium'" font-size="21">$40m</text>
			<text transform="matrix(1 0 0 1 149.0063 84.2422)" font-family="'StoneSerifITC-Medium'" font-size="21">$50m</text>
		</g>
		<line fill="none" stroke="#000000" stroke-miterlimit="10" x1="213.456" y1="470.768" x2="213.456" y2="74.768"/>
		<g>
			<g>
				<line fill="none" stroke="#000000" stroke-miterlimit="10" x1="213.456" y1="470.768" x2="226.931" y2="470.768"/>
				<line fill="none" stroke="#000000" stroke-miterlimit="10" x1="213.456" y1="391.567" x2="226.931" y2="391.567"/>
				<line fill="none" stroke="#000000" stroke-miterlimit="10" x1="213.456" y1="312.367" x2="226.931" y2="312.367"/>
				<line fill="none" stroke="#000000" stroke-miterlimit="10" x1="213.456" y1="233.168" x2="226.931" y2="233.168"/>
				<line fill="none" stroke="#000000" stroke-miterlimit="10" x1="213.456" y1="153.968" x2="226.931" y2="153.968"/>
				<line fill="none" stroke="#000000" stroke-miterlimit="10" x1="213.456" y1="74.768" x2="226.931" y2="74.768"/>
			</g>
			<g>
			</g>
		</g>
	</g>
	<g>
		<g>
		</g>
	</g>
	<g>
		<text transform="matrix(1 0 0 1 657.1543 496.9043)"><tspan x="0" y="0" font-family="'StoneSerifITC-Medium'" font-size="21">2</tspan><tspan x="12.221" y="0" font-family="'StoneSerifITC-Medium'" font-size="21" letter-spacing="-1">0</tspan><tspan x="22.932" y="0" font-family="'StoneSerifITC-Medium'" font-size="21" letter-spacing="-1">1</tspan><tspan x="33.451" y="0" font-family="'StoneSerifITC-Medium'" font-size="21">5-</tspan><tspan x="52.498" y="0" font-family="'StoneSerifITC-Medium'" font-size="21" letter-spacing="-1">1</tspan><tspan x="62.746" y="0" font-family="'StoneSerifITC-Medium'" font-size="21">6</tspan></text>
		<text transform="matrix(1 0 0 1 549.459 496.9043)"><tspan x="0" y="0" font-family="'StoneSerifITC-Medium'" font-size="21">2</tspan><tspan x="12.223" y="0" font-family="'StoneSerifITC-Medium'" font-size="21" letter-spacing="-1">0</tspan><tspan x="22.932" y="0" font-family="'StoneSerifITC-Medium'" font-size="21" letter-spacing="-2">1</tspan><tspan x="32.971" y="0" font-family="'StoneSerifITC-Medium'" font-size="21">4-</tspan><tspan x="52.018" y="0" font-family="'StoneSerifITC-Medium'" font-size="21" letter-spacing="-1">1</tspan><tspan x="62.537" y="0" font-family="'StoneSerifITC-Medium'" font-size="21">5</tspan></text>
		<text transform="matrix(1 0 0 1 441.6602 496.9043)"><tspan x="0" y="0" font-family="'StoneSerifITC-Medium'" font-size="21">2</tspan><tspan x="12.221" y="0" font-family="'StoneSerifITC-Medium'" font-size="21" letter-spacing="-1">0</tspan><tspan x="22.932" y="0" font-family="'StoneSerifITC-Medium'" font-size="21" letter-spacing="-1">1</tspan><tspan x="33.451" y="0" font-family="'StoneSerifITC-Medium'" font-size="21">3-</tspan><tspan x="52.498" y="0" font-family="'StoneSerifITC-Medium'" font-size="21" letter-spacing="-2">1</tspan><tspan x="62.537" y="0" font-family="'StoneSerifITC-Medium'" font-size="21">4</tspan></text>
		<text transform="matrix(1 0 0 1 333.3027 496.9043)"><tspan x="0" y="0" font-family="'StoneSerifITC-Medium'" font-size="21">2</tspan><tspan x="12.222" y="0" font-family="'StoneSerifITC-Medium'" font-size="21" letter-spacing="-1">0</tspan><tspan x="22.932" y="0" font-family="'StoneSerifITC-Medium'" font-size="21">1</tspan><tspan x="34.082" y="0" font-family="'StoneSerifITC-Medium'" font-size="21">2-</tspan><tspan x="53.129" y="0" font-family="'StoneSerifITC-Medium'" font-size="21" letter-spacing="-1">1</tspan><tspan x="63.65" y="0" font-family="'StoneSerifITC-Medium'" font-size="21">3</tspan></text>
		<text transform="matrix(1 0 0 1 226.1958 496.9043)"><tspan x="0" y="0" font-family="'StoneSerifITC-Medium'" font-size="21">2</tspan><tspan x="12.222" y="0" font-family="'StoneSerifITC-Medium'" font-size="21" letter-spacing="-1">0</tspan><tspan x="22.932" y="0" font-family="'StoneSerifITC-Medium'" font-size="21" letter-spacing="-2">1</tspan><tspan x="32.066" y="0" font-family="'StoneSerifITC-Medium'" font-size="21">1-</tspan><tspan x="51.113" y="0" font-family="'StoneSerifITC-Medium'" font-size="21">1</tspan><tspan x="62.263" y="0" font-family="'StoneSerifITC-Medium'" font-size="21">2</tspan></text>
	</g>
</g>
<g>
</g>
<g>
</g>
<g>
</g>
<g>
</g>
<g>
</g>
<g>
</g>
<g>
</g>
<g>
</g>
</svg>
